<svg width="36" height="36" viewBox="0 0 36 36" fill="none" xmlns="http://www.w3.org/2000/svg">
<path d="M28.5601 0H7.36809C3.30532 0 0 3.30532 0 7.36809V28.5601C0 32.6229 3.30532 35.9282 7.36809 35.9282H28.5601C32.6229 35.9282 35.9282 32.6229 35.9282 28.5601V7.36809C35.9282 3.30532 32.6229 0 28.5601 0ZM11.0626 27.684C10.738 28.2462 10.1471 28.5607 9.54034 28.5608C9.24288 28.5608 8.9417 28.4852 8.66614 28.3262C7.82842 27.8425 7.54036 26.7675 8.02399 25.9298L8.36903 25.3322H12.4204L11.0626 27.684ZM7.75404 23.9287C6.78671 23.9287 5.99973 23.1418 5.99973 22.1744C5.99973 21.2071 6.78671 20.4201 7.75404 20.4201H11.205L15.9384 12.2216L14.6555 9.99969C14.1719 9.16197 14.4599 8.08693 15.2976 7.60324H15.2977C16.1354 7.11961 17.2105 7.40774 17.6941 8.24538L17.9641 8.71308L18.2341 8.24545C18.718 7.40767 19.793 7.11968 20.6305 7.60331C21.0363 7.83761 21.3266 8.21591 21.4479 8.66852C21.5692 9.12113 21.5069 9.59395 21.2726 9.99976L15.2564 20.4201H19.0512L21.0769 23.9287H7.75404ZM28.1742 23.9287H26.7489L27.9041 25.9297C28.3878 26.7674 28.0998 27.8424 27.2621 28.3261C26.9918 28.4822 26.6917 28.5619 26.3877 28.5619C26.2353 28.5619 26.0821 28.5419 25.9308 28.5014C25.4781 28.3801 25.0999 28.0898 24.8655 27.6839L18.7743 17.1336L20.8 13.625L24.7232 20.4201H28.1742C29.1415 20.4201 29.9285 21.2071 29.9285 22.1744C29.9285 23.1418 29.1415 23.9287 28.1742 23.9287Z" fill="white"/>
</svg>
