<svg width="634" height="555" viewBox="0 0 634 555" fill="none" xmlns="http://www.w3.org/2000/svg">
<path opacity="0.3" d="M316.547 554.063C491.371 554.063 633.094 544.219 633.094 532.076C633.094 519.933 491.371 510.09 316.547 510.09C141.723 510.09 0 519.933 0 532.076C0 544.219 141.723 554.063 316.547 554.063Z" fill="#BFBFBF"/>
<path d="M271.569 105.465C266.665 100.558 246.015 96.8782 242.903 99.4259C239.697 101.879 233.662 121.129 233.662 133.585C233.662 134.812 233.568 136.51 233.474 138.586C237.717 141.7 243.092 142.455 248.561 141.511C249.127 127.829 249.787 118.298 250.73 117.355C254.313 113.769 261.668 111.316 261.668 111.316C261.668 111.316 267.042 115.939 268.551 117.355C269.966 118.77 270.249 111.599 265.345 109.051C260.442 106.503 251.201 109.523 253.841 106.881C256.576 104.144 266.76 107.069 268.834 109.051C270.909 111.127 273.643 124.054 275.812 124.054C277.981 123.96 276.566 110.372 271.569 105.465Z" fill="#FD9B9B"/>
<path d="M235.454 112.731C240.357 107.824 261.008 104.144 264.119 106.692C267.325 109.145 273.36 128.395 273.36 140.851C273.36 142.078 273.455 148.589 273.549 150.665C269.306 153.779 263.931 149.721 258.462 148.683C257.896 135.001 257.236 125.47 256.293 124.526C252.71 120.941 245.355 118.487 245.355 118.487C245.355 118.487 239.98 123.111 238.471 124.526C237.057 125.942 236.774 118.77 241.677 116.223C246.581 113.675 255.821 116.694 253.181 114.052C250.447 111.316 240.263 114.241 238.188 116.223C236.114 118.298 233.379 131.226 231.211 131.226C229.042 131.226 230.456 117.732 235.454 112.731Z" fill="#FD8481"/>
<path d="M402.45 525.66H245.26C245.26 520.942 249.032 517.167 253.747 517.167H393.869C398.584 517.167 402.45 520.942 402.45 525.66Z" fill="#211106"/>
<path d="M467.984 273.618C467.984 273.618 367.655 274.845 335.406 298.058C303.157 321.271 230.739 499.616 215.275 506.315C199.81 513.015 167.279 500.748 162.47 500.748C157.661 500.748 223.761 532.925 223.761 532.925C223.761 532.925 342.29 383.362 347.004 363.923C351.813 344.484 438.847 324.291 438.847 324.291L472.322 273.618H467.984V273.618Z" fill="#011C2D"/>
<path d="M324.656 268.712H313.718V517.167H324.656V268.712Z" fill="#011C2D"/>
<path d="M430.549 258.426H204.242C189.344 257.388 179.631 255.595 175.577 254.463L179.726 266.919C180.197 267.013 180.574 267.013 181.046 267.108C188.589 268.146 199.339 269.089 213.012 269.844C240.923 271.448 277.981 272.392 317.396 272.392C356.811 272.392 393.869 271.543 421.78 269.844C435.453 269.089 446.202 268.146 453.746 267.108C453.84 267.108 453.84 267.108 453.934 267.108C454.783 263.333 455.443 258.238 456.198 254.463C451.011 255.312 441.865 257.577 430.549 258.426Z" fill="#011C2D"/>
<path d="M315.887 263.05C393.378 263.05 456.198 259.205 456.198 254.463C456.198 249.72 393.378 245.876 315.887 245.876C238.396 245.876 175.577 249.72 175.577 254.463C175.577 259.205 238.396 263.05 315.887 263.05Z" fill="#42210B"/>
<path d="M315.887 263.05C393.378 263.05 456.198 259.205 456.198 254.463C456.198 249.72 393.378 245.876 315.887 245.876C238.396 245.876 175.577 249.72 175.577 254.463C175.577 259.205 238.396 263.05 315.887 263.05Z" fill="#BFBFBF"/>
<path d="M135.03 535.756L124.092 535.002C129.278 465.929 124.94 420.257 117.397 346.183L128.241 345.051C137.576 435.261 139.556 472.345 135.03 535.756Z" fill="#011C2D"/>
<path d="M165.959 538.399L176.897 537.644C171.71 468.571 176.048 422.899 183.592 348.825L172.748 347.693C163.413 437.903 161.432 474.987 165.959 538.399Z" fill="#011C2D"/>
<path d="M393.963 121.979C395.283 117.166 408.956 114.146 408.956 114.146L410.842 102.54C410.842 102.54 384.345 103.484 381.516 109.523C379.536 113.675 378.216 127.168 377.556 135.378C382.93 136.227 388.022 137.36 392.926 139.719C393.209 130.282 393.68 123.3 393.963 121.979Z" fill="#FD8481"/>
<path d="M428.098 105.843C405.938 118.487 410.182 198.223 404.807 196.902C400.941 195.958 394.717 155.571 395.377 131.32C390.38 128.961 382.931 127.829 377.556 126.98C377.273 130.754 372.558 187.183 372.558 207.376C372.558 224.173 374.821 249.651 394.152 248.99C401.129 248.707 428.946 216.718 428.946 216.718L475.999 117.355C476.094 117.355 439.979 99.1429 428.098 105.843Z" fill="url(#paint0_linear)"/>
<path d="M268.74 331.557C268.74 331.557 290.239 357.884 299.385 379.398C308.438 400.913 336.255 481.309 341.912 490.934C347.664 500.465 366.052 510.279 370.578 514.902C375.104 519.432 346.156 541.701 339.461 519.715C332.766 497.728 268.645 411.104 265.817 395.723C262.988 380.436 252.898 353.166 252.898 353.166L268.74 331.557Z" fill="#011F32"/>
<path d="M370.578 514.808C366.052 510.279 347.664 500.465 341.912 490.84C339.744 487.254 331.54 464.324 325.317 447.433C318.716 450.359 306.363 454.322 300.14 458.002C314.567 480.271 336.726 510.184 339.555 519.526C344.553 535.945 361.526 533.492 369.824 531.133C372.747 530.283 374.633 527.547 374.35 524.527C373.973 521.413 373.03 517.261 370.578 514.808Z" fill="#B80543"/>
<path d="M374.255 524.622C373.973 521.319 373.03 517.262 370.578 514.808C370.389 514.619 370.201 514.431 370.012 514.242C371.804 516.695 372.558 520.187 372.841 523.112C373.124 526.132 371.238 528.868 368.315 529.717C361.903 531.51 350.305 533.397 343.138 526.603C350.21 535.19 362.94 533.209 369.824 531.322C372.652 530.378 374.538 527.641 374.255 524.622Z" fill="#022D48"/>
<path d="M283.073 298.058C283.073 298.058 302.686 311.929 305.515 328.726C308.343 345.522 334.18 494.426 332.294 504.617C330.408 514.902 332.294 516.129 335.123 523.206C337.952 530.189 314.378 521.602 314.378 510.562C314.378 499.521 295.897 473.194 299.197 469.892C302.497 466.589 309.098 459.795 309.098 455.549C309.098 451.208 267.891 350.901 274.68 339.483C281.47 328.065 261.385 319.195 261.385 319.195L283.073 298.058Z" fill="#022D48"/>
<path d="M309.287 455.454C309.287 459.795 302.686 466.495 299.386 469.797C296.085 473.1 313.718 503.956 313.718 514.902C313.718 525.943 338.046 530.095 335.218 523.018C332.389 516.035 330.409 514.714 332.389 504.428C333.426 498.955 334.746 451.963 327.674 408.651C319.282 408.745 302.686 411.481 294.671 414.218C302.309 435.733 309.287 453.661 309.287 455.454Z" fill="url(#paint1_linear)"/>
<path d="M303.912 473.1C304.006 473.289 314.473 513.581 316.453 517.639C318.527 521.885 325.882 524.81 330.691 524.999C333.049 525.188 335.689 524.244 335.406 524.339C335.595 524.244 339.178 526.415 333.332 527.924C329.088 528.868 321.545 527.358 316.453 523.584C312.115 520.375 311.738 517.356 311.455 514.147C310.512 503.485 296.085 470.458 296.18 470.741C294.671 466.589 301.083 464.419 302.403 468.665C302.497 468.948 304.006 473.289 303.912 473.1Z" fill="#022D48"/>
<path d="M80.2446 157.27L95.1432 345.428L113.814 331.557V159.252L80.2446 157.27ZM87.411 164.253L94.1059 164.63L102.498 331.651L100.612 333.067L87.411 164.253ZM107.213 328.254L106.27 328.915L101.65 165.102L107.213 165.385V328.254Z" fill="#011C2D"/>
<path d="M209.428 354.015H91.843L90.9944 347.787H210.183L209.428 354.015Z" fill="#011C2D"/>
<path d="M113.719 324.291C113.719 324.291 198.396 326.556 205.091 331.557C211.786 336.652 221.875 347.787 209.428 347.787C196.982 347.787 90.9944 347.787 90.9944 347.787C90.9944 347.787 101.744 323.913 113.719 324.291Z" fill="#BFBFBF"/>
<path d="M109.193 541.041L98.255 540.286C103.441 471.213 99.1036 425.541 91.5601 351.467L102.404 350.335C111.739 440.545 113.625 477.724 109.193 541.041Z" fill="#011C2D"/>
<path d="M191.795 543.683L202.734 542.928C197.547 473.855 201.885 428.089 209.428 354.015L198.49 352.977C189.249 443.187 187.363 480.366 191.795 543.683Z" fill="#011C2D"/>
<path d="M510.888 535.756L521.827 535.002C516.64 465.929 520.978 420.257 528.522 346.183L517.678 345.051C508.342 435.261 506.362 472.345 510.888 535.756Z" fill="#011C2D"/>
<path d="M479.96 538.399L469.022 537.644C474.208 468.571 469.87 422.899 462.327 348.825L473.171 347.693C482.506 437.903 484.392 474.987 479.96 538.399Z" fill="#011C2D"/>
<path d="M532.105 159.252V331.557L550.775 345.428L565.579 157.364L532.105 159.252ZM538.705 328.254V165.385L544.269 165.102L539.648 328.915L538.705 328.254ZM545.212 333.067L543.326 331.651L551.718 164.63L558.413 164.253L545.212 333.067Z" fill="#011C2D"/>
<path d="M436.49 354.015H554.075L554.924 347.787H435.736L436.49 354.015Z" fill="#011C2D"/>
<path d="M532.105 324.291C532.105 324.291 447.428 326.556 440.733 331.557C434.038 336.652 423.949 347.787 436.396 347.787C448.842 347.787 554.83 347.787 554.83 347.787C554.83 347.787 544.08 323.913 532.105 324.291Z" fill="#BFBFBF"/>
<path d="M536.725 541.041L547.663 540.286C542.477 471.213 546.815 425.541 554.358 351.467L543.514 350.335C534.179 440.545 532.199 477.724 536.725 541.041Z" fill="#011C2D"/>
<path d="M454.123 543.683L443.185 542.928C448.371 473.855 444.034 428.089 436.49 354.015L447.428 352.977C456.669 443.187 458.555 480.366 454.123 543.683Z" fill="#011C2D"/>
<path d="M535.782 280.318C529.182 255.595 514.943 241.913 514.943 241.913L474.114 253.425C474.114 255.218 468.173 273.713 466.004 280.507C451.86 281.545 368.315 287.962 342.101 296.077C319.282 303.154 428.569 489.425 428.569 506.316C428.569 523.206 406.221 540.758 416.877 540.758C427.532 540.758 461.007 505.844 461.007 500.748C461.007 495.747 443.656 498.578 443.656 485.65C443.656 472.723 404.807 331.557 404.807 331.557C404.807 331.557 476.942 339.861 513.529 338.162C524.09 337.69 532.859 329.953 534.745 319.573C536.914 307.683 538.705 291.453 535.782 280.318Z" fill="#022D48"/>
<path d="M449.125 96.9726C456.575 97.1613 472.982 98.2936 480.243 103.955C492.501 113.486 491.935 116.411 501.176 139.247C515.886 175.671 538.705 239.837 538.705 268.051C538.705 296.265 508.625 283.432 508.625 283.432C508.625 283.432 465.156 272.675 465.156 268.617C465.156 264.654 455.915 259.181 455.915 231.722C455.915 204.262 425.08 127.923 428.192 112.637C431.398 97.35 440.262 96.7838 449.125 96.9726Z" fill="url(#paint2_linear)"/>
<path opacity="0.47" d="M501.271 139.247C496.839 128.206 494.67 121.79 492.218 117.072L447.334 189.73C452.143 206.621 455.915 222.191 455.915 231.816C455.915 238.516 456.481 243.8 457.329 248.235C481.846 229.363 496.273 177.652 503.251 144.154C502.496 142.455 501.836 140.851 501.271 139.247Z" fill="#022D48"/>
<path d="M418.951 102.54C416.688 93.2924 406.41 91.1221 402.261 91.1221C398.112 91.1221 376.99 91.4995 374.727 93.7642C368.221 100.275 398.112 95.274 398.112 97.0669C398.112 98.7654 377.933 95.274 374.538 98.671C371.144 102.068 394.246 101.691 394.246 101.691C394.246 101.691 376.518 103.955 381.61 105.465C386.702 107.069 403.015 101.596 403.015 113.58C403.015 118.015 403.015 128.773 403.015 142.266C411.03 139.53 413.199 137.171 421.78 136.982C420.271 121.129 419.8 106.126 418.951 102.54Z" fill="#FD9B9B"/>
<path d="M463.835 19.2182C463.552 10.5369 477.225 4.40335 484.486 15.0663L482.6 16.7648C476.471 8.55529 466.004 11.7636 463.835 19.2182Z" fill="#5C2C55"/>
<path d="M460.064 109.523L462.044 81.4972L458.743 66.3049L439.885 79.2325L434.133 104.333L431.869 114.241C431.775 114.147 425.363 152.552 460.064 109.523Z" fill="#FD9B9B"/>
<path d="M463.553 65.6443L439.79 79.1381L434.038 104.238C443.374 103.2 455.443 96.2176 461.384 83.0069C461.572 82.5351 461.855 81.9689 462.044 81.4971L463.553 65.6443Z" fill="#FD8481"/>
<path d="M434.321 17.6141C434.321 17.6141 418.291 26.0123 419.328 39.6948C420.271 53.3773 416.217 87.9138 423.194 93.8587C430.172 99.8035 452.143 94.1417 460.912 76.496C469.587 58.8503 465.533 24.3138 462.138 21.4829C458.744 18.652 439.979 11.0087 434.321 17.6141Z" fill="#FD9B9B"/>
<path d="M446.674 21.5772L446.768 22.8039C446.768 22.8039 443.939 39.9778 428.758 44.0354C413.482 48.093 411.03 40.3553 411.03 40.3553C411.03 40.3553 395.472 48.4704 393.02 32.6176C390.568 16.7648 404.053 11.9523 404.053 11.9523C404.053 11.9523 400.187 23.2757 406.033 21.4829C411.879 19.69 405.75 10.9143 411.973 8.27217C418.102 5.72439 424.232 8.55526 424.232 8.55526C424.232 8.55526 434.038 6.85674 440.733 2.42172C447.428 -2.0133 461.572 -0.0316952 463.458 5.72439C465.344 11.4805 466.098 15.4437 466.098 15.4437C465.91 14.3113 470.342 15.3493 470.53 15.4437C484.769 21.6716 476.094 43.658 470.436 58.1897C468.739 62.436 466.947 66.6823 464.778 70.8343C463.741 72.8159 462.232 74.8918 460.912 76.496C460.912 76.496 467.136 56.1138 464.213 49.8859C461.289 43.5636 458.838 50.8295 457.14 44.2241C455.349 37.6188 460.629 36.2977 460.252 30.8247C459.781 25.2573 446.674 21.5772 446.674 21.5772Z" fill="#1D2A58"/>
<path d="M458.083 50.9239C458.083 50.9239 463.27 40.3553 467.136 43.5636C471.002 46.7719 466.004 67.626 462.232 65.9274C458.461 64.3233 458.083 50.9239 458.083 50.9239Z" fill="#FD9B9B"/>
<path d="M421.78 75.9298C421.78 75.9298 428.664 79.7987 437.622 77.1565C437.622 77.1565 433.001 83.29 429.229 83.6675C425.458 84.0449 421.78 75.9298 421.78 75.9298Z" fill="white"/>
<path d="M460.346 51.7731C460.346 51.7731 464.401 45.3565 465.721 48.5648C467.136 51.6788 463.081 64.9838 461.101 63.3797C459.215 61.6812 460.346 51.7731 460.346 51.7731Z" fill="#FD7572"/>
<path d="M426.023 60.3601C424.42 64.1346 424.42 65.3613 424.137 68.7584C424.609 68.7584 425.363 68.9471 429.135 68.8527C427.815 68.4753 426.401 68.1922 425.08 67.9091C425.363 65.3613 428.947 54.604 430.455 53.3773C428.569 54.4153 426.778 58.4729 426.023 60.3601Z" fill="#653870"/>
<path d="M442.053 53.0942C442.148 54.9815 441.205 56.5856 439.885 56.68C438.564 56.7743 437.433 55.3589 437.244 53.566C437.15 51.6788 438.093 50.0746 439.413 49.9803C440.733 49.7915 441.959 51.207 442.053 53.0942Z" fill="#653870"/>
<path d="M424.986 54.6039C425.08 56.4912 424.137 58.0953 422.817 58.1897C421.497 58.284 420.365 56.8686 420.177 55.0757C420.083 53.1885 421.026 51.5843 422.346 51.49C423.666 51.3956 424.892 52.7167 424.986 54.6039Z" fill="#653870"/>
<path d="M437.622 43.3748C437.622 43.3748 443.751 41.582 447.145 44.5072C450.54 47.4324 449.503 49.5084 448.654 49.6027C447.805 49.6971 447.145 44.2241 444.034 44.7903C435.359 46.4888 435.076 43.8466 437.622 43.3748Z" fill="#653870"/>
<path d="M459.309 108.957C455.726 115.468 429.795 160.761 431.304 183.314C432.624 199.356 431.304 190.674 431.304 190.674C431.304 190.674 430.078 177.747 429.041 161.799C428.381 153.307 427.532 143.965 426.778 135.284C418.291 135.472 407.73 139.152 399.715 141.889C399.715 164.63 403.015 195.204 403.015 215.303C403.015 247.197 406.221 269.561 430.455 256.162C454.689 242.762 501.365 139.341 501.365 139.341C502.968 98.8599 465.438 97.7275 459.309 108.957Z" fill="#027CCD"/>
<path d="M399.715 141.795C401.507 162.743 404.052 183.503 404.901 204.64C405.844 228.796 401.884 259.275 418.951 260.03C403.204 262.201 401.507 236.44 400.941 220.493C400.375 190.674 399.809 193.882 399.243 173.406C398.961 162.837 398.772 152.363 399.715 141.795Z" fill="#0789E5"/>
<path d="M429.041 161.705C430.078 177.652 431.304 190.58 431.304 190.58C431.304 190.58 430.361 177.747 429.041 161.705Z" fill="#FC7575"/>
<path d="M127.392 225.777H125.223L122.394 226.249C122.394 226.249 96.0863 297.115 99.858 322.026C103.724 346.938 207.543 336.841 222.158 336.841C236.68 336.841 248.184 389.023 248.184 389.023C248.184 389.023 287.127 310.986 302.592 300.512C302.592 300.512 278.829 281.828 239.603 281.828C200.376 281.828 161.15 297.115 161.15 282.772C161.15 268.429 163.507 239.742 163.507 239.742L127.392 225.777Z" fill="url(#paint3_linear)"/>
<path d="M248.184 94.6135L217.349 128.867C217.349 128.867 204.431 119.997 204.431 111.787C204.431 103.578 233.851 69.985 233.851 69.985L248.184 94.6135Z" fill="#FD9B9B"/>
<path d="M233.851 69.985C233.851 69.985 229.136 75.2693 223.573 82.2521C227.25 90.839 232.625 101.502 238.754 105.182L248.278 94.6135L233.851 69.985Z" fill="#FD8481"/>
<path d="M204.431 81.2141C204.431 81.2141 195.567 78.3833 189.344 78.3833C183.12 78.3833 182.932 86.9702 182.932 86.9702C182.932 86.9702 158.321 67.1542 151.154 74.3257C143.988 81.4972 151.154 91.594 151.154 91.594C151.154 91.594 127.486 98.5768 127.486 112.448C127.486 126.319 149.268 128.961 149.268 128.961C149.268 128.961 149.268 149.532 163.601 144.531C177.934 139.53 182.743 116.506 187.741 114.147C192.738 111.787 191.324 126.791 202.073 124.715C212.823 122.545 224.138 110.183 221.875 97.9162C219.612 85.4604 204.431 81.2141 204.431 81.2141Z" fill="#1D2A58"/>
<path d="M256.859 140.757C255.538 159.44 242.903 208.131 241.394 209.547L217.16 120.846C217.16 120.846 191.041 114.052 196.981 145.852C198.867 156.043 235.265 247.291 241.394 247.291C259.31 247.291 274.209 185.107 275.906 146.23C270.437 147.268 261.196 143.871 256.859 140.757Z" fill="#EBA708"/>
<path d="M218.009 119.053C218.009 119.053 229.702 165.008 226.213 181.71C222.724 198.506 172.088 227.192 164.921 247.291L122.395 226.249C122.395 226.249 170.956 116.317 187.646 114.052C204.431 111.693 218.009 119.053 218.009 119.053Z" fill="#EBA708"/>
<path d="M231.588 133.774C230.267 152.458 225.176 205.489 223.761 206.905L199.527 113.769C199.527 113.769 165.77 106.975 171.71 138.775C173.596 148.966 214.049 241.158 218.292 245.499C222.63 249.839 228.476 254.463 238.094 253.142C245.166 252.198 248.844 178.03 250.541 139.247C245.166 140.285 235.925 136.888 231.588 133.774Z" fill="#FACF6B"/>
<path d="M223.761 206.904C214.615 183.031 203.205 139.53 199.528 113.769C208.957 138.303 220.178 181.898 223.761 206.904Z" fill="#FDEFCE"/>
<path d="M238.188 253.142C244.412 250.689 243.94 187.372 250.635 139.247C252.898 184.824 245.826 252.481 238.188 253.142Z" fill="#FDEFCE"/>
<path d="M218.481 138.303C218.481 138.303 217.349 143.776 213.012 141.889C208.674 140.002 214.049 117.355 214.049 117.355L222.913 122.733C222.913 122.639 217.443 131.132 218.481 138.303Z" fill="#FD9B9B"/>
<path d="M228.853 37.1469C228.853 37.1469 249.409 33.4668 260.065 44.1297C270.72 54.7927 266.477 65.5499 270.437 67.909C274.398 70.2681 280.998 68.8526 280.998 68.8526C280.998 68.8526 280.244 73.5707 278.735 75.0805C278.735 75.0805 282.13 93.0093 278.075 97.0669C274.02 101.124 252.238 99.3316 242.809 99.3316C233.379 99.3316 225.459 81.969 221.121 72.7215C216.878 63.474 228.853 37.1469 228.853 37.1469Z" fill="#FD9B9B"/>
<path d="M257.802 42.1481C257.802 42.1481 243.752 69.5131 233.662 75.1749C223.478 80.8366 221.97 93.1037 220.367 93.1037C218.764 93.1037 199.716 96.5007 197.076 80.931C194.436 65.3612 197.925 52.0562 205.657 44.3185C213.389 36.5808 246.581 26.8615 257.802 42.1481Z" fill="#1D2A58"/>
<path d="M257.802 78.0058C262.384 78.0058 266.1 76.8229 266.1 75.3637C266.1 73.9045 262.384 72.7216 257.802 72.7216C253.219 72.7216 249.504 73.9045 249.504 75.3637C249.504 76.8229 253.219 78.0058 257.802 78.0058Z" fill="#FD8481"/>
<path d="M258.745 68.1922C258.745 68.1922 271.474 68.9471 273.926 66.4937L258.745 68.1922Z" fill="#1D2A58"/>
<path d="M264.874 61.3036C264.874 61.3036 262.328 58.9446 257.802 58.9446C253.275 58.9446 251.955 63.757 251.955 63.757C251.955 63.757 255.916 60.1713 258.839 60.1713C261.762 60.1713 264.874 62.8134 264.874 61.3036Z" fill="#1D2A58"/>
<defs>
<linearGradient id="paint0_linear" x1="474.142" y1="127.02" x2="364.819" y2="138.528" gradientUnits="userSpaceOnUse">
<stop stop-color="#00548A"/>
<stop offset="1" stop-color="#0772C0"/>
</linearGradient>
<linearGradient id="paint1_linear" x1="335.323" y1="429.008" x2="291.281" y2="431.097" gradientUnits="userSpaceOnUse">
<stop stop-color="#DF055A"/>
<stop offset="1" stop-color="#ED094A"/>
</linearGradient>
<linearGradient id="paint2_linear" x1="536.717" y1="126.618" x2="419.26" y2="136.726" gradientUnits="userSpaceOnUse">
<stop stop-color="#0075BF"/>
<stop offset="1" stop-color="#098DED"/>
</linearGradient>
<linearGradient id="paint3_linear" x1="301.979" y1="253.973" x2="88.3262" y2="290.42" gradientUnits="userSpaceOnUse">
<stop stop-color="#DF055A"/>
<stop offset="1" stop-color="#ED094A"/>
</linearGradient>
</defs>
</svg>
