<svg width="506" height="379" viewBox="0 0 2946 1879" fill="none" xmlns="http://www.w3.org/2000/svg">
<rect width="2946" height="1879" fill="white"/>
<path d="M2045.25 1329H916.772L775 1397H2180L2045.25 1329Z" fill="#022D48"/>
<path d="M2201.61 1414H766.318L586 1512H2373L2201.61 1414Z" fill="#022D48"/>
<path d="M2398.75 1532H562.669L332 1677H2618L2398.75 1532Z" fill="#022D48"/>
<path d="M2663.45 1691H297.267L0 1879H2946L2663.45 1691Z" fill="#022D48"/>
<path d="M1310.16 950.203C1311.03 946.374 1311.77 942.544 1312.64 938.348C1321.41 895.49 1361.18 729.341 1361.18 729.341L1304.75 713.656C1304.75 713.656 1283.11 866.125 1285.16 894.761C1285.6 900.961 1285.45 912.45 1285.16 926.859C1295.83 928.865 1304.16 938.348 1310.16 950.203Z" fill="#011C2D"/>
<path d="M1199.74 1126.25H1757.66L1687.52 1079.32H1271.16L1199.74 1126.25Z" fill="#022D48"/>
<path d="M1914.38 1220.1L1790.55 1149.71H1165.85L1039.88 1220.1H1914.38Z" fill="#022D48"/>
<path d="M1655.8 1055.86L1575.66 1009.01L1382.85 1008.93L1303.17 1055.86H1655.8Z" fill="#022D48"/>
<path d="M1928.24 1235.69H1033.68L921.299 1312H2035.06L1928.24 1235.69Z" fill="#022D48"/>
<path d="M1285.16 926.858C1277.85 954.399 1268.93 995.434 1268.93 995.434C1267.62 1025.16 1278.73 1072.58 1280.34 1075.68C1285.16 1085.89 1299.34 1084.25 1306.21 1075.68C1313.08 1067.11 1301.24 1040.85 1298.9 1021.7C1296.86 1004.55 1306.21 977.377 1313.81 942.178C1307.82 930.323 1295.83 928.865 1285.16 926.858Z" fill="#011F32"/>
<path d="M1269.37 993.429C1269.08 994.705 1268.93 995.435 1268.93 995.435C1267.62 1025.16 1278.73 1072.58 1280.34 1075.68C1285.16 1085.89 1299.34 1084.25 1306.21 1075.68C1306.94 1074.77 1307.38 1073.68 1307.82 1072.4C1306.5 1044.31 1285.31 1003.82 1285.31 1003.82C1274.49 983.762 1269.37 993.429 1269.37 993.429Z" fill="#B80543"/>
<path d="M1304.75 713.656C1304.75 713.656 1303.43 723.504 1301.39 738.46C1309.43 734.083 1313.37 737.547 1328.28 749.768C1337.64 757.427 1346.56 759.615 1354.01 759.615C1358.4 741.378 1361.18 729.341 1361.18 729.341L1304.75 713.656Z" fill="#011F32"/>
<path d="M1642.72 1061.82C1642.72 1061.82 1662.16 1072.58 1667.13 1078.42C1672.25 1084.07 1677.37 1107.96 1677.37 1111.43C1677.37 1114.89 1654.56 1120.36 1654.56 1120.36L1642.72 1061.82Z" fill="#011C2D"/>
<path d="M1630.44 1051.06C1630.44 1051.06 1617.43 1128.02 1622.4 1133.68C1622.4 1133.68 1655.88 1129.12 1655.88 1115.26C1655.88 1101.4 1652.37 1051.06 1652.37 1051.06H1630.44Z" fill="#011C2D"/>
<path d="M1622.4 1133.68C1622.4 1133.68 1621.23 1120.36 1654.13 1117.99C1658.95 1117.63 1677.37 1111.43 1677.37 1111.43C1677.37 1111.43 1683.8 1130.76 1622.4 1133.68Z" fill="#6C5E54"/>
<path d="M1701.19 589.819C1701.19 589.819 1694.32 834.209 1689.35 863.208C1684.38 892.207 1655.29 1045.22 1659.97 1050.33C1664.5 1055.44 1625.62 1055.44 1624.45 1054.16C1623.28 1052.88 1631.76 1027.72 1628.25 1020.42C1624.74 1013.12 1629.42 1007.65 1629.42 1000.36C1629.42 993.063 1625.62 993.063 1627.52 981.208C1629.42 969.171 1622.11 902.967 1630.59 882.54C1639.07 862.113 1640.53 858.648 1640.53 858.648L1622.55 649.64L1634.39 583.435L1701.19 589.819Z" fill="#A6A6A6"/>
<path d="M1566.71 1131.49C1566.71 1131.49 1561.88 1177.81 1566.71 1183.65C1571.53 1189.49 1600.91 1178.18 1600.91 1178.18C1600.91 1178.18 1593.31 1126.75 1593.31 1115.26C1593.31 1103.77 1566.71 1131.49 1566.71 1131.49Z" fill="#011C2D"/>
<path d="M1554.72 588.177C1554.72 588.177 1569.19 722.594 1554.72 757.063C1540.25 791.533 1552.82 1037.75 1557.94 1080.42C1563.05 1123.1 1555.3 1133.68 1555.3 1133.68C1555.3 1133.68 1590.54 1120.36 1601.64 1120.36C1601.64 1120.36 1606.62 1102.13 1601.64 1092.28C1596.67 1082.25 1608.08 1073.13 1601.64 1055.98C1595.21 1038.66 1598.58 1014.58 1601.64 999.263C1604.71 983.762 1606.62 827.643 1609.25 797.552C1611.88 767.641 1634.1 604.044 1634.1 604.044L1554.72 588.177Z" fill="#BFBFBF"/>
<path d="M1641.84 634.685H1616.12C1583.37 634.685 1556.77 601.492 1556.77 560.639V522.52H1701.19V560.639C1701.19 601.492 1674.59 634.685 1641.84 634.685Z" fill="#037ED1"/>
<path d="M1564.08 194.053C1564.08 194.053 1544.34 197.701 1532.5 217.944C1520.66 238.19 1499.61 447.015 1483.97 466.53C1468.33 486.044 1451.95 536.565 1451.95 536.565C1451.95 536.565 1455.32 573.587 1474.76 568.298C1494.2 562.827 1557.35 477.29 1564.08 449.021C1570.8 420.569 1564.08 194.053 1564.08 194.053Z" fill="#436191"/>
<path d="M1700.32 182.928C1700.32 182.928 1737.16 185.664 1745.2 237.46C1753.24 289.256 1778.67 435.525 1774.87 454.31C1771.07 473.096 1739.2 560.091 1712.3 560.091C1685.26 560.091 1700.32 182.928 1700.32 182.928Z" fill="#436191"/>
<path d="M1282.68 1014.58L1285.16 1117.63H1264.55L1256.36 1017.5L1282.68 1014.58Z" fill="#241145"/>
<path d="M1226.39 704.355C1226.39 704.355 1252.56 787.521 1248.03 825.821C1243.5 863.938 1245.69 977.561 1254.46 1032.82L1286.18 1027.17C1286.18 1027.17 1292.03 862.113 1292.03 819.071C1292.03 776.213 1289.25 625.384 1289.25 625.384L1226.39 704.355Z" fill="#022D48"/>
<path d="M1291.59 756.516C1290.72 697.789 1289.4 625.384 1289.4 625.384L1226.54 704.354C1226.54 704.354 1237.94 740.648 1244.38 776.395C1258.41 774.936 1271.57 771.47 1280.19 765.088C1284.72 761.805 1288.38 758.885 1291.59 756.516Z" fill="#011F32"/>
<path d="M1396.84 525.803C1400.94 525.803 1343.2 324.455 1343.2 324.455L1336.03 345.246L1396.84 525.803Z" fill="#58231D"/>
<path d="M1216.16 411.997C1216.16 393.76 1231.8 358.743 1238.53 344.7L1226.54 207.366H1204.61C1204.61 207.366 1183.27 363.303 1175.38 393.942C1167.34 424.4 1213.24 523.068 1213.24 523.068L1254.46 526.532L1250.22 478.385C1235.31 456.5 1216.16 426.042 1216.16 411.997Z" fill="#022D48"/>
<path d="M1342.17 176.909C1342.17 176.909 1350.36 182.928 1353.72 189.676C1364.68 211.379 1456.63 540.212 1456.63 540.212C1456.63 540.212 1440.26 542.584 1434.27 558.633C1434.27 558.633 1414.82 528.722 1410.73 504.647C1406.64 480.392 1338.81 353.82 1338.81 353.82L1342.17 176.909Z" fill="#022D48"/>
<path d="M1342.17 176.909C1355.33 186.393 1355.33 182.198 1405.76 354.365C1420.67 407.074 1442.45 484.222 1456.63 540.212C1348.02 170.526 1358.4 190.041 1342.17 176.909Z" fill="#AC806D"/>
<path d="M1321.41 51.6138C1321.41 51.6138 1335.74 65.11 1335.89 80.0652C1336.03 95.0205 1332.82 105.051 1332.82 109.246C1332.82 113.441 1338.52 125.296 1340.27 127.119C1342.61 129.49 1336.18 135.144 1334.72 136.056C1333.84 136.603 1334.72 140.798 1335.74 141.71C1336.76 142.622 1337.78 147.546 1332.38 149.005C1332.38 149.005 1333.84 155.024 1332.96 156.3C1332.08 157.577 1330.33 157.212 1330.33 157.212C1330.33 157.212 1328.87 157.395 1328.14 159.036C1327.41 160.678 1328.43 167.425 1326.24 169.249C1319.81 174.538 1294.95 161.407 1282.82 129.673C1270.54 97.9385 1269.52 53.6199 1281.07 46.3247C1292.32 39.5766 1318.34 42.3125 1321.41 51.6138Z" fill="#FD9B9B"/>
<path d="M1311.18 42.3121L1315.42 38.8469C1315.42 38.8469 1321.85 28.2688 1333.99 35.0169C1345.97 41.765 1355.91 86.9953 1307.82 118.547C1291.15 129.49 1314.84 136.603 1314.84 136.603C1314.84 136.603 1303.43 159.218 1297.29 139.521C1291.15 119.641 1308.55 94.473 1309.87 81.1592C1311.18 67.663 1311.18 42.3121 1311.18 42.3121Z" fill="#011C2D"/>
<path d="M1248.76 163.413C1248.76 163.413 1205.93 199.707 1205.93 236C1205.93 272.294 1233.41 355.278 1227.27 422.028C1221.13 488.78 1175.23 748.307 1175.23 748.307C1175.23 748.307 1251.69 759.799 1280.05 739.735C1308.4 719.674 1304.46 716.757 1328.29 735.907C1351.97 755.055 1373.46 739.735 1373.46 739.735L1434.12 730.252C1434.12 730.252 1376.38 492.61 1361.91 396.314C1347.44 300.016 1348.9 185.481 1342.03 176.909C1335.3 168.337 1279.46 149.187 1248.76 163.413Z" fill="url(#paint0_linear)"/>
<path d="M1243.65 577.417C1240.43 576.506 1242.62 577.782 1263.23 454.857C1226.83 223.234 1225.81 231.987 1229.03 231.258C1232.24 230.347 1228.59 223.234 1266.74 454.857C1244.52 578.33 1246.86 578.33 1243.65 577.417Z" fill="#4F1900"/>
<path d="M1344.22 565.38L1318.05 454.857C1318.93 207.914 1316.59 216.668 1319.95 216.668C1323.9 218.858 1320.24 201.714 1321.56 454.494C1347.29 566.291 1349.63 565.562 1346.41 566.657C1346.12 566.839 1344.51 566.657 1344.22 565.38Z" fill="#4F1900"/>
<path d="M1343.78 425.129C1303.87 474.921 1248.03 434.796 1248.03 434.796V467.078C1297.15 490.422 1350.36 455.039 1350.36 455.039L1343.78 425.129Z" fill="#022D48"/>
<path d="M1396.41 493.705C1396.41 493.705 1443.33 600.579 1438.21 621.006C1433.1 641.433 1406.2 659.672 1406.2 659.672L1375.5 498.265L1396.41 493.705Z" fill="#BFBFBF"/>
<path d="M1208.85 207.366C1208.85 207.366 1262.36 327.009 1265.43 360.02C1268.5 393.031 1375.5 530.547 1375.5 530.547V523.615C1375.5 523.615 1278.88 394.49 1276.39 368.956C1274.05 343.423 1214.41 195.877 1214.41 195.877L1208.85 207.366Z" fill="white"/>
<path d="M1567.58 192.229C1567.58 192.229 1549.75 190.952 1536.74 222.504C1523.73 254.239 1541.56 425.311 1530.75 469.082C1519.93 512.853 1538.79 613.163 1538.79 613.163C1538.79 613.163 1694.76 625.929 1712.16 613.163C1712.16 613.163 1738.62 503.37 1725.17 467.076C1711.72 430.782 1732.77 207.001 1702.51 186.21C1672.25 165.236 1567.58 192.229 1567.58 192.229Z" fill="#037DD0"/>
<path d="M1567.58 192.229C1567.58 192.229 1549.75 190.953 1536.74 222.504C1523.73 254.239 1541.56 425.313 1530.75 469.084C1519.93 512.855 1550.63 613.529 1550.63 613.529C1550.63 613.529 1700.9 631.584 1718.3 618.818C1718.3 618.818 1738.62 503.37 1725.17 466.894C1711.72 430.6 1732.77 206.819 1702.51 186.029C1672.25 165.237 1567.58 192.229 1567.58 192.229Z" fill="#066EB9"/>
<path d="M1702.51 186.211C1672.25 165.419 1567.58 192.229 1567.58 192.229C1567.58 192.229 1557.35 191.5 1546.68 204.813C1554.72 238.919 1575.04 305.671 1610.12 296.369C1642.43 287.797 1685.26 230.347 1704.56 188.034C1703.97 187.305 1703.24 186.575 1702.51 186.211Z" fill="#436191"/>
<path d="M1542.73 174.903C1542.73 174.903 1563.2 268.465 1610.27 258.98C1657.34 249.497 1726.63 161.589 1712.89 144.446C1699 127.302 1563.78 187.123 1542.73 174.903Z" fill="#037DD0"/>
<path opacity="0.5" d="M1542.73 174.903C1542.73 174.903 1543.76 179.645 1545.95 186.94C1548 185.846 1550.48 184.934 1553.84 184.934C1574.89 184.934 1566.85 197.518 1581.62 197.518C1596.38 197.518 1591.56 171.985 1600.33 171.985C1609.25 171.985 1632.05 185.664 1638.48 169.249C1644.91 152.653 1646.67 160.677 1662.9 160.677C1679.12 160.677 1683.07 148.093 1688.19 155.388C1691.99 160.677 1706.75 158.306 1714.35 153.2C1714.94 149.37 1714.35 146.452 1712.74 144.263C1699 127.302 1563.78 187.123 1542.73 174.903Z" fill="#86648E"/>
<path d="M1614.51 38.2998C1614.51 38.2998 1605.74 41.7652 1602.08 52.8904C1598.43 63.8332 1605.01 85.1719 1600.62 90.8256C1596.24 96.2971 1589.22 100.309 1589.22 100.309L1592.29 109.428C1592.29 109.428 1595.94 145.54 1599.89 150.464C1603.84 155.388 1634.1 147.911 1641.7 143.351C1649.3 138.792 1677.51 84.6246 1671.08 60.368C1664.65 35.7466 1614.51 38.2998 1614.51 38.2998Z" fill="#FD9B9B"/>
<path d="M1674.3 131.314C1674.3 131.314 1697.25 89.1842 1697.25 66.9337C1697.25 44.6833 1668.89 4.19476 1666.84 4.19476C1664.8 4.19476 1666.84 16.9614 1666.84 16.9614C1666.84 16.9614 1656.32 0 1643.75 0C1631.17 0 1624.89 18.7852 1616.41 15.8671C1607.93 12.949 1606.18 8.75427 1606.18 8.75427C1606.18 8.75427 1603.84 17.6909 1606.18 20.7914C1608.52 23.7095 1598.87 18.9676 1597.41 14.4081C1597.41 14.4081 1596.53 26.4451 1601.06 28.269C1605.59 30.0929 1599.6 33.1932 1594.04 33.1932C1588.34 33.1932 1575.04 22.98 1575.04 22.98C1575.04 22.98 1576.21 41.7652 1586.15 44.8657C1596.09 47.9662 1623.57 43.0418 1630.74 55.4438C1637.9 67.8457 1636.29 86.2661 1636.29 86.2661C1636.29 86.2661 1637.46 82.0714 1642.43 75.8704C1646.96 70.2167 1650.76 74.2289 1652.22 83.348C1653.69 92.4671 1641.7 96.6618 1645.35 111.252C1649.01 126.025 1656.17 121.101 1659.83 128.943C1663.48 136.786 1674.3 131.314 1674.3 131.314Z" fill="#011C2D"/>
<path d="M1375.5 498.081C1375.5 498.081 1371.99 534.923 1371.99 580.152C1371.99 625.384 1382.52 653.288 1390.41 657.848C1399.47 662.953 1413.36 664.23 1413.36 641.615C1413.22 619 1375.5 498.081 1375.5 498.081Z" fill="white"/>
<path d="M1250.52 1067.66C1250.52 1067.66 1266.16 1126.93 1266.16 1142.8C1266.16 1158.66 1263.82 1170.52 1266.16 1178.18C1268.5 1185.84 1291.59 1188.03 1296.42 1182.01C1301.24 1175.99 1289.11 1131.49 1289.11 1118.54C1289.11 1105.59 1287.65 1062.73 1280.34 1053.61C1273.03 1044.49 1243.94 1030.82 1250.52 1067.66Z" fill="url(#paint1_linear)"/>
<path d="M1527.53 158.671C1532.35 155.935 1539.08 155.388 1548.43 158.671C1557.79 161.954 1557.79 160.13 1572.26 150.464C1586.59 140.798 1589.36 155.388 1597.4 155.388C1605.44 155.388 1602.37 146.999 1614.51 141.345C1626.64 135.691 1629.13 149.37 1636.87 140.798C1644.62 132.044 1643.01 119.459 1652.95 119.459C1662.89 119.459 1664.5 126.207 1672.1 126.207C1679.56 126.207 1678.24 119.459 1690.81 119.459C1703.39 119.459 1699.29 126.207 1709.67 126.207C1720.05 126.207 1737.88 115.447 1737.88 130.949C1737.88 146.452 1719.03 135.691 1719.03 143.898C1719.03 152.105 1693.3 158.124 1688.18 151.741C1683.07 145.357 1679.12 156.483 1662.89 156.483C1646.67 156.483 1644.91 149.37 1638.48 164.143C1632.05 178.915 1609.25 166.696 1600.33 166.696C1591.41 166.696 1596.38 189.494 1581.62 189.494C1566.85 189.494 1574.89 178.186 1553.84 178.186C1542.73 178.186 1540.39 185.846 1537.62 189.129C1534.98 192.412 1497.56 175.815 1527.53 158.671Z" fill="#BFBFBF"/>
<path d="M1517.59 178.186C1511.45 169.249 1521.1 159.948 1529.43 156.118C1534.84 153.747 1540.69 154.112 1546.24 155.571C1553.11 157.212 1554.72 159.036 1560.28 155.389C1564.52 152.47 1571.53 146.817 1574.6 145.357C1587.03 138.792 1592.14 152.288 1597.85 151.376C1602.23 151.011 1601.06 145.357 1608.96 140.068C1630.74 125.113 1628.98 155.389 1640.68 126.208C1643.45 119.095 1646.52 115.994 1652.66 115.629C1666.26 115.629 1668.3 127.849 1677.95 120.189C1682.78 116.359 1689.79 115.994 1695.2 117.088C1699.59 118 1701.05 119.824 1703.24 121.83C1707.92 126.39 1718.44 122.742 1725.61 121.83C1740.08 120.371 1737.3 130.22 1737.74 130.767L1737.45 128.214C1733.94 117.453 1721.66 126.755 1709.82 128.031C1700.03 128.761 1701.63 123.289 1694.47 122.378C1679.41 120.554 1681.31 129.308 1671.67 129.49C1664.94 129.855 1662.16 124.566 1656.02 123.472C1654.42 123.107 1651.35 122.925 1649.89 124.019C1646.52 125.478 1645.5 135.874 1639.07 143.351C1633.51 149.917 1629.42 147.728 1624.45 145.175C1617.87 141.892 1610.71 146.269 1606.91 152.47C1604.42 156.3 1602.67 158.854 1597.99 159.036C1588.2 159.948 1586.74 146.817 1576.36 151.559C1572.56 153.018 1562.91 160.86 1557.94 162.319C1550.63 164.507 1541.42 155.206 1530.02 158.854C1526.22 160.13 1519.35 164.143 1517.01 168.885C1515.84 171.803 1515.98 175.45 1517.59 178.186Z" fill="white"/>
<path d="M1375.5 498.081C1372.58 498.081 1413.22 621.917 1451.81 625.384L1396.41 493.705L1375.5 498.081Z" fill="#BFBFBF"/>
<path d="M1323.9 111.617C1323.9 111.617 1331.79 112.529 1336.76 104.686L1323.9 111.617Z" fill="#092C2E"/>
<path d="M1325.7 133.854C1327.27 132.112 1325.89 126.981 1322.61 122.395C1319.33 117.808 1315.41 115.502 1313.84 117.245C1312.27 118.987 1313.66 124.118 1316.93 128.704C1320.21 133.291 1324.14 135.597 1325.7 133.854Z" fill="#FD8481"/>
<path d="M1315.42 38.8472C1315.42 38.8472 1286.33 -5.6538 1259.87 38.8472C1233.41 83.348 1245.55 109.246 1230.34 119.459C1214.99 129.673 1183.56 151.558 1187.8 179.645C1192.04 207.732 1203.44 202.625 1203.44 202.625C1203.44 202.625 1191.17 185.846 1199.94 180.739C1208.71 175.45 1206.81 196.059 1206.81 196.059C1206.81 196.059 1200.37 215.209 1210.31 220.864C1220.26 226.517 1235.6 222.322 1237.8 247.125C1240.14 271.93 1261.48 272.841 1268.35 258.069C1268.35 258.069 1256.95 258.617 1256.95 248.95C1256.95 239.466 1271.27 225.969 1273.76 239.83C1276.1 253.691 1285.74 252.78 1294.81 247.491C1304.02 242.202 1307.09 296.551 1286.04 287.068C1286.04 287.068 1320.1 298.923 1317.76 256.61C1315.42 214.114 1297.15 215.391 1303.87 207.003C1310.6 198.613 1313.37 215.209 1317.9 220.864C1322.44 226.517 1333.98 212.292 1333.98 223.781C1333.98 235.27 1314.69 262.445 1328.43 268.1C1342.17 273.754 1350.21 238.008 1357.81 241.473C1365.41 244.756 1350.94 256.245 1350.94 256.245C1350.94 256.245 1367.75 247.125 1365.41 235.818C1363.07 224.329 1358.54 228.159 1348.6 228.159C1338.66 228.159 1353.13 219.04 1345.97 201.896C1338.66 184.752 1344.07 185.116 1329.16 179.463C1314.25 173.809 1318.05 138.427 1315.71 115.447C1313.52 92.4669 1323.31 48.1485 1315.42 38.8472Z" fill="#011C2D"/>
<path d="M1330.48 115.082C1331.61 115.082 1332.52 113.776 1332.52 112.164C1332.52 110.553 1331.61 109.246 1330.48 109.246C1329.35 109.246 1328.43 110.553 1328.43 112.164C1328.43 113.776 1329.35 115.082 1330.48 115.082Z" fill="#092C2E"/>
<path d="M1701.19 227.428C1672.69 447.014 1683.51 429.323 1688.92 441.725C1689.5 443.368 1693.3 448.291 1697.98 472.549C1702.95 499.358 1705.43 535.834 1698.86 564.832C1692.13 592.373 1644.48 600.579 1621.38 601.49C1640.53 598.209 1681.46 589.09 1691.99 568.481C1701.78 548.236 1695.93 476.561 1684.53 449.021C1679.7 438.442 1673.57 439.901 1676.64 393.395C1677.95 374.61 1680 356.007 1682.63 337.405C1687.45 300.381 1693.88 263.722 1701.19 227.428Z" fill="#0788E4"/>
<path d="M1615.68 110.523C1621.17 110.523 1625.62 107.91 1625.62 104.687C1625.62 101.464 1621.17 98.8505 1615.68 98.8505C1610.19 98.8505 1605.74 101.464 1605.74 104.687C1605.74 107.91 1610.19 110.523 1615.68 110.523Z" fill="#FD8481"/>
<path d="M1637.9 90.0961C1637.9 90.0961 1640.53 80.6124 1644.33 82.6185C1648.13 84.8072 1644.62 101.039 1641.11 101.039C1637.61 101.221 1636.73 93.1966 1637.9 90.0961Z" fill="#FD8481"/>
<path d="M1614.66 70.7638C1612.17 68.2105 1603.25 66.2042 1602.08 66.7515C1600.92 67.2986 1600.48 73.3172 1602.08 73.3172C1603.69 73.3172 1613.05 71.3108 1614.66 73.3172C1616.26 75.3233 1616.99 76.0528 1616.99 76.0528C1616.99 76.0528 1615.68 71.6757 1614.66 70.7638Z" fill="url(#paint2_linear)"/>
<path d="M1607.78 89.0019C1609.72 89.0019 1611.29 87.0421 1611.29 84.6248C1611.29 82.2073 1609.72 80.2477 1607.78 80.2477C1605.85 80.2477 1604.28 82.2073 1604.28 84.6248C1604.28 87.0421 1605.85 89.0019 1607.78 89.0019Z" fill="url(#paint3_linear)"/>
<path d="M1601.06 131.314C1600.91 131.314 1600.62 131.132 1600.62 130.949C1600.47 130.585 1600.62 130.22 1600.91 130.22C1601.06 130.22 1611.15 125.843 1613.19 119.459C1613.34 119.095 1613.63 118.912 1613.78 119.095C1614.07 119.277 1614.22 119.642 1614.07 119.824C1611.88 126.755 1601.64 131.132 1601.21 131.314C1601.21 131.314 1601.21 131.314 1601.06 131.314Z" fill="url(#paint4_linear)"/>
<defs>
<linearGradient id="paint0_linear" x1="1433.34" y1="260.783" x2="1154.08" y2="277.493" gradientUnits="userSpaceOnUse">
<stop stop-color="#DF055A"/>
<stop offset="1" stop-color="#ED094A"/>
</linearGradient>
<linearGradient id="paint1_linear" x1="1297.41" y1="1067.94" x2="1245.56" y2="1070.34" gradientUnits="userSpaceOnUse">
<stop stop-color="#DF055A"/>
<stop offset="1" stop-color="#ED094A"/>
</linearGradient>
<linearGradient id="paint2_linear" x1="1601.12" y1="71.2629" x2="1617.11" y2="71.2629" gradientUnits="userSpaceOnUse">
<stop stop-color="#2C0651"/>
<stop offset="1" stop-color="#401A65"/>
</linearGradient>
<linearGradient id="paint3_linear" x1="1604.32" y1="84.6864" x2="1611.21" y2="84.6864" gradientUnits="userSpaceOnUse">
<stop stop-color="#2C0651"/>
<stop offset="1" stop-color="#401A65"/>
</linearGradient>
<linearGradient id="paint4_linear" x1="1600.63" y1="125.053" x2="1614.14" y2="125.053" gradientUnits="userSpaceOnUse">
<stop stop-color="#2C0651"/>
<stop offset="1" stop-color="#401A65"/>
</linearGradient>
</defs>
</svg>
