<svg width="195" height="163" viewBox="0 0 195 163" fill="none" xmlns="http://www.w3.org/2000/svg">
<path d="M194.522 156.903C194.54 153.617 156.166 150.74 108.81 150.477C61.455 150.214 23.051 152.664 23.0329 155.95C23.0147 159.236 61.3892 162.113 108.745 162.376C156.1 162.639 194.504 160.189 194.522 156.903Z" fill="#ECECEC"/>
<path d="M61.582 51.449C65.1285 50.1281 73.8294 46.2658 79.1706 38.6561C86.9669 27.5573 87.5125 22.8336 87.5125 22.8336C87.5125 22.8336 86.8521 21.0101 86.8521 19.962C86.8521 18.9282 86.3352 17.5785 86.9813 17.5785C87.6274 17.5785 87.7135 18.8851 87.7135 19.3302C87.7135 19.4882 87.8141 19.5743 87.9289 19.6174C88.2448 19.7322 88.6037 19.5312 88.6899 19.201C88.776 18.8708 88.8622 18.2964 88.8622 17.3057C88.8622 15.2238 89.0201 13.3717 89.4222 13.7593C89.8242 14.1613 89.6375 17.7939 89.6375 18.5405C89.6375 19.2871 90.3123 15.5541 90.6569 14.0178C91.0015 12.4815 91.5615 13.2999 91.3174 14.147C91.0733 14.9941 90.3985 18.6985 90.6713 18.6985C90.9441 18.6985 91.8774 14.4916 92.5378 14.4916C93.2127 14.4916 92.5953 15.1951 92.4373 15.8556C92.2794 16.5161 91.1882 18.5262 91.6189 18.9569C91.6189 18.9569 93.4567 16.4443 93.5285 16.8319C93.5572 17.0329 92.1215 20.0338 91.3892 21.2255C89.6806 24.0396 84.1241 41.341 80.7499 44.6864C77.462 47.9457 71.4029 56.1441 70.7568 59.9059C67.0811 57.7522 63.4055 55.139 61.582 51.449Z" fill="#FD7B77"/>
<path d="M86.2922 23.5659C86.2922 23.5659 80.9941 36.2727 76.8878 38.929C72.7814 41.5708 65.6311 49.6831 60.8643 49.8697C60.8643 49.8697 68.9909 60.4946 70.7569 59.906C72.5229 59.3173 82.9038 44.1696 84.9569 42.1164C87.0101 40.0632 90.3986 25.2889 90.3986 25.2889L86.2922 23.5659Z" fill="#BFBFBF"/>
<path d="M43.4615 144.029C43.4615 144.029 40.4176 147.145 40.0874 149.198C39.7572 151.251 39.6279 154.166 39.6279 154.166H48.5586C48.5586 154.166 47.4961 150.72 47.4961 148.437C47.4961 146.14 43.4615 144.029 43.4615 144.029Z" fill="#1F0140"/>
<path d="M95.7534 146.671C95.7534 146.671 94.7627 149.643 94.7627 150.576C94.7627 151.51 94.7627 153.75 94.7627 153.75L109.652 154.08C109.652 154.08 109.853 151.625 108.331 150.907C106.809 150.174 102.444 149.313 100.98 147.332C99.5295 145.35 95.7534 146.671 95.7534 146.671Z" fill="#011C2D"/>
<path d="M77.288 85.1184L100.189 103.123L100.979 147.332H94.8909L91.7178 115.026L61.5947 92.4266L77.288 85.1184Z" fill="#066EB9"/>
<path d="M73.7146 89.2248C73.7146 89.2248 75.5668 97.4376 75.5668 99.1462C75.5668 100.869 69.68 128.063 67.8853 129.858C66.1049 131.638 48.5594 148.782 48.5594 148.782L40.8779 146.14C40.8779 146.14 57.4183 126.283 58.2224 123.368C59.0121 120.453 60.4766 95.7003 60.4766 95.7003L73.0542 89.2104H73.7146V89.2248Z" fill="#027CCD"/>
<path d="M39.6266 154.152C42.9577 154.152 46.2887 154.152 49.6198 154.152C50.151 154.152 49.4618 150.993 49.1029 150.706C48.3706 150.117 42.1536 148.538 40.201 151.826C40.0861 152.012 39.3969 154.152 39.6266 154.152Z" fill="#011C2D"/>
<path d="M47.3675 54.2775C47.3675 54.2775 44.582 60.0781 44.582 61.6719C44.582 63.2656 60.6055 93.5897 58.8826 98.4857C58.8826 98.4857 76.0978 92.5272 79.9314 86.8414C79.9314 86.8414 70.9289 51.7649 63.9079 49.9127C56.9012 48.0462 49.0904 52.5546 47.3675 54.2775Z" fill="#BFBFBF"/>
<path d="M79.9307 86.8413C77.7196 79.447 69.9232 51.8653 63.9072 49.9126C70.6555 51.6068 78.2939 79.6193 79.9307 86.8413Z" fill="#FFF7CF"/>
<path d="M49.8933 55.4693C49.8933 55.4693 52.2049 56.3308 54.6601 55.4693C57.1153 54.6078 58.2209 53.1146 58.2352 51.3629C58.2496 49.6112 56.2538 47.9888 54.0714 47.9888C51.889 47.9888 48.1847 50.243 48.1847 52.2244C48.1703 54.2058 49.8933 55.4693 49.8933 55.4693Z" fill="#753A00"/>
<path d="M59.5706 54.8232C59.5706 54.8232 60.9777 50.042 56.5554 47.7447C53.1239 45.9643 44.466 50.042 45.2557 54.3637C45.7726 57.1492 50.1661 57.3645 53.1526 57.9963C56.9144 58.786 55.895 56.3451 55.2632 55.9862C53.4972 54.9668 49.721 54.1914 49.721 52.5977C49.721 49.7835 53.8131 47.917 54.8756 48.9795C55.938 50.042 58.465 55.9288 59.5706 54.8232Z" fill="#027CCD"/>
<path d="M42.787 40.3648C41.9829 40.2069 41.0209 40.4079 40.1738 41.1976L40.4753 41.4848C41.1502 40.6376 42.026 40.3218 42.787 40.3648Z" fill="#1B2B80"/>
<path d="M41.0214 43.5523C40.9065 42.9492 40.9783 42.2457 41.2942 41.6857C41.61 41.1401 41.9546 40.9678 42.3279 40.7668C42.4715 40.7094 42.6295 40.6663 42.773 40.6089C42.73 40.6232 42.17 40.7525 41.8828 40.9535C41.0357 41.4416 40.6768 42.5472 40.8204 43.581L41.0214 43.5523Z" fill="#1B2B80"/>
<path d="M56.111 50.0419C54.9336 48.2185 54.5603 46.6534 54.5603 46.6534L48.8171 46.0073C48.8171 46.0073 49.2766 47.3283 49.9371 49.123C50.698 51.1762 51.7462 53.8468 52.7225 55.9143C55.9531 56.3307 57.6186 55.3831 58.4657 54.4785C58.3939 54.2344 56.8002 51.1188 56.111 50.0419Z" fill="#FD9B9B"/>
<path d="M50.1251 49.6257C52.0922 49.8842 54.5043 49.8698 55.9832 49.8267C54.9063 48.0894 54.5474 46.6393 54.5474 46.6393L48.8042 45.9932C48.8042 45.9932 49.2637 47.3141 49.9241 49.1088C49.9959 49.2811 50.0677 49.4534 50.1251 49.6257Z" fill="#FD7B77"/>
<path d="M48.9471 34.3774C48.9471 34.3774 49.5789 33.6451 50.7993 34.3917C52.0197 35.1384 54.4749 38.4551 55.5949 42.0876C56.7148 45.7345 56.9158 47.2278 55.5374 47.917C54.1591 48.6205 51.3162 49.281 47.1524 45.7058C42.9886 42.1307 40.9928 36.6316 48.9471 34.3774Z" fill="#FD9B9B"/>
<path d="M50.5692 37.0193C50.8851 36.8614 53.9434 35.842 52.8952 32.5827C51.8471 29.3235 47.1377 29.668 44.7112 35.0523C44.5676 35.3825 42.098 34.0042 41.3658 36.5168C40.6335 39.0151 42.2273 39.5176 42.299 40.6663C42.3708 41.8149 41.2366 44.0978 44.6681 46.3377C46.8505 47.7591 49.0329 47.1273 49.0329 47.1273C49.0329 47.1273 48.1715 46.2084 47.4679 44.8014C46.75 43.3799 48.3868 43.9829 48.3868 43.9829C48.3868 43.9829 47.8412 44.1265 47.1377 42.7194C46.3767 41.2119 45.185 40.2929 44.984 39.9053C44.783 39.5176 44.1512 38.5987 46.0034 38.4982C47.8412 38.369 50.5692 37.0193 50.5692 37.0193Z" fill="#011C2D"/>
<path d="M53.0402 43.4229C52.9254 43.4947 52.8105 43.3224 52.9254 43.2506L54.0166 42.5471L52.1213 39.5032C52.71 40.3359 53.8156 41.901 54.3038 42.6045C54.275 42.6332 52.9685 43.4803 53.0402 43.4229Z" fill="#172866"/>
<path d="M48.4598 41.2979C48.6178 39.4026 50.4843 39.6036 50.4986 39.618C50.6279 39.6323 50.6135 39.8477 50.4843 39.819C50.4125 39.8046 48.79 39.6324 48.6608 41.3266C48.6608 41.384 48.6034 41.4271 48.546 41.4127C48.4885 41.4127 48.4455 41.3553 48.4598 41.2979Z" fill="#172866"/>
<path d="M53.0115 37.2921C53.0546 37.2634 53.1264 37.2921 53.1551 37.3351C53.1838 37.3926 53.1695 37.45 53.112 37.4787C52.3511 37.8664 52.6095 38.7422 52.6239 38.7853C52.6669 38.9145 52.4659 38.972 52.4372 38.8427C52.4229 38.8284 52.107 37.7515 53.0115 37.2921Z" fill="#172866"/>
<path d="M52.811 45.1029C53.4858 45.3613 54.5052 44.8014 55.0508 44.385C55.18 44.2845 55.2087 44.428 55.2087 44.586C55.0508 48.0032 52.4089 45.6772 52.5525 45.2177C52.5956 45.1172 52.7105 45.0742 52.811 45.1029Z" fill="white"/>
<path d="M49.1473 44.5428C49.1473 44.5428 48.1566 42.3748 46.3905 42.7337C44.6245 43.0927 45.7731 44.8587 47.0941 45.3325C48.4294 45.835 49.1473 44.5428 49.1473 44.5428Z" fill="#FD9B9B"/>
<path d="M46.7205 43.38C47.2804 42.8631 48.0414 43.6815 48.1276 43.7677C48.386 44.0405 48.4865 44.342 47.984 44.7296C47.4815 45.1173 46.1605 43.8969 46.7205 43.38Z" fill="#FD7B77"/>
<path d="M50.7815 41.5543C50.9583 41.4646 50.9883 41.1683 50.8484 40.8925C50.7085 40.6167 50.4518 40.4658 50.275 40.5554C50.0982 40.6451 50.0682 40.9414 50.2081 41.2172C50.348 41.493 50.6047 41.6439 50.7815 41.5543Z" fill="#00147D"/>
<path d="M53.7029 39.795C53.8302 39.7305 53.8345 39.4832 53.7126 39.2428C53.5906 39.0023 53.3885 38.8598 53.2612 38.9243C53.1339 38.9889 53.1296 39.2362 53.2516 39.4766C53.3736 39.717 53.5756 39.8596 53.7029 39.795Z" fill="#00147D"/>
<path d="M45.2569 54.3636C45.7738 57.1491 50.1673 57.3644 53.1538 57.9962C56.9156 58.7859 55.8961 56.345 55.2644 55.9861C53.685 55.0815 50.5263 54.3636 49.8514 53.0857C48.3582 53.0714 47.0229 52.5832 45.7163 51.9658C45.3 52.7412 45.0989 53.5452 45.2569 54.3636Z" fill="#027CCD"/>
<path d="M53.8994 67.1136C53.8994 67.1136 65.4002 62.4329 67.4246 59.5039C67.4246 59.5039 70.5977 68.5782 70.5977 68.9658C70.5977 68.9658 62.4424 74.3644 58.7381 75.312L53.8994 67.1136Z" fill="white"/>
<path d="M63.9212 90.0145C63.8925 90.0145 63.8494 90.0145 63.8207 89.9858C63.6915 89.9283 63.6197 89.7704 63.6771 89.6412C65.5293 85.3769 63.3182 81.3853 63.2895 81.3423C63.2177 81.213 63.2607 81.0551 63.39 80.9833C63.5192 80.9115 63.6771 80.9546 63.7489 81.0838C63.8494 81.2561 66.1036 85.3481 64.1653 89.8565C64.1222 89.957 64.0217 90.0145 63.9212 90.0145Z" fill="#027CCD"/>
<path d="M75.2356 85.7501C72.0194 85.7501 70.4113 78.7291 70.3395 78.4276C70.3108 78.284 70.3969 78.1404 70.5405 78.1117C70.6841 78.083 70.8277 78.1691 70.8564 78.3127C70.8707 78.3845 72.4358 85.2189 75.2356 85.2189C75.3791 85.2189 75.494 85.3338 75.494 85.4773C75.5084 85.6209 75.3791 85.7501 75.2356 85.7501Z" fill="#027CCD"/>
<path d="M49.7358 48.5488C48.0559 49.5539 46.0458 51.0902 45.572 52.9854C44.5095 56.7759 50.2958 57.1349 53.153 57.982C50.4393 57.6374 46.3473 57.4364 45.2418 55.1104C43.9783 52.3824 46.8786 49.7118 49.7358 48.5488Z" fill="#066EB9"/>
<path d="M53.3547 64.7445C51.2728 63.323 55.7094 62.3754 55.7094 59.3602C55.7094 58.5275 55.5515 56.8189 54.8479 57.264C54.5608 57.4506 54.2736 57.0199 54.5464 56.8189C54.7043 56.704 55.0777 56.5748 55.4366 56.7614C55.9679 57.0486 56.2263 57.8957 56.2263 59.3602C56.2263 61.1263 55.0346 62.1887 54.1587 62.9641C53.3116 63.725 53.0963 63.9261 53.6419 64.2994C53.9434 64.5147 53.6562 64.9455 53.3547 64.7445Z" fill="white"/>
<path d="M63.0614 61.1119C60.9795 61.1119 59.9601 59.7048 59.9601 57.4937C59.9601 54.7657 59.5006 54.4929 59.4575 54.4785C59.3283 54.4354 59.1704 54.78 58.9263 54.5503C58.6248 54.2488 59.2135 53.818 59.6586 53.9903C60.0175 54.1339 60.5057 54.6508 60.5057 57.508C60.5057 60.035 61.9271 60.9539 64.0665 60.4658C64.3967 60.3653 64.5546 60.8822 64.21 60.9683C64.1382 60.9827 63.6644 61.1119 63.0614 61.1119Z" fill="white"/>
<path d="M13.4105 53.6315C11.5153 52.4254 10.1226 51.3342 9.53388 50.5876C9.14621 50.1138 8.38524 45.189 6.99251 45.7203C6.77715 45.8064 6.64792 46.0505 6.76279 46.352C6.83458 46.5243 6.97816 46.6823 7.19353 47.1417C7.55248 47.8883 7.56683 48.5344 7.36582 48.5201C6.71971 48.4483 3.20201 43.4086 2.46975 43.7532C1.85236 44.0404 3.83376 46.0792 4.36501 46.6392C5.29827 47.6442 5.68594 48.5057 5.4275 48.2473C5.18341 47.9745 3.34559 45.9931 2.5559 45.4331C1.78057 44.8588 0.689364 43.7389 0.186834 44.1983C-0.301337 44.6578 0.775511 45.1172 0.775511 45.1172C1.96722 45.9931 4.2645 48.5488 5.05419 49.3959C3.50353 48.7642 0.0432546 44.7583 0.000180667 45.8064C-0.0285353 46.4669 3.37431 49.6113 4.22143 50.1712C5.29827 50.8891 3.94862 50.4297 3.25944 50.1856C2.62769 49.9559 0.947807 48.6493 1.19189 49.6256C1.45034 50.5589 6.9638 52.77 8.81598 54.0048C9.17493 54.2489 10.022 54.9524 11.1994 55.9431C11.8455 55.1247 12.5921 54.3638 13.4105 53.6315Z" fill="#FD9B9B"/>
<path d="M46.2763 56.6897C42.8017 57.8096 40.9782 59.7479 35.8811 60.1069C29.1185 60.5807 18.8238 55.34 13.4109 51.9229C12.5925 52.6551 10.4244 55.8857 9.77832 56.6897C13.6693 59.9633 22.5856 65.4624 27.6396 67.329C32.4783 69.1093 42.2848 70.7031 48.4587 70.3729L46.2763 56.6897Z" fill="#BFBFBF"/>
<path d="M98.0022 154.091C96.4017 153.61 94.9546 151.621 94.6915 149.981H92.7401C93.2444 150.484 92.4551 153.632 92.4551 153.632L92.8497 155.38L98.0022 154.091Z" fill="#FC7575"/>
<path d="M99.1412 154.506C98.7685 154.331 98.3957 154.025 98.0011 154.091C92.6732 154.899 92.432 153.61 92.432 153.61C92.432 153.61 91.9277 155.009 91.9277 155.337C91.9277 155.664 92.2566 155.643 93.8352 155.643C95.4139 155.643 97.9134 156.102 99.2508 155.708C100.61 155.337 100.676 155.205 99.1412 154.506Z" fill="#653870"/>
<path d="M100.106 85.4379L96.3347 83.5364L89.779 99.1204V125.261C88.1127 130.157 91.2481 150.943 91.2481 150.943L94.9534 150.637C92.1031 132.999 100.106 85.4379 100.106 85.4379Z" fill="#022D48"/>
<path d="M77.7856 155.774C77.7856 156.648 77.4567 157.653 77.1497 158.593C76.8647 159.424 77.3251 159.926 77.3251 160.473C77.3251 161.609 80.2412 161.26 80.2412 161.26C80.2412 161.26 80.9428 159.599 80.592 158.243C80.307 157.151 80.0439 155.949 80.0439 155.14C80.0439 154.987 80.0877 154.637 80.1754 154.156H77.8294C77.8733 155.009 77.7856 155.577 77.7856 155.774Z" fill="#FC7575"/>
<path d="M87.6077 115.972L97.8031 85.0665L91.05 78.0723C91.05 78.0723 83.3981 84.1703 81.9948 88.6292C80.5916 93.088 81.0301 111.339 81.0301 113.743C81.0301 116.169 78.2894 122.704 77.2589 124.868C76.36 126.77 76.4038 147.927 76.6231 154.156H80.1969C81.052 148.867 86.073 125.633 86.073 122.835C86.073 119.775 87.6077 115.972 87.6077 115.972Z" fill="#022D48"/>
<path d="M83.7497 85.0008C81.2283 88.3231 80.6363 89.7875 80.5047 104.628C80.4828 107.666 80.5047 114.005 80.5047 114.005C80.4609 116.803 76.4047 125.633 76.8432 124.649C75.6373 127.447 76.3608 149.894 76.602 154.134C76.602 151.555 76.7774 127.097 77.6544 125.021C77.6763 124.977 81.1186 119.666 81.4694 112.147C81.1406 89.547 81.6668 88.6509 84.1005 85.2849C86.0738 82.5965 88.5075 80.2578 91.007 78.0503C88.5733 79.9518 85.6572 82.6184 83.7497 85.0008Z" fill="#FFF7CF"/>
<path d="M80.613 158.243C80.613 158.265 80.4596 160.91 78.9906 160.429C78.0916 160.123 77.4777 159.227 77.1707 158.593C76.8857 159.424 76.6445 160.211 76.6445 160.735C76.6445 161.872 81.0954 162.221 81.0954 162.221C81.0954 162.221 80.9638 159.577 80.613 158.243Z" fill="#653870"/>
<path d="M105.455 81.3289L106.88 98.5303L116.856 154.266L115.409 159.358L118.895 161.85V153.632L120.123 153.063C120.123 153.063 117.383 110.267 117.383 108.978C117.383 107.71 117.887 91.099 117.887 91.099L115.015 79.0776L105.455 81.3289Z" fill="#446393"/>
<path d="M123.675 77.4165L127.073 82.684L140.448 152.889L139.264 152.976L139.571 154.156L146.894 158.375C146.894 158.375 141.5 158.506 138.782 158.506C136.063 158.506 134.967 157.981 134.967 157.981L136.063 153.566L114.137 87.6018L113.326 79.4055L123.675 77.4165Z" fill="#446393"/>
<path d="M93.5722 28.1946C93.5722 28.1946 89.7572 27.9979 88.4417 31.5387C87.1261 35.0795 87.2796 42.4453 89.0775 44.5217C90.8754 46.5981 90.5684 51.9312 92.1471 53.5049C93.7257 55.0786 97.738 55.778 97.738 52.0842C97.738 52.0842 95.7867 52.5432 95.2824 50.2264C95.2824 50.2264 98.0889 52.0187 99.4702 49.2865C100.851 46.5544 97.8915 46.2921 97.8915 46.2921C97.8915 46.2921 99.3167 48.1718 97.5846 47.7566C95.8525 47.3413 94.8439 45.7894 94.8439 43.8004C94.8439 41.8115 97.7819 43.0792 97.4749 39.4291C97.1899 35.8008 94.8658 28.0635 93.5722 28.1946Z" fill="#0E1B29"/>
<path d="M103.943 47.7349L99.4704 63.5593L90.9414 70.0727L91.2484 72.2802C91.2484 72.2802 98.418 74.2473 102.365 70.2257C104.996 67.5372 105.653 60.1496 105.653 57.3738C105.653 52.6745 103.943 47.7349 103.943 47.7349Z" fill="#011C2D"/>
<path d="M103.768 47.7349C101.487 56.6088 104.666 76.6079 105.171 86.1156L128.587 85.3725L125.539 72.6736L123.5 46.9043C123.5 46.9043 122.952 45.2869 117.208 43.6913C113.897 42.7733 111.2 42.4455 109.095 43.2105C105.543 44.5 104.206 46.0519 103.768 47.7349Z" fill="#011C2D"/>
<path d="M85.8313 49.2648C86.4453 54.9039 91.1811 67.5809 91.1811 71.1436C91.1811 74.7063 86.4672 81.7442 86.4672 81.7442C86.4672 81.7442 92.4748 87.2085 101.903 87.8423L100.499 66.7285C100.499 66.7285 100.96 59.6687 100.96 56.871C100.96 54.0734 96.7283 48.1064 95.1497 46.5109C93.5491 44.9153 89.0325 43.582 87.2346 45.3743C85.4367 47.1447 85.7217 48.172 85.8313 49.2648Z" fill="#E9084E"/>
<path d="M88.5507 44.9808C88.5507 44.9808 87.5859 44.937 87.5859 47.8222C87.5859 50.7073 94.8213 67.0781 100.478 66.7284C106.135 66.3787 112.34 52.1498 112.34 52.1498L110.432 51.21C110.432 51.21 103.153 62.9034 99.9738 60.7177C96.7946 58.5102 93.747 44.9808 88.5507 44.9808Z" fill="#FD9B9B"/>
<path d="M110.235 52.5869L110.915 48.2592L114.138 46.314L116.44 49.0242L112.362 52.1498L110.235 53.942V52.5869Z" fill="#FC7575"/>
<path d="M91.7972 68.3022C91.7972 68.3022 90.7886 68.018 90.5475 68.8923C89.9774 70.9906 89.9335 71.4933 91.2052 71.996C92.3015 72.4331 93.3539 72.3457 93.3539 72.1053C93.3539 71.8211 92.1919 71.384 91.7534 71.231C91.3368 71.078 94.3186 71.9304 94.1871 71.1217C94.0775 70.2911 92.1042 70.2911 91.863 70.2256C91.6218 70.1381 93.4855 70.7283 94.1652 70.0726C94.516 69.7229 91.863 69.395 91.7534 69.1983C91.6437 69.0016 94.516 69.7229 94.1432 69.0234C93.7705 68.324 91.7972 68.3022 91.7972 68.3022Z" fill="#FD7B77"/>
<path d="M117.887 51.8218C117.624 51.5595 114.993 45.9642 114.993 45.9642L112.647 45.7456C112.647 45.7456 109.271 47.7127 109.797 48.2373C110.323 48.7619 112.735 46.7073 112.735 46.7073C112.735 46.7073 109.709 48.9149 110.235 49.4176C110.74 49.9203 113.349 47.8439 113.349 47.8439C113.349 47.8439 113.261 49.7891 113.546 51.2317C113.831 52.6743 117.537 55.6031 117.537 55.6031L118.984 54.1168L117.887 51.8218Z" fill="#FD7B77"/>
<path d="M118.107 51.2319L116.111 56.0186C116.111 56.0186 127.776 71.8867 130.911 70.619C134.068 69.3513 131.437 61.0457 129.771 56.5213C128.192 52.2373 125.539 47.5818 123.676 46.3141C121.812 45.0464 121.417 45.5272 121.176 46.03C120.891 46.6201 121.373 53.1772 123.215 56.3901C125.035 59.6031 125.057 59.3408 125.057 59.3408L118.107 51.2319Z" fill="#011C2D"/>
<path d="M95.8298 38.817C95.8298 38.817 93.2865 45.7894 93.8127 46.2921C94.3389 46.8167 90.0854 46.1391 89.8223 44.1064L92.256 36.675L95.8298 38.817Z" fill="#FD9B9B"/>
<path d="M92.2573 36.675L95.8312 38.817C95.8312 38.817 95.6996 39.2542 95.4584 39.888C94.2087 39.5383 92.2135 38.8389 91.7969 38.1176L92.2573 36.675Z" fill="#FD7B77"/>
<path d="M93.1328 30.6208L98.5265 33.5934C98.5265 33.5934 99.6447 33.6152 99.6447 32.3694C99.6447 31.1235 98.2634 29.8995 96.8821 29.2001C95.4788 28.5007 93.7248 28.1729 93.7248 28.1729L93.1328 30.6208Z" fill="#0E1B29"/>
<path d="M95.0843 29.2876C95.0843 29.2876 97.1672 29.6373 97.7373 30.6209C98.3074 31.6044 98.4389 33.965 99.009 34.5333C99.579 35.1015 100.061 35.2108 100.061 35.2108C100.061 35.2108 100.215 35.4731 99.6448 35.7573C99.0748 36.0414 99.5133 36.3474 99.8641 36.3474C100.215 36.3474 99.9298 37.0031 99.6448 37.0905C99.6448 37.0905 99.9956 37.1998 99.9298 37.5277C99.8641 37.8555 99.7106 37.9211 99.7106 37.9211C99.7106 37.9211 99.6887 38.3582 99.8641 38.7517C100.039 39.1669 99.601 40.3691 96.8822 39.8226C96.8822 39.8226 92.826 38.8609 92.5848 37.7244C92.3436 36.5878 90.5458 32.435 92.0805 30.905C93.5934 29.3532 95.0843 29.2876 95.0843 29.2876Z" fill="#FD9B9B"/>
<path d="M93.111 28.1508C93.111 28.1508 93.8345 27.7136 96.3779 28.4349C98.9212 29.1562 99.5351 31.779 99.5351 31.779C99.5351 31.779 97.8907 30.6862 96.8602 30.6862C95.8297 30.6862 93.5056 30.2928 93.111 29.9212C92.7382 29.5278 93.111 28.1508 93.111 28.1508Z" fill="#1B3753"/>
<path d="M93.4835 28.0415C93.8343 28.0415 96.1365 30.4458 95.5445 32.3473C94.9306 34.2489 93.4835 33.3965 92.5626 33.8992C91.6417 34.4019 92.738 36.7624 92.5845 37.7023C92.4091 38.664 89.8439 44.0845 89.8439 44.0845C89.8439 44.0845 87.6732 32.5877 88.9888 30.4458C90.2824 28.3475 93.4835 28.0415 93.4835 28.0415Z" fill="#1B3753"/>
<path d="M95.963 35.8445C96.5564 35.8445 97.0374 35.6097 97.0374 35.32C97.0374 35.0303 96.5564 34.7954 95.963 34.7954C95.3697 34.7954 94.8887 35.0303 94.8887 35.32C94.8887 35.6097 95.3697 35.8445 95.963 35.8445Z" fill="#FD7B77"/>
<path d="M99.1858 34.3364C99.1858 34.3364 98.6377 34.9047 97.2783 34.4457L99.1858 34.3364Z" fill="#1B3753"/>
<path d="M98.1765 33.4183C98.1765 33.4183 97.6502 33.1123 97.2337 33.1123C96.8171 33.1123 96.4443 33.2872 96.4443 33.4183C96.4443 33.4183 96.9048 33.1997 97.2556 33.2653C97.6064 33.3309 97.7818 33.5932 97.9133 33.5932C98.0449 33.5932 98.1765 33.4183 98.1765 33.4183Z" fill="#1B3753"/>
<path d="M105.347 34.5987L106.684 44.2814C106.75 44.8059 107.079 45.2649 107.539 45.5272C108.636 46.1173 111.354 45.6365 112.473 43.8224C113.35 42.4235 109.688 33.8337 109.688 33.8337C109.688 33.8337 107.101 33.9212 105.347 34.5987Z" fill="#FD9B9B"/>
<path d="M109.71 33.8337C109.71 33.8337 109.842 34.2053 110.083 34.8173C110.149 35.7353 110.171 37.156 109.995 38.227C109.754 39.6695 108.241 42.2487 106.465 42.6858L105.347 34.5987C107.101 33.9212 109.71 33.8337 109.71 33.8337Z" fill="#FD7B77"/>
<path d="M107.802 22.184C108.876 23.2768 109.841 24.8724 108.745 25.9215C110.016 24.9598 109.183 23.0582 108.219 21.7905L107.802 22.184Z" fill="#132759"/>
<path d="M102.737 27.9542C102.737 27.9542 100.764 28.5225 100.961 31.1016C101.159 33.6807 103.505 40.522 105.632 40.8498C107.736 41.1777 109.732 38.3581 109.995 36.8937C110.28 35.3637 109.995 33.0687 109.995 33.0687C109.995 33.0687 108.613 23.8888 102.737 27.9542Z" fill="#FD9B9B"/>
<path d="M112.56 36.238C112.56 36.238 112.166 36.8719 111.53 36.238C111.53 36.238 110.017 34.7518 110.872 33.2873C111.727 31.8229 113.043 29.8121 112.385 27.5171C111.727 25.2221 108.899 25.703 108.899 25.703C108.899 25.703 107.868 22.184 104.097 24.02C104.097 24.02 103.22 23.3643 100.94 23.8451C98.6595 24.326 99.4049 25.4844 98.0456 25.4844C96.6862 25.4844 96.3354 24.479 96.8177 23.9763C96.8177 23.9763 94.7129 25.3751 94.7129 27.2548C94.7129 29.1345 98.2429 28.6537 98.2429 28.6537C98.2429 28.6537 95.4803 29.4842 97.8263 30.3366C100.172 31.1891 101.225 30.9924 102.343 29.5061C103.461 27.998 104.119 27.5827 104.864 27.7794C105.61 27.9761 105.61 29.5498 106.706 29.5498C107.78 29.5498 108.921 32.2163 108.921 32.2163C108.921 32.2163 109.688 31.8229 109.973 33.7682C110.258 35.7353 110.17 36.9593 111.398 36.9593C112.604 36.9812 112.56 36.238 112.56 36.238Z" fill="#011C2D"/>
<path d="M109.119 29.8775C109.733 29.7027 111.29 29.9213 110.369 32.0851C109.448 34.2489 108.023 32.3692 108.023 31.4731C108.023 30.5988 108.637 30.0087 109.119 29.8775Z" fill="#FD9B9B"/>
<path d="M103.636 33.637C103.965 34.7954 104.141 35.9319 104.579 36.9811C104.842 36.9374 105.127 36.9155 105.412 36.8936C104.974 37.1122 104.601 37.2434 104.448 37.3308C104.404 37.2652 103.702 35.8445 103.636 33.637Z" fill="#132759"/>
<path d="M104.053 33.2217C104.119 33.2217 104.185 33.1562 104.185 33.0906C104.185 33.0687 104.251 32.566 104.799 32.2382C105.281 31.9322 106.619 32.0633 107.101 32.1289C107.189 32.1508 107.255 32.0852 107.255 32.0196C107.276 31.9322 107.211 31.8666 107.145 31.8666C107.079 31.8666 105.325 31.6043 104.667 32.0196C103.988 32.4349 103.922 33.0687 103.9 33.0906C103.922 33.1343 103.966 33.1999 104.053 33.2217Z" fill="#132759"/>
<path d="M106.948 37.2214C106.948 37.2214 105.04 38.205 103.834 38.1176C103.834 38.1176 104.185 38.9918 104.909 39.1448C105.632 39.2978 106.948 38.664 106.948 37.2214Z" fill="white"/>
<path d="M110.127 30.9705C110.127 30.9705 110.237 32.3693 109.557 32.4786C108.877 32.5661 108.548 31.5606 108.921 30.9705C109.294 30.4022 110.127 30.5771 110.127 30.9705Z" fill="#FD7B77"/>
<path d="M105.132 34.0572C105.342 33.9967 105.448 33.7315 105.371 33.4648C105.293 33.1982 105.061 33.0311 104.851 33.0916C104.642 33.1521 104.535 33.4173 104.613 33.684C104.69 33.9506 104.923 34.1177 105.132 34.0572Z" fill="#132759"/>
<path d="M102.398 34.7114C102.607 34.651 102.714 34.3858 102.637 34.1191C102.56 33.8524 102.327 33.6852 102.118 33.7456C101.908 33.806 101.801 34.0712 101.879 34.3379C101.956 34.6046 102.189 34.7718 102.398 34.7114Z" fill="#132759"/>
<path d="M102.76 33.3747C102.826 33.4184 102.826 33.5058 102.782 33.5714C102.76 33.6151 102.717 33.6151 102.673 33.6151C102.651 33.6151 102.607 33.6151 102.585 33.5932C102.41 33.4621 101.905 33.0905 101.555 33.0905C101.467 33.0905 101.379 33.0905 101.313 33.1124C101.291 33.025 101.269 32.9375 101.248 32.8283C101.357 32.8064 101.445 32.8064 101.555 32.8064C102.081 32.8064 102.738 33.3528 102.76 33.3747Z" fill="#132759"/>
<path d="M92.4538 35.8226C92.4538 35.8226 94.2736 36.522 92.8046 40.4781C91.0067 45.3085 86.2269 46.9696 88.551 49.3083C90.8751 51.6252 90.5682 61.4389 82.2146 59.1658C82.2146 59.1658 86.7312 58.6849 85.7446 56.0184C84.7579 53.3519 80.9648 56.2151 80.9648 53.177C80.9648 50.1389 82.7408 51.5814 83.4205 48.128C84.1002 44.6747 82.1488 46.2484 82.6531 42.6857C83.1574 39.123 88.9896 30.4895 88.9896 30.4895L92.4538 35.8226Z" fill="#1B3753"/>
<path d="M92.8263 34.1397C92.8263 34.1397 92.0808 32.5441 91.7519 32.8939C91.4011 33.2436 91.2476 35.6041 92.4535 35.8227C93.6594 36.0413 92.8263 34.1397 92.8263 34.1397Z" fill="#FC7575"/>
<path d="M92.7833 34.3363C92.7833 34.3363 92.4106 33.462 92.1913 33.6806C91.994 33.8773 92.2132 35.2543 92.4763 35.2543C92.7614 35.2543 92.8491 34.7734 92.7833 34.3363Z" fill="#FD7B77"/>
<path d="M161.172 86.3689L171.51 121.359L168.524 156.12C168.524 156.12 170.577 158.475 171.955 159.365C171.955 159.365 169.5 159.365 166.93 159.422C164.762 159.48 164.661 158.934 164.661 158.934L165.465 155.158L164.661 121.345L153.749 92.1982L161.172 86.3689Z" fill="#E9084E"/>
<path d="M147.318 82.5065L163.729 121.962V151.669H169.515L171.971 120.57L162.782 81.3579L147.318 82.5065Z" fill="#011C2D"/>
<path d="M156.306 124.633L153.764 89.1112L142.493 87.0293L148.481 124.633L145.451 155.632L144.389 159.939C144.389 159.939 146.04 160.154 146.643 160.154C147.246 160.154 152.472 159.508 152.472 159.508L148.868 156.364L156.306 124.633Z" fill="#E9084E"/>
<path d="M140.829 84.2153L147.563 124.633L143.155 151.669H151.124L156.881 124.633L158.389 94.3951L155 80.4822L140.829 84.2153Z" fill="#011C2D"/>
<path d="M163.784 85.6509L162.779 81.3579L155.356 81.9179L140.826 84.2295L141.816 90.145C145.478 87.0293 151.077 85.5935 156.06 84.8038C158.615 84.3874 161.544 84.4018 163.784 85.6509Z" fill="#E9084E"/>
<path d="M145.163 46.0804C149.284 44.4867 159.392 39.8491 165.609 30.6887C174.669 17.3501 175.301 11.65 175.301 11.65C175.301 11.65 174.54 9.45324 174.54 8.2041C174.54 6.95495 173.937 5.3325 174.683 5.3325C175.43 5.3325 175.53 6.89752 175.53 7.44312C175.53 7.96001 176.478 7.97437 176.665 7.28519C177.052 5.83503 176.722 -0.0948142 177.526 0.737949C177.985 1.21176 177.784 5.59095 177.784 6.48114C177.784 7.37133 178.56 2.89165 178.962 1.03947C179.364 -0.812713 180.024 0.177988 179.737 1.18305C179.45 2.1881 178.66 6.66779 178.976 6.66779C179.292 6.66779 180.369 1.59943 181.144 1.59943C181.92 1.59943 181.216 2.44655 181.015 3.25059C180.828 4.04028 179.565 6.46678 180.067 6.98367C180.067 6.98367 182.207 3.95414 182.278 4.42795C182.322 4.65768 180.642 8.27589 179.795 9.72604C177.799 13.1145 171.352 33.9192 167.432 37.9395C163.613 41.8736 156.563 51.7231 155.817 56.2459C151.552 53.6758 147.274 50.5171 145.163 46.0804Z" fill="#FD9B9B"/>
<path d="M145.164 46.0806C147.275 50.5172 151.554 53.6759 155.832 56.246C156.392 52.8862 160.441 46.5544 164.06 41.9168C162.782 39.8779 161.791 37.6955 161.116 36.0156C155.301 41.7157 148.395 44.8314 145.164 46.0806Z" fill="#FD7B77"/>
<path d="M126.455 37.3939C120.798 32.6701 116.347 21.0976 115.456 13.9473C115.442 13.7894 115.37 13.2438 115.428 13.1002C115.873 11.8654 117.696 9.03689 116.935 8.16105C116.777 7.98876 116.562 7.96004 116.39 8.08926C116.117 8.29027 116.189 8.56307 116.002 9.19483C115.815 9.82658 115.385 10.4583 115.255 10.286C114.954 9.92708 115.428 5.28946 115.155 4.05467C115.011 3.43728 114.523 3.27934 114.423 5.21767C114.394 5.79199 114.394 6.40938 114.394 6.96934C114.394 8.30463 114.193 9.16611 114.107 8.82152C113.848 7.78774 113.877 2.60451 113.102 2.47529C112.714 2.41786 113.145 8.01747 113.13 9.38148C112.47 7.91697 112.642 2.77681 111.953 3.48035C111.522 3.92545 111.838 8.37642 112.068 9.38148C112.355 10.6019 111.709 9.38148 111.393 8.74973C111.135 8.23284 110.747 6.05043 110.316 6.99805C109.943 7.84518 112.298 13.0715 112.771 15.1247C113.188 16.9481 114.236 30.9902 117.194 37.0349C119.376 41.5003 126.885 47.1286 131.336 50.9765L136.275 43.7688C133.318 42.29 129.829 40.1937 126.455 37.3939Z" fill="#FD9B9B"/>
<path d="M160.126 36.2451C160.126 36.2451 161.878 44.3861 163.098 45.6496C163.098 45.6496 155.474 55.1976 155.761 56.9206C156.048 58.6292 165.237 82.5065 165.237 82.5065C165.237 82.5065 144.892 88.5369 138.833 85.5217C138.833 85.5217 135.531 55.1115 133.879 53.4029C132.228 51.6943 127.088 48.9806 127.088 48.9806C127.088 48.9806 130.922 41.3566 130.922 40.0069C130.922 40.0069 138.833 44.0989 140.857 44.9461C148.209 48.0043 159.035 36.9343 160.126 36.2451Z" fill="#027CCD"/>
<path d="M165.25 82.5066C165.25 82.5066 154.654 58.7585 155.013 56.2458C155.372 53.7332 163.096 45.6497 163.096 45.6497C163.096 45.6497 155.472 55.1977 155.759 56.9207C156.061 58.6293 165.25 82.5066 165.25 82.5066Z" fill="#011C2D"/>
<path d="M148.422 155.445C147.991 156.12 147.56 157.771 148.422 158.661C149.283 159.551 151.652 159.781 151.652 159.781L153.26 159.681C153.26 159.681 151.293 158.589 150.561 157.441C150.346 157.111 150.561 156.493 150.561 156.249C150.575 155.158 148.91 154.655 148.422 155.445Z" fill="#E6F7F1"/>
<path d="M144.804 156.249L144.043 161.303L148.437 161.92L154.381 161.648L154.524 160.556L151.007 157.943C151.007 157.943 149.959 159.135 147.805 158.518C145.651 157.9 144.804 156.249 144.804 156.249Z" fill="#011C2D"/>
<path d="M145.45 155.158C145.191 155 144.33 154.957 144.33 155.646C144.33 156.335 146.139 159.092 148.68 159.092C151.222 159.092 151.552 158.288 151.136 157.943C150.719 157.599 148.68 158.087 148.063 157.843C147.46 157.599 146.254 155.632 145.45 155.158Z" fill="#027CCD"/>
<path d="M148.422 161.03C147.575 161.03 145.192 159.767 144.1 159.207L144.029 161.303L148.422 161.92L154.754 161.619L154.51 160.542C153.175 160.686 149.37 161.03 148.422 161.03Z" fill="#027CCD"/>
<path d="M148.737 157.915L149.154 160.226L153.26 159.623L150.575 157.441L148.737 157.915Z" fill="white"/>
<path d="M149.154 158.503C149.039 158.503 148.938 158.417 148.924 158.302C148.91 158.173 148.996 158.044 149.125 158.03L150.805 157.742C150.934 157.714 151.049 157.814 151.078 157.943C151.092 158.073 151.006 158.202 150.877 158.216L149.197 158.503C149.183 158.503 149.168 158.503 149.154 158.503Z" fill="#027CCD"/>
<path d="M149.743 159.681C149.628 159.681 149.528 159.595 149.514 159.48C149.485 159.35 149.571 159.221 149.7 159.193L151.969 158.747C152.098 158.719 152.213 158.805 152.242 158.948C152.27 159.078 152.184 159.207 152.055 159.236L149.786 159.681C149.772 159.681 149.758 159.681 149.743 159.681Z" fill="#027CCD"/>
<path d="M168.395 154.455C167.964 155.13 167.519 156.795 168.395 157.7C169.271 158.604 171.654 158.834 171.654 158.834L173.277 158.733C173.277 158.733 171.295 157.628 170.563 156.479C170.348 156.135 170.563 155.532 170.563 155.273C170.549 154.168 168.883 153.679 168.395 154.455Z" fill="#E6F7F1"/>
<path d="M164.735 155.273L163.959 160.37L168.382 161.002L174.369 160.729L174.512 159.623L170.966 156.996C170.966 156.996 169.918 158.202 167.735 157.585C165.567 156.953 164.735 155.273 164.735 155.273Z" fill="#011C2D"/>
<path d="M165.394 154.167C165.122 154.01 164.26 153.966 164.26 154.656C164.26 155.345 166.084 158.13 168.639 158.13C171.195 158.13 171.54 157.312 171.123 156.967C170.707 156.623 168.654 157.111 168.022 156.867C167.405 156.637 166.198 154.656 165.394 154.167Z" fill="#027CCD"/>
<path d="M168.396 160.097C167.534 160.097 165.151 158.819 164.045 158.26L163.873 160.787L168.396 161.002L174.771 160.887L174.526 159.624C173.177 159.738 169.343 160.097 168.396 160.097Z" fill="#027CCD"/>
<path d="M168.697 156.953L169.128 159.279L173.263 158.676L170.549 156.479L168.697 156.953Z" fill="white"/>
<path d="M169.128 157.541C169.014 157.541 168.913 157.455 168.899 157.34C168.884 157.211 168.971 157.082 169.1 157.053L170.794 156.766C170.923 156.737 171.038 156.838 171.067 156.967C171.081 157.096 170.995 157.226 170.866 157.254L169.172 157.541C169.143 157.541 169.143 157.541 169.128 157.541Z" fill="#027CCD"/>
<path d="M169.717 158.733C169.603 158.733 169.502 158.647 169.488 158.532C169.459 158.403 169.545 158.274 169.674 158.245L171.972 157.8C172.101 157.771 172.23 157.857 172.244 158.001C172.273 158.13 172.187 158.259 172.058 158.288L169.761 158.733C169.746 158.719 169.732 158.733 169.717 158.733Z" fill="#027CCD"/>
<path d="M142.435 40.8687C142.277 40.7538 140.296 35.1973 140.296 35.1973C140.296 35.1973 138.989 31.0335 139.88 30.373C140.77 29.7125 142.895 27.3722 144.733 27.4009C146.57 27.4296 147.791 28.0614 147.949 28.1762C148.107 28.2911 149.27 30.5022 149.27 30.5022C149.27 30.5022 148.724 29.7556 148.408 32.4405C148.092 35.1255 142.435 40.8687 142.435 40.8687Z" fill="#381A3F"/>
<path d="M147.058 40.7824C146.828 41.4715 149.571 45.7789 148.106 46.985C147.632 47.3727 141.214 50.6894 141.157 46.1666C141.114 41.6438 141.588 36.3601 141.588 36.3601L147.058 40.7824Z" fill="#FD9B9B"/>
<path d="M141.372 39.5908C142.205 42.7065 145.881 46.2242 148.422 44.8889C148.034 43.2234 146.929 41.242 147.072 40.7826L141.616 36.3459C141.602 36.4177 141.487 37.6669 141.372 39.5908Z" fill="#FD7B77"/>
<path d="M141.444 32.2108C140.74 33.9912 140.669 37.2935 142.248 39.8492C143.827 42.4049 146.024 43.7833 147.632 42.5772C149.24 41.3712 149.786 33.4886 148.666 31.4211C147.546 29.3392 142.506 29.4971 141.444 32.2108Z" fill="#FD9B9B"/>
<path d="M141.359 39.7918C141.359 39.7918 141.029 37.193 140.124 36.5325C139.205 35.8721 138.803 35.47 138.645 34.5511C138.487 33.6322 135.429 32.9 135.946 31.4211C136.463 29.9422 138.875 29.3248 140.138 26.7691C141.388 24.199 142.737 22.8063 145.566 23.8688C148.409 24.9313 148.782 26.8122 148.782 26.8122C148.782 26.8122 150.045 26.6255 150.792 28.2767C151.539 29.9279 150.979 30.8324 150.476 31.5647C150.476 31.5647 150.605 29.4253 149.931 29.5545C149.241 29.6838 149.902 32.0528 149.902 32.0528C149.902 32.0528 148.897 31.1196 147.82 29.6838C146.743 28.248 147.002 29.8848 147.289 31.6652C147.59 33.4456 145.192 31.6939 144.13 30.373C143.067 29.052 141.517 30.1863 140.928 31.981C140.339 33.7758 142.723 36.7192 141.359 39.7918Z" fill="#446393"/>
<path d="M141.947 35.0679C141.947 35.0679 140.97 33.187 140.439 33.9623C139.908 34.7377 140.31 37.1641 141.415 37.2216C142.507 37.2934 141.947 35.0679 141.947 35.0679Z" fill="#FC7575"/>
<path d="M141.373 35.1829C141.373 35.1829 141.43 34.1204 140.885 34.4506C140.339 34.7808 140.856 36.5325 141.358 36.5038C141.861 36.4751 141.373 35.1829 141.373 35.1829Z" fill="#FD7B77"/>
<path d="M147.073 34.8958C147.26 35.3983 147.389 35.9152 147.461 36.4321C147.604 37.5663 147.432 38.0545 147.418 38.1263C147.288 38.0976 146.972 38.0401 146.542 37.8966C146.814 37.8966 147.087 37.9109 147.374 37.9396L147.274 38.0114C147.331 36.992 147.159 35.9582 147.073 34.8958Z" fill="#172866"/>
<path d="M145.707 35.1253C145.765 35.4556 145.621 35.7427 145.406 35.7858C145.19 35.8289 144.961 35.5992 144.918 35.2689C144.86 34.9387 145.004 34.6515 145.219 34.6085C145.434 34.5654 145.664 34.7951 145.707 35.1253Z" fill="#2846A6"/>
<path d="M148.723 34.7809C148.781 35.1111 148.637 35.3983 148.422 35.4413C148.206 35.4844 147.977 35.2547 147.933 34.9244C147.876 34.5942 148.02 34.3071 148.235 34.264C148.45 34.2209 148.68 34.4506 148.723 34.7809Z" fill="#2846A6"/>
<path d="M144.014 34.2496C144.014 34.2496 144.488 33.3881 145.263 33.2589C146.039 33.1153 145.795 33.8045 145.608 33.8476C145.421 33.8907 143.985 34.0773 144.014 34.2496Z" fill="#172866"/>
<path d="M147.705 32.9431C147.705 32.9431 148.609 33.2733 148.781 33.7328C148.781 33.7328 147.819 33.6036 147.647 33.3595C147.475 33.1011 147.705 32.9431 147.705 32.9431Z" fill="#172866"/>
<path d="M147.517 39.4903L147.245 41.084C147.245 41.084 145.751 40.0503 144.847 39.1313L147.517 39.4903Z" fill="white"/>
</svg>
