<svg width="173" height="138" viewBox="0 0 173 138" fill="none" xmlns="http://www.w3.org/2000/svg">
<path d="M172.413 128.762C172.431 125.476 134.057 122.598 86.7011 122.335C39.3456 122.072 0.941651 124.522 0.923497 127.808C0.905342 131.094 39.2798 133.971 86.6353 134.234C133.991 134.498 172.395 132.047 172.413 128.762Z" fill="#ECECEC"/>
<path d="M79.9996 102.701H17.9004V50.033C17.9004 42.0868 24.3093 35.658 32.231 35.658H65.669C73.5907 35.658 79.9996 42.0868 79.9996 50.033V102.701Z" fill="#BFBFBF"/>
<path d="M65.6679 35.658H32.2298C29.2045 35.658 26.3782 36.6163 24.0693 38.2135C26.0597 37.1753 28.3287 36.5764 30.7171 36.5764H64.1552C72.0768 36.5764 78.4858 43.0052 78.4858 50.9514V102.701H79.9985V50.033C79.9985 42.0868 73.5895 35.658 65.6679 35.658Z" fill="#A6A6A6"/>
<path d="M6.87223 115.559H21.2028V69.1597H9.77816C6.27513 69.1597 3.48862 72.1944 3.76727 75.7482L6.87223 115.559Z" fill="#D9D9D9"/>
<path d="M21.203 63.0903H17.899L6.59375 70.1181L21.203 69.1598V63.0903Z" fill="#F2F2F2"/>
<path d="M80.5567 105.217H17.8604V115.559H80.5567V105.217Z" fill="#BFBFBF"/>
<path d="M80.0004 115.559V79.5816L78.4877 74.8298L78.0498 115.559H80.0004Z" fill="#A6A6A6"/>
<path d="M21.2042 115.559V63.0903L17.9002 69.3994L17.8604 115.559H21.2042Z" fill="#A6A6A6"/>
<path d="M21.2035 86.8091L18.417 92.9983L79.9191 92.8386L78.3268 86.8091H21.2035Z" fill="#F2F2F2"/>
<path d="M16.3863 126.5H13.5997L10.7734 115.519H16.3863V126.5Z" fill="#011C2D"/>
<path d="M16.3865 126.5H9.1416C9.1416 125.502 9.93775 124.703 10.9329 124.703H16.3865V126.5Z" fill="#0B1742"/>
<path d="M17.8993 105.257C17.8993 97.1511 17.143 90.6025 21.1635 90.6025H77.212C81.2326 90.6025 80.516 97.1511 80.516 105.257H17.8993Z" fill="#D9D9D9"/>
<path d="M147.353 106.614H147.313L134.057 105.377H112.283V105.337L110.054 100.265V100.226L115.985 85.6509H116.025L145.84 86.7689V86.8089L149.542 101.463L147.353 106.614ZM112.363 105.297H134.057L147.273 106.535L149.383 101.543L145.721 86.9686L116.025 85.8505L110.173 100.305L112.363 105.297Z" fill="#757AD8"/>
<path d="M97.0762 104.618V104.418L97.3548 89.4844L98.7879 87.967V88.0868L99.1063 101.304L97.0762 104.618ZM97.4742 89.5643L97.1956 104.259L98.9869 101.304L98.7083 88.2465L97.4742 89.5643Z" fill="#757AD8"/>
<path d="M154.957 102.701H92.8574V50.033C92.8574 42.0868 99.2664 35.658 107.188 35.658H140.626C148.548 35.658 154.957 42.0868 154.957 50.033V102.701Z" fill="#BFBFBF"/>
<path d="M140.626 35.658H107.188C104.162 35.658 101.336 36.6163 99.0273 38.2135C101.018 37.1753 103.287 36.5764 105.675 36.5764H139.113C147.035 36.5764 153.444 43.0052 153.444 50.9514V102.701H154.956V50.033C154.956 42.0868 148.547 35.658 140.626 35.658Z" fill="#A6A6A6"/>
<path d="M166.618 115.559L169.484 75.8282C169.683 72.3143 166.817 69.3595 163.314 69.4393L151.89 69.7188L153.004 115.559H166.618Z" fill="#D9D9D9"/>
<path d="M151.771 63.6094L154.956 63.5295L165.704 69.8785L151.891 69.7188L151.771 63.6094Z" fill="#F2F2F2"/>
<path d="M155.514 105.217H92.8174V115.559H155.514V105.217Z" fill="#BFBFBF"/>
<path d="M155.593 115.559L154.956 69.7187L151.771 63.6094L153.006 115.559H155.593Z" fill="#A6A6A6"/>
<path d="M96.1612 115.559L96.0418 74.75L92.8174 79.7413V115.559H96.1612Z" fill="#A6A6A6"/>
<path d="M96.0799 86.8889L93.373 92.9983L154.875 92.8386L152.328 86.8091L96.0799 86.8889Z" fill="#F2F2F2"/>
<path d="M156.905 126.5H159.732L162.518 115.519H156.905V126.5Z" fill="#011C2D"/>
<path d="M156.905 126.5H164.15C164.15 125.502 163.354 124.703 162.359 124.703H156.905V126.5Z" fill="#0B1742"/>
<path d="M143.45 41.9669H138.594C137.718 41.9669 136.962 41.2482 136.962 40.3298C136.962 39.4513 137.678 38.6926 138.594 38.6926H143.45C144.326 38.6926 145.083 39.4114 145.083 40.3298C145.083 41.2482 144.326 41.9669 143.45 41.9669Z" fill="#BFBFBF"/>
<path d="M92.8161 105.217C92.8161 97.1112 92.0995 90.6025 96.1201 90.6025H152.169C156.189 90.6025 155.473 97.1511 155.473 105.257L92.8161 105.217Z" fill="#D9D9D9"/>
<path d="M78.4854 74.8299L96.0403 74.75L92.8159 79.7413L79.998 79.5816L78.4854 74.8299Z" fill="#FF0600"/>
<path d="M92.8169 79.5815H79.999V115.559H92.8169V79.5815Z" fill="#D9D9D9"/>
<path d="M88.7573 115.559H84.1396V124.703H88.7573V115.559Z" fill="#011C2D"/>
<path d="M91.9813 126.5H80.5566V126.38C80.5566 125.462 81.313 124.703 82.2285 124.703H90.2696C91.1852 124.703 91.9415 125.462 91.9415 126.38V126.5H91.9813Z" fill="#0B1742"/>
<path d="M31.2743 70.0381L26.2188 85.4912L39.3153 90.1631L47.1175 88.7655L54.7207 90.6423L68.0163 86.6492L60.1345 74.5502L31.2743 70.0381Z" fill="#011C2D"/>
<path d="M47.1187 88.7655C47.1187 88.7655 47.7557 76.3871 36.6893 74.3107C33.1862 73.6718 30.0016 73.9912 30.0016 73.9912L26.2598 85.4912L39.3563 90.1631L47.1187 88.7655Z" fill="#011C2D"/>
<path d="M47.1182 88.7656C47.1182 88.7656 48.5512 73.8715 61.0109 76.0677C65.9868 76.9462 67.9771 86.6493 67.9771 86.6493L54.6815 90.6423L47.1182 88.7656Z" fill="#011C2D"/>
<path d="M43.415 36.5765C43.415 36.5765 43.0965 48.3161 32.8661 56.6616C22.6754 65.007 16.0674 68.0817 16.0674 68.0817C16.0674 68.0817 12.4848 70.3577 10.6935 70.9168C8.90215 71.4758 7.46909 71.1164 8.34485 70.3178C9.22061 69.4793 9.85752 70.0383 10.6537 69.2796C11.4498 68.5209 11.1314 68.6407 10.5741 68.1216C10.0566 67.6025 7.42928 68.6807 7.42928 69.1598C7.42928 69.639 6.87198 73.4324 6.19526 72.7935C5.55835 72.1945 6.35449 68.481 6.71276 68.2015C7.03121 67.882 8.86234 67.1633 8.86234 67.1633L6.35449 68.0418C6.35449 68.0418 5.91661 71.8751 5.43892 71.8751C4.96124 71.8751 5.35931 68.1216 5.67777 67.4827C5.99623 66.8439 8.58369 66.3247 8.58369 66.3247C8.58369 66.3247 11.5692 66.0053 14.1965 64.5279C16.1073 63.4498 24.7454 58.5782 28.8456 53.0279C30.398 50.9116 31.6719 46.8386 32.1894 45.5609C34.0603 40.889 37.1255 31.705 39.7925 30.1876C40.6683 29.7084 41.5043 29.1494 42.2208 28.9498C43.6538 28.5904 44.5694 28.9498 44.5694 28.9498L43.415 36.5765Z" fill="#FD9B9B"/>
<path d="M27.9307 50.2726L38.5194 51.7899L43.0176 44.4028L44.5303 28.9496C44.5303 28.9496 43.6545 28.7899 42.102 28.9496C40.9078 29.0694 39.3155 29.908 37.763 31.4653C34.1804 35.099 27.9307 50.2726 27.9307 50.2726Z" fill="#066DB7"/>
<path d="M112.321 69.3194C112.321 69.3194 104.519 81.618 103.763 83.8142C102.887 86.4097 102.768 90.6024 102.768 90.6024H144.207C144.207 90.6024 144.247 82.9357 138.554 78.3836C132.862 73.8315 122.631 68.4409 122.631 68.4409L112.321 69.3194Z" fill="#E9084E"/>
<path d="M103.684 34.979C103.684 34.979 96.9168 38.1735 93.6526 53.387C93.1749 55.5832 92.0205 58.8175 92.0205 58.8175L95.6032 61.0536L103.684 44.8818V34.979Z" fill="#FD8481"/>
<path d="M102.729 90.6025C102.729 90.6025 103.167 87.6875 103.844 85.132C104.521 82.5764 111.646 83.974 115.945 80.3403C121.718 75.4289 132.386 82.8959 136.844 84.573C141.303 86.25 142.736 89.0452 144.089 90.4028C145.443 91.7605 132.147 92.1598 126.494 91.441C120.802 90.7223 102.729 90.6025 102.729 90.6025Z" fill="#780337"/>
<path d="M112.003 82.0173C110.132 81.1787 105.793 79.861 104.121 84.2134C103.086 86.8888 107.107 91.6805 109.495 93.7568C111.883 95.8332 135.927 120.51 135.927 120.51C135.927 120.51 143.65 131.172 143.65 132.21C143.65 133.248 143.291 135.285 145.122 133.647C146.993 132.01 143.65 124.783 145.122 122.467C146.595 120.111 144.247 120.79 141.54 119.871C138.873 118.953 126.811 100.226 123.109 94.3558C119.447 88.486 115.984 83.8141 112.003 82.0173Z" fill="#FD8481"/>
<path d="M145.163 122.467C146.477 120.391 144.765 120.67 142.456 120.111C142.456 120.75 142.496 122.028 142.854 123.825C142.854 123.825 143.929 130.333 143.69 132.25C143.571 133.288 143.332 135.325 145.163 133.687C146.994 132.01 143.65 124.783 145.163 122.467Z" fill="#8B2D5F"/>
<path d="M116.46 79.9009C116.46 79.9009 120.441 76.9061 124.143 80.6197C127.885 84.3332 145.52 124.304 146.555 126.5C147.59 128.696 149.54 130.852 149.54 130.852C149.699 131.012 149.66 133.967 148.864 134.286C147.749 134.686 145.161 132.649 145.161 132.649C145.161 132.649 144.365 128.576 140.345 122.826C136.284 117.076 119.844 92.8783 117.774 88.5259C115.744 84.1735 114.629 80.7794 116.46 79.9009Z" fill="#FD9B9B"/>
<path d="M145.163 132.609C145.163 132.609 146.755 135.964 149.223 135.005C150.935 134.366 150.139 131.571 149.582 130.812C149.582 130.852 148.865 134.726 145.163 132.609Z" fill="#8B2D5F"/>
<path d="M31.1946 77.9444C33.185 77.8646 36.2104 79.0625 38.1211 81.7378C39.793 84.0538 42.6193 128.057 42.6193 128.057L41.9426 128.217L41.9824 129.415L43.0174 133.767L41.3853 137.76L38.1211 134.406L38.9969 129.375L26.2188 85.4913C26.2188 85.4913 27.8907 78.1041 31.1946 77.9444Z" fill="#022D48"/>
<path d="M64.314 78.743C62.2042 78.4235 58.5817 79.6614 56.4322 82.2568C54.5612 84.5329 47.6348 128.097 47.6348 128.097L49.1474 128.417C49.0678 129.175 48.9882 129.614 48.9882 129.614L47.6348 133.927L48.9484 138L52.4514 135.684L51.9339 129.774C51.9339 129.774 52.0534 129.535 52.2922 129.055L52.8893 129.135C55.7156 122.986 67.0209 96.6718 68.0161 86.6492C68.2151 84.493 66.8218 79.1423 64.314 78.743Z" fill="#022D48"/>
<path d="M95.2444 50.6318C94.8464 49.1544 94.2493 47.4773 93.7716 46.1995C93.4929 45.2811 93.1346 44.5225 92.8162 43.8037C91.1443 43.6041 85.5315 47.8367 85.3324 48.3558C85.1334 48.8749 84.3771 52.5884 85.1732 52.8679C85.3722 52.9478 85.5315 52.8679 85.6111 52.7482C85.5713 52.1492 85.6907 51.4304 85.6907 51.4304C85.6907 51.4304 85.8499 52.3488 85.6111 52.7482C85.6509 53.2273 85.7305 53.6666 86.1286 53.4669C86.9247 53.1075 86.6859 50.4322 87.084 49.394C87.482 48.3558 89.6714 48.2759 89.5918 48.5554C89.4724 48.835 88.5568 49.953 88.318 50.6318C88.0791 51.3107 89.0743 50.6718 90.4676 49.1943C90.7064 48.9148 90.9054 48.7152 91.0647 48.5155C91.1443 50.9912 91.3831 57.42 92.02 58.7777C92.8162 60.4547 95.6027 61.0138 95.6027 61.0138C95.6027 61.0138 96.0406 53.7065 95.2444 50.6318Z" fill="#FD8481"/>
<path d="M64.5918 43.4445C64.5918 43.4445 70.1648 55.7431 72.0357 56.7014C73.9067 57.6597 83.0623 50.0729 84.8537 50.7518L89.0732 50.3125C86.7246 46.7986 79.2807 45.7604 74.9815 50.0729L66.1045 30.8264L64.5918 43.4445Z" fill="#FD9B9B"/>
<path d="M63.1201 45.0016L68.4543 55.1041L75.4205 49.3141L66.0658 30.8662L63.1201 45.0016Z" fill="#066DB7"/>
<path d="M89.7904 53.9862C89.7904 52.9879 89.3525 50.1129 88.7554 50.1528C88.2379 50.033 87.6806 49.9532 87.2825 49.8733C86.8844 49.7935 86.2077 50.073 86.0883 50.033C85.9689 49.9931 84.8543 50.1928 84.5358 50.3525C84.2174 50.5521 84.2572 52.948 83.7397 53.8264C83.2222 54.665 84.2174 54.5053 84.7348 54.1858C85.2523 53.8664 85.1329 51.79 85.4514 51.9896C85.7698 52.1893 86.0087 54.2257 85.7698 55.2639C85.531 56.3021 85.0135 56.6216 85.6504 56.5817C86.2873 56.5417 86.8446 55.5035 86.964 54.8247C87.1233 54.1459 86.6854 52.3091 86.964 52.1094C87.2427 51.9497 87.3223 54.665 87.2427 54.9844C87.1631 55.3039 86.3669 56.0626 86.6854 56.382C87.0039 56.7014 87.9592 55.3837 88.3175 54.4653C88.6758 53.5469 88.3573 51.6303 88.4369 51.6303C88.7554 51.6303 88.7554 53.9462 88.9146 54.1858C89.0738 54.4653 87.7602 55.9428 88.4767 56.3421C88.5165 56.3021 89.7904 55.0244 89.7904 53.9862Z" fill="#FD8481"/>
<path d="M57.1491 28.9895C57.1491 28.9895 47.2371 27.6717 42.102 28.9895C42.102 28.9895 40.3107 45.8801 38.8776 50.7516C37.4446 55.6231 27.9307 73.8315 27.9307 73.8315L61.0104 76.0676C61.0104 76.0676 61.2891 61.8523 62.5231 56.262C63.7571 50.6717 66.0261 32.2638 66.0261 30.8662C66.066 30.5468 57.1491 28.9895 57.1491 28.9895Z" fill="#027CCD"/>
<path d="M62.9226 54.3454C63.4799 51.3506 64.1168 46.9183 64.6741 42.6857C56.7524 39.9704 46.4424 39.611 40.8296 39.651C40.2325 44.0433 39.5159 48.5954 38.879 50.7916C38.7994 51.0711 38.68 51.3906 38.5605 51.7899C49.7464 50.1527 58.2651 52.5086 62.9226 54.3454Z" fill="white"/>
<path d="M58.9429 16.611L58.5448 29.7083C58.505 30.427 57.3108 33.1822 56.7137 33.5815C55.3602 34.5398 52.6932 34.9791 50.7824 33.302C49.1105 31.8645 53.0514 16.2117 53.0514 16.2117C53.0514 16.2117 56.5147 15.9721 58.9429 16.611Z" fill="#FD9B9B"/>
<path d="M53.0516 16.2119C53.0516 16.2119 52.9322 16.731 52.6934 17.5695C52.7332 18.8074 52.8924 20.6841 53.2905 22.1216C53.808 24.0383 56.1964 27.2327 58.6246 27.5522L58.9431 16.5713C56.5149 15.9723 53.0516 16.2119 53.0516 16.2119Z" fill="#FD8481"/>
<path d="M53.887 0.439237C52.6132 2.03646 51.5782 4.3125 53.1705 5.59028C51.3393 4.51215 52.1753 1.83681 53.2899 0L53.887 0.439237Z" fill="#E35C02"/>
<path d="M61.41 7.38705C61.41 7.38705 64.1169 7.86622 64.2363 11.3402C64.3558 14.8141 62.2062 24.2777 59.4595 24.9964C56.7128 25.7152 53.6476 22.2811 53.0903 20.3245C52.4932 18.328 52.533 15.2134 52.533 15.2134C52.533 15.2134 53.0505 2.79504 61.41 7.38705Z" fill="#FD9B9B"/>
<path d="M49.5876 19.8853C49.5876 19.8853 50.1847 20.6839 50.941 19.7256C50.941 19.7256 52.7324 17.5294 51.3789 15.6926C50.0255 13.8558 47.9953 11.3801 48.5526 8.22561C49.1099 5.0711 52.8916 5.31068 52.8916 5.31068C52.8916 5.31068 53.7673 0.479086 59.0219 2.39575C59.0219 2.39575 60.0967 1.39749 63.2017 1.677C66.3066 1.99645 65.4707 3.6336 67.3018 3.47388C69.0931 3.27422 69.4514 1.87665 68.695 1.31763C68.695 1.31763 71.7204 2.91485 71.9592 5.39055C72.2379 7.90617 67.461 7.78638 67.461 7.78638C67.461 7.78638 71.2427 8.50513 68.2572 9.98256C65.2716 11.46 63.8386 11.3402 62.1269 9.50339C60.4151 7.66658 59.4996 7.18742 58.5044 7.54679C57.549 7.90617 57.7481 10.0225 56.315 10.1822C54.8819 10.3419 53.7673 14.0555 53.7673 14.0555C53.7673 14.0555 52.6925 13.6162 52.6129 16.2916C52.5333 18.927 52.812 20.6041 51.1799 20.7638C49.6274 20.8437 49.5876 19.8853 49.5876 19.8853Z" fill="#E35C02"/>
<path d="M53.2499 10.861C52.414 10.7013 50.3838 11.2204 51.8965 13.9756C53.449 16.7308 55.0413 14.0155 54.9218 12.8176C54.8024 11.6596 53.8869 10.9808 53.2499 10.861Z" fill="#FD9B9B"/>
<path d="M61.0511 15.0938C60.7725 16.691 60.6929 18.2083 60.2948 19.6858C59.9365 19.6858 59.5782 19.6858 59.1802 19.6858C59.7773 19.9253 60.2948 20.0451 60.5336 20.125C60.5734 20.0851 61.29 18.0486 61.0511 15.0938Z" fill="#132759"/>
<path d="M60.4128 14.6147C60.3332 14.6147 60.2138 14.5747 60.2138 14.4549C60.2138 14.415 60.0546 13.7761 59.2584 13.3768C58.5817 13.0574 56.8302 13.4167 56.1933 13.5765C56.0739 13.6164 55.9942 13.5365 55.9544 13.4567C55.9146 13.3369 55.9942 13.257 56.0739 13.2171C56.1535 13.1772 58.4623 12.6181 59.3779 13.0574C60.373 13.5365 60.5323 14.3351 60.5323 14.3751C60.6119 14.4949 60.5323 14.5747 60.4128 14.6147C60.4527 14.6147 60.4527 14.6147 60.4128 14.6147Z" fill="#132759"/>
<path d="M57.1909 20.3645C57.1909 20.3645 59.858 21.4027 61.4503 21.1232C61.4503 21.1232 61.092 22.361 60.1765 22.6405C59.2211 22.9201 57.39 22.2812 57.1909 20.3645Z" fill="white"/>
<path d="M52.0953 12.4984C52.0953 12.4984 52.1351 14.3751 53.0904 14.415C54.006 14.455 54.2846 13.0574 53.7273 12.3387C53.0904 11.58 52.0156 11.9394 52.0953 12.4984Z" fill="#FD7B77"/>
<path d="M59.7356 15.3275C59.8006 14.9583 59.6251 14.6186 59.3436 14.5687C59.0622 14.5188 58.7813 14.7777 58.7163 15.1469C58.6513 15.5161 58.8268 15.8558 59.1083 15.9057C59.3897 15.9556 59.6706 15.6967 59.7356 15.3275Z" fill="#132759"/>
<path d="M63.4785 15.784C63.5435 15.4148 63.368 15.0751 63.0865 15.0252C62.8051 14.9754 62.5242 15.2343 62.4592 15.6035C62.3942 15.9727 62.5697 16.3124 62.8512 16.3622C63.1326 16.4121 63.4135 16.1532 63.4785 15.784Z" fill="#132759"/>
<path d="M62.1659 14.6146C62.0863 14.6944 62.0863 14.8142 62.1659 14.8941C62.2057 14.934 62.2455 14.934 62.3251 14.934C62.365 14.934 62.4048 14.8941 62.4446 14.8941C62.6436 14.6944 63.2805 14.1354 63.7184 14.0955C63.8378 14.0955 63.9174 14.0955 64.0368 14.0955C64.0368 13.9757 64.0767 13.8559 64.0767 13.7361C63.9572 13.7361 63.798 13.7361 63.6786 13.7361C63.0019 13.776 62.2057 14.5746 62.1659 14.6146Z" fill="#132759"/>
<path d="M103.685 34.8994L119.687 33.981C119.687 33.981 122.076 44.0435 123.548 45.8004L122.553 68.441C122.553 68.441 117.418 69.9185 112.283 69.3195C112.283 69.3195 101.177 51.8698 101.177 46.3594C101.217 40.849 103.685 34.8994 103.685 34.8994Z" fill="#E9084E"/>
<path d="M99.5823 59.7371H74.9417L77.2903 77.586C77.2903 78.6242 81.7885 79.5027 87.2819 79.5027C92.7753 79.5027 97.2337 78.6641 97.2735 77.586L99.5823 59.7371Z" fill="#E9084E"/>
<path d="M87.2828 79.4619C91.6218 79.4619 95.284 78.9428 96.6773 78.1841L98.6677 59.6963H75.9377L77.9281 78.1841C79.2417 78.9428 82.9438 79.4619 87.2828 79.4619Z" fill="#FFFBF8"/>
<path d="M87.2821 79.4618C90.7055 79.4618 93.7309 79.1423 95.5222 78.6232L97.1145 59.7361H77.4497L79.042 78.6232C80.8333 79.1423 83.8587 79.4618 87.2821 79.4618Z" fill="#E9084E"/>
<path d="M87.2827 79.4619C89.5518 79.4619 91.6217 79.3022 93.2936 79.0626L94.4878 59.6963H80.0776L81.2719 79.0626C82.9438 79.3421 85.0137 79.4619 87.2827 79.4619Z" fill="#FFFBF8"/>
<path d="M87.2822 79.4618C88.5958 79.4618 89.8696 79.4218 91.024 79.342L91.7804 59.7361H82.7839L83.5403 79.342C84.6947 79.4218 85.9287 79.4618 87.2822 79.4618Z" fill="#E9084E"/>
<path d="M87.2814 79.4618C87.6795 79.4618 88.0776 79.4618 88.4756 79.4618L88.7145 59.7361H85.8882L86.127 79.4618C86.4853 79.4618 86.8834 79.4618 87.2814 79.4618Z" fill="#FFFBF8"/>
<path d="M77.29 77.5852C77.4891 79.9411 97.0742 79.8213 97.2334 77.5852C97.2334 80.2605 77.29 80.3005 77.29 77.5852Z" fill="#822626"/>
<path d="M87.2819 61.7326C94.0752 61.7326 99.5823 60.8387 99.5823 59.736C99.5823 58.6334 94.0752 57.7395 87.2819 57.7395C80.4885 57.7395 74.9814 58.6334 74.9814 59.736C74.9814 60.8387 80.4885 61.7326 87.2819 61.7326Z" fill="#F4BB67"/>
<path d="M75.6589 60.4149C77.3308 61.1736 81.9087 61.7326 87.2826 61.7326C92.6566 61.7326 97.1946 61.1736 98.9063 60.4149C97.2344 59.6563 92.6566 59.0972 87.2826 59.0972C81.9087 59.0573 77.3308 59.6163 75.6589 60.4149Z" fill="#C1B68A"/>
<path d="M98.8269 58.4184C98.1899 58.1788 97.2346 57.9392 96.0802 57.7396C93.7315 57.3403 90.5868 57.1406 87.2828 57.1406C83.9788 57.1406 80.834 57.3403 78.4854 57.7396C77.331 57.9392 76.3756 58.1389 75.7387 58.4184C75.4202 58.5382 74.425 58.9375 74.425 59.7361C74.425 60.5347 75.4202 60.934 75.7387 61.0538C76.3756 61.2934 77.331 61.533 78.4854 61.7326C80.834 62.1319 83.9788 62.3316 87.2828 62.3316C90.5868 62.3316 93.7315 62.1319 96.0802 61.7326C97.2346 61.533 98.1899 61.3333 98.8269 61.0538C99.1453 60.934 100.14 60.5347 100.14 59.7361C100.14 58.9375 99.1453 58.5781 98.8269 58.4184ZM87.2828 61.7326C80.4757 61.7326 74.9824 60.8542 74.9824 59.7361C74.9824 58.6181 80.5156 57.7396 87.2828 57.7396C94.0898 57.7396 99.5832 58.6181 99.5832 59.7361C99.5832 60.8542 94.05 61.7326 87.2828 61.7326Z" fill="#8D7868"/>
<path d="M99.5829 59.7361C99.5829 60.8541 94.0896 61.7326 87.2825 61.7326C80.4755 61.7326 74.9821 60.8541 74.9821 59.7361H74.4248C74.4248 60.5347 75.42 60.934 75.7384 61.0538C76.3754 61.2934 77.3307 61.533 78.4851 61.7326C80.8338 62.1319 83.9785 62.3316 87.2825 62.3316C90.5865 62.3316 93.7313 62.1319 96.0799 61.7326C97.2343 61.533 98.1897 61.3333 98.8266 61.0538C99.1451 60.934 100.14 60.5347 100.14 59.7361H99.5829Z" fill="#8D7868"/>
<path d="M89.3921 57.3004C89.3921 57.3004 88.6756 57.2605 88.7552 57.9393C88.8746 58.6181 89.2727 58.5383 89.5513 58.5383C89.8698 58.5383 89.5513 58.6182 89.5513 58.6182C89.5513 58.6182 88.994 59.1373 89.83 59.6164C90.6659 60.0956 90.9048 58.9775 90.9048 58.9775C90.9048 58.9775 91.2232 59.3768 91.7407 59.1772C92.298 58.9775 92.0592 58.0192 91.5019 58.0192C91.5019 58.0192 92.6165 57.3004 92.0592 56.7414C91.4621 56.1425 90.6261 55.9428 90.4669 56.5817C90.4669 56.5817 89.9892 55.9827 89.3921 56.3022C88.8348 56.7015 89.3921 57.3004 89.3921 57.3004Z" fill="#DDC368"/>
<path d="M89.4325 57.3408C89.4325 57.3408 88.7558 57.3009 88.8354 57.9398C88.9548 58.5787 89.3131 58.4988 89.5917 58.4988C89.8704 58.4988 89.5917 58.5787 89.5917 58.5787C89.5917 58.5787 89.0742 59.0578 89.8704 59.537C90.6665 59.9762 90.8655 58.938 90.8655 58.938C90.8655 58.938 91.1442 59.2974 91.6617 59.0978C92.1792 58.8981 91.9801 58.0196 91.4228 58.0196C91.4228 58.0196 92.4976 57.3408 91.9403 56.8217C91.383 56.2627 90.5869 56.063 90.4277 56.662C90.4277 56.662 89.9898 56.103 89.4325 56.4224C88.9548 56.7419 89.4325 57.3408 89.4325 57.3408Z" fill="#F3F0A5"/>
<path d="M89.9896 58.0193C89.9896 58.0193 89.7508 58.179 89.9498 58.3387C90.1488 58.5384 90.2285 58.4186 90.3479 58.3387C90.4275 58.2589 90.3877 58.3787 90.3877 58.3787C90.3877 58.3787 90.3479 58.6582 90.7061 58.6183C91.0644 58.5783 90.9052 58.179 90.9052 58.179C90.9052 58.179 91.1042 58.219 91.2236 58.0592C91.3431 57.8596 91.0644 57.62 90.9052 57.7398C90.9052 57.7398 91.1042 57.2606 90.7858 57.2207C90.4673 57.1808 90.1488 57.3006 90.2683 57.5401C90.2683 57.5401 89.9896 57.4603 89.8702 57.6999C89.711 57.9394 89.9896 58.0193 89.9896 58.0193Z" fill="#FFD467"/>
<path d="M78.9634 58.8178C78.9634 58.8178 78.2469 58.7778 78.3265 59.4567C78.4459 60.1355 78.844 60.0556 79.1226 60.0556C79.4411 60.0556 79.1226 60.1355 79.1226 60.1355C79.1226 60.1355 78.5653 60.6546 79.4013 61.1338C80.2372 61.6129 80.4761 60.4949 80.4761 60.4949C80.4761 60.4949 80.7945 60.8942 81.312 60.6945C81.8693 60.4949 81.6305 59.5365 81.0732 59.5365C81.0732 59.5365 82.1878 58.8178 81.6305 58.2588C81.0334 57.6598 80.1974 57.4601 80.0382 58.099C80.0382 58.099 79.5605 57.5001 78.9634 57.8195C78.4459 58.2188 78.9634 58.8178 78.9634 58.8178Z" fill="#DDC368"/>
<path d="M79.0038 58.8586C79.0038 58.8586 78.327 58.8187 78.4067 59.4576C78.5261 60.0965 78.8843 60.0166 79.163 60.0166C79.4416 60.0166 79.163 60.0965 79.163 60.0965C79.163 60.0965 78.6455 60.5757 79.4416 61.0548C80.2378 61.4941 80.4368 60.4559 80.4368 60.4559C80.4368 60.4559 80.7155 60.8152 81.233 60.6156C81.7505 60.4159 81.5514 59.5375 80.9941 59.5375C80.9941 59.5375 82.0689 58.8586 81.5116 58.3395C80.9543 57.7805 80.1582 57.5809 79.9989 58.1798C79.9989 58.1798 79.5611 57.6208 79.0038 57.9402C78.5261 58.2996 79.0038 58.8586 79.0038 58.8586Z" fill="#F3F0A5"/>
<path d="M79.5609 59.5366C79.5609 59.5366 79.3221 59.6964 79.5211 59.8561C79.7201 60.0557 79.7997 59.9359 79.9192 59.8561C79.9988 59.7762 79.959 59.896 79.959 59.896C79.959 59.896 79.9192 60.1755 80.2774 60.1356C80.6357 60.0957 80.4765 59.6964 80.4765 59.6964C80.4765 59.6964 80.6755 59.7363 80.7949 59.5766C80.9143 59.3769 80.6357 59.1373 80.4765 59.2571C80.4765 59.2571 80.6755 58.778 80.357 58.738C80.0386 58.6981 79.7201 58.8179 79.8396 59.0575C79.8396 59.0575 79.5609 58.9776 79.4415 59.2172C79.2822 59.4568 79.5609 59.5366 79.5609 59.5366Z" fill="#FFD467"/>
<path d="M94.8455 58.7777C94.8455 58.7777 94.129 58.7378 94.2086 59.4166C94.328 60.0954 94.7261 60.0156 95.0047 60.0156C95.3232 60.0156 95.0047 60.0954 95.0047 60.0954C95.0047 60.0954 94.4474 60.6145 95.2834 61.0937C96.1193 61.5729 96.3582 60.4548 96.3582 60.4548C96.3582 60.4548 96.6766 60.8541 97.1941 60.6545C97.7514 60.4548 97.5126 59.4965 96.9553 59.4965C96.9553 59.4965 98.0699 58.7777 97.5126 58.2187C96.9155 57.6198 96.0795 57.4201 95.9203 58.059C95.9203 58.059 95.4426 57.46 94.8455 57.7795C94.328 58.1388 94.8455 58.7777 94.8455 58.7777Z" fill="#DDC368"/>
<path d="M94.9266 58.8184C94.9266 58.8184 94.2499 58.7784 94.3295 59.4173C94.4489 60.0562 94.8072 59.9763 95.0859 59.9763C95.3645 59.9763 95.0859 60.0562 95.0859 60.0562C95.0859 60.0562 94.5684 60.5354 95.3645 61.0145C96.1606 61.4538 96.3597 60.4156 96.3597 60.4156C96.3597 60.4156 96.6383 60.775 97.1558 60.5753C97.6733 60.3757 97.4743 59.4972 96.917 59.4972C96.917 59.4972 97.9918 58.8184 97.4345 58.2993C96.8772 57.7402 96.081 57.5406 95.9218 58.1395C95.9218 58.1395 95.4839 57.5805 94.9266 57.9C94.4091 58.2194 94.9266 58.8184 94.9266 58.8184Z" fill="#F3F0A5"/>
<path d="M95.4827 59.4966C95.4827 59.4966 95.2439 59.6563 95.4429 59.8161C95.6419 60.0157 95.7216 59.8959 95.841 59.8161C95.9206 59.7362 95.8808 59.856 95.8808 59.856C95.8808 59.856 95.841 60.1355 96.1992 60.0956C96.5575 60.0556 96.3983 59.6563 96.3983 59.6563C96.3983 59.6563 96.5973 59.6963 96.7167 59.5365C96.8362 59.3369 96.5575 59.0973 96.3983 59.2171C96.3983 59.2171 96.5973 58.7379 96.2789 58.698C95.9604 58.6581 95.6419 58.7779 95.7614 59.0174C95.7614 59.0174 95.4827 58.9376 95.3633 59.1772C95.1643 59.4167 95.4827 59.4966 95.4827 59.4966Z" fill="#FFD467"/>
<path d="M83.3406 59.5763C83.3406 59.5763 82.6241 59.5364 82.7037 60.2152C82.8231 60.894 83.2212 60.8142 83.4998 60.8142C83.8183 60.8142 83.4998 60.894 83.4998 60.894C83.4998 60.894 82.9425 61.4131 83.7785 61.8923C84.6144 62.3715 84.8533 61.2534 84.8533 61.2534C84.8533 61.2534 85.1717 61.6527 85.6892 61.4531C86.2465 61.2534 86.0077 60.2951 85.4504 60.2951C85.4504 60.2951 86.565 59.5763 86.0077 59.0173C85.4106 58.4183 84.5746 58.2187 84.4154 58.8576C84.4154 58.8576 83.9377 58.2586 83.3406 58.5781C82.8231 58.9774 83.3406 59.5763 83.3406 59.5763Z" fill="#DDC368"/>
<path d="M83.3812 59.6179C83.3812 59.6179 82.7045 59.578 82.7841 60.2169C82.9035 60.8558 83.2618 60.7759 83.5404 60.7759C83.8191 60.7759 83.5404 60.8558 83.5404 60.8558C83.5404 60.8558 83.0229 61.3349 83.8191 61.8141C84.6152 62.2533 84.8143 61.2151 84.8143 61.2151C84.8143 61.2151 85.0929 61.5745 85.6104 61.3749C86.1279 61.1752 85.9289 60.2967 85.3716 60.2967C85.3716 60.2967 86.4464 59.6179 85.8891 59.0988C85.3318 58.5398 84.5356 58.3401 84.3764 58.9391C84.3764 58.9391 83.9385 58.3801 83.3812 58.6995C82.9035 59.0589 83.3812 59.6179 83.3812 59.6179Z" fill="#F3F0A5"/>
<path d="M83.9383 60.2949C83.9383 60.2949 83.6995 60.4547 83.8985 60.6144C84.0976 60.814 84.1772 60.6943 84.2966 60.6144C84.3762 60.5345 84.3364 60.6543 84.3364 60.6543C84.3364 60.6543 84.2966 60.9338 84.6549 60.8939C85.0131 60.854 84.8539 60.4547 84.8539 60.4547C84.8539 60.4547 85.0529 60.4946 85.1724 60.3349C85.2918 60.1352 85.0131 59.8956 84.8539 60.0154C84.8539 60.0154 85.0529 59.5363 84.7345 59.4963C84.416 59.4564 84.0976 59.5762 84.217 59.8158C84.217 59.8158 83.9383 59.7359 83.8189 59.9755C83.6597 60.2151 83.9383 60.2949 83.9383 60.2949Z" fill="#FFD467"/>
<path d="M76.2564 58.4184C76.2564 58.4184 75.5797 58.0989 75.4602 58.7777C75.301 59.4566 75.6991 59.4965 75.9777 59.6163C76.2564 59.7361 75.9379 59.6961 75.9379 59.6961C75.9379 59.6961 75.2214 59.9756 75.8185 60.7343C76.4156 61.493 77.0525 60.5746 77.0525 60.5746C77.0525 60.5746 77.1719 61.0538 77.7691 61.0538C78.3662 61.0538 78.4856 60.0954 77.9681 59.8958C77.9681 59.8958 79.2817 59.6961 78.9633 58.9375C78.6448 58.1788 77.9681 57.6597 77.57 58.1788C77.57 58.1788 77.371 57.46 76.6943 57.5399C76.0175 57.6197 76.2564 58.4184 76.2564 58.4184Z" fill="#DDC368"/>
<path d="M76.3002 58.4598C76.3002 58.4598 75.6633 58.1803 75.5439 58.7793C75.3847 59.4182 75.7827 59.4581 76.0216 59.5779C76.3002 59.6977 75.9818 59.6577 75.9818 59.6577C75.9818 59.6577 75.305 59.8973 75.8623 60.6161C76.4196 61.3348 77.0168 60.4563 77.0168 60.4563C77.0168 60.4563 77.1362 60.8956 77.6935 60.9355C78.2508 60.9355 78.3702 60.057 77.8925 59.8574C77.8925 59.8574 79.1265 59.6577 78.8479 58.939C78.5692 58.2202 77.8925 57.7011 77.5342 58.2202C77.5342 58.2202 77.3352 57.5414 76.6983 57.6213C76.0614 57.7411 76.3002 58.4598 76.3002 58.4598Z" fill="#F3F0A5"/>
<path d="M76.5769 59.2968C76.5769 59.2968 76.2983 59.3367 76.4177 59.5763C76.5371 59.8158 76.6565 59.736 76.776 59.736C76.8954 59.6961 76.776 59.7759 76.776 59.7759C76.776 59.7759 76.6167 60.0155 76.975 60.1353C77.3333 60.2551 77.3333 59.8158 77.3333 59.8158C77.3333 59.8158 77.4925 59.9356 77.6517 59.8158C77.8508 59.6961 77.6517 59.3766 77.4527 59.4165C77.4527 59.4165 77.8109 59.0572 77.5323 58.8974C77.2536 58.7377 76.9352 58.7377 76.9352 58.9773C76.9352 58.9773 76.6963 58.7777 76.5371 58.9773C76.3381 59.0971 76.5769 59.2968 76.5769 59.2968Z" fill="#FFD467"/>
<path d="M88.5974 58.6181C88.5974 58.6181 87.8809 58.5781 87.9605 59.257C88.0799 59.9358 88.478 59.8559 88.7567 59.8559C89.0751 59.8559 88.7567 59.9358 88.7567 59.9358C88.7567 59.9358 88.1994 60.4549 89.0353 60.934C89.8713 61.4132 90.1101 60.2952 90.1101 60.2952C90.1101 60.2952 90.4286 60.6945 90.9461 60.4948C91.5034 60.2952 91.2645 59.3368 90.7072 59.3368C90.7072 59.3368 91.8218 58.6181 91.2645 58.059C90.6674 57.4601 89.8315 57.2604 89.6722 57.8993C89.6722 57.8993 89.1945 57.3004 88.5974 57.6198C88.0799 58.0191 88.5974 58.6181 88.5974 58.6181Z" fill="#DDC368"/>
<path d="M88.6756 58.6585C88.6756 58.6585 87.9989 58.6185 88.0785 59.2574C88.198 59.8963 88.5562 59.8164 88.8349 59.8164C89.1135 59.8164 88.8349 59.8963 88.8349 59.8963C88.8349 59.8963 88.3174 60.3755 89.1135 60.8546C89.9097 61.2939 90.1087 60.2557 90.1087 60.2557C90.1087 60.2557 90.3873 60.6151 90.9048 60.4154C91.4223 60.2157 91.2233 59.3373 90.666 59.3373C90.666 59.3373 91.7408 58.6585 91.1835 58.1394C90.6262 57.5803 89.83 57.3807 89.6708 57.9796C89.6708 57.9796 89.2329 57.4206 88.6756 57.74C88.1581 58.0994 88.6756 58.6585 88.6756 58.6585Z" fill="#F7E87F"/>
<path d="M89.2344 59.3369C89.2344 59.3369 88.9956 59.4967 89.1946 59.6564C89.3937 59.856 89.4733 59.7362 89.5927 59.6564C89.6723 59.5765 89.6325 59.6963 89.6325 59.6963C89.6325 59.6963 89.5927 59.9758 89.951 59.9359C90.3092 59.896 90.15 59.4967 90.15 59.4967C90.15 59.4967 90.349 59.5366 90.4685 59.3769C90.5879 59.1772 90.3092 58.9376 90.15 59.0574C90.15 59.0574 90.349 58.5783 90.0306 58.5383C89.7121 58.4984 89.3937 58.6182 89.5131 58.8578C89.5131 58.8578 89.2344 58.7779 89.115 59.0175C88.916 59.2571 89.2344 59.3369 89.2344 59.3369Z" fill="#FFD467"/>
<path d="M86.566 59.3369C86.566 59.3369 86.2078 58.698 85.6903 59.1372C85.1728 59.5765 85.4514 59.856 85.6107 60.1355C85.7699 60.3751 85.531 60.1754 85.531 60.1754C85.531 60.1754 84.7747 59.9758 84.8145 60.9341C84.8543 61.8924 85.8893 61.533 85.8893 61.533C85.8893 61.533 85.7301 62.0122 86.1679 62.3716C86.6456 62.731 87.3224 62.0521 87.0039 61.573C87.0039 61.573 88.1981 62.1719 88.3972 61.3733C88.5962 60.5747 88.3175 59.7362 87.6806 59.9358C87.6806 59.9358 87.9593 59.2171 87.3622 58.8976C86.8049 58.5383 86.566 59.3369 86.566 59.3369Z" fill="#DDC368"/>
<path d="M86.5666 59.3786C86.5666 59.3786 86.2481 58.7797 85.7306 59.179C85.2529 59.6182 85.5316 59.8578 85.651 60.1373C85.8102 60.3769 85.5714 60.1773 85.5714 60.1773C85.5714 60.1773 84.8549 59.9776 84.8947 60.896C84.9345 61.8144 85.9297 61.455 85.9297 61.455C85.9297 61.455 85.7704 61.8943 86.2083 62.2137C86.6462 62.5332 87.2831 61.8943 87.0044 61.455C87.0044 61.455 88.119 62.0141 88.3181 61.2554C88.4773 60.4967 88.2783 59.6981 87.6414 59.8977C87.6414 59.8977 87.8802 59.2189 87.3229 58.8995C86.8054 58.6599 86.5666 59.3786 86.5666 59.3786Z" fill="#F7E87F"/>
<path d="M86.2867 60.2154C86.2867 60.2154 86.0479 60.0956 85.9683 60.3352C85.9285 60.5748 86.0479 60.6147 86.1673 60.6547C86.2867 60.6946 86.1673 60.6946 86.1673 60.6946C86.1673 60.6946 85.8886 60.8144 86.1275 61.0939C86.3663 61.3734 86.6052 61.0141 86.6052 61.0141C86.6052 61.0141 86.645 61.2137 86.8838 61.2137C87.1227 61.2137 87.1625 60.8543 86.9634 60.7745C86.9634 60.7745 87.4809 60.6946 87.3615 60.4151C87.2421 60.1356 86.9634 59.9359 86.844 60.1356C86.844 60.1356 86.7644 59.8561 86.5256 59.896C86.2071 59.9359 86.2867 60.2154 86.2867 60.2154Z" fill="#FFD467"/>
<path d="M91.5822 59.6164C91.5822 59.6164 91.3036 59.0973 90.8657 59.4567C90.4278 59.816 90.6667 60.0556 90.8259 60.2952C90.9453 60.4949 90.7463 60.3351 90.7463 60.3351C90.7463 60.3351 90.1492 60.1754 90.1492 60.974C90.189 61.7726 91.0647 61.4532 91.0647 61.4532C91.0647 61.4532 90.9055 61.8525 91.3036 62.132C91.7017 62.4115 92.259 61.8525 92.0201 61.4532C92.0201 61.4532 93.0153 61.9324 93.1745 61.2935C93.3337 60.6147 93.1347 59.9358 92.5774 60.0956C92.5774 60.0956 92.7764 59.4966 92.2988 59.2171C91.8211 58.9775 91.5822 59.6164 91.5822 59.6164Z" fill="#DDC368"/>
<path d="M91.5824 59.6577C91.5824 59.6577 91.3038 59.1386 90.9057 59.498C90.5076 59.8573 90.7066 60.057 90.8659 60.2966C90.9853 60.4962 90.7863 60.3365 90.7863 60.3365C90.7863 60.3365 90.1891 60.1768 90.229 60.9355C90.2688 61.6941 91.0649 61.4146 91.0649 61.4146C91.0649 61.4146 90.9455 61.774 91.3038 62.0535C91.662 62.333 92.1795 61.8139 91.9805 61.4146C91.9805 61.4146 92.896 61.8938 93.0553 61.2549C93.2145 60.616 93.0155 59.9771 92.498 60.1368C92.498 60.1368 92.697 59.5778 92.2193 59.3382C91.7814 59.0587 91.5824 59.6577 91.5824 59.6577Z" fill="#F7E87F"/>
<path d="M91.383 60.3351C91.383 60.3351 91.184 60.2153 91.1043 60.4549C91.0645 60.6546 91.184 60.6945 91.2636 60.7344C91.3432 60.7744 91.2636 60.7744 91.2636 60.7744C91.2636 60.7744 91.0247 60.8542 91.2238 61.0938C91.4228 61.3334 91.6218 61.0539 91.6218 61.0539C91.6218 61.0539 91.6616 61.2136 91.8607 61.2136C92.0597 61.2136 92.0995 60.9341 91.9403 60.8542C91.9403 60.8542 92.3384 60.7744 92.2587 60.5348C92.1791 60.2952 91.9403 60.1355 91.8209 60.2952C91.8209 60.2952 91.7413 60.0556 91.5422 60.0956C91.3034 60.0956 91.383 60.3351 91.383 60.3351Z" fill="#FFD467"/>
<path d="M82.7834 57.6598C82.7834 57.6598 82.027 57.3403 81.8678 58.0591C81.7086 58.8178 82.1863 58.8577 82.5047 58.9775C82.8232 59.0973 82.4649 59.0573 82.4649 59.0573C82.4649 59.0573 81.629 59.3768 82.3455 60.2153C83.062 61.0539 83.7387 60.0157 83.7387 60.0157C83.7387 60.0157 83.898 60.5348 84.5747 60.5348C85.2514 60.5348 85.4106 59.4966 84.7737 59.257C84.7737 59.257 86.2864 58.9775 85.8883 58.1789C85.5301 57.3403 84.6941 56.7813 84.2562 57.3803C84.2562 57.3803 84.0174 56.5817 83.2213 56.7015C82.4649 56.8212 82.7834 57.6598 82.7834 57.6598Z" fill="#DDC368"/>
<path d="M82.8248 57.7414C82.8248 57.7414 82.1083 57.422 81.9491 58.1407C81.7898 58.8595 82.2277 58.8994 82.5462 59.0192C82.8646 59.139 82.5064 59.0991 82.5064 59.0991C82.5064 59.0991 81.75 59.3786 82.3869 60.1772C83.0637 60.9758 83.7006 59.9775 83.7006 59.9775C83.7006 59.9775 83.8598 60.4966 84.4967 60.4966C85.1336 60.4966 85.2531 59.4984 84.6958 59.2987C84.6958 59.2987 86.1288 59.0591 85.7706 58.2605C85.4123 57.4619 84.656 56.9428 84.2181 57.5018C84.2181 57.5018 83.9792 56.7432 83.2627 56.823C82.5462 56.9428 82.8248 57.7414 82.8248 57.7414Z" fill="#F7E87F"/>
<path d="M83.1428 58.658C83.1428 58.658 82.8244 58.7378 82.9438 58.9774C83.0632 59.2569 83.2224 59.1771 83.3419 59.1371C83.4613 59.0972 83.3419 59.1771 83.3419 59.1771C83.3419 59.1771 83.1428 59.4566 83.5807 59.5365C83.9788 59.6562 83.9788 59.1771 83.9788 59.1771C83.9788 59.1771 84.138 59.2969 84.3768 59.1771C84.5759 59.0174 84.3768 58.658 84.138 58.7378C84.138 58.7378 84.5361 58.3385 84.2176 58.1389C83.8992 57.9792 83.5409 57.9392 83.5409 58.2587C83.5409 58.2587 83.2622 58.059 83.0632 58.2587C82.8642 58.4583 83.1428 58.658 83.1428 58.658Z" fill="#FFD467"/>
<path d="M81.033 60.6146C81.033 60.6146 80.5553 61.2934 81.232 61.6128C81.9087 61.9323 82.068 61.493 82.267 61.2135C82.466 60.934 82.3466 61.2535 82.3466 61.2535C82.3466 61.2535 82.466 62.1319 83.4214 61.6128C84.3768 61.0937 83.501 60.1753 83.501 60.1753C83.501 60.1753 84.0583 60.1354 84.1778 59.4566C84.337 58.8177 83.302 58.4184 82.9835 58.9774C82.9835 58.9774 83.0234 57.4601 82.1476 57.6597C81.2718 57.8594 80.5155 58.5382 81.033 59.0972C81.033 59.0972 80.197 59.1771 80.1572 59.9357C80.1572 60.7344 81.033 60.6146 81.033 60.6146Z" fill="#DDC368"/>
<path d="M81.1145 60.5756C81.1145 60.5756 80.6766 61.2145 81.3136 61.534C81.9505 61.8135 82.1097 61.4142 82.2689 61.1347C82.4282 60.8552 82.3485 61.1746 82.3485 61.1746C82.3485 61.1746 82.468 62.0132 83.3835 61.4941C84.2991 61.0149 83.4631 60.1364 83.4631 60.1364C83.4631 60.1364 83.9806 60.0965 84.1001 59.4576C84.2195 58.8586 83.3039 58.4993 82.9456 59.0184C82.9456 59.0184 82.9855 57.5808 82.1495 57.7805C81.3136 57.9802 80.6368 58.619 81.1145 59.1381C81.1145 59.1381 80.3184 59.218 80.2786 59.9368C80.2786 60.6954 81.1145 60.5756 81.1145 60.5756Z" fill="#F7E87F"/>
<path d="M82.0689 60.4548C82.0689 60.4548 82.0689 60.7742 82.3475 60.6943C82.6262 60.6145 82.5864 60.4548 82.5864 60.335C82.5864 60.2152 82.6262 60.335 82.6262 60.335C82.6262 60.335 82.865 60.5746 83.0243 60.1752C83.2233 59.7759 82.7456 59.736 82.7456 59.736C82.7456 59.736 82.9048 59.5763 82.8252 59.3766C82.7456 59.1371 82.3475 59.2568 82.3475 59.4964C82.3475 59.4964 82.0291 59.0173 81.7902 59.2968C81.5514 59.5763 81.4718 59.9357 81.7504 59.9756C81.7504 59.9756 81.5116 60.2152 81.6708 60.4548C81.83 60.6943 82.0689 60.4548 82.0689 60.4548Z" fill="#FFD467"/>
<path d="M91.5414 58.1788C91.5414 58.1788 90.7851 57.8594 90.6259 58.5781C90.4666 59.3368 90.9443 59.3767 91.2628 59.4965C91.5812 59.6163 91.223 59.5764 91.223 59.5764C91.223 59.5764 90.387 59.8958 91.1036 60.7344C91.8201 61.5729 92.4968 60.5347 92.4968 60.5347C92.4968 60.5347 92.656 61.0538 93.3328 61.0538C94.0095 61.0538 94.1687 60.0156 93.5318 59.776C93.5318 59.776 95.0445 59.4965 94.6464 58.6979C94.2881 57.8594 93.4522 57.3004 93.0143 57.8993C93.0143 57.8993 92.7755 57.1007 91.9793 57.2205C91.223 57.3004 91.5414 58.1788 91.5414 58.1788Z" fill="#DDC368"/>
<path d="M91.5812 58.2192C91.5812 58.2192 90.8646 57.8998 90.7054 58.6185C90.5462 59.3373 90.9841 59.3772 91.3025 59.497C91.621 59.6168 91.2627 59.5769 91.2627 59.5769C91.2627 59.5769 90.5064 59.8564 91.1433 60.655C91.82 61.4536 92.4569 60.4553 92.4569 60.4553C92.4569 60.4553 92.6162 60.9345 93.2531 60.9744C93.89 60.9744 94.0094 59.9762 93.4521 59.7765C93.4521 59.7765 94.8852 59.5369 94.5269 58.7383C94.1686 57.9397 93.4123 57.4206 92.9744 57.9796C92.9744 57.9796 92.7356 57.221 92.0191 57.3008C91.3025 57.4206 91.5812 58.2192 91.5812 58.2192Z" fill="#F7E87F"/>
<path d="M91.8999 59.1371C91.8999 59.1371 91.5814 59.2169 91.7009 59.4565C91.8203 59.736 91.9795 59.6562 92.0989 59.6163C92.2184 59.5763 92.0989 59.6562 92.0989 59.6562C92.0989 59.6562 91.8999 59.9357 92.3378 60.0555C92.7358 60.1753 92.7358 59.6961 92.7358 59.6961C92.7358 59.6961 92.8951 59.8159 93.1339 59.6961C93.3329 59.5364 93.1339 59.177 92.8951 59.2569C92.8951 59.2569 93.2931 58.8576 92.9747 58.6579C92.6562 58.4982 92.298 58.4583 92.298 58.7777C92.298 58.7777 92.0193 58.5781 91.8203 58.7777C91.6212 58.9374 91.8999 59.1371 91.8999 59.1371Z" fill="#FFD467"/>
<path d="M96.8359 59.4566C96.8359 59.4566 96.1194 59.8958 96.5971 60.4548C97.1146 61.0138 97.433 60.6944 97.7117 60.4948C97.9903 60.2951 97.7515 60.5746 97.7515 60.5746C97.7515 60.5746 97.5127 61.4132 98.5875 61.3333C99.6622 61.2534 99.2642 60.0954 99.2642 60.0954C99.2642 60.0954 99.7817 60.2951 100.18 59.7361C100.578 59.217 99.8215 58.4583 99.2642 58.8177C99.2642 58.8177 99.9409 57.46 99.0651 57.2604C98.1894 57.0607 97.234 57.3802 97.4729 58.0989C97.4729 58.0989 96.6767 57.8194 96.3184 58.4982C96 59.177 96.8359 59.4566 96.8359 59.4566Z" fill="#DDC368"/>
<path d="M96.9184 59.458C96.9184 59.458 96.2416 59.8573 96.7193 60.3764C97.197 60.8955 97.5155 60.616 97.7543 60.4163C98.033 60.2566 97.7941 60.4962 97.7941 60.4962C97.7941 60.4962 97.5553 61.2948 98.5903 61.2149C99.6252 61.135 99.2272 60.017 99.2272 60.017C99.2272 60.017 99.7049 60.1767 100.103 59.6976C100.501 59.1785 99.7447 58.4996 99.267 58.8191C99.267 58.8191 99.9039 57.5413 99.0679 57.3417C98.232 57.1819 97.3562 57.4614 97.5553 58.1403C97.5553 58.1403 96.7989 57.8608 96.4407 58.5396C96.1222 59.2184 96.9184 59.458 96.9184 59.458Z" fill="#F7E87F"/>
<path d="M97.8727 59.736C97.8727 59.736 97.7533 60.0155 98.0319 60.0954C98.3106 60.1353 98.3504 59.9756 98.3902 59.8558C98.43 59.736 98.43 59.8558 98.43 59.8558C98.43 59.8558 98.5494 60.1752 98.8679 59.8957C99.1863 59.6162 98.7883 59.3766 98.7883 59.3766C98.7883 59.3766 98.9873 59.2967 98.9873 59.0572C98.9873 58.8176 98.5892 58.7377 98.5096 58.9773C98.5096 58.9773 98.43 58.4183 98.1115 58.5381C97.7931 58.6978 97.5542 58.9773 97.7931 59.137C97.7931 59.137 97.4746 59.2568 97.5144 59.5363C97.5144 59.8558 97.8727 59.736 97.8727 59.736Z" fill="#FFD467"/>
<path d="M85.4514 58.4982C85.4514 58.4982 84.7349 58.4583 84.8145 59.1371C84.9339 59.8159 85.332 59.736 85.6107 59.736C85.9291 59.736 85.6107 59.8159 85.6107 59.8159C85.6107 59.8159 85.0534 60.335 85.8893 60.8142C86.7253 61.2933 86.9641 60.1753 86.9641 60.1753C86.9641 60.1753 87.2826 60.5746 87.8001 60.3749C88.3574 60.1753 88.1185 59.217 87.5612 59.217C87.5612 59.217 88.6758 58.4982 88.1185 57.9392C87.5214 57.3402 86.6855 57.1406 86.5262 57.7795C86.5262 57.7795 86.0485 57.1805 85.4514 57.4999C84.9339 57.8992 85.4514 58.4982 85.4514 58.4982Z" fill="#DDC368"/>
<path d="M85.5323 58.5391C85.5323 58.5391 84.8556 58.4991 84.9352 59.138C85.0546 59.7769 85.4129 59.6971 85.6916 59.6971C85.9702 59.6971 85.6916 59.7769 85.6916 59.7769C85.6916 59.7769 85.1741 60.2561 85.9702 60.7352C86.7663 61.1745 86.9654 60.1363 86.9654 60.1363C86.9654 60.1363 87.244 60.4957 87.7615 60.296C88.279 60.0964 88.08 59.2179 87.5227 59.2179C87.5227 59.2179 88.5975 58.5391 88.0402 58.02C87.4829 57.4609 86.6867 57.2613 86.5275 57.8602C86.5275 57.8602 86.0896 57.3012 85.5323 57.6207C85.0148 57.9401 85.5323 58.5391 85.5323 58.5391Z" fill="#F3F0A5"/>
<path d="M86.0892 59.2171C86.0892 59.2171 85.8503 59.3768 86.0494 59.5365C86.2484 59.7361 86.328 59.6164 86.4474 59.5365C86.527 59.4566 86.4872 59.5764 86.4872 59.5764C86.4872 59.5764 86.4474 59.8559 86.8057 59.816C87.164 59.7761 87.0047 59.3768 87.0047 59.3768C87.0047 59.3768 87.2038 59.4167 87.3232 59.257C87.4426 59.0573 87.164 58.8178 87.0047 58.9375C87.0047 58.9375 87.2038 58.4584 86.8853 58.4185C86.5668 58.3785 86.2484 58.4983 86.3678 58.7379C86.3678 58.7379 86.0892 58.658 85.9697 58.8976C85.7707 59.1372 86.0892 59.2171 86.0892 59.2171Z" fill="#FFD467"/>
<path d="M92.6172 59.257C92.6172 59.257 91.9007 59.2171 91.9803 59.8959C92.0997 60.5747 92.4978 60.4948 92.7764 60.4948C93.0949 60.4948 92.7764 60.5747 92.7764 60.5747C92.7764 60.5747 92.2191 61.0938 93.0551 61.573C93.891 62.0521 94.1299 60.9341 94.1299 60.9341C94.1299 60.9341 94.4483 61.3334 94.9658 61.1337C95.5231 60.9341 95.2843 59.9757 94.727 59.9757C94.727 59.9757 95.8416 59.257 95.2843 58.698C94.6872 58.099 93.8512 57.8993 93.692 58.5382C93.692 58.5382 93.2143 57.9393 92.6172 58.2587C92.0599 58.658 92.6172 59.257 92.6172 59.257Z" fill="#DDC368"/>
<path d="M92.6561 59.2988C92.6561 59.2988 91.9794 59.2589 92.059 59.8978C92.1784 60.5367 92.5367 60.4568 92.8153 60.4568C93.094 60.4568 92.8153 60.5367 92.8153 60.5367C92.8153 60.5367 92.2978 61.0159 93.094 61.495C93.8901 61.9343 94.0892 60.8961 94.0892 60.8961C94.0892 60.8961 94.3678 61.2554 94.8853 61.0558C95.4028 60.8561 95.2038 59.9777 94.6465 59.9777C94.6465 59.9777 95.7213 59.2988 95.164 58.7797C94.6067 58.2207 93.8105 58.0211 93.6513 58.62C93.6513 58.62 93.2134 58.061 92.6561 58.3804C92.1784 58.6999 92.6561 59.2988 92.6561 59.2988Z" fill="#F3F0A5"/>
<path d="M93.2145 59.9756C93.2145 59.9756 92.9756 60.1353 93.1747 60.2951C93.3737 60.4947 93.4533 60.3749 93.5727 60.2951C93.6523 60.2152 93.6125 60.335 93.6125 60.335C93.6125 60.335 93.5727 60.6145 93.931 60.5746C94.2893 60.5346 94.13 60.1353 94.13 60.1353C94.13 60.1353 94.3291 60.1753 94.4485 60.0155C94.5679 59.8159 94.2893 59.5763 94.13 59.6961C94.13 59.6961 94.3291 59.2169 94.0106 59.177C93.6921 59.1371 93.3737 59.2569 93.4931 59.4964C93.4931 59.4964 93.2145 59.4166 93.095 59.6562C92.9358 59.8957 93.2145 59.9756 93.2145 59.9756Z" fill="#FFD467"/>
<path d="M88.9943 61.5729C88.9943 61.5729 89.1536 62.2917 89.7905 61.9722C90.3876 61.6528 90.1885 61.3333 90.1089 61.0139C90.0293 60.7344 90.1885 60.974 90.1885 60.974C90.1885 60.974 90.8653 61.3733 91.0643 60.4149C91.2633 59.4566 90.1487 59.5764 90.1487 59.5764C90.1487 59.5764 90.4274 59.1771 90.0691 58.6979C89.7108 58.2188 88.8749 58.7379 89.0341 59.257C89.0341 59.257 88.0389 58.3785 87.6409 59.0972C87.2428 59.816 87.2826 60.6945 87.9593 60.6545C87.9593 60.6545 87.5215 61.2934 87.9991 61.7326C88.5564 62.2517 88.9943 61.5729 88.9943 61.5729Z" fill="#DDC368"/>
<path d="M89.0349 61.4931C89.0349 61.4931 89.1941 62.1719 89.7912 61.8924C90.3883 61.6129 90.1893 61.2535 90.1097 61.0139C90.03 60.7344 90.1893 60.974 90.1893 60.974C90.1893 60.974 90.8262 61.3334 91.0252 60.4549C91.2243 59.5764 90.1893 59.6563 90.1893 59.6563C90.1893 59.6563 90.4679 59.257 90.1097 58.8577C89.7912 58.4185 88.9951 58.8976 89.1543 59.3768C89.1543 59.3768 88.1989 58.5383 87.8406 59.2171C87.4824 59.8959 87.4824 60.7344 88.1193 60.6945C88.1193 60.6945 87.7212 61.2935 88.1591 61.7327C88.597 62.132 89.0349 61.4931 89.0349 61.4931Z" fill="#F3F0A5"/>
<path d="M89.5122 60.7744C89.5122 60.7744 89.7113 60.9741 89.8307 60.7345C89.9501 60.4949 89.8307 60.455 89.7113 60.3751C89.6317 60.2952 89.7511 60.3352 89.7511 60.3352C89.7511 60.3352 90.0297 60.2952 89.9103 59.9758C89.7511 59.6164 89.4326 59.9359 89.4326 59.9359C89.4326 59.9359 89.4326 59.7362 89.2336 59.6963C89.0346 59.6164 88.8753 59.9758 89.0346 60.0956C89.0346 60.0956 88.5171 60.0557 88.5569 60.3751C88.5967 60.6945 88.7957 60.9341 88.9947 60.7744C88.9947 60.7744 88.9947 61.0539 89.2734 61.0938C89.5122 61.0938 89.5122 60.7744 89.5122 60.7744Z" fill="#FFD467"/>
<path d="M88.6341 57.1806C88.6341 57.1806 89.271 56.8212 88.8331 56.3021C88.3952 55.783 88.1166 56.0625 87.8379 56.2223C87.5991 56.382 87.7981 56.1424 87.7981 56.1424C87.7981 56.1424 87.9972 55.3837 87.0418 55.4236C86.0864 55.4636 86.4447 56.5018 86.4447 56.5018C86.4447 56.5018 85.967 56.3021 85.6087 56.7813C85.2505 57.2604 85.9272 57.9393 86.4049 57.6198C86.4049 57.6198 85.8078 58.8177 86.6039 59.0174C87.4001 59.217 88.236 58.9774 88.037 58.3386C88.037 58.3386 88.7535 58.6181 89.072 58.0191C89.3904 57.4202 88.6341 57.1806 88.6341 57.1806Z" fill="#DDC368"/>
<path d="M88.5568 57.1819C88.5568 57.1819 89.1539 56.8624 88.7559 56.3433C88.318 55.8641 88.0791 56.1037 87.8005 56.2635C87.5616 56.4232 87.7607 56.1836 87.7607 56.1836C87.7607 56.1836 87.9597 55.4648 87.0441 55.5048C86.1286 55.5447 86.4868 56.543 86.4868 56.543C86.4868 56.543 86.049 56.3833 85.7305 56.8225C85.4121 57.2617 86.049 57.9006 86.4868 57.6211C86.4868 57.6211 85.9295 58.7392 86.6461 58.9388C87.4024 59.1385 88.1986 58.8989 87.9995 58.2999C87.9995 58.2999 88.6762 58.5395 88.9947 57.9805C89.2733 57.4214 88.5568 57.1819 88.5568 57.1819Z" fill="#F3F0A5"/>
<path d="M87.7178 56.8612C87.7178 56.8612 87.8373 56.6216 87.5984 56.5418C87.3596 56.4619 87.3198 56.6216 87.28 56.7414C87.2402 56.8612 87.2402 56.7414 87.2402 56.7414C87.2402 56.7414 87.1207 56.4619 86.8421 56.7015C86.5634 56.9411 86.8819 57.1806 86.8819 57.1806C86.8819 57.1806 86.6829 57.2206 86.6829 57.4602C86.6829 57.6997 87.0411 57.7397 87.1207 57.54C87.1207 57.54 87.2004 58.0591 87.479 57.9393C87.7576 57.8195 87.9567 57.54 87.7576 57.4202C87.7576 57.4202 88.0363 57.3404 87.9965 57.1008C88.0363 56.7813 87.7178 56.8612 87.7178 56.8612Z" fill="#FFD467"/>
<path d="M61.0101 76.0676C60.9305 72.2742 60.9703 68.4808 61.1694 64.6874C61.249 62.7707 61.4082 60.894 61.647 58.9773C61.7665 58.019 61.9257 57.0606 62.1247 56.1422C62.3238 55.2238 62.483 54.3054 62.6422 53.3471C63.2791 49.6336 63.8364 45.8801 64.3937 42.1266L65.2297 36.4964C65.5083 34.6197 65.8268 32.7429 66.0656 30.8662C65.9064 34.6596 65.5083 38.453 65.1103 42.2065C64.6724 45.9999 64.1549 49.7534 63.5578 53.5068C63.3986 54.4252 63.1995 55.3836 63.0005 56.302C62.8014 57.2204 62.6422 58.1388 62.5228 59.0572C62.2441 60.9339 62.0849 62.8106 61.9257 64.6874C61.5674 68.5207 61.2888 72.2742 61.0101 76.0676Z" fill="#A4DAFE"/>
<path d="M109.652 21.4426C109.413 21.3628 102.367 26.2742 101.929 28.5503C101.491 30.8263 102.685 31.5051 102.685 31.5051C102.685 31.5051 100.178 31.9044 101.213 34.0207C102.248 36.177 107.343 36.5364 108.258 35.6579C109.174 34.8194 108.696 31.7048 108.696 31.7048C108.696 31.7048 116.737 24.118 109.652 21.4426Z" fill="#066DB7"/>
<path d="M103.761 31.2655C105.314 31.7446 106.866 31.3853 108.18 29.828C109.056 28.7498 109.095 28.5901 110.767 27.7915C110.051 27.7516 109.294 27.8714 108.618 28.2308C107.065 29.1092 107.264 30.6266 103.761 31.2655Z" fill="#011C2D"/>
<path d="M107.741 35.6579C108.736 31.1856 107.98 23.8783 107.98 23.8783L113.115 21.9617C113.115 21.9617 114.548 35.1388 114.349 35.1388C112.637 38.0537 107.502 37.8141 107.741 35.6579Z" fill="#FD9B9B"/>
<path d="M113.115 21.9219L107.98 23.8385C107.98 23.8385 108.139 25.3958 108.219 27.5122C109.294 27.033 110.408 26.5139 111.244 25.5556C112.08 24.6372 113.115 21.9219 113.115 21.9219Z" fill="#FD7B77"/>
<path d="M110.368 41.4879C113.871 41.408 115.424 43.4445 115.424 46.2795L114.19 46.2396C114.23 46.0799 114.23 45.4809 114.19 45.2014C113.991 43.3247 112.996 42.6059 111.563 42.1667C110.488 41.8872 108.975 41.6875 108.179 42.566L108.06 42.4861C108.577 41.7674 109.532 41.5278 110.368 41.4879Z" fill="#027CCD"/>
<path d="M101.89 13.4965C101.89 13.4965 105.791 18.368 107.383 19.0069C108.976 19.6059 112.558 20.5642 112.558 20.5642C112.558 20.5642 113.633 27.7517 113.553 29.309C113.553 29.309 120.36 28.1111 117.693 17.2101C116.698 13.0573 116.26 10.3819 112.001 8.58505C107.821 6.74825 103.283 9.46352 101.89 13.4965Z" fill="#027CCD"/>
<path d="M125.018 25.5156C125.058 25.5156 125.138 25.4757 125.138 25.3958C125.098 19.4462 119.605 16.8906 119.565 16.8507C119.445 16.8108 119.366 17.0104 119.485 17.0504C119.525 17.0903 124.899 19.6059 124.939 25.3958C124.939 25.4757 124.978 25.5156 125.018 25.5156Z" fill="#111F59"/>
<path d="M107.741 42.6458C107.741 42.6458 107.184 44.8819 107.463 45.6805C107.741 46.4391 111.205 46.0798 110.926 47.9964C110.687 49.9131 109.573 48.9947 109.573 48.9947C109.573 48.9947 109.811 50.4721 110.767 50.0728C111.722 49.6735 111.682 48.6753 111.682 48.6753C111.682 48.6753 112.319 49.4339 112.001 50.1128C112.001 50.1128 113.036 49.6336 113.115 48.1961C113.155 46.7586 112.638 45.6805 111.682 45.6405C110.727 45.6006 110.369 43.5242 110.369 43.5242L107.741 42.6458Z" fill="#027CCD"/>
<path d="M108.537 42.4063C110.567 42.1268 113.553 43.5244 112.677 45.441L113.433 45.7605C114.309 43.0452 110.925 41.6077 108.497 42.2067L108.537 42.4063Z" fill="#027CCD"/>
<path d="M106.707 42.2865C106.667 42.9254 107.145 43.4445 107.742 43.4445C108.339 43.4445 108.857 42.9653 108.857 42.3264C108.896 41.6876 108.419 41.1685 107.822 41.1685C107.264 41.1685 106.747 41.6876 106.707 42.2865Z" fill="#EA084D"/>
<path d="M105.075 12.1388C105.075 12.1388 102.329 13.0572 102.05 15.2135C101.771 17.3298 102.289 18.4079 102.17 19.4461C102.05 20.4843 102.17 22.401 103.404 25.3159C104.638 28.2707 108.817 26.5937 111.206 24.4773C113.913 22.0815 114.152 21.3628 114.152 17.5294C114.152 13.6961 109.494 10.5016 105.075 12.1388Z" fill="#FD9B9B"/>
<path d="M104.955 22.0817C104.995 21.7622 104.557 22.1216 103.801 21.0834C104.08 20.6042 104.279 20.0452 104.279 19.5261C104 20.5643 103.482 20.9636 103.403 21.0435C103.443 21.0834 104 22.0418 104.756 22.1615C104.876 22.2414 104.955 22.2015 104.955 22.0817Z" fill="#132759"/>
<path d="M106.691 19.6806C106.882 19.5315 106.916 19.2555 106.767 19.0642C106.619 18.8728 106.343 18.8386 106.153 18.9878C105.962 19.1369 105.928 19.4129 106.077 19.6042C106.225 19.7956 106.5 19.8298 106.691 19.6806Z" fill="#2846A6"/>
<path d="M102.915 19.564C103.105 19.415 103.14 19.139 102.991 18.9476C102.842 18.7562 102.567 18.7218 102.377 18.8708C102.186 19.0198 102.151 19.2958 102.3 19.4872C102.449 19.6786 102.724 19.713 102.915 19.564Z" fill="#2846A6"/>
<path d="M105.073 18.5676C105.591 18.5277 106.108 18.5676 106.626 18.7273C106.905 18.8072 107.104 18.927 107.342 19.0468C107.581 19.1666 107.78 19.2864 108.019 19.4461C107.741 19.4461 107.502 19.3662 107.263 19.2864C107.024 19.2065 106.785 19.0867 106.546 19.0069C106.069 18.8471 105.591 18.7273 105.073 18.5676Z" fill="#0F1D5B"/>
<path d="M101.651 18.5278C102.049 18.5278 102.407 18.5678 102.805 18.7275C103.004 18.8073 103.164 18.8872 103.363 19.007C103.522 19.1268 103.721 19.2066 103.88 19.3264C103.681 19.3264 103.482 19.2466 103.283 19.1667C103.084 19.0869 102.925 19.007 102.765 18.9271C102.407 18.7674 102.049 18.6476 101.651 18.5278Z" fill="#0F1D5B"/>
<path d="M105.073 17.21L105.273 17.769C105.273 17.769 106.666 17.6891 107.263 18.2482C107.263 18.2482 106.228 16.8506 105.073 17.21Z" fill="#0F1D5B"/>
<path d="M102.009 17.0104L102.088 17.5295C102.088 17.5295 103.482 17.4496 104.079 18.0086C104.079 18.0086 103.203 16.6909 102.009 17.0104Z" fill="#0F1D5B"/>
<path d="M103.84 23.599C103.84 23.599 105.393 23.4393 106.706 22.9202C106.706 22.9202 105.512 24.8368 104.756 24.757C104.039 24.6771 103.84 23.599 103.84 23.599Z" fill="white"/>
<path d="M102.447 10.1423C102.447 10.1423 100.258 10.5017 100.536 12.618C100.815 14.7343 106.069 17.2898 109.652 16.8506C111.006 16.6909 110.966 17.4895 111.483 18.0086C112.359 18.8871 113.075 19.9652 112.24 21.6023C110.926 24.2378 109.811 22.8402 109.811 22.8402C109.811 22.8402 110.806 24.4374 113.991 23.5989C117.176 22.7603 117.693 18.1284 115.424 15.3732C113.155 12.6579 110.767 11.3402 108.856 10.6614C104.636 9.18394 102.447 10.1423 102.447 10.1423Z" fill="#066DB7"/>
<path d="M112.678 17.4097C112.32 17.4097 110.687 18.4878 111.086 19.6058C111.484 20.7638 111.882 20.8437 112.917 20.3246C113.952 19.8454 113.593 17.4097 112.678 17.4097Z" fill="#FD9B9B"/>
<path d="M111.563 18.8873C111.563 18.8873 112.359 17.9289 112.757 18.4081C113.156 18.8873 112.996 19.7258 112.439 19.9654C111.882 20.2449 111.046 19.4463 111.563 18.8873Z" fill="#FD7B77"/>
<path d="M104.796 31.7047C104.796 31.7047 101.969 30.5068 100.934 32.5433C99.8995 34.5797 102.686 37.0954 103.84 37.4547C103.84 37.4547 102.487 38.2534 103.641 40.0103C104.796 41.8072 107.742 42.6058 107.742 42.6058C107.742 42.6058 111.404 38.0936 109.811 36.8558C108.219 35.6579 107.742 36.0572 107.742 36.0572C107.742 36.0572 110.329 34.3002 108.657 32.6232C106.985 30.9461 104.796 31.7047 104.796 31.7047Z" fill="#027CCD"/>
<path d="M107.662 22.1215C108.476 22.1215 109.135 21.7103 109.135 21.2031C109.135 20.6959 108.476 20.2847 107.662 20.2847C106.849 20.2847 106.189 20.6959 106.189 21.2031C106.189 21.7103 106.849 22.1215 107.662 22.1215Z" fill="#FD7B77"/>
<path d="M103.284 21.4426C103.284 21.0033 102.806 20.644 102.169 20.5242C102.209 21.0033 102.289 21.6023 102.448 22.2811C102.926 22.1613 103.284 21.8419 103.284 21.4426Z" fill="#FD7B77"/>
<path d="M121.557 56.8211C121.557 58.019 117.656 59.3767 118.771 60.4947C119.885 61.6128 122.393 60.2551 121.796 61.7725C121.199 63.3298 117.576 67.0034 119.567 68.9999C121.438 70.8767 128.563 71.7951 133.619 74.9097C128.364 71.4756 122.592 68.4808 122.592 68.4808H122.433C122.473 68.4808 122.512 68.4409 122.512 68.4409L123.508 45.8003C123.508 45.8003 122.114 53.3472 119.527 55.0642C116.979 56.7413 121.557 55.5833 121.557 56.8211Z" fill="#780337"/>
<path d="M134.455 75.4688C134.496 75.5095 134.537 75.5095 134.537 75.5095C134.496 75.4687 134.496 75.4688 134.455 75.4688Z" fill="#B75A83"/>
<path d="M126.215 37.2951C122.433 33.7812 119.726 33.9808 119.726 33.9808C118.333 34.2604 121.757 44.4027 124.105 46.9183C125.419 48.3558 129.798 60.2152 131.39 64.0485C132.624 66.9635 118.453 72.2742 118.333 72.2742C117.855 72.3142 115.985 72.8333 114.751 73.2326C113.517 73.6319 112.482 73.2326 112.203 73.5121C111.964 73.7517 112.601 74.1909 113.397 73.9913C114.153 73.7916 115.427 73.4722 115.348 74.1909C115.308 74.9097 110.81 75.868 110.73 75.868C110.292 75.9479 109.496 76.2274 109.894 76.427C110.133 76.5069 111.566 76.2673 112.442 76.0277C113.915 75.6284 114.392 75.5086 114.591 75.5885C114.631 75.7482 113.676 76.0277 111.566 76.7465C109.297 77.5051 108.063 78.8229 112.601 77.026C113.835 76.5069 114.91 76.2274 114.91 76.3472C114.95 76.7065 114.114 76.986 113.357 77.3454C112.601 77.6649 111.009 78.4635 111.845 78.6232C112.044 78.6232 112.999 78.1041 113.716 77.7447C115.228 76.9461 115.706 76.7465 115.905 76.8263C115.945 77.0659 115.666 77.4652 114.551 78.0242C114.233 78.184 113.716 78.4235 113.397 78.6232C113.278 78.7031 113.357 78.8628 113.517 78.8229C114.114 78.6631 115.228 78.2239 116.383 77.4652C117.617 76.6666 119.368 75.0694 120.403 74.0711C120.602 74.0312 136.883 70.6371 136.883 66.684C136.923 62.3715 130.594 41.368 126.215 37.2951Z" fill="#FD9B9B"/>
<path d="M27.9311 31.7846C27.8913 31.7846 27.8515 31.7846 27.8117 31.7447C27.7321 31.6648 27.6923 31.5451 27.7719 31.4253C34.1411 22.6805 39.117 23.1596 42.7792 23.519C43.4161 23.5989 44.0132 23.6388 44.5705 23.6388C44.69 23.6388 44.8094 23.7586 44.8094 23.8784C44.8094 23.9982 44.69 24.118 44.5705 24.118C44.0132 24.118 43.3763 24.078 42.7394 23.9982C39.1966 23.6787 34.3401 23.1996 28.1302 31.7048C28.0904 31.7447 28.0108 31.7846 27.9311 31.7846Z" fill="#18287D"/>
</svg>
