<svg width="214" height="146" viewBox="0 0 214 146" fill="none" xmlns="http://www.w3.org/2000/svg">
<path d="M88.5658 77.9132C89.0637 77.9132 89.4674 77.5095 89.4674 77.0116C89.4674 76.5136 89.0637 76.1099 88.5658 76.1099C88.0678 76.1099 87.6641 76.5136 87.6641 77.0116C87.6641 77.5095 88.0678 77.9132 88.5658 77.9132Z" fill="#B1B5F5"/>
<path d="M151.196 122.817C185.882 122.817 214 118.86 214 113.978C214 109.097 185.882 105.139 151.196 105.139C116.51 105.139 88.3916 109.097 88.3916 113.978C88.3916 118.86 116.51 122.817 151.196 122.817Z" fill="#B1B5F5"/>
<path d="M151.196 122.817C185.882 122.817 214 118.86 214 113.978C214 109.097 185.882 105.139 151.196 105.139C116.51 105.139 88.3916 109.097 88.3916 113.978C88.3916 118.86 116.51 122.817 151.196 122.817Z" fill="#066EBA"/>
<path d="M189.168 92.4689C186.643 79.1239 171.83 78.789 171.83 78.789C171.83 78.789 147.356 75.749 128.317 76.6765C119.944 77.0887 110.258 78.8148 103.92 84.8174C97.9946 90.4337 97.3248 99.2445 102.091 105.814C107.398 113.105 119.377 114.985 127.776 116.17C140.76 118 154.518 119.133 167.528 115.99C179.791 113.027 191.899 106.973 189.168 92.4689ZM161.293 92.7523C160.366 94.7102 157.326 94.8648 154.956 95.6377C146.454 98.4458 135.737 95.0967 125.406 91.8249C119.996 90.1245 132.259 86.6981 132.259 86.6981C132.259 86.6981 136.123 85.6676 143.826 85.6676C148.592 85.6676 154.105 86.5178 158.511 88.3984C161.473 89.6866 161.989 91.2581 161.293 92.7523Z" fill="#022D48"/>
<path d="M163.198 43.8809C163.198 43.8809 164.1 51.6611 163.198 56.5818C163.198 56.5818 161.601 59.5702 158.87 58.4882C156.139 57.4062 156.68 54.7269 157.092 54.7269C157.504 54.7269 159.437 52.3825 159.05 49.3683L163.198 43.8809Z" fill="#FD9B9B"/>
<path d="M159.025 51.3777C161.807 50.9398 162.967 49.6001 163.508 47.0496C163.405 45.5554 163.199 43.8809 163.199 43.8809L159.025 49.3683C159.128 50.0896 159.077 50.7594 158.974 51.3777C158.999 51.3777 159.025 51.3777 159.025 51.3777Z" fill="#FD7B77"/>
<path d="M125.329 94.5301C125.329 94.5301 149.056 93.2162 155.497 95.7924C161.937 98.3687 130.893 103.753 127.493 100.352C124.092 96.9517 125.329 94.5301 125.329 94.5301Z" fill="#011C2D"/>
<path d="M186.128 86.2601C186.308 86.4919 186.592 86.6208 186.849 86.595C186.798 86.4919 186.721 86.4147 186.669 86.3116C186.54 86.2858 186.412 86.2086 186.334 86.0797C186.231 85.9509 186.205 85.7963 186.205 85.6675C186.128 85.5902 186.077 85.4872 185.999 85.4099C185.922 85.6933 185.948 86.0282 186.128 86.2601Z" fill="white"/>
<path d="M176.518 81.9579C176.905 81.6745 176.982 81.1077 176.673 80.7213C176.39 80.3349 175.823 80.2576 175.436 80.5667C175.05 80.8501 174.973 81.4169 175.282 81.8033C175.591 82.164 176.132 82.2413 176.518 81.9579ZM175.617 80.7728C175.9 80.5667 176.287 80.6183 176.493 80.8759C176.699 81.1593 176.647 81.5457 176.39 81.7518C176.106 81.9579 175.72 81.9064 175.514 81.6488C175.308 81.3654 175.359 80.9789 175.617 80.7728Z" fill="white"/>
<path d="M179.61 85.9767C179.996 85.6933 180.073 85.1265 179.764 84.7401C179.481 84.3537 178.914 84.2764 178.528 84.5855C178.141 84.8689 178.064 85.4357 178.373 85.8221C178.682 86.1828 179.249 86.2601 179.61 85.9767ZM178.708 84.7916C178.991 84.5855 179.378 84.6371 179.584 84.8947C179.79 85.1781 179.739 85.5645 179.481 85.7706C179.198 85.9767 178.811 85.9252 178.605 85.6676C178.399 85.3842 178.45 84.9977 178.708 84.7916Z" fill="white"/>
<path d="M182.727 89.9958C183.114 89.7124 183.191 89.1456 182.882 88.7591C182.598 88.3727 182.032 88.2954 181.645 88.6046C181.259 88.888 181.181 89.4547 181.491 89.8412C181.774 90.2019 182.341 90.2791 182.727 89.9958ZM181.8 88.8107C182.083 88.6046 182.47 88.6561 182.676 88.9137C182.882 89.1971 182.83 89.5835 182.573 89.7896C182.289 89.9957 181.903 89.9442 181.697 89.6866C181.491 89.4032 181.542 89.0168 181.8 88.8107Z" fill="white"/>
<path d="M184.736 92.6234C184.35 92.9068 184.272 93.4736 184.582 93.8601C184.865 94.2465 185.432 94.3238 185.818 94.0146C186.205 93.7312 186.282 93.1645 185.973 92.778C185.689 92.3916 185.123 92.3401 184.736 92.6234ZM185.664 93.8085C185.38 94.0146 184.994 93.9631 184.788 93.7055C184.582 93.4221 184.633 93.0356 184.891 92.8295C185.174 92.6234 185.561 92.675 185.767 92.9326C185.973 93.216 185.921 93.6024 185.664 93.8085Z" fill="white"/>
<path d="M189.064 96.797C188.78 96.4106 188.214 96.3333 187.827 96.6424C187.441 96.9258 187.364 97.4926 187.673 97.879C187.956 98.2655 188.523 98.3427 188.909 98.0336C189.296 97.7502 189.347 97.1834 189.064 96.797ZM188.755 97.8275C188.471 98.0336 188.085 97.9821 187.879 97.7244C187.673 97.4411 187.724 97.0546 187.982 96.8485C188.265 96.6424 188.652 96.6939 188.858 96.9516C189.064 97.235 189.012 97.6214 188.755 97.8275Z" fill="white"/>
<path d="M168.79 81.494C169.176 81.2107 169.253 80.6439 168.944 80.2574C168.661 79.871 168.094 79.7937 167.708 80.1029C167.321 80.3863 167.244 80.953 167.553 81.3395C167.862 81.7001 168.403 81.7774 168.79 81.494ZM167.888 80.309C168.171 80.1029 168.558 80.1544 168.764 80.412C168.97 80.6954 168.918 81.0818 168.661 81.2879C168.377 81.494 167.991 81.4425 167.785 81.1849C167.553 80.9015 167.605 80.5151 167.888 80.309Z" fill="white"/>
<path d="M171.881 85.5131C172.267 85.2297 172.344 84.6629 172.035 84.2765C171.752 83.8901 171.185 83.8128 170.799 84.1219C170.412 84.4053 170.335 84.9721 170.644 85.3585C170.953 85.7192 171.494 85.7965 171.881 85.5131ZM170.979 84.328C171.262 84.1219 171.649 84.1734 171.855 84.4311C172.061 84.7145 172.01 85.1009 171.752 85.307C171.469 85.5131 171.082 85.4616 170.876 85.2039C170.67 84.9463 170.696 84.5341 170.979 84.328Z" fill="white"/>
<path d="M174.972 89.5319C175.358 89.2485 175.436 88.6817 175.127 88.2953C174.843 87.9088 174.276 87.8316 173.89 88.1407C173.504 88.4241 173.426 88.9909 173.735 89.3773C174.045 89.738 174.586 89.8153 174.972 89.5319ZM174.07 88.3468C174.354 88.1407 174.74 88.1922 174.946 88.4499C175.152 88.7333 175.101 89.1197 174.843 89.3258C174.56 89.5319 174.173 89.4804 173.967 89.2227C173.735 88.9394 173.787 88.5529 174.07 88.3468Z" fill="white"/>
<path d="M178.219 92.3143C177.935 91.9279 177.368 91.8506 176.982 92.1598C176.596 92.4431 176.518 93.0099 176.827 93.3964C177.111 93.7828 177.678 93.8601 178.064 93.5509C178.451 93.2675 178.528 92.7008 178.219 92.3143ZM177.91 93.3448C177.626 93.5509 177.24 93.4994 177.034 93.2418C176.827 92.9584 176.879 92.572 177.137 92.3658C177.42 92.1597 177.806 92.2113 178.013 92.4689C178.244 92.7523 178.193 93.1387 177.91 93.3448Z" fill="white"/>
<path d="M181.311 96.3334C181.027 95.9469 180.461 95.8696 180.074 96.1788C179.688 96.4622 179.61 97.029 179.92 97.4154C180.203 97.8018 180.77 97.8791 181.156 97.57C181.543 97.2866 181.62 96.7198 181.311 96.3334ZM181.002 97.3639C180.718 97.57 180.332 97.5184 180.126 97.2608C179.92 97.0032 179.971 96.591 180.229 96.3849C180.512 96.1788 180.898 96.2303 181.105 96.4879C181.336 96.7713 181.285 97.1578 181.002 97.3639Z" fill="white"/>
<path d="M183.191 100.198C182.804 100.481 182.727 101.048 183.036 101.434C183.319 101.821 183.886 101.898 184.273 101.589C184.659 101.305 184.736 100.739 184.427 100.352C184.118 99.9915 183.577 99.9143 183.191 100.198ZM184.092 101.383C183.809 101.589 183.422 101.537 183.216 101.28C183.01 100.996 183.062 100.61 183.319 100.404C183.603 100.198 183.989 100.249 184.195 100.507C184.427 100.79 184.376 101.177 184.092 101.383Z" fill="white"/>
<path d="M186.282 104.217C185.895 104.5 185.818 105.067 186.127 105.453C186.256 105.608 186.411 105.711 186.591 105.762C186.643 105.685 186.694 105.608 186.746 105.531C186.591 105.505 186.436 105.428 186.333 105.299C186.127 105.015 186.179 104.629 186.436 104.423C186.72 104.217 187.106 104.268 187.312 104.526C187.338 104.552 187.338 104.577 187.364 104.603C187.415 104.526 187.467 104.449 187.518 104.371C187.209 104.011 186.668 103.933 186.282 104.217Z" fill="white"/>
<path d="M161.036 81.0304C161.422 80.747 161.499 80.1803 161.19 79.7938C160.907 79.4074 160.34 79.3301 159.953 79.6392C159.567 79.9226 159.49 80.4894 159.799 80.8759C160.108 81.2365 160.649 81.3138 161.036 81.0304ZM160.134 79.8454C160.417 79.6392 160.804 79.6908 161.01 79.9484C161.216 80.2318 161.164 80.6182 160.907 80.8243C160.623 81.0304 160.237 80.9789 160.031 80.7213C159.825 80.4379 159.876 80.0515 160.134 79.8454Z" fill="white"/>
<path d="M164.127 85.0492C164.513 84.7658 164.59 84.1991 164.281 83.8126C163.998 83.4262 163.431 83.3489 163.045 83.658C162.658 83.9414 162.581 84.5082 162.89 84.8946C163.199 85.2553 163.766 85.3326 164.127 85.0492ZM163.225 83.8641C163.508 83.658 163.895 83.7096 164.101 83.9672C164.307 84.2506 164.255 84.637 163.998 84.8431C163.714 85.0492 163.328 84.9977 163.122 84.7401C162.916 84.4567 162.967 84.0702 163.225 83.8641Z" fill="white"/>
<path d="M167.218 89.0683C167.604 88.7849 167.682 88.2181 167.372 87.8317C167.089 87.4452 166.522 87.3679 166.136 87.6771C165.749 87.9605 165.672 88.5272 165.981 88.9137C166.29 89.2744 166.857 89.3516 167.218 89.0683ZM166.316 87.8832C166.6 87.6771 166.986 87.7286 167.192 87.9862C167.398 88.2696 167.347 88.6561 167.089 88.8622C166.806 89.0683 166.419 89.0167 166.213 88.7591C166.007 88.4757 166.059 88.0893 166.316 87.8832Z" fill="white"/>
<path d="M169.099 92.9327C169.382 93.3192 169.949 93.3965 170.335 93.0873C170.722 92.8039 170.799 92.2371 170.49 91.8507C170.206 91.4643 169.64 91.387 169.253 91.6961C168.867 92.0053 168.815 92.5463 169.099 92.9327ZM169.408 91.9022C169.691 91.6961 170.078 91.7477 170.284 92.0053C170.49 92.2887 170.438 92.6751 170.181 92.8812C169.897 93.0873 169.511 93.0358 169.305 92.7782C169.099 92.4948 169.15 92.1083 169.408 91.9022Z" fill="white"/>
<path d="M173.581 95.8954C173.298 95.5089 172.731 95.4317 172.344 95.7408C171.958 96.0242 171.881 96.591 172.19 96.9774C172.473 97.3639 173.04 97.4411 173.426 97.132C173.787 96.8228 173.864 96.2561 173.581 95.8954ZM173.272 96.9001C172.988 97.1062 172.602 97.0547 172.396 96.7971C172.19 96.5137 172.241 96.1272 172.499 95.9211C172.782 95.715 173.169 95.7666 173.375 96.0242C173.581 96.3076 173.529 96.694 173.272 96.9001Z" fill="white"/>
<path d="M175.436 99.734C175.05 100.017 174.973 100.584 175.282 100.971C175.565 101.357 176.132 101.434 176.518 101.125C176.905 100.842 176.982 100.275 176.673 99.8886C176.39 99.5279 175.823 99.4506 175.436 99.734ZM176.364 100.919C176.08 101.125 175.694 101.074 175.488 100.816C175.282 100.533 175.333 100.146 175.591 99.9401C175.874 99.734 176.261 99.7855 176.467 100.043C176.673 100.327 176.621 100.713 176.364 100.919Z" fill="white"/>
<path d="M178.553 103.753C178.167 104.036 178.089 104.603 178.399 104.989C178.682 105.376 179.249 105.453 179.635 105.144C180.022 104.861 180.099 104.294 179.79 103.907C179.481 103.547 178.914 103.469 178.553 103.753ZM179.455 104.938C179.171 105.144 178.785 105.092 178.579 104.835C178.373 104.551 178.424 104.165 178.682 103.959C178.965 103.753 179.352 103.804 179.558 104.062C179.764 104.345 179.712 104.732 179.455 104.938Z" fill="white"/>
<path d="M181.645 107.798C181.259 108.081 181.181 108.648 181.491 109.034C181.774 109.421 182.341 109.498 182.727 109.189C183.114 108.905 183.191 108.339 182.882 107.952C182.573 107.566 182.032 107.489 181.645 107.798ZM182.547 108.957C182.263 109.163 181.877 109.112 181.671 108.854C181.465 108.571 181.516 108.184 181.774 107.978C182.057 107.772 182.444 107.823 182.65 108.081C182.856 108.364 182.804 108.751 182.547 108.957Z" fill="white"/>
<path d="M153.307 80.5666C153.693 80.2832 153.77 79.7164 153.461 79.33C153.178 78.9435 152.611 78.8662 152.225 79.1754C151.838 79.4588 151.761 80.0255 152.07 80.412C152.379 80.7727 152.92 80.8499 153.307 80.5666ZM152.405 79.3815C152.688 79.1754 153.075 79.2269 153.281 79.4845C153.487 79.7679 153.436 80.1544 153.178 80.3605C152.895 80.5666 152.508 80.515 152.302 80.2574C152.07 79.974 152.122 79.5876 152.405 79.3815Z" fill="white"/>
<path d="M156.398 84.5856C156.784 84.3022 156.862 83.7354 156.552 83.349C156.269 82.9626 155.702 82.8853 155.316 83.1944C154.929 83.4778 154.852 84.0446 155.161 84.431C155.47 84.7917 156.011 84.869 156.398 84.5856ZM155.496 83.4005C155.78 83.1944 156.166 83.2459 156.372 83.5036C156.578 83.787 156.527 84.1734 156.269 84.3795C155.986 84.5856 155.599 84.5341 155.393 84.2764C155.161 83.9931 155.213 83.6066 155.496 83.4005Z" fill="white"/>
<path d="M159.206 88.7592C159.309 88.7335 159.412 88.6819 159.489 88.6046C159.875 88.3213 159.953 87.7545 159.644 87.368C159.36 86.9816 158.793 86.9043 158.407 87.2135C158.072 87.4711 157.969 87.9091 158.149 88.2697C158.278 88.3213 158.381 88.3728 158.484 88.4243C158.768 88.5274 158.999 88.6304 159.206 88.7592ZM158.587 87.4196C158.871 87.2135 159.257 87.265 159.463 87.5226C159.669 87.806 159.618 88.1924 159.36 88.3985C159.077 88.6046 158.69 88.5531 158.484 88.2955C158.252 88.0121 158.304 87.6257 158.587 87.4196Z" fill="white"/>
<path d="M161.679 91.4385C161.963 91.2324 162.349 91.2839 162.555 91.5416C162.761 91.8249 162.71 92.2114 162.452 92.4175C162.169 92.6236 161.782 92.5721 161.576 92.3144C161.55 92.2887 161.525 92.2371 161.525 92.2114C161.499 92.3144 161.473 92.4175 161.422 92.5205C161.731 92.8554 162.246 92.907 162.607 92.6236C162.993 92.3402 163.07 91.7734 162.761 91.387C162.478 91.0005 161.937 90.9232 161.55 91.2066C161.576 91.3097 161.576 91.4127 161.576 91.5158C161.602 91.5158 161.628 91.4643 161.679 91.4385Z" fill="white"/>
<path d="M164.462 96.4879C164.745 96.8743 165.312 96.9516 165.699 96.6425C166.085 96.3591 166.162 95.7923 165.853 95.4059C165.57 95.0194 165.003 94.9422 164.617 95.2513C164.23 95.5605 164.153 96.1015 164.462 96.4879ZM164.771 95.4574C165.055 95.2513 165.441 95.3028 165.647 95.5605C165.853 95.8438 165.802 96.2303 165.544 96.4364C165.261 96.6425 164.874 96.591 164.668 96.3333C164.436 96.0499 164.488 95.6635 164.771 95.4574Z" fill="white"/>
<path d="M168.918 99.4506C168.634 99.0641 168.068 98.9868 167.681 99.296C167.295 99.5794 167.218 100.146 167.527 100.533C167.81 100.919 168.377 100.996 168.763 100.687C169.15 100.378 169.227 99.837 168.918 99.4506ZM168.609 100.455C168.325 100.661 167.939 100.61 167.733 100.352C167.527 100.069 167.578 99.6824 167.836 99.4763C168.119 99.2702 168.506 99.3217 168.712 99.5794C168.944 99.8628 168.892 100.249 168.609 100.455Z" fill="white"/>
<path d="M170.799 103.289C170.412 103.573 170.335 104.139 170.644 104.526C170.928 104.912 171.494 104.99 171.881 104.68C172.267 104.397 172.344 103.83 172.035 103.444C171.726 103.083 171.185 103.006 170.799 103.289ZM171.7 104.474C171.417 104.68 171.031 104.629 170.824 104.371C170.618 104.088 170.67 103.701 170.928 103.495C171.211 103.289 171.597 103.341 171.803 103.598C172.035 103.882 171.984 104.268 171.7 104.474Z" fill="white"/>
<path d="M173.89 107.334C173.504 107.617 173.426 108.184 173.735 108.57C174.019 108.957 174.586 109.034 174.972 108.725C175.358 108.442 175.436 107.875 175.127 107.488C174.817 107.102 174.276 107.025 173.89 107.334ZM174.792 108.519C174.508 108.725 174.122 108.673 173.916 108.416C173.71 108.132 173.761 107.746 174.019 107.54C174.302 107.334 174.689 107.385 174.895 107.643C175.127 107.901 175.075 108.287 174.792 108.519Z" fill="white"/>
<path d="M178.219 111.507C177.935 111.121 177.368 111.044 176.982 111.353C176.596 111.636 176.518 112.203 176.827 112.589C176.905 112.693 177.008 112.77 177.137 112.847C177.265 112.796 177.368 112.744 177.497 112.693C177.317 112.693 177.162 112.589 177.034 112.461C176.827 112.177 176.879 111.791 177.137 111.585C177.42 111.379 177.806 111.43 178.013 111.688C178.193 111.92 178.167 112.203 178.013 112.435C178.141 112.383 178.244 112.332 178.373 112.255C178.425 111.997 178.373 111.714 178.219 111.507Z" fill="white"/>
<path d="M145.552 80.1029C145.938 79.8195 146.015 79.2528 145.706 78.8663C145.423 78.4799 144.856 78.4026 144.47 78.7118C144.083 78.9951 144.006 79.5619 144.315 79.9484C144.624 80.309 145.165 80.3863 145.552 80.1029ZM144.65 78.9179C144.933 78.7118 145.32 78.7633 145.526 79.0209C145.732 79.3043 145.68 79.6907 145.423 79.8968C145.139 80.1029 144.753 80.0514 144.547 79.7938C144.341 79.5104 144.392 79.124 144.65 78.9179Z" fill="white"/>
<path d="M148.643 84.122C149.029 83.8386 149.106 83.2718 148.797 82.8854C148.514 82.4989 147.947 82.4216 147.561 82.7308C147.174 83.0142 147.097 83.581 147.406 83.9674C147.715 84.3538 148.256 84.4054 148.643 84.122ZM147.741 82.9369C148.024 82.7308 148.411 82.7823 148.617 83.04C148.823 83.3233 148.772 83.7098 148.514 83.9159C148.23 84.122 147.844 84.0705 147.638 83.8128C147.432 83.5294 147.483 83.143 147.741 82.9369Z" fill="white"/>
<path d="M157.893 95.1224C158.099 95.4058 158.047 95.7922 157.789 95.9983C157.506 96.2044 157.12 96.1529 156.914 95.8952C156.733 95.6634 156.759 95.38 156.914 95.1481C156.811 95.1739 156.707 95.1997 156.579 95.2254C156.476 95.483 156.527 95.7922 156.707 96.0498C156.991 96.4363 157.558 96.5135 157.944 96.2044C158.331 95.921 158.408 95.3542 158.099 94.9678C158.073 94.9163 158.047 94.8905 157.996 94.8647C157.893 94.8905 157.789 94.9163 157.661 94.942C157.764 94.9678 157.841 95.0451 157.893 95.1224Z" fill="white"/>
<path d="M161.19 98.9869C160.907 98.6005 160.34 98.5232 159.953 98.8324C159.567 99.1157 159.49 99.6825 159.799 100.069C160.082 100.455 160.649 100.533 161.036 100.224C161.422 99.9144 161.473 99.3734 161.19 98.9869ZM160.881 99.9917C160.598 100.198 160.211 100.146 160.005 99.8886C159.799 99.6052 159.85 99.2188 160.108 99.0127C160.391 98.8066 160.778 98.8581 160.984 99.1157C161.19 99.3991 161.139 99.7856 160.881 99.9917Z" fill="white"/>
<path d="M164.281 103.006C163.998 102.619 163.431 102.542 163.045 102.851C162.658 103.135 162.581 103.701 162.89 104.088C163.173 104.474 163.74 104.551 164.127 104.242C164.513 103.933 164.565 103.392 164.281 103.006ZM163.972 104.036C163.689 104.242 163.302 104.191 163.096 103.933C162.89 103.65 162.942 103.263 163.199 103.057C163.483 102.851 163.869 102.903 164.075 103.16C164.281 103.418 164.23 103.804 163.972 104.036Z" fill="white"/>
<path d="M166.161 106.87C165.775 107.154 165.698 107.72 166.007 108.107C166.29 108.493 166.857 108.571 167.243 108.261C167.63 107.978 167.707 107.411 167.398 107.025C167.089 106.638 166.522 106.561 166.161 106.87ZM167.063 108.055C166.78 108.261 166.393 108.21 166.187 107.952C165.981 107.669 166.032 107.282 166.29 107.076C166.573 106.87 166.96 106.922 167.166 107.179C167.372 107.463 167.321 107.849 167.063 108.055Z" fill="white"/>
<path d="M169.253 110.889C168.867 111.173 168.79 111.739 169.099 112.126C169.382 112.512 169.949 112.59 170.335 112.28C170.722 111.997 170.799 111.43 170.49 111.044C170.181 110.657 169.64 110.58 169.253 110.889ZM170.155 112.074C169.872 112.28 169.485 112.229 169.279 111.971C169.073 111.688 169.124 111.301 169.382 111.095C169.665 110.889 170.052 110.941 170.258 111.198C170.464 111.482 170.413 111.868 170.155 112.074Z" fill="white"/>
<path d="M137.823 79.6393C138.209 79.3559 138.287 78.7891 137.977 78.4027C137.694 78.0163 137.127 77.939 136.741 78.2481C136.354 78.5315 136.277 79.0983 136.586 79.4847C136.895 79.8454 137.436 79.9227 137.823 79.6393ZM136.921 78.4542C137.205 78.2481 137.591 78.2997 137.797 78.5573C138.003 78.8407 137.952 79.2271 137.694 79.4332C137.411 79.6393 137.024 79.5878 136.818 79.3302C136.586 79.0468 136.638 78.6603 136.921 78.4542Z" fill="white"/>
<path d="M140.915 83.6581C141.301 83.3747 141.379 82.8079 141.069 82.4215C140.786 82.0351 140.219 81.9578 139.833 82.2669C139.446 82.5503 139.369 83.1171 139.678 83.5035C139.987 83.89 140.528 83.9415 140.915 83.6581ZM140.013 82.473C140.297 82.2669 140.683 82.3185 140.889 82.5761C141.095 82.8595 141.044 83.2459 140.786 83.452C140.503 83.6581 140.116 83.6066 139.91 83.349C139.678 83.0656 139.73 82.6791 140.013 82.473Z" fill="white"/>
<path d="M150.034 95.509C149.751 95.7151 149.364 95.6636 149.158 95.4059C148.978 95.1741 149.003 94.8134 149.21 94.6073C149.107 94.6073 149.003 94.5815 148.9 94.5815C148.72 94.8907 148.72 95.2771 148.952 95.5605C149.235 95.947 149.802 96.0242 150.189 95.7151C150.498 95.4832 150.601 95.071 150.472 94.7361C150.369 94.7361 150.266 94.7104 150.163 94.7104C150.343 94.968 150.292 95.3287 150.034 95.509Z" fill="white"/>
<path d="M153.435 98.5231C153.152 98.1366 152.585 98.0593 152.198 98.3685C151.812 98.6519 151.735 99.2187 152.044 99.6051C152.327 99.9915 152.894 100.069 153.28 99.7597C153.667 99.4505 153.744 98.9095 153.435 98.5231ZM153.126 99.5278C152.842 99.7339 152.456 99.6824 152.25 99.4248C152.044 99.1414 152.095 98.7549 152.353 98.5488C152.636 98.3427 153.023 98.3943 153.229 98.6519C153.461 98.9353 153.409 99.3217 153.126 99.5278Z" fill="white"/>
<path d="M156.552 102.542C156.269 102.156 155.702 102.078 155.316 102.388C154.929 102.671 154.852 103.238 155.161 103.624C155.445 104.011 156.011 104.088 156.398 103.779C156.759 103.47 156.836 102.929 156.552 102.542ZM156.217 103.573C155.934 103.779 155.548 103.727 155.342 103.47C155.135 103.186 155.187 102.8 155.445 102.594C155.728 102.388 156.114 102.439 156.321 102.697C156.552 102.954 156.501 103.367 156.217 103.573Z" fill="white"/>
<path d="M158.407 106.407C158.02 106.69 157.943 107.257 158.252 107.643C158.536 108.03 159.102 108.107 159.489 107.798C159.875 107.514 159.953 106.948 159.643 106.561C159.334 106.175 158.793 106.097 158.407 106.407ZM159.309 107.592C159.025 107.798 158.639 107.746 158.433 107.489C158.227 107.205 158.278 106.819 158.536 106.613C158.819 106.407 159.205 106.458 159.412 106.716C159.643 106.999 159.592 107.386 159.309 107.592Z" fill="white"/>
<path d="M161.499 110.425C161.113 110.709 161.035 111.276 161.345 111.662C161.628 112.048 162.195 112.126 162.581 111.817C162.968 111.533 163.045 110.966 162.736 110.58C162.427 110.194 161.886 110.116 161.499 110.425ZM162.401 111.61C162.117 111.817 161.731 111.765 161.525 111.507C161.319 111.224 161.37 110.838 161.628 110.631C161.911 110.425 162.298 110.477 162.504 110.735C162.736 111.018 162.684 111.404 162.401 111.61Z" fill="white"/>
<path d="M164.591 114.444C164.205 114.728 164.127 115.294 164.437 115.681C164.72 116.067 165.287 116.145 165.673 115.835C166.06 115.552 166.137 114.985 165.828 114.599C165.519 114.212 164.978 114.161 164.591 114.444ZM165.493 115.629C165.209 115.835 164.823 115.784 164.617 115.526C164.411 115.243 164.462 114.856 164.72 114.65C165.003 114.444 165.39 114.496 165.596 114.753C165.828 115.037 165.776 115.423 165.493 115.629Z" fill="white"/>
<path d="M130.068 79.1754C130.455 78.8921 130.532 78.3253 130.223 77.9388C129.94 77.5524 129.373 77.4751 128.986 77.7843C128.6 78.0677 128.523 78.6344 128.832 79.0209C129.141 79.4073 129.682 79.4588 130.068 79.1754ZM129.167 77.9904C129.45 77.7843 129.837 77.8358 130.043 78.0934C130.249 78.3768 130.197 78.7632 129.94 78.9693C129.656 79.1754 129.27 79.1239 129.064 78.8663C128.832 78.5829 128.883 78.1965 129.167 77.9904Z" fill="white"/>
<path d="M133.16 83.1945C133.546 82.9111 133.623 82.3443 133.314 81.9579C133.031 81.5714 132.464 81.4942 132.078 81.8033C131.691 82.0867 131.614 82.6535 131.923 83.0399C132.232 83.4264 132.773 83.4779 133.16 83.1945ZM132.258 82.0094C132.541 81.8033 132.928 81.8548 133.134 82.1125C133.34 82.3958 133.289 82.7823 133.031 82.9884C132.748 83.1945 132.361 83.143 132.155 82.8853C131.949 82.6019 132 82.2155 132.258 82.0094Z" fill="white"/>
<path d="M135.194 86.2085C135.22 86.157 135.272 86.0797 135.349 86.054C135.607 85.8736 135.942 85.8994 136.148 86.1055C136.251 86.1055 136.354 86.0797 136.457 86.0797C136.457 86.054 136.431 86.054 136.405 86.0282C136.122 85.6418 135.555 85.5645 135.169 85.8736C135.04 85.9767 134.937 86.1312 134.885 86.2858C135.014 86.2343 135.091 86.2085 135.194 86.2085Z" fill="white"/>
<path d="M142.28 95.0451C141.996 95.2512 141.61 95.1997 141.404 94.9421C141.249 94.736 141.249 94.4268 141.378 94.2207C141.275 94.2207 141.198 94.2207 141.095 94.2207C140.966 94.5041 141.017 94.839 141.198 95.0966C141.481 95.4831 142.048 95.5604 142.434 95.2512C142.743 95.0193 142.846 94.6071 142.718 94.2465C142.614 94.2465 142.537 94.2465 142.434 94.2465C142.614 94.5041 142.537 94.8648 142.28 95.0451Z" fill="white"/>
<path d="M145.706 98.0594C145.423 97.673 144.856 97.5957 144.47 97.9049C144.083 98.1883 144.006 98.755 144.315 99.1415C144.598 99.5279 145.165 99.6052 145.552 99.2961C145.912 98.9869 145.99 98.4459 145.706 98.0594ZM145.397 99.0899C145.114 99.296 144.727 99.2445 144.521 98.9869C144.315 98.7035 144.367 98.3171 144.624 98.111C144.908 97.9049 145.294 97.9564 145.5 98.214C145.706 98.4716 145.655 98.8838 145.397 99.0899Z" fill="white"/>
<path d="M148.797 102.078C148.514 101.692 147.947 101.615 147.561 101.924C147.174 102.207 147.097 102.774 147.406 103.16C147.689 103.547 148.256 103.624 148.643 103.315C149.029 103.006 149.081 102.465 148.797 102.078ZM148.488 103.109C148.205 103.315 147.818 103.263 147.612 103.006C147.406 102.722 147.458 102.336 147.715 102.13C147.999 101.924 148.385 101.975 148.591 102.233C148.797 102.516 148.746 102.903 148.488 103.109Z" fill="white"/>
<path d="M150.678 105.943C150.292 106.226 150.214 106.793 150.524 107.179C150.807 107.566 151.374 107.643 151.76 107.334C152.147 107.05 152.224 106.484 151.915 106.097C151.606 105.711 151.039 105.634 150.678 105.943ZM151.58 107.128C151.296 107.334 150.91 107.282 150.704 107.025C150.498 106.741 150.549 106.355 150.807 106.149C151.09 105.943 151.477 105.994 151.683 106.252C151.889 106.535 151.837 106.922 151.58 107.128Z" fill="white"/>
<path d="M153.769 109.962C153.383 110.245 153.306 110.812 153.615 111.198C153.898 111.585 154.465 111.662 154.851 111.353C155.238 111.07 155.315 110.503 155.006 110.116C154.697 109.73 154.156 109.653 153.769 109.962ZM154.671 111.147C154.388 111.353 154.001 111.301 153.795 111.044C153.589 110.76 153.641 110.374 153.898 110.168C154.182 109.962 154.568 110.013 154.774 110.271C154.98 110.554 154.929 110.941 154.671 111.147Z" fill="white"/>
<path d="M156.861 113.981C156.475 114.264 156.398 114.831 156.707 115.217C156.99 115.604 157.557 115.681 157.943 115.372C158.33 115.088 158.407 114.522 158.098 114.135C157.789 113.749 157.248 113.697 156.861 113.981ZM157.763 115.166C157.48 115.372 157.093 115.32 156.887 115.063C156.681 114.779 156.733 114.393 156.99 114.187C157.248 113.981 157.66 114.032 157.866 114.29C158.072 114.573 158.021 114.96 157.763 115.166Z" fill="white"/>
<path d="M121.103 78.5572C121.386 78.9436 121.953 79.0209 122.34 78.7118C122.726 78.4284 122.803 77.8616 122.494 77.4752C122.417 77.3721 122.314 77.2948 122.211 77.2175C121.876 77.2691 121.541 77.3206 121.206 77.3721C120.871 77.6813 120.845 78.1965 121.103 78.5572ZM121.412 77.5267C121.696 77.3206 122.082 77.3721 122.288 77.6297C122.494 77.9131 122.443 78.2996 122.185 78.5057C121.902 78.7118 121.515 78.6602 121.309 78.4026C121.103 78.1192 121.155 77.7328 121.412 77.5267Z" fill="white"/>
<path d="M125.432 82.7306C125.818 82.4472 125.895 81.8805 125.586 81.494C125.303 81.1076 124.736 81.0303 124.35 81.3394C123.963 81.6228 123.886 82.1896 124.195 82.576C124.504 82.9625 125.045 83.0398 125.432 82.7306ZM124.53 81.5455C124.813 81.3394 125.2 81.391 125.406 81.6486C125.612 81.932 125.561 82.3184 125.303 82.5245C125.02 82.7306 124.633 82.6791 124.427 82.4215C124.195 82.1381 124.247 81.7516 124.53 81.5455Z" fill="white"/>
<path d="M128.523 86.7497C128.909 86.4663 128.987 85.8995 128.678 85.5131C128.368 85.1266 127.827 85.0493 127.441 85.3585C127.055 85.6419 126.977 86.2086 127.286 86.5951C127.596 86.9815 128.137 87.0588 128.523 86.7497ZM127.621 85.5646C127.905 85.3585 128.291 85.41 128.497 85.6676C128.703 85.951 128.652 86.3375 128.394 86.5436C128.111 86.7497 127.724 86.6981 127.518 86.4405C127.286 86.1571 127.338 85.7707 127.621 85.5646Z" fill="white"/>
<path d="M134.551 94.6073C134.268 94.8134 133.881 94.7618 133.675 94.5042C133.624 94.4269 133.572 94.3496 133.572 94.2723C133.495 94.2723 133.418 94.2723 133.315 94.2723C133.315 94.2723 133.315 94.2723 133.289 94.2723C133.315 94.4012 133.366 94.53 133.469 94.6588C133.753 95.0452 134.319 95.1225 134.706 94.8134C134.886 94.6588 135.015 94.4527 135.041 94.2466C134.963 94.2466 134.86 94.2466 134.783 94.2466C134.757 94.3754 134.68 94.5042 134.551 94.6073Z" fill="white"/>
<path d="M137.952 97.5958C137.668 97.2094 137.102 97.1321 136.715 97.4412C136.329 97.7246 136.251 98.2914 136.561 98.6778C136.844 99.0643 137.411 99.1416 137.797 98.8324C138.184 98.5233 138.261 97.9823 137.952 97.5958ZM137.643 98.6263C137.359 98.8324 136.973 98.7809 136.767 98.5233C136.561 98.2399 136.612 97.8534 136.87 97.6473C137.153 97.4412 137.54 97.4928 137.746 97.7504C137.978 98.0338 137.926 98.4202 137.643 98.6263Z" fill="white"/>
<path d="M141.044 101.615C140.76 101.228 140.194 101.151 139.807 101.46C139.421 101.743 139.344 102.31 139.653 102.697C139.936 103.083 140.503 103.16 140.889 102.851C141.276 102.542 141.353 102.001 141.044 101.615ZM140.735 102.645C140.451 102.851 140.065 102.8 139.859 102.542C139.653 102.259 139.704 101.872 139.962 101.666C140.245 101.46 140.632 101.512 140.838 101.769C141.07 102.053 141.018 102.439 140.735 102.645Z" fill="white"/>
<path d="M142.924 105.479C142.538 105.762 142.46 106.329 142.769 106.716C143.079 107.102 143.62 107.179 144.006 106.87C144.392 106.587 144.47 106.02 144.161 105.634C143.851 105.247 143.31 105.17 142.924 105.479ZM143.826 106.664C143.568 106.87 143.156 106.819 142.95 106.561C142.744 106.278 142.795 105.891 143.053 105.685C143.336 105.479 143.723 105.531 143.929 105.788C144.161 106.072 144.109 106.458 143.826 106.664Z" fill="white"/>
<path d="M146.015 109.498C145.629 109.781 145.551 110.348 145.86 110.735C146.144 111.121 146.711 111.198 147.097 110.889C147.483 110.606 147.561 110.039 147.252 109.653C146.942 109.266 146.401 109.215 146.015 109.498ZM146.917 110.683C146.633 110.889 146.247 110.838 146.041 110.58C145.835 110.297 145.886 109.91 146.144 109.704C146.427 109.498 146.814 109.549 147.02 109.807C147.252 110.09 147.2 110.477 146.917 110.683Z" fill="white"/>
<path d="M149.107 113.517C148.721 113.8 148.643 114.367 148.952 114.754C149.236 115.14 149.803 115.217 150.189 114.908C150.576 114.625 150.653 114.058 150.344 113.672C150.035 113.285 149.493 113.234 149.107 113.517ZM150.009 114.702C149.725 114.908 149.339 114.857 149.133 114.599C148.927 114.316 148.978 113.929 149.236 113.723C149.519 113.517 149.906 113.569 150.112 113.826C150.344 114.11 150.292 114.496 150.009 114.702Z" fill="white"/>
<path d="M152.198 117.536C152.069 117.639 151.966 117.768 151.915 117.922C152.018 117.922 152.095 117.922 152.198 117.922C152.224 117.871 152.275 117.793 152.353 117.768C152.636 117.562 153.023 117.613 153.229 117.871C153.229 117.871 153.229 117.871 153.229 117.896C153.332 117.896 153.409 117.896 153.512 117.896C153.486 117.845 153.461 117.793 153.409 117.742C153.126 117.33 152.585 117.252 152.198 117.536Z" fill="white"/>
<path d="M117.677 82.267C118.063 81.9836 118.14 81.4168 117.831 81.0304C117.548 80.644 116.981 80.5667 116.595 80.8758C116.208 81.1592 116.131 81.726 116.44 82.1124C116.749 82.4989 117.29 82.5761 117.677 82.267ZM116.775 81.0819C117.058 80.8758 117.445 80.9273 117.651 81.185C117.857 81.4684 117.805 81.8548 117.548 82.0609C117.264 82.267 116.878 82.2155 116.672 81.9578C116.466 81.6745 116.517 81.288 116.775 81.0819Z" fill="white"/>
<path d="M120.769 86.286C121.155 86.0027 121.232 85.4359 120.923 85.0494C120.64 84.663 120.073 84.5857 119.687 84.8949C119.3 85.1782 119.223 85.745 119.532 86.1315C119.841 86.5179 120.382 86.5952 120.769 86.286ZM119.867 85.101C120.15 84.8949 120.537 84.9464 120.743 85.204C120.949 85.4616 120.897 85.8738 120.64 86.0799C120.356 86.286 119.97 86.2345 119.764 85.9769C119.558 85.6935 119.609 85.3071 119.867 85.101Z" fill="white"/>
<path d="M123.859 90.3048C124.245 90.0214 124.323 89.4547 124.014 89.0682C123.73 88.6818 123.163 88.6045 122.777 88.9137C122.391 89.197 122.313 89.7638 122.622 90.1503C122.932 90.5367 123.498 90.614 123.859 90.3048ZM122.957 89.1198C123.241 88.9137 123.627 88.9652 123.833 89.2228C124.039 89.4804 123.988 89.8926 123.73 90.0987C123.447 90.3048 123.06 90.2533 122.854 89.9957C122.648 89.7381 122.7 89.3259 122.957 89.1198Z" fill="white"/>
<path d="M125.894 92.9583C125.508 93.2417 125.431 93.8085 125.74 94.1949C126.023 94.5814 126.59 94.6587 126.976 94.3495C127.363 94.0661 127.44 93.4994 127.131 93.1129C126.822 92.7265 126.281 92.6492 125.894 92.9583ZM126.796 94.1434C126.513 94.3495 126.126 94.298 125.92 94.0404C125.714 93.757 125.766 93.3705 126.023 93.1644C126.307 92.9583 126.693 93.0099 126.899 93.2675C127.131 93.5509 127.079 93.9373 126.796 94.1434Z" fill="white"/>
<path d="M130.223 97.132C129.94 96.7455 129.373 96.6682 128.986 96.9774C128.6 97.2608 128.523 97.8275 128.832 98.214C129.115 98.6004 129.682 98.6777 130.068 98.3686C130.429 98.0594 130.506 97.5184 130.223 97.132ZM129.914 98.1625C129.631 98.3686 129.244 98.317 129.038 98.0594C128.832 97.776 128.883 97.3896 129.141 97.1835C129.424 96.9774 129.811 97.0289 130.017 97.2865C130.223 97.5699 130.172 97.9564 129.914 98.1625Z" fill="white"/>
<path d="M133.314 101.151C133.031 100.765 132.464 100.687 132.078 100.996C131.691 101.28 131.614 101.847 131.923 102.233C132.207 102.619 132.773 102.697 133.16 102.388C133.52 102.078 133.598 101.537 133.314 101.151ZM133.005 102.181C132.722 102.388 132.335 102.336 132.129 102.078C131.923 101.795 131.975 101.409 132.232 101.203C132.516 100.996 132.902 101.048 133.108 101.306C133.314 101.589 133.263 101.975 133.005 102.181Z" fill="white"/>
<path d="M135.17 105.015C134.783 105.299 134.706 105.865 135.015 106.252C135.299 106.638 135.865 106.716 136.252 106.406C136.638 106.123 136.716 105.556 136.406 105.17C136.123 104.783 135.556 104.732 135.17 105.015ZM136.097 106.2C135.814 106.406 135.427 106.355 135.221 106.097C135.015 105.814 135.067 105.427 135.324 105.221C135.608 105.015 135.994 105.067 136.2 105.324C136.406 105.608 136.355 105.994 136.097 106.2Z" fill="white"/>
<path d="M138.286 109.034C137.9 109.318 137.823 109.884 138.132 110.271C138.415 110.657 138.982 110.735 139.368 110.426C139.755 110.142 139.832 109.575 139.523 109.189C139.214 108.802 138.647 108.751 138.286 109.034ZM139.188 110.219C138.905 110.426 138.518 110.374 138.312 110.116C138.106 109.833 138.157 109.447 138.415 109.24C138.698 109.034 139.085 109.086 139.291 109.343C139.497 109.627 139.446 110.013 139.188 110.219Z" fill="white"/>
<path d="M141.378 113.053C140.992 113.336 140.915 113.903 141.224 114.29C141.507 114.676 142.074 114.753 142.46 114.444C142.847 114.161 142.924 113.594 142.615 113.208C142.306 112.847 141.765 112.77 141.378 113.053ZM142.28 114.238C141.997 114.444 141.61 114.393 141.404 114.135C141.198 113.852 141.249 113.465 141.507 113.259C141.79 113.053 142.177 113.105 142.383 113.362C142.589 113.646 142.538 114.032 142.28 114.238Z" fill="white"/>
<path d="M145.681 117.227C145.397 116.84 144.831 116.763 144.444 117.072C144.212 117.252 144.083 117.536 144.109 117.793C144.186 117.793 144.29 117.793 144.367 117.793C144.341 117.587 144.444 117.381 144.599 117.252C144.882 117.046 145.269 117.098 145.475 117.355C145.578 117.484 145.629 117.665 145.603 117.819C145.681 117.819 145.784 117.819 145.861 117.819C145.887 117.665 145.835 117.433 145.681 117.227Z" fill="white"/>
<path d="M109.948 81.8032C110.309 81.5198 110.386 81.0046 110.154 80.6182C110.077 80.6439 110 80.6955 109.923 80.7212C110.129 81.0046 110.077 81.391 109.819 81.5971C109.536 81.8032 109.15 81.7517 108.944 81.4941C108.892 81.4426 108.866 81.3653 108.84 81.3137C108.763 81.3653 108.686 81.391 108.609 81.4426C108.634 81.5198 108.686 81.5971 108.737 81.6744C109.021 82.0351 109.562 82.1124 109.948 81.8032Z" fill="white"/>
<path d="M113.039 85.8222C113.426 85.5388 113.503 84.972 113.194 84.5856C112.91 84.1991 112.344 84.1218 111.957 84.431C111.571 84.7144 111.493 85.2812 111.803 85.6676C112.112 86.054 112.653 86.1313 113.039 85.8222ZM112.137 84.6371C112.395 84.431 112.807 84.4825 113.013 84.7401C113.22 85.0235 113.168 85.41 112.91 85.6161C112.627 85.8222 112.241 85.7706 112.034 85.513C111.803 85.2554 111.854 84.8432 112.137 84.6371Z" fill="white"/>
<path d="M116.131 89.8412C116.518 89.5578 116.595 88.9911 116.286 88.6046C116.002 88.2182 115.436 88.1409 115.049 88.45C114.663 88.7334 114.585 89.3002 114.895 89.6866C115.204 90.0731 115.745 90.1504 116.131 89.8412ZM115.23 88.6819C115.513 88.4758 115.899 88.5273 116.105 88.7849C116.312 89.0683 116.26 89.4548 116.002 89.6609C115.719 89.867 115.333 89.8154 115.126 89.5578C114.895 89.2744 114.946 88.888 115.23 88.6819Z" fill="white"/>
<path d="M117.985 93.7054C118.268 94.0919 118.835 94.1692 119.222 93.86C119.608 93.5766 119.685 93.0098 119.376 92.6234C119.093 92.237 118.526 92.1597 118.14 92.4688C117.779 92.778 117.702 93.319 117.985 93.7054ZM118.32 92.7007C118.603 92.4946 118.99 92.5461 119.196 92.8037C119.402 93.0871 119.35 93.4736 119.093 93.6797C118.809 93.8858 118.423 93.8342 118.217 93.5766C117.985 93.2932 118.037 92.9068 118.32 92.7007Z" fill="white"/>
<path d="M122.468 96.6683C122.185 96.2819 121.618 96.2046 121.231 96.5138C120.845 96.7971 120.768 97.3639 121.077 97.7504C121.36 98.1368 121.927 98.2141 122.313 97.9049C122.7 97.5958 122.777 97.0548 122.468 96.6683ZM122.159 97.6988C121.875 97.9049 121.489 97.8534 121.283 97.5958C121.077 97.3124 121.128 96.926 121.386 96.7199C121.669 96.5138 122.056 96.5653 122.262 96.8229C122.494 97.1063 122.442 97.4927 122.159 97.6988Z" fill="white"/>
<path d="M125.56 100.687C125.277 100.301 124.71 100.223 124.323 100.533C123.937 100.816 123.86 101.383 124.169 101.769C124.452 102.156 125.019 102.233 125.405 101.924C125.792 101.615 125.869 101.074 125.56 100.687ZM125.251 101.718C124.967 101.924 124.581 101.872 124.375 101.615C124.169 101.331 124.22 100.945 124.478 100.739C124.761 100.533 125.148 100.584 125.354 100.842C125.586 101.125 125.534 101.512 125.251 101.718Z" fill="white"/>
<path d="M127.441 104.551C127.055 104.835 126.977 105.402 127.286 105.788C127.57 106.174 128.137 106.252 128.523 105.943C128.909 105.659 128.987 105.092 128.678 104.706C128.368 104.32 127.827 104.268 127.441 104.551ZM128.343 105.737C128.059 105.943 127.673 105.891 127.467 105.633C127.261 105.35 127.312 104.964 127.57 104.758C127.853 104.551 128.24 104.603 128.446 104.861C128.678 105.144 128.626 105.53 128.343 105.737Z" fill="white"/>
<path d="M130.532 108.57C130.146 108.854 130.068 109.421 130.378 109.807C130.661 110.193 131.228 110.271 131.614 109.962C132.001 109.678 132.078 109.111 131.769 108.725C131.46 108.364 130.919 108.287 130.532 108.57ZM131.434 109.756C131.15 109.962 130.764 109.91 130.558 109.652C130.352 109.369 130.403 108.983 130.661 108.777C130.944 108.57 131.331 108.622 131.537 108.88C131.769 109.163 131.717 109.549 131.434 109.756Z" fill="white"/>
<path d="M133.623 112.589C133.237 112.873 133.159 113.44 133.469 113.826C133.752 114.213 134.319 114.29 134.705 113.981C135.092 113.697 135.169 113.131 134.86 112.744C134.551 112.383 134.01 112.306 133.623 112.589ZM134.525 113.775C134.241 113.981 133.855 113.929 133.649 113.672C133.443 113.388 133.494 113.002 133.752 112.796C134.035 112.589 134.422 112.641 134.628 112.899C134.86 113.182 134.808 113.568 134.525 113.775Z" fill="white"/>
<path d="M137.951 116.789C137.668 116.402 137.101 116.325 136.715 116.634C136.509 116.789 136.406 116.995 136.38 117.227C136.457 117.227 136.56 117.252 136.638 117.252C136.663 117.098 136.741 116.943 136.869 116.84C137.153 116.634 137.539 116.686 137.745 116.943C137.848 117.072 137.874 117.227 137.874 117.355C137.951 117.355 138.054 117.381 138.132 117.381C138.132 117.175 138.08 116.969 137.951 116.789Z" fill="white"/>
<path d="M105.284 85.3585C105.671 85.0751 105.748 84.5083 105.439 84.1219C105.336 83.9673 105.181 83.8643 105.027 83.8127C104.949 83.89 104.846 83.9416 104.769 84.0188C104.949 84.0188 105.13 84.0961 105.233 84.2507C105.439 84.5341 105.387 84.9205 105.13 85.1266C104.846 85.3327 104.46 85.2812 104.254 85.0236C104.151 84.8948 104.125 84.7402 104.125 84.5856C104.048 84.6629 103.97 84.7144 103.893 84.7917C103.893 84.7917 103.893 84.7917 103.867 84.8175C103.893 84.9463 103.945 85.0751 104.022 85.1782C104.357 85.5904 104.898 85.6676 105.284 85.3585Z" fill="white"/>
<path d="M108.376 89.4032C108.763 89.1198 108.84 88.5531 108.531 88.1666C108.247 87.7802 107.68 87.7029 107.294 88.012C106.908 88.2954 106.83 88.8622 107.139 89.2487C107.449 89.6093 107.99 89.6866 108.376 89.4032ZM107.474 88.2182C107.758 88.0121 108.144 88.0636 108.35 88.3212C108.556 88.6046 108.505 88.991 108.247 89.1971C107.964 89.4032 107.577 89.3517 107.371 89.0941C107.165 88.8107 107.217 88.4243 107.474 88.2182Z" fill="white"/>
<path d="M111.648 92.1857C111.365 91.7992 110.798 91.7219 110.412 92.0311C110.025 92.3145 109.948 92.8813 110.257 93.2677C110.54 93.6541 111.107 93.7314 111.494 93.4223C111.854 93.1131 111.931 92.5721 111.648 92.1857ZM111.313 93.2162C111.03 93.4223 110.643 93.3707 110.437 93.1131C110.231 92.8297 110.283 92.4433 110.54 92.2372C110.824 92.0311 111.21 92.0826 111.416 92.3402C111.648 92.6236 111.597 93.0101 111.313 93.2162Z" fill="white"/>
<path d="M114.739 96.2045C114.456 95.818 113.889 95.7407 113.503 96.0499C113.116 96.3333 113.039 96.9 113.348 97.2865C113.631 97.6729 114.198 97.7502 114.585 97.4411C114.945 97.1319 115.023 96.5909 114.739 96.2045ZM114.404 97.235C114.121 97.4411 113.734 97.3895 113.528 97.1319C113.322 96.8485 113.374 96.4621 113.631 96.256C113.915 96.0499 114.301 96.1014 114.507 96.359C114.739 96.6424 114.688 97.0289 114.404 97.235Z" fill="white"/>
<path d="M117.831 100.224C117.548 99.8371 116.981 99.7598 116.595 100.069C116.208 100.352 116.131 100.919 116.44 101.306C116.723 101.692 117.29 101.769 117.677 101.46C118.037 101.151 118.115 100.61 117.831 100.224ZM117.522 101.254C117.239 101.46 116.852 101.409 116.646 101.151C116.44 100.868 116.492 100.481 116.749 100.275C117.033 100.069 117.419 100.12 117.625 100.378C117.831 100.661 117.78 101.048 117.522 101.254Z" fill="white"/>
<path d="M119.687 104.088C119.3 104.371 119.223 104.938 119.532 105.324C119.815 105.711 120.382 105.788 120.769 105.479C121.155 105.196 121.232 104.629 120.923 104.242C120.64 103.856 120.073 103.804 119.687 104.088ZM120.614 105.273C120.331 105.479 119.944 105.427 119.738 105.17C119.532 104.886 119.584 104.5 119.841 104.294C120.125 104.088 120.511 104.139 120.717 104.397C120.923 104.68 120.872 105.067 120.614 105.273Z" fill="white"/>
<path d="M122.803 108.107C122.417 108.39 122.34 108.957 122.649 109.343C122.932 109.73 123.499 109.807 123.885 109.498C124.272 109.215 124.349 108.648 124.04 108.261C123.731 107.901 123.164 107.823 122.803 108.107ZM123.705 109.292C123.422 109.498 123.035 109.446 122.829 109.189C122.623 108.905 122.675 108.519 122.932 108.313C123.216 108.107 123.602 108.158 123.808 108.416C124.014 108.699 123.963 109.086 123.705 109.292Z" fill="white"/>
<path d="M125.894 112.126C125.508 112.409 125.431 112.976 125.74 113.362C126.023 113.749 126.59 113.826 126.976 113.517C127.363 113.233 127.44 112.667 127.131 112.28C126.822 111.92 126.255 111.842 125.894 112.126ZM126.796 113.311C126.513 113.517 126.126 113.465 125.92 113.208C125.714 112.924 125.766 112.538 126.023 112.332C126.307 112.126 126.693 112.177 126.899 112.435C127.105 112.718 127.054 113.105 126.796 113.311Z" fill="white"/>
<path d="M128.987 116.145C128.935 116.196 128.884 116.248 128.832 116.299C128.935 116.325 129.038 116.325 129.167 116.351C129.425 116.17 129.811 116.222 130.017 116.454C130.12 116.48 130.223 116.48 130.352 116.505C130.326 116.454 130.3 116.376 130.249 116.325C129.914 115.939 129.373 115.861 128.987 116.145Z" fill="white"/>
<path d="M103.894 91.7218C103.611 91.3354 103.044 91.2581 102.657 91.5672C102.271 91.8506 102.194 92.4174 102.503 92.8038C102.786 93.1903 103.353 93.2676 103.739 92.9584C104.126 92.6493 104.203 92.1082 103.894 91.7218ZM103.585 92.7523C103.301 92.9584 102.915 92.9069 102.709 92.6492C102.503 92.3659 102.554 91.9794 102.812 91.7733C103.095 91.5672 103.482 91.6187 103.688 91.8764C103.894 92.1598 103.842 92.5462 103.585 92.7523Z" fill="white"/>
<path d="M106.985 95.7408C106.702 95.3544 106.135 95.2771 105.748 95.5863C105.362 95.8697 105.285 96.4364 105.594 96.8229C105.877 97.2093 106.444 97.2866 106.83 96.9774C107.217 96.6683 107.294 96.1273 106.985 95.7408ZM106.676 96.7713C106.392 96.9774 106.006 96.9259 105.8 96.6683C105.594 96.3849 105.645 95.9985 105.903 95.7924C106.186 95.5863 106.573 95.6378 106.779 95.8954C106.985 96.1788 106.933 96.5652 106.676 96.7713Z" fill="white"/>
<path d="M108.866 99.6051C108.479 99.8885 108.402 100.455 108.711 100.842C109.02 101.228 109.561 101.305 109.948 100.996C110.334 100.713 110.412 100.146 110.102 99.7597C109.793 99.3733 109.252 99.3217 108.866 99.6051ZM109.768 100.79C109.484 100.996 109.098 100.945 108.892 100.687C108.686 100.404 108.737 100.017 108.995 99.8112C109.278 99.6051 109.664 99.6567 109.871 99.9143C110.102 100.198 110.051 100.584 109.768 100.79Z" fill="white"/>
<path d="M111.957 103.624C111.571 103.908 111.493 104.474 111.803 104.861C112.086 105.247 112.653 105.324 113.039 105.015C113.426 104.732 113.503 104.165 113.194 103.779C112.885 103.418 112.344 103.341 111.957 103.624ZM112.859 104.809C112.575 105.015 112.189 104.964 111.983 104.706C111.777 104.423 111.828 104.036 112.086 103.83C112.369 103.624 112.756 103.676 112.962 103.933C113.194 104.217 113.142 104.603 112.859 104.809Z" fill="white"/>
<path d="M115.049 107.643C114.663 107.926 114.585 108.493 114.895 108.88C115.178 109.266 115.745 109.343 116.131 109.034C116.518 108.751 116.595 108.184 116.286 107.798C115.977 107.437 115.436 107.36 115.049 107.643ZM115.951 108.828C115.667 109.034 115.281 108.983 115.075 108.725C114.869 108.442 114.92 108.055 115.178 107.849C115.461 107.643 115.848 107.694 116.054 107.952C116.286 108.235 116.234 108.622 115.951 108.828Z" fill="white"/>
<path d="M118.14 111.662C117.754 111.945 117.677 112.512 117.986 112.899C118.269 113.285 118.836 113.362 119.222 113.053C119.609 112.77 119.686 112.203 119.377 111.817C119.068 111.456 118.527 111.379 118.14 111.662ZM119.042 112.847C118.759 113.053 118.372 113.002 118.166 112.744C117.96 112.461 118.011 112.074 118.269 111.868C118.527 111.662 118.939 111.714 119.145 111.971C119.377 112.255 119.325 112.641 119.042 112.847Z" fill="white"/>
<path d="M99.2564 95.277C99.1791 95.174 99.1018 95.0967 98.9988 95.0452C98.9988 95.1482 98.973 95.2513 98.973 95.3543C98.9988 95.3801 99.0245 95.4058 99.0503 95.4316C99.2564 95.6892 99.2049 96.0757 98.9473 96.2818C98.9473 96.3848 98.9473 96.4879 98.9473 96.5909C98.9988 96.5652 99.0503 96.5394 99.1018 96.5136C99.4625 96.2045 99.5398 95.6635 99.2564 95.277Z" fill="white"/>
<path d="M101.111 99.1415C100.724 99.4249 100.647 99.9916 100.956 100.378C101.24 100.765 101.806 100.842 102.193 100.533C102.579 100.249 102.656 99.6825 102.347 99.2961C102.038 98.9354 101.497 98.8581 101.111 99.1415ZM102.012 100.327C101.729 100.533 101.343 100.481 101.136 100.224C100.93 99.9401 100.982 99.5537 101.24 99.3476C101.523 99.1415 101.909 99.193 102.115 99.4506C102.347 99.734 102.296 100.12 102.012 100.327Z" fill="white"/>
<path d="M104.203 103.16C103.816 103.444 103.739 104.01 104.048 104.397C104.332 104.783 104.898 104.861 105.285 104.551C105.671 104.268 105.748 103.701 105.439 103.315C105.156 102.954 104.589 102.877 104.203 103.16ZM105.13 104.345C104.847 104.551 104.46 104.5 104.254 104.242C104.048 103.959 104.1 103.572 104.357 103.366C104.641 103.16 105.027 103.212 105.233 103.469C105.439 103.753 105.388 104.139 105.13 104.345Z" fill="white"/>
<path d="M107.294 107.179C106.908 107.463 106.83 108.029 107.139 108.416C107.423 108.802 107.99 108.88 108.376 108.571C108.763 108.287 108.84 107.72 108.531 107.334C108.247 106.973 107.68 106.896 107.294 107.179ZM108.222 108.364C107.938 108.571 107.552 108.519 107.346 108.261C107.139 107.978 107.191 107.592 107.449 107.385C107.732 107.179 108.118 107.231 108.325 107.488C108.531 107.772 108.479 108.158 108.222 108.364Z" fill="white"/>
<path d="M111.622 111.379C111.339 110.992 110.772 110.915 110.386 111.224C110.18 111.379 110.051 111.61 110.051 111.868C110.128 111.894 110.231 111.945 110.308 111.971C110.283 111.765 110.36 111.559 110.54 111.43C110.824 111.224 111.21 111.275 111.416 111.533C111.622 111.791 111.571 112.177 111.313 112.383C111.39 112.409 111.493 112.461 111.571 112.486C111.854 112.177 111.88 111.713 111.622 111.379Z" fill="white"/>
<path d="M127.802 116.171C138.467 117.433 149.339 118.386 160.108 117.021C166.652 116.171 174.844 114.11 180.512 110.709C187.416 106.561 190.379 100.558 189.039 92.7524C188.421 88.8623 186.669 85.7965 184.067 83.4521C190.018 88.3728 191.074 97.6215 188.292 103.418C182.985 115.011 162.298 118.386 149.339 118.232C142.1 118.128 134.912 117.304 127.802 116.171Z" fill="#7C1D7C"/>
<path d="M143.826 41.3818L144.29 51.4292H147.922L148.721 41.3818H143.826Z" fill="#E9084E"/>
<path d="M143.826 41.3818H148.721L147.922 51.4292L149.211 41.3818H143.826Z" fill="black"/>
<path d="M145.32 42.7475C145.519 42.7475 145.68 42.586 145.68 42.3868C145.68 42.1876 145.519 42.0261 145.32 42.0261C145.12 42.0261 144.959 42.1876 144.959 42.3868C144.959 42.586 145.12 42.7475 145.32 42.7475Z" fill="#E3E4FF"/>
<path d="M141.25 45.2722C140.915 45.401 139.318 48.9305 138.339 51.4294C137.36 53.9284 137.205 68.3554 138.571 69.2313C139.936 70.0815 151.168 64.388 151.168 64.388L158.511 52.8721C158.511 52.8721 153.925 52.8979 150.292 56.5046C146.66 60.1371 144.599 63.7954 142.77 63.7954C140.941 63.7954 140.606 52.563 141.456 50.8626C142.306 49.1623 144.264 49.7549 144.728 49.2911C145.191 48.8274 145.114 48.3122 145.114 48.3122C145.114 48.3122 145.913 48.3894 146.067 48.003C146.222 47.6166 146.248 47.2301 146.248 47.2301C146.248 47.2301 148.154 46.9467 148.154 46.5345C148.154 46.1481 147.484 46.1223 146.377 46.2769C145.269 46.4572 144.419 46.38 144.238 46.38C143.955 46.38 145.32 45.6071 146.273 45.3752C147.201 45.1434 148.257 44.4993 148.257 44.0098C148.257 43.5203 146.608 44.3447 145.295 44.5508C143.981 44.7827 142.023 44.9888 141.25 45.2722Z" fill="#FD9B9B"/>
<path d="M156.758 32.9575C157.634 33.2924 155.186 31.4633 152.945 32.9575C150.729 34.4517 150.369 36.9507 150.961 38.2646C151.528 39.5785 150.626 39.1147 150.343 40.9181C150.06 42.7215 149.029 42.2578 149.776 43.9066C150.523 45.5811 149.519 45.4008 149.519 46.4313C149.519 47.4618 149.905 46.6631 150.137 47.7452C150.369 48.8272 148.771 48.6469 148.771 48.6469C148.771 48.6469 149.287 50.0638 150.369 50.3472C151.451 50.6306 152.301 50.0896 152.301 50.0896L152.249 47.7709L153.228 50.4245C153.228 50.4245 154.388 49.1363 155.341 50.0896C156.294 51.0428 157.969 50.579 157.969 50.579C157.969 50.579 156.088 48.0028 155.805 47.7194C155.521 47.436 154.439 46.3025 155.289 44.1899C156.14 42.0774 155.521 41.794 155.521 39.8103C155.444 37.8008 156.758 32.9575 156.758 32.9575Z" fill="#011C2D"/>
<path d="M166.471 53.6448C166.471 53.6448 163.096 51.8414 158.021 52.9492C155.728 53.4387 153.925 55.2421 153.306 57.5092C152.714 59.7505 151.812 62.6875 150.833 64.2332C149.133 66.964 150.833 70.8542 150.833 70.8542L150.06 76.2128L141.713 81.4683L116.389 70.8542C116.389 70.8542 91.296 94.4526 88.797 95.0194C86.298 95.5862 83.6703 93.216 83.1035 91.5415C82.5367 89.8669 80.9394 93.5252 83.1035 95.6892C85.2675 97.8533 86.4526 97.3895 87.0451 98.8065C87.6377 100.223 88.2302 100.739 88.797 100.739C89.3638 100.739 90.4973 99.0384 91.6566 97.4411C92.8159 95.8438 113.349 83.9158 114.714 82.5761C116.054 81.2365 116.93 79.4846 116.93 79.4846C116.93 79.4846 131.975 87.574 141.559 90.3822C151.142 93.216 155.239 90.6398 157.119 88.7591C159 86.8784 161.061 81.0304 161.061 81.0304L168.841 66.8352C168.841 66.8352 173.581 72.0392 172.834 76.9856C172.087 81.9578 163.457 85.6419 162.607 85.6419C161.756 85.6419 159.695 87.0073 158.845 87.8574C157.995 88.7076 158.021 90.8716 158.407 91.6703L158.356 91.5672C158.382 91.6445 158.562 92.031 158.871 92.031C159.077 92.031 159.206 91.5157 159.283 91.155C159.257 91.593 159.257 92.2628 159.592 92.4689C159.902 92.675 160.056 92.1855 160.108 91.7991C160.082 92.2113 160.133 92.7265 160.494 92.7781C161.061 92.8811 161.422 91.3869 161.55 90.9489C161.679 90.511 161.241 92.0567 161.55 92.1598C161.859 92.2628 162.143 90.8459 163.302 89.6866C164.461 88.5272 171.005 86.6981 173.272 85.6934C175.539 84.6629 180.202 81.7259 180.202 77.4494C180.228 73.147 172.19 55.8604 166.471 53.6448Z" fill="#FD9B9B"/>
<path d="M157.146 88.8108C159.026 86.9301 161.087 81.082 161.087 81.082L168.868 66.8869C168.868 66.8869 158.305 61.3222 151.555 62.9195C151.323 63.4347 151.091 63.8984 150.86 64.2849C149.159 67.0157 150.86 70.9058 150.86 70.9058L150.087 76.2644L141.714 81.4685C141.714 81.4685 142.796 88.682 142.796 90.4854C142.796 90.5884 142.796 90.6657 142.822 90.7687C151.504 93.0101 155.342 90.5884 157.146 88.8108Z" fill="#E9084E"/>
<path d="M151.581 91.4901C154.441 91.0522 156.141 89.8156 157.146 88.7851C159.026 86.9044 161.087 81.0563 161.087 81.0563L168.868 66.8612C168.868 66.8612 165.364 65.0063 161.113 63.7439C161.139 65.8822 161.242 77.0631 160.521 78.5316C159.722 80.1546 153.565 80.2319 154.157 81.3139C154.724 82.396 158.228 82.5763 156.785 84.0448C155.317 85.5132 153.204 83.1688 152.792 85.2298C152.354 87.2908 154.518 89.4549 151.581 91.4901Z" fill="#B80543"/>
<path d="M168.866 66.861C164.796 65.2637 157.042 62.3268 152.662 62.7905C152.301 62.842 151.915 62.8678 151.528 62.8935C155.496 61.6054 161.009 63.0996 164.822 64.7742C166.213 65.3925 167.578 66.0366 168.866 66.861Z" fill="white"/>
<path d="M158.974 35.5597C155.444 34.2458 151.889 37.6722 152.611 40.9698C152.997 42.799 153.641 42.9535 153.358 44.4993C153.074 46.045 155.419 51.0687 158.716 50.5535C162.014 50.0382 162.761 47.1786 163.225 43.881C163.534 41.5108 162.478 36.8736 158.974 35.5597Z" fill="#FD9B9B"/>
<path d="M153.307 37.1053C153.307 37.1053 154.234 37.5691 154.389 37.6721C154.904 37.9813 156.166 38.6769 158.176 38.9345C160.855 39.2694 160.649 41.3562 161.267 41.9487C161.86 42.5412 163.251 42.3609 163.251 44.4219C163.251 46.4571 163.715 48.0029 162.452 48.6985C162.452 48.6985 162.555 49.9608 164.281 49.9608C165.982 49.9608 165.982 49.9608 165.982 49.9608V48.1832L166.729 49.9608C166.729 49.9608 168.12 49.2395 168.841 49.9608C169.563 50.6822 171.804 48.5954 171.804 48.5954C171.804 48.5954 170.31 49.6259 170.31 47.2815C170.31 44.9371 171.366 44.2158 170.078 42.9277C168.79 41.6395 168.017 41.9229 168.481 40.4802C168.944 39.0633 166.987 38.6511 166.033 36.7189C165.054 34.7867 161.783 33.6789 160.778 32.6742C159.773 31.6695 156.501 31.0254 155.084 33.0091C153.693 34.9928 153.307 37.1053 153.307 37.1053Z" fill="#011C2D"/>
<path d="M161.834 43.2884C161.834 43.2884 161.731 41.279 162.891 41.5108C164.05 41.7427 163.895 43.4172 163.251 44.3962C162.633 45.401 161.834 44.2932 161.834 43.2884Z" fill="#FD9B9B"/>
<path d="M153.306 95.1741C147.999 94.0663 138.235 94.1178 131.769 94.2724C126.024 93.1388 120.974 92.4433 120.974 93.7571C120.974 96.5653 109.433 117.794 109.433 119.159C109.433 120.524 110.618 122.663 108.583 122.663C106.522 122.663 105.852 125.754 103.791 126.347C101.73 126.939 98.6641 125.651 100.983 124.981C103.301 124.286 104.074 122.07 105.259 119.417C106.444 116.763 115.101 85.6935 115.101 85.6935C121.515 82.164 155.032 84.8691 157.454 88.1924C158.871 90.2019 156.321 93.1646 153.306 95.1741Z" fill="#FD7B77"/>
<path d="M113.168 114.161C113.168 114.161 121.077 112.28 125.122 113.8C129.166 115.32 135.633 116.531 138.132 116.918C140.631 117.278 153.924 113.775 158.974 115.088C164.023 116.402 172.138 118.334 175.333 117.639C178.527 116.943 181.387 112.796 185.303 113.8C189.219 114.805 196.922 116.918 196.922 116.918C196.922 116.918 148.694 123.873 141.069 122.766C133.417 121.658 113.168 114.161 113.168 114.161Z" fill="#066EBA"/>
<path d="M156.501 111.173C156.501 111.173 160.52 107.875 162.916 107.875C165.312 107.875 164.333 109.859 162.916 110.142C161.499 110.425 156.501 111.173 156.501 111.173Z" fill="#B1B5F5"/>
<path d="M188.37 106.587C188.37 106.587 190.045 101.28 194.837 100.79C199.628 100.275 200.298 104.474 198.005 104.474C195.687 104.449 188.37 106.587 188.37 106.587Z" fill="#027CCD"/>
<path d="M195.995 96.7971C196.535 96.7971 196.974 96.3588 196.974 95.8181C196.974 95.2774 196.535 94.8391 195.995 94.8391C195.454 94.8391 195.016 95.2774 195.016 95.8181C195.016 96.3588 195.454 96.7971 195.995 96.7971Z" fill="#027CCD"/>
<path d="M199.937 93.0101C200.634 93.0101 201.2 92.4449 201.2 91.7477C201.2 91.0505 200.634 90.4854 199.937 90.4854C199.24 90.4854 198.675 91.0505 198.675 91.7477C198.675 92.4449 199.24 93.0101 199.937 93.0101Z" fill="#027CCD"/>
<path d="M105.414 106.999C105.414 106.999 101.421 103.882 97.9945 105.196C94.568 106.51 91.7084 107.566 89.5959 107.566C87.4833 107.566 85.5254 111.508 85.5254 111.508L107.939 110.812L105.414 106.999Z" fill="#066EBA"/>
<path d="M162.195 43.0824C162.195 43.0824 162.221 42.0261 162.788 42.2322C163.355 42.4126 163.252 43.6749 162.788 44.1644C162.324 44.6024 162.195 43.0824 162.195 43.0824Z" fill="#FD7B77"/>
<path d="M164.436 55.0876C162.71 60.8842 165.595 62.6876 168.249 65.8048C165.492 63.6666 163.174 61.554 163.534 58.0761C163.637 57.0198 163.946 55.9893 164.436 55.0876Z" fill="#FE9E9C"/>
<path d="M155.136 45.7615C155.471 45.3751 155.445 44.4219 155.342 43.8809C155.265 45.6842 154.955 45.6585 154.93 45.7358C154.981 45.813 154.981 45.9161 155.29 46.0449C155.651 46.1995 156.089 46.0964 156.45 45.9676C156.063 46.0449 155.393 46.0964 155.136 45.7615Z" fill="#2846A6"/>
<path d="M158.613 46.6633L155.856 47.8226C155.856 47.8226 156.861 49.1881 157.917 48.3637C158.974 47.5135 158.613 46.6633 158.613 46.6633Z" fill="white"/>
<path d="M155.729 42.8504C155.729 42.8504 155.754 42.129 156.501 41.588C157.249 41.047 158.82 41.2273 158.82 41.2273C158.82 41.2273 157.042 41.4592 156.604 41.9745C156.192 42.4639 156.115 42.7731 156.115 42.7731L155.729 42.8504Z" fill="#172866"/>
<path d="M154.801 44.087C154.492 43.546 153.822 43.2111 153.256 43.443C152.74 43.6748 152.406 44.2416 151.916 44.3447C152.199 44.4477 152.483 44.3189 152.715 44.1901C153.178 43.9325 153.41 43.5976 154.054 43.7779C154.312 43.8294 154.57 43.9325 154.801 44.087Z" fill="#34173A"/>
<path d="M156.604 43.9839C156.656 43.3656 157.145 42.7731 157.79 42.7473C158.356 42.7473 158.923 43.1338 159.413 43.0049C159.181 43.211 158.846 43.211 158.588 43.1853C158.047 43.1338 157.687 42.9277 157.145 43.3656C156.939 43.5202 156.759 43.7263 156.604 43.9839Z" fill="#34173A"/>
<path d="M154.208 43.1338L154.646 43.108C154.646 43.108 154.389 42.3867 153.436 42.0775C153.281 42.026 153.101 42.0002 152.895 42.0002C152.946 42.1291 152.998 42.2579 153.023 42.3609C153.178 42.3867 153.333 42.4382 153.436 42.4897C154.028 42.8504 154.208 43.1338 154.208 43.1338Z" fill="#172866"/>
<path d="M60.4463 83.4204L82.8339 72.2652C84.3281 71.5181 86.1057 71.956 87.1105 73.2699C92.1342 79.9424 106.484 98.9294 107.772 98.9294C109.344 98.9294 112.049 96.6365 112.59 96.1213C112.718 95.9925 113.569 97.1775 113.234 98.4914C112.899 99.7796 108.751 101.274 107.437 102.588C106.123 103.902 105.093 102.098 104.809 100.99C104.526 99.9084 83.4007 79.7879 83.4007 79.7879L66.011 93.1844L57.2002 90.8142L60.4463 83.4204Z" fill="#FD7B77"/>
<path d="M56.4519 83.1629L79.87 70.0498L82.6009 81.9006L66.0098 93.1845L58.5644 94.6788L54.7773 85.4043L56.4519 83.1629Z" fill="#011C2D"/>
<path d="M77.8867 71.1574C78.1701 73.7594 78.9172 79.4014 80.2569 83.4977L80.8237 83.1112C79.5098 78.9892 78.7627 73.2184 78.505 70.8225L77.8867 71.1574Z" fill="#011C2D"/>
<path d="M92.0829 95.9409C92.0829 95.9409 64.9035 94.6013 50.4249 80.1227C35.9464 65.6442 43.7524 30.4526 43.7524 30.4526C43.7524 30.4526 43.9843 27.0777 41.3308 23.8574C41.8975 29.8343 40.7382 38.8254 29.5058 41.8139C21.236 44.0037 15.2849 43.2308 11.1113 41.3502C21.3906 96.8684 53.3361 104.623 53.3361 104.623C49.111 117.092 60.0086 130.901 78.2742 126.907C96.5398 122.889 92.0829 95.9409 92.0829 95.9409Z" fill="#9C9C9C"/>
<path d="M72.7861 117.813C72.7861 117.813 75.8776 119.746 83.6322 121.24C91.4124 122.734 92.3141 127.912 90.0728 128.428C87.8057 128.917 88.4755 125.671 86.5691 123.739C84.6627 121.832 72.7861 117.813 72.7861 117.813Z" fill="#027CCD"/>
<path d="M92.5723 133.116C92.5723 133.116 96.0244 137.29 96.0244 139.454C96.0244 141.618 100.121 141.721 100.121 138.861C100.095 136.027 92.5723 133.116 92.5723 133.116Z" fill="#027CCD"/>
<path d="M15.3353 41.273C15.3353 41.273 18.0146 39.2635 22.2397 41.9428C26.4647 44.6221 26.9542 57.3488 27.4695 61.986C28.0363 66.8809 29.6851 73.9141 33.1372 78.2422C36.5894 82.596 15.3096 56.4986 15.3096 50.8309C15.3353 45.1631 15.3353 41.273 15.3353 41.273Z" fill="#027CCD"/>
<path d="M15.3359 41.2729C17.7576 39.5726 21.8539 40.8607 23.3738 42.6641C26.8775 46.5542 27.3413 57.8382 27.805 62.1663C28.3975 67.5249 30.0206 73.8625 33.1636 78.2679C26.6714 70.4618 27.2125 58.3535 25.8728 50.8566C24.3271 42.1489 21.8539 42.0973 21.4159 41.6851C21.1583 41.5821 19.7671 40.7062 18.0668 40.6546C17.1393 40.6031 16.1603 40.7577 15.3359 41.2729Z" fill="white"/>
<path d="M18.1172 43.2566C20.9511 44.8539 22.368 48.9243 22.5226 52.2992C22.6514 56.6273 21.5178 60.5175 22.7544 62.527C21.3117 60.4659 22.368 56.3182 22.1877 52.2992C22.0846 49.1562 20.6934 44.8796 18.1172 43.2566Z" fill="white"/>
<path d="M85.255 113.975C80.3601 111.27 71.2144 111.708 65.7785 106.272C60.3426 100.836 42.2316 97.4353 38.7279 93.0814C35.2242 88.7276 42.4119 78.5514 34.0391 75.7175C25.6921 72.8836 23.3477 59.4356 21.2609 52.1191C19.1741 44.8283 19.2514 43.9781 16.7525 41.4791C14.2535 38.9802 9.82236 38.6453 9.41016 38.6453C9.41016 38.6453 15.0006 68.3752 17.345 82.3642C19.6894 96.3533 56.2206 125.053 60.7291 126.573C62.6097 128.994 75.8002 125.516 76.9079 127.784C78.3249 130.617 83.4516 131.03 81.6998 128.067C79.9479 125.104 73.3012 126.727 69.7717 125.774C69.3853 125.671 69.0761 125.439 68.7927 125.156C67.0151 123.249 68.4063 120.106 71.0083 119.926C75.8517 119.617 81.0815 121.317 83.632 120.132C87.316 118.458 87.3418 116.783 89.8665 117.788C92.3654 118.792 93.499 133.219 97.3376 130.978C102.232 128.17 90.1499 116.706 85.255 113.975Z" fill="#027CCD"/>
<path d="M65.7785 106.298C60.1623 100.913 41.8709 97.7187 38.393 93.1587C35.6622 89.552 39.6038 82.3385 37.0533 78.3195C35.4561 75.7433 33.0086 76.6707 29.6595 73.2958C22.0595 65.6186 21.4155 46.915 17.4223 42.3808C15.8508 40.5775 13.6352 39.0317 9.41016 38.6453C13.7898 38.8771 17.6799 40.8351 19.2514 44.8025C22.7551 53.8194 24.2494 69.9467 32.4418 74.6355C34.1937 75.6918 38.1354 75.9494 38.5476 80.9731C38.8825 85.0693 36.873 90.1703 38.8567 92.7981C42.0255 97.1004 60.2138 100.656 65.7785 106.298Z" fill="white"/>
<path d="M19.458 35.1415C19.458 35.1415 26.1563 30.5557 27.1352 34.3686C28.243 38.6452 20.4627 34.1367 19.458 35.1415Z" fill="#D0D3F9"/>
<path d="M95.714 115.263C96.0555 115.263 96.3323 114.986 96.3323 114.645C96.3323 114.303 96.0555 114.026 95.714 114.026C95.3725 114.026 95.0957 114.303 95.0957 114.645C95.0957 114.986 95.3725 115.263 95.714 115.263Z" fill="#B1B5F5"/>
<path d="M100.764 120.287C101.262 120.287 101.666 119.883 101.666 119.385C101.666 118.887 101.262 118.483 100.764 118.483C100.266 118.483 99.8623 118.887 99.8623 119.385C99.8623 119.883 100.266 120.287 100.764 120.287Z" fill="#B1B5F5"/>
<path d="M78.4269 140.484C79.0672 140.484 79.5862 139.965 79.5862 139.325C79.5862 138.685 79.0672 138.166 78.4269 138.166C77.7866 138.166 77.2676 138.685 77.2676 139.325C77.2676 139.965 77.7866 140.484 78.4269 140.484Z" fill="#027CCD"/>
<path d="M49.548 44.1582C49.548 44.1582 46.8686 51.6809 48.3113 58.07C49.754 64.4848 53.5927 60.7493 54.1594 59.3581C54.1594 59.3581 53.2062 52.8917 53.773 50.8307C54.3398 48.7697 51.4286 42.8186 49.548 44.1582Z" fill="#FC7575"/>
<path d="M7.88983 19.3232C7.88983 19.3232 16.1338 87.6969 53.3349 104.623C53.3349 104.623 47.1004 130.566 79.8703 126.47C79.8703 126.47 60.0074 138.475 40.8658 126.444C13.8152 109.466 0.315648 48.9501 0.315648 48.9501C0.315648 48.9501 -2.36365 24.6561 7.88983 19.3232Z" fill="#DBDBDB"/>
<path d="M53.3353 104.623C51.1197 118.174 58.3848 127.809 77.2687 126.65L79.8965 126.47C73.1725 127.552 64.9542 127.577 59.3637 123.713C53.1035 119.411 51.6608 111.605 53.3353 104.623Z" fill="#206001"/>
<path d="M7.89062 19.3232C11.6004 44.8797 23.2193 81.4624 42.9019 97.7701C46.0707 100.475 49.5744 102.794 53.3357 104.623C49.5228 102.897 45.9676 100.655 42.6958 98.0277C22.3176 81.6943 11.0594 45.2146 7.89062 19.3232Z" fill="#E6F7F1"/>
<path d="M48.1047 52.5055C48.1047 52.5055 35.7386 43.1537 35.7386 34.9612C35.7386 26.7688 37.4132 18.6536 38.8559 16.2061C40.2986 13.7587 42.1535 12.1872 43.2098 11.1309C44.266 10.0746 42.4369 10.4096 41.9217 10.899C41.4322 11.3885 39.9379 12.1099 39.9379 12.1099C39.9379 12.1099 41.1745 8.01364 43.2613 6.51942C44.7555 5.41163 44.3176 5.07672 43.7766 5.07672C43.1583 5.07672 42.205 5.07672 40.3501 7.85907C40.1956 8.06517 39.4227 9.86854 39.6546 8.65771C39.9122 7.44687 40.8912 5.23129 42.7461 3.73707C42.9522 3.55673 43.9054 2.75809 42.7718 2.75809C41.8444 2.75809 40.1698 4.17503 39.2939 6.26179C38.4952 8.24551 38.4695 8.60618 38.4695 8.60618C38.4695 8.60618 38.2634 7.42111 39.2681 5.25705C40.2729 3.093 40.582 2.08827 39.9379 1.70183C39.2166 1.28963 37.6451 6.75128 37.2329 8.21974C37.2329 8.21974 37.6193 5.59197 37.6193 4.1235C37.6193 2.65504 36.8207 3.7113 36.563 5.61773C36.3054 7.54992 35.7386 13.0116 35.7386 13.0116C35.7386 13.0116 30.1224 28.7009 30.8953 38.2331C31.6682 47.7652 42.1793 60.157 42.1793 60.157C42.1793 60.157 43.9827 90.3249 48.0789 95.4001C52.1751 100.501 85.4088 104.752 85.4088 104.752L71.8062 134.07L68.5086 136.466C68.0448 136.8 67.8645 137.445 68.0964 137.96C68.3282 138.475 68.7404 139.171 69.4618 139.892C71.0075 141.438 73.0943 145.122 73.9702 145.147C75.0522 145.199 71.3682 138.81 72.8882 135.796C74.3824 132.781 93.6785 106.89 94.1938 102.124C94.6833 97.358 62.3513 87.4652 62.3513 87.4652L59.4402 58.199C59.4402 58.199 70.956 46.1679 74.3051 40.5775C77.6543 34.987 78.3241 25.4549 80.5654 23.2135C82.8325 20.9464 85.5376 16.6956 85.1512 16.3349C84.7647 15.9485 82.5234 19.581 82.24 19.581C81.9566 19.581 84.842 13.9905 84.6101 13.2434C84.404 12.4963 83.76 13.3207 83.3735 14.2482C82.9871 15.1756 81.7505 18.3702 81.3125 18.8081C80.8746 19.2461 83.5796 12.4706 82.9098 11.8007C82.24 11.1309 80.8231 18.7308 80.282 18.1898C79.741 17.6488 81.1064 13.0631 80.7458 12.3417C80.3593 11.6204 79.6637 12.5994 79.6637 13.939C79.6637 15.2787 78.9424 18.0868 78.5817 18.0868C78.1953 18.0868 77.2936 17.0305 77.8346 15.7939C78.3756 14.5316 77.1132 14.918 76.9071 15.9485C76.701 17.0048 77.7831 19.1688 77.3193 20.4054C76.8556 21.6678 69.7967 38.8256 67.7872 40.8351C65.7777 42.8446 57.3534 51.6811 53.7466 53.0723C50.1914 54.4635 48.1047 52.5055 48.1047 52.5055Z" fill="#FD9B9B"/>
<path d="M69.9007 87.3878L64.4648 78.6543L61.6052 80.2516L62.0174 84.3478C57.612 88.5729 51.7896 89.9383 46.4053 91.6901C46.9205 93.3647 47.4615 94.6528 48.0798 95.4257C51.3517 99.4962 72.7346 105.035 81.365 106.272C81.6484 103.206 85.049 96.5592 87.3161 94.3179C81.7514 91.7932 74.6925 89.1396 69.9007 87.3878Z" fill="#011C2D"/>
<path d="M84.7399 93.1843C84.508 93.0812 84.2762 93.0039 84.0701 92.9009C81.7257 94.6527 78.5569 98.4398 79.2783 105.937C79.5101 105.988 79.742 106.014 79.9481 106.066C79.1237 98.2852 82.4986 94.6785 84.7399 93.1843Z" fill="#027CCD"/>
<path d="M18.1184 24.0121C18.0154 24.0121 17.9381 23.9348 17.9638 23.8317C17.9638 23.7802 18.2472 17.7775 14.4086 9.3532C10.5958 0.980387 2.37751 0.336325 2.30022 0.336325C2.06836 0.310562 2.09412 -0.0243502 2.32599 0.00141227C2.40327 0.00141227 10.8276 0.671237 14.7178 9.22439C18.5821 17.726 18.2987 23.806 18.2987 23.8575C18.273 23.9605 18.1957 24.0121 18.1184 24.0121Z" fill="#653870"/>
<path d="M27.2378 44.7767C27.1605 44.7767 27.0832 44.6994 27.0832 44.6221C26.5422 31.1483 27.2378 15.7166 18.0148 6.18445C17.8603 6.02987 18.0921 5.79801 18.2467 5.95259C27.5727 15.5878 26.8771 31.0195 27.4182 44.5964C27.4182 44.6994 27.3409 44.7767 27.2378 44.7767Z" fill="#653870"/>
<path d="M85.1002 25.2487C88.3721 19.5809 87.7795 8.63187 87.7795 8.52882C87.7538 8.29696 88.0887 8.29696 88.1145 8.50306C88.1145 8.60611 88.7328 19.6325 85.4094 25.4033C85.2806 25.6094 84.9972 25.4548 85.1002 25.2487Z" fill="#653870"/>
<path d="M49.1362 48.1772C49.8833 52.3765 51.6094 56.0863 53.7992 56.1893C53.6188 54.2571 53.49 51.9385 53.7734 50.8307C54.3402 48.7697 51.429 42.8186 49.5484 44.1582C49.5484 44.1582 49.2392 45.0084 48.9043 46.348C48.9558 47.0179 49.0331 47.6362 49.1362 48.1772Z" fill="#FD7B77"/>
<path d="M52.2275 32.1274C52.2275 32.1274 56.5041 30.6847 57.7922 33.2867C59.0803 35.9145 58.1786 38.465 58.5135 40.088C58.8485 41.7111 57.5088 50.8825 54.8295 51.9388C52.1502 52.995 50.0119 49.4913 49.136 45.4466C48.2601 41.4277 48.8526 32.4623 52.2275 32.1274Z" fill="#FD9B9B"/>
<path d="M52.2274 32.1273C51.9956 32.1531 51.7637 32.2046 51.5576 32.3334C52.5624 32.6168 53.7217 33.2351 54.0308 34.5748C54.4173 36.2493 56.8905 37.3056 58.4877 37.8209C58.5393 36.4812 58.565 34.9097 57.7921 33.3124C56.504 30.6846 52.2274 32.1273 52.2274 32.1273Z" fill="#FD7B77"/>
<path d="M50.372 35.6826C50.372 35.6826 50.5266 34.1883 52.8195 34.1883C55.1123 34.1883 54.1591 32.6941 55.2669 33.1321C56.3747 33.57 54.8547 33.7761 56.7611 35.6826C58.6933 37.6148 60.3164 36.5843 60.3164 36.5843C60.3164 36.5843 61.0635 37.3314 60.0845 38.3103C59.1055 39.2893 62.635 40.8093 64.5414 37.589C66.4221 34.3687 63.7428 33.0548 62.4804 33.0548C62.4804 33.0548 61.8106 28.907 58.5388 28.907C55.2669 28.907 55.1381 29.8602 55.1381 29.8602C55.1381 29.8602 54.2622 27.3098 51.8147 28.0311C49.3415 28.7525 49.5476 30.0921 48.749 31.5348C47.9504 32.9775 47.4351 31.4575 45.2195 32.8745C43.004 34.2914 44.2921 39.0317 44.8331 39.5469C45.3483 40.0622 45.8894 41.3503 43.9829 41.6079C42.0765 41.8656 42.566 44.1584 44.627 44.8283C44.627 44.8283 44.2921 46.8377 45.9151 46.8377C47.5382 46.8377 47.8731 46.1164 47.8731 46.1164C47.8731 46.1164 46.9971 47.9713 48.4398 48.4093C49.8825 48.8472 49.2385 47.0696 49.2385 47.0696C49.2385 47.0696 48.6459 46.3225 49.4703 44.9313C50.3205 43.5401 49.728 42.7673 49.3415 41.2988C48.9551 39.8561 50.372 35.6826 50.372 35.6826Z" fill="#E35C02"/>
<path d="M59.7751 83.8841C59.7236 83.678 60.0328 83.5749 60.0843 83.781C60.1616 84.0129 60.2646 84.2705 60.3419 84.3993C60.5738 83.8068 60.2904 83.1112 59.8267 82.802C59.6463 82.6732 59.8267 82.3898 60.007 82.5186C61.4755 83.5491 60.445 86.1254 59.7751 83.8841Z" fill="#653870"/>
<path d="M49.7805 39.1346C49.7805 39.1346 49.3168 38.336 48.4151 38.6451C47.4876 38.9285 48.3893 42.2003 49.6259 42.2003C50.8883 42.2003 49.7805 39.1346 49.7805 39.1346Z" fill="#FD9B9B"/>
<path d="M49.7028 39.959C49.7028 39.959 49.1103 39.1862 48.7496 39.5468C48.3889 39.9075 49.1876 41.4275 49.5483 41.4275C50.2438 41.4275 49.7028 39.959 49.7028 39.959Z" fill="#FD7B77"/>
<path d="M56.0668 44.1326C55.938 43.4112 55.8864 42.6641 55.7319 41.917C55.4227 43.9522 55.9122 44.5963 55.8607 44.6736C55.8864 44.7509 55.7061 44.8024 55.5258 44.8539C55.1908 44.957 54.8044 44.957 54.418 44.9827C54.9075 45.1373 56.041 45.2661 56.1441 44.7509C56.1956 44.6221 56.1183 44.4932 56.0668 44.1326Z" fill="#172866"/>
<path d="M52.5367 38.7225C52.3564 38.7483 52.1761 38.8771 52.0215 38.9544C52.5367 38.6968 53.2066 39.1347 53.5157 39.5469C53.5672 39.6242 53.6703 39.8046 53.7991 39.753C54.1083 39.5985 53.1808 38.568 52.5367 38.7225Z" fill="#653870"/>
<path d="M57.9976 39.2119C58.1264 39.2634 58.2552 39.3922 58.3841 39.4953C58.0234 39.2119 57.4051 39.418 57.0959 39.7014C57.0186 39.7529 56.9156 39.8817 56.8383 39.8044C56.5807 39.6498 57.5081 38.98 57.9976 39.2119Z" fill="#653870"/>
<path d="M53.1289 42.4322C53.4277 42.4322 53.6699 42.0977 53.6699 41.6851C53.6699 41.2725 53.4277 40.938 53.1289 40.938C52.8301 40.938 52.5879 41.2725 52.5879 41.6851C52.5879 42.0977 52.8301 42.4322 53.1289 42.4322Z" fill="#1B2B80"/>
<path d="M57.1735 42.4322C57.387 42.4322 57.56 42.0977 57.56 41.6851C57.56 41.2725 57.387 40.938 57.1735 40.938C56.9601 40.938 56.7871 41.2725 56.7871 41.6851C56.7871 42.0977 56.9601 42.4322 57.1735 42.4322Z" fill="#1B2B80"/>
<path d="M52.9219 47.0952C52.9219 47.0952 54.7253 47.5847 56.168 47.5847C56.168 47.5847 55.5239 48.3833 55.6785 48.8728C55.6785 48.8986 54.0297 49.2593 52.9219 47.0952Z" fill="white"/>
</svg>
