<svg width="2631" height="1143" viewBox="0 0 2631 1143" fill="none" xmlns="http://www.w3.org/2000/svg">
<rect width="2631" height="1143" fill="#E5E5E5"/>
<path d="M1221.46 485.965C1222.01 484.007 1222.48 482.048 1223.04 479.902C1228.64 457.983 1254.01 373.009 1254.01 373.009L1218 364.987C1218 364.987 1204.2 442.965 1205.51 457.61C1205.78 460.781 1205.69 466.657 1205.51 474.026C1212.31 475.052 1217.63 479.902 1221.46 485.965Z" fill="#011C2D"/>
<path d="M1151 576H1507L1462.24 552H1196.57L1151 576Z" fill="#022D48"/>
<path d="M1607 624L1527.98 588H1129.37L1049 624H1607Z" fill="#022D48"/>
<path d="M1442 540L1390.86 516.04L1267.84 516L1217 540H1442Z" fill="#022D48"/>
<path d="M1626.64 636H1029.07L954 671H1698L1626.64 636Z" fill="#022D48"/>
<path d="M1205.51 474.026C1200.84 488.111 1195.15 509.098 1195.15 509.098C1194.31 524.302 1201.4 548.553 1202.43 550.139C1205.51 555.362 1214.55 554.523 1218.94 550.139C1223.32 545.755 1215.77 532.323 1214.27 522.529C1212.97 513.761 1218.94 499.863 1223.79 481.861C1219.96 475.798 1212.32 475.052 1205.51 474.026Z" fill="#011F32"/>
<path d="M1195.43 508.072C1195.25 508.725 1195.15 509.098 1195.15 509.098C1194.31 524.302 1201.4 548.553 1202.43 550.139C1205.51 555.362 1214.55 554.523 1218.94 550.139C1219.4 549.672 1219.68 549.113 1219.96 548.46C1219.12 534.096 1205.6 513.388 1205.6 513.388C1198.7 503.128 1195.43 508.072 1195.43 508.072Z" fill="#B80543"/>
<path d="M1218.01 364.987C1218.01 364.987 1217.17 370.024 1215.86 377.673C1220.99 375.434 1223.51 377.206 1233.02 383.456C1238.99 387.373 1244.68 388.492 1249.44 388.492C1252.24 379.165 1254.01 373.009 1254.01 373.009L1218.01 364.987Z" fill="#011F32"/>
<path d="M1433.66 543.05C1433.66 543.05 1446.06 548.553 1449.23 551.538C1452.5 554.429 1455.77 566.649 1455.77 568.421C1455.77 570.193 1441.21 572.991 1441.21 572.991L1433.66 543.05Z" fill="#011C2D"/>
<path d="M1425.82 537.547C1425.82 537.547 1417.52 576.909 1420.69 579.8C1420.69 579.8 1442.05 577.469 1442.05 570.38C1442.05 563.291 1439.81 537.547 1439.81 537.547H1425.82Z" fill="#011C2D"/>
<path d="M1420.69 579.8C1420.69 579.8 1419.95 572.991 1440.93 571.779C1444.01 571.592 1455.77 568.421 1455.77 568.421C1455.77 568.421 1459.87 578.308 1420.69 579.8Z" fill="#6C5E54"/>
<path d="M1470.97 301.653C1470.97 301.653 1466.58 426.642 1463.41 441.473C1460.24 456.304 1441.68 534.562 1444.66 537.174C1447.56 539.785 1422.74 539.785 1422 539.132C1421.25 538.48 1426.66 525.608 1424.42 521.877C1422.19 518.145 1425.17 515.347 1425.17 511.616C1425.17 507.885 1422.74 507.885 1423.96 501.822C1425.17 495.666 1420.51 461.807 1425.92 451.36C1431.33 440.913 1432.26 439.141 1432.26 439.141L1420.79 332.247L1428.34 298.388L1470.97 301.653Z" fill="#A6A6A6"/>
<path d="M1385.15 578.681C1385.15 578.681 1382.08 602.373 1385.15 605.358C1388.23 608.343 1406.98 602.56 1406.98 602.56C1406.98 602.56 1402.13 576.256 1402.13 570.38C1402.13 564.504 1385.15 578.681 1385.15 578.681Z" fill="#011C2D"/>
<path d="M1377.51 300.813C1377.51 300.813 1386.74 369.558 1377.51 387.187C1368.27 404.816 1376.29 530.738 1379.56 552.564C1382.82 574.391 1377.88 579.8 1377.88 579.8C1377.88 579.8 1400.36 572.991 1407.45 572.991C1407.45 572.991 1410.62 563.664 1407.45 558.627C1404.28 553.497 1411.55 548.833 1407.45 540.065C1403.34 531.204 1405.49 518.892 1407.45 511.056C1409.41 503.128 1410.62 423.284 1412.3 407.894C1413.98 392.597 1428.15 308.928 1428.15 308.928L1377.51 300.813Z" fill="#BFBFBF"/>
<path d="M1433.1 324.599H1416.68C1395.79 324.599 1378.81 307.623 1378.81 286.729V267.234H1470.97V286.729C1470.97 307.623 1453.99 324.599 1433.1 324.599Z" fill="#037ED1"/>
<path d="M1383.48 99.2451C1383.48 99.2451 1370.88 101.111 1363.33 111.464C1355.77 121.818 1342.34 228.618 1332.36 238.599C1322.38 248.579 1311.93 274.417 1311.93 274.417C1311.93 274.417 1314.08 293.351 1326.48 290.646C1338.89 287.848 1379.18 244.102 1383.48 229.644C1387.77 215.093 1383.48 99.2451 1383.48 99.2451Z" fill="#436191"/>
<path d="M1470.41 93.5554C1470.41 93.5554 1493.91 94.9545 1499.04 121.445C1504.17 147.935 1520.4 222.742 1517.98 232.349C1515.55 241.957 1495.22 286.449 1478.06 286.449C1460.8 286.449 1470.41 93.5554 1470.41 93.5554Z" fill="#436191"/>
<path d="M1203.92 518.892L1205.51 571.592H1192.35L1187.13 520.384L1203.92 518.892Z" fill="#241145"/>
<path d="M1168.01 360.23C1168.01 360.23 1184.71 402.764 1181.81 422.352C1178.92 441.846 1180.32 499.957 1185.92 528.219L1206.16 525.328C1206.16 525.328 1209.89 440.913 1209.89 418.9C1209.89 396.981 1208.12 319.842 1208.12 319.842L1168.01 360.23Z" fill="#022D48"/>
<path d="M1209.61 386.907C1209.05 356.872 1208.21 319.842 1208.21 319.842L1168.1 360.23C1168.1 360.23 1175.38 378.792 1179.48 397.074C1188.44 396.328 1196.83 394.555 1202.33 391.291C1205.23 389.612 1207.56 388.119 1209.61 386.907Z" fill="#011F32"/>
<path d="M1276.77 268.913C1279.38 268.913 1242.54 165.937 1242.54 165.937L1237.97 176.57L1276.77 268.913Z" fill="#58231D"/>
<path d="M1161.48 210.709C1161.48 201.382 1171.46 183.473 1175.75 176.291L1168.1 106.054H1154.11C1154.11 106.054 1140.49 185.805 1135.46 201.475C1130.33 217.052 1159.61 267.514 1159.61 267.514L1185.92 269.286L1183.21 244.662C1173.7 233.469 1161.48 217.892 1161.48 210.709Z" fill="#022D48"/>
<path d="M1241.88 90.4773C1241.88 90.4773 1247.11 93.5554 1249.25 97.0066C1256.25 108.106 1314.92 276.282 1314.92 276.282C1314.92 276.282 1304.47 277.495 1300.65 285.703C1300.65 285.703 1288.24 270.406 1285.63 258.093C1283.02 245.688 1239.74 180.955 1239.74 180.955L1241.88 90.4773Z" fill="#022D48"/>
<path d="M1241.88 90.4773C1250.28 95.3276 1250.28 93.1823 1282.46 181.234C1291.97 208.191 1305.87 247.647 1314.92 276.282C1245.61 87.2127 1252.24 97.1931 1241.88 90.4773Z" fill="#AC806D"/>
<path d="M1228.64 26.397C1228.64 26.397 1237.78 33.2994 1237.87 40.948C1237.97 48.5966 1235.91 53.7267 1235.91 55.8721C1235.91 58.0174 1239.55 64.0803 1240.67 65.0131C1242.16 66.2256 1238.06 69.1172 1237.13 69.5836C1236.57 69.8634 1237.13 72.0087 1237.78 72.4751C1238.43 72.9415 1239.08 75.4599 1235.63 76.2061C1235.63 76.2061 1236.57 79.2842 1236.01 79.9371C1235.45 80.5901 1234.33 80.4035 1234.33 80.4035C1234.33 80.4035 1233.4 80.4968 1232.93 81.3363C1232.46 82.1758 1233.12 85.6269 1231.72 86.5597C1227.61 89.2647 1211.76 82.5489 1204.01 66.3189C1196.18 50.089 1195.53 27.423 1202.89 23.692C1210.08 20.2408 1226.68 21.64 1228.64 26.397Z" fill="#FD9B9B"/>
<path d="M1222.11 21.6398L1224.81 19.8676C1224.81 19.8676 1228.92 14.4576 1236.66 17.9088C1244.31 21.36 1250.65 44.4923 1219.96 60.629C1209.33 66.2255 1224.44 69.8633 1224.44 69.8633C1224.44 69.8633 1217.16 81.4294 1213.25 71.3557C1209.33 61.1886 1220.43 48.3166 1221.27 41.5075C1222.11 34.6051 1222.11 21.6398 1222.11 21.6398Z" fill="#011C2D"/>
<path d="M1182.28 83.5748C1182.28 83.5748 1154.95 102.137 1154.95 120.698C1154.95 139.26 1172.49 181.701 1168.57 215.839C1164.65 249.978 1135.36 382.709 1135.36 382.709C1135.36 382.709 1184.15 388.586 1202.24 378.325C1220.34 368.065 1217.82 366.573 1233.02 376.367C1248.13 386.16 1261.85 378.325 1261.85 378.325L1300.55 373.475C1300.55 373.475 1263.71 251.937 1254.48 202.688C1245.24 153.438 1246.17 94.8611 1241.79 90.4772C1237.5 86.0932 1201.87 76.2993 1182.28 83.5748Z" fill="url(#paint0_linear)"/>
<path d="M1179.02 295.31C1176.96 294.844 1178.36 295.497 1191.52 232.629C1168.29 114.169 1167.64 118.646 1169.69 118.273C1171.74 117.807 1169.41 114.169 1193.75 232.629C1179.58 295.777 1181.07 295.777 1179.02 295.31Z" fill="#4F1900"/>
<path d="M1243.19 289.154L1226.49 232.629C1227.05 106.334 1225.56 110.811 1227.7 110.811C1230.22 111.931 1227.89 103.163 1228.73 232.443C1245.15 289.62 1246.64 289.247 1244.59 289.807C1244.4 289.9 1243.37 289.807 1243.19 289.154Z" fill="#4F1900"/>
<path d="M1242.91 217.425C1217.44 242.89 1181.81 222.369 1181.81 222.369V238.879C1213.15 250.818 1247.11 232.722 1247.11 232.722L1242.91 217.425Z" fill="#022D48"/>
<path d="M1276.49 252.497C1276.49 252.497 1306.43 307.156 1303.17 317.603C1299.9 328.05 1282.74 337.378 1282.74 337.378L1263.15 254.829L1276.49 252.497Z" fill="#BFBFBF"/>
<path d="M1156.82 106.054C1156.82 106.054 1190.95 167.243 1192.91 184.126C1194.87 201.009 1263.15 271.339 1263.15 271.339V267.794C1263.15 267.794 1201.49 201.755 1199.91 188.696C1198.42 175.638 1160.36 100.178 1160.36 100.178L1156.82 106.054Z" fill="white"/>
<path d="M1385.71 98.3121C1385.71 98.3121 1374.33 97.6592 1366.03 113.796C1357.73 130.026 1369.11 217.518 1362.21 239.904C1355.31 262.29 1367.34 313.592 1367.34 313.592C1367.34 313.592 1466.86 320.121 1477.96 313.592C1477.96 313.592 1494.85 257.44 1486.27 238.878C1477.68 220.316 1491.12 105.867 1471.81 95.234C1452.5 84.5073 1385.71 98.3121 1385.71 98.3121Z" fill="#037DD0"/>
<path d="M1385.71 98.3124C1385.71 98.3124 1374.33 97.6595 1366.03 113.796C1357.73 130.026 1369.11 217.519 1362.21 239.905C1355.31 262.291 1374.89 313.779 1374.89 313.779C1374.89 313.779 1470.78 323.013 1481.88 316.484C1481.88 316.484 1494.85 257.44 1486.27 238.785C1477.68 220.223 1491.12 105.774 1471.81 95.1411C1452.5 84.5076 1385.71 98.3124 1385.71 98.3124Z" fill="#066EB9"/>
<path d="M1471.81 95.2342C1452.5 84.6008 1385.71 98.3123 1385.71 98.3123C1385.71 98.3123 1379.18 97.9392 1372.38 104.748C1377.51 122.191 1390.47 156.33 1412.86 151.573C1433.47 147.189 1460.8 117.807 1473.11 96.1669C1472.74 95.7938 1472.27 95.4207 1471.81 95.2342Z" fill="#436191"/>
<path d="M1369.86 89.4513C1369.86 89.4513 1382.92 137.302 1412.95 132.451C1442.98 127.601 1487.2 82.6422 1478.43 73.8743C1469.57 65.1064 1383.29 95.7007 1369.86 89.4513Z" fill="#037DD0"/>
<path opacity="0.5" d="M1369.86 89.4512C1369.86 89.4512 1370.51 91.8764 1371.91 95.6074C1373.21 95.0477 1374.8 94.5814 1376.95 94.5814C1390.38 94.5814 1385.25 101.017 1394.67 101.017C1404.09 101.017 1401.01 87.9588 1406.61 87.9588C1412.3 87.9588 1426.85 94.9545 1430.95 86.5597C1435.06 78.0716 1436.18 82.1757 1446.53 82.1757C1456.88 82.1757 1459.4 75.7397 1462.67 79.4707C1465.09 82.1757 1474.51 80.9631 1479.36 78.3514C1479.74 76.3926 1479.36 74.9002 1478.34 73.7809C1469.57 65.1063 1383.29 95.7007 1369.86 89.4512Z" fill="#86648E"/>
<path d="M1415.66 19.5878C1415.66 19.5878 1410.06 21.3601 1407.73 27.0499C1405.39 32.6464 1409.59 43.5597 1406.8 46.4512C1404 49.2495 1399.52 51.3015 1399.52 51.3015L1401.48 55.9653C1401.48 55.9653 1403.81 74.4338 1406.33 76.9523C1408.85 79.4707 1428.16 75.6464 1433.01 73.3145C1437.86 70.9826 1455.86 43.2798 1451.75 30.8742C1447.65 18.282 1415.66 19.5878 1415.66 19.5878Z" fill="#FD9B9B"/>
<path d="M1453.81 67.1584C1453.81 67.1584 1468.45 45.6117 1468.45 34.2321C1468.45 22.8525 1450.36 2.14534 1449.05 2.14534C1447.74 2.14534 1449.05 8.67462 1449.05 8.67462C1449.05 8.67462 1442.33 0 1434.31 0C1426.29 0 1422.28 9.60738 1416.87 8.11497C1411.46 6.62256 1410.34 4.47722 1410.34 4.47722C1410.34 4.47722 1408.85 9.04772 1410.34 10.6334C1411.83 12.1258 1405.68 9.70065 1404.74 7.36876C1404.74 7.36876 1404.18 13.5249 1407.08 14.4577C1409.97 15.3905 1406.14 16.9761 1402.6 16.9761C1398.96 16.9761 1390.47 11.7527 1390.47 11.7527C1390.47 11.7527 1391.22 21.3601 1397.56 22.9458C1403.9 24.5315 1421.44 22.013 1426.01 28.3558C1430.58 34.6985 1429.55 44.1193 1429.55 44.1193C1429.55 44.1193 1430.3 41.974 1433.47 38.8026C1436.36 35.9111 1438.79 37.9631 1439.72 42.6269C1440.65 47.2907 1433.01 49.436 1435.34 56.8981C1437.67 64.4534 1442.24 61.9349 1444.57 65.9458C1446.9 69.9566 1453.81 67.1584 1453.81 67.1584Z" fill="#011C2D"/>
<path d="M1263.15 254.735C1263.15 254.735 1260.91 273.577 1260.91 296.709C1260.91 319.842 1267.63 334.113 1272.66 336.445C1278.45 339.056 1287.31 339.709 1287.31 328.143C1287.22 316.577 1263.15 254.735 1263.15 254.735Z" fill="white"/>
<path d="M1183.4 546.035C1183.4 546.035 1193.38 576.349 1193.38 584.464C1193.38 592.579 1191.89 598.642 1193.38 602.56C1194.87 606.477 1209.61 607.597 1212.69 604.519C1215.77 601.441 1208.02 578.681 1208.02 572.059C1208.02 565.436 1207.09 543.516 1202.43 538.853C1197.76 534.189 1179.2 527.193 1183.4 546.035Z" fill="url(#paint1_linear)"/>
<path d="M1360.16 81.1497C1363.23 79.7506 1367.52 79.4707 1373.49 81.1497C1379.46 82.8287 1379.46 81.8959 1388.7 76.9523C1397.84 72.0087 1399.61 79.4707 1404.74 79.4707C1409.87 79.4707 1407.91 75.1801 1415.66 72.2885C1423.4 69.397 1424.98 76.3926 1429.93 72.0087C1434.87 67.5315 1433.84 61.0955 1440.19 61.0955C1446.53 61.0955 1447.55 64.5467 1452.4 64.5467C1457.16 64.5467 1456.32 61.0955 1464.35 61.0955C1472.37 61.0955 1469.75 64.5467 1476.38 64.5467C1483 64.5467 1494.38 59.0434 1494.38 66.9718C1494.38 74.9002 1482.35 69.397 1482.35 73.5944C1482.35 77.7918 1465.93 80.8699 1462.67 77.6052C1459.4 74.3406 1456.88 80.0304 1446.53 80.0304C1436.17 80.0304 1435.06 76.3926 1430.95 83.948C1426.85 91.5033 1412.3 85.2538 1406.61 85.2538C1400.92 85.2538 1404.09 96.9133 1394.67 96.9133C1385.25 96.9133 1390.38 91.1302 1376.95 91.1302C1369.86 91.1302 1368.36 95.0477 1366.59 96.7267C1364.91 98.4057 1341.03 89.9176 1360.16 81.1497Z" fill="#BFBFBF"/>
<path d="M1353.81 91.1302C1349.9 86.5597 1356.05 81.8027 1361.37 79.8439C1364.82 78.6313 1368.55 78.8178 1372.1 79.5641C1376.48 80.4035 1377.51 81.3363 1381.05 79.4708C1383.76 77.9784 1388.23 75.0868 1390.19 74.3406C1398.12 70.9827 1401.39 77.8851 1405.02 77.4187C1407.82 77.2322 1407.07 74.3406 1412.11 71.6356C1426.01 63.987 1424.89 79.4708 1432.35 64.5467C1434.12 60.9089 1436.08 59.3233 1440 59.1367C1448.68 59.1367 1449.98 65.3862 1456.14 61.4686C1459.22 59.5098 1463.69 59.3233 1467.14 59.8829C1469.94 60.3493 1470.87 61.2821 1472.27 62.3081C1475.26 64.64 1481.97 62.7745 1486.54 62.3081C1495.78 61.5619 1494.01 66.5988 1494.29 66.8786L1494.1 65.5727C1491.86 60.0695 1484.03 64.8265 1476.47 65.4794C1470.22 65.8526 1471.25 63.0543 1466.68 62.5879C1457.07 61.6552 1458.28 66.1324 1452.13 66.2257C1447.84 66.4122 1446.06 63.7072 1442.15 63.1476C1441.12 62.961 1439.16 62.8677 1438.23 63.4274C1436.08 64.1736 1435.43 69.4903 1431.33 73.3146C1427.78 76.6725 1425.17 75.5532 1422 74.2473C1417.8 72.5684 1413.23 74.807 1410.81 77.9784C1409.22 79.9372 1408.1 81.243 1405.12 81.3363C1398.87 81.8027 1397.93 75.0868 1391.31 77.512C1388.89 78.2582 1382.73 82.269 1379.56 83.0152C1374.9 84.1345 1369.02 79.3775 1361.74 81.243C1359.32 81.8959 1354.93 83.948 1353.44 86.3732C1352.7 87.8656 1352.79 89.7311 1353.81 91.1302Z" fill="white"/>
<path d="M1263.15 254.735C1261.29 254.735 1287.22 318.069 1311.84 319.842L1276.49 252.497L1263.15 254.735Z" fill="#BFBFBF"/>
<path d="M1230.22 57.0845C1230.22 57.0845 1235.26 57.5509 1238.43 53.54L1230.22 57.0845Z" fill="#092C2E"/>
<path d="M1231.38 68.4576C1232.38 67.5665 1231.49 64.9425 1229.4 62.5967C1227.31 60.2509 1224.8 59.0716 1223.8 59.9627C1222.8 60.8538 1223.69 63.4778 1225.78 65.8236C1227.87 68.1694 1230.38 69.3487 1231.38 68.4576Z" fill="#FD8481"/>
<path d="M1224.81 19.8677C1224.81 19.8677 1206.25 -2.89157 1189.37 19.8677C1172.49 42.6269 1180.23 55.872 1170.53 61.0954C1160.73 66.3189 1140.68 77.5119 1143.38 91.8763C1146.09 106.241 1153.36 103.629 1153.36 103.629C1153.36 103.629 1145.53 95.0477 1151.13 92.436C1156.72 89.731 1155.51 100.271 1155.51 100.271C1155.51 100.271 1151.4 110.065 1157.75 112.957C1164.09 115.848 1173.88 113.703 1175.28 126.388C1176.78 139.074 1190.39 139.54 1194.78 131.985C1194.78 131.985 1187.5 132.265 1187.5 127.321C1187.5 122.471 1196.64 115.568 1198.23 122.657C1199.72 129.746 1205.88 129.28 1211.66 126.575C1217.54 123.87 1219.5 151.666 1206.06 146.816C1206.06 146.816 1227.8 152.879 1226.31 131.239C1224.81 109.505 1213.15 110.158 1217.44 105.868C1221.73 101.577 1223.51 110.065 1226.4 112.957C1229.29 115.848 1236.66 108.573 1236.66 114.449C1236.66 120.325 1224.35 134.223 1233.11 137.115C1241.88 140.007 1247.01 121.725 1251.86 123.497C1256.71 125.176 1247.48 131.052 1247.48 131.052C1247.48 131.052 1258.21 126.388 1256.71 120.605C1255.22 114.729 1252.33 116.688 1245.99 116.688C1239.64 116.688 1248.88 112.024 1244.31 103.256C1239.64 94.4881 1243.09 94.6746 1233.58 91.7831C1224.07 88.8915 1226.49 70.7961 1225 59.0434C1223.6 47.2906 1229.85 24.6247 1224.81 19.8677Z" fill="#011C2D"/>
<path d="M1234.42 58.8569C1235.14 58.8569 1235.73 58.1887 1235.73 57.3645C1235.73 56.5402 1235.14 55.8721 1234.42 55.8721C1233.7 55.8721 1233.11 56.5402 1233.11 57.3645C1233.11 58.1887 1233.7 58.8569 1234.42 58.8569Z" fill="#092C2E"/>
<path d="M1470.97 116.314C1452.78 228.618 1459.68 219.57 1463.13 225.913C1463.51 226.753 1465.93 229.271 1468.92 241.677C1472.09 255.388 1473.67 274.043 1469.48 288.874C1465.19 302.959 1434.78 307.156 1420.04 307.622C1432.26 305.944 1458.38 301.28 1465.09 290.74C1471.34 280.386 1467.61 243.729 1460.33 229.644C1457.26 224.234 1453.34 224.98 1455.3 201.195C1456.14 191.588 1457.44 182.074 1459.12 172.56C1462.2 153.625 1466.3 134.876 1470.97 116.314Z" fill="#0788E4"/>
<path d="M1416.4 56.525C1419.9 56.525 1422.74 55.1887 1422.74 53.5402C1422.74 51.8918 1419.9 50.5554 1416.4 50.5554C1412.9 50.5554 1410.06 51.8918 1410.06 53.5402C1410.06 55.1887 1412.9 56.525 1416.4 56.525Z" fill="#FD8481"/>
<path d="M1430.58 46.0781C1430.58 46.0781 1432.26 41.2278 1434.68 42.2538C1437.11 43.3732 1434.87 51.6747 1432.63 51.6747C1430.39 51.7679 1429.83 47.6638 1430.58 46.0781Z" fill="#FD8481"/>
<path d="M1415.75 36.1909C1414.16 34.8851 1408.47 33.859 1407.73 34.1389C1406.98 34.4187 1406.7 37.4968 1407.73 37.4968C1408.75 37.4968 1414.72 36.4707 1415.75 37.4968C1416.78 38.5228 1417.24 38.8959 1417.24 38.8959C1417.24 38.8959 1416.4 36.6573 1415.75 36.1909Z" fill="url(#paint2_linear)"/>
<path d="M1411.36 45.5185C1412.6 45.5185 1413.6 44.5162 1413.6 43.2799C1413.6 42.0435 1412.6 41.0413 1411.36 41.0413C1410.13 41.0413 1409.13 42.0435 1409.13 43.2799C1409.13 44.5162 1410.13 45.5185 1411.36 45.5185Z" fill="url(#paint3_linear)"/>
<path d="M1407.07 67.1584C1406.98 67.1584 1406.79 67.0651 1406.79 66.9718C1406.7 66.7853 1406.79 66.5987 1406.98 66.5987C1407.07 66.5987 1413.51 64.3601 1414.82 61.0955C1414.91 60.9089 1415.1 60.8156 1415.19 60.9089C1415.38 61.0022 1415.47 61.1887 1415.38 61.282C1413.98 64.8265 1407.45 67.0651 1407.17 67.1584C1407.17 67.1584 1407.17 67.1584 1407.07 67.1584Z" fill="url(#paint4_linear)"/>
<path d="M1716.31 684H948.465L852 726H1808L1716.31 684Z" fill="#022D48"/>
<path d="M1838.35 739H827.939L701 802H1959L1838.35 739Z" fill="#022D48"/>
<path d="M1978.78 818H687.256L525 892H2133L1978.78 818Z" fill="#022D48"/>
<path d="M2158.43 908H503.865L296 1000H2356L2158.43 908Z" fill="#022D48"/>
<path d="M2378.66 1016H265.482L0 1143H2631L2378.66 1016Z" fill="#022D48"/>
<defs>
<linearGradient id="paint0_linear" x1="1300.06" y1="133.373" x2="1122.22" y2="146.649" gradientUnits="userSpaceOnUse">
<stop stop-color="#DF055A"/>
<stop offset="1" stop-color="#ED094A"/>
</linearGradient>
<linearGradient id="paint1_linear" x1="1213.32" y1="546.179" x2="1180.28" y2="548.089" gradientUnits="userSpaceOnUse">
<stop stop-color="#DF055A"/>
<stop offset="1" stop-color="#ED094A"/>
</linearGradient>
<linearGradient id="paint2_linear" x1="1407.11" y1="36.4462" x2="1417.31" y2="36.4462" gradientUnits="userSpaceOnUse">
<stop stop-color="#2C0651"/>
<stop offset="1" stop-color="#401A65"/>
</linearGradient>
<linearGradient id="paint3_linear" x1="1409.15" y1="43.3114" x2="1413.55" y2="43.3114" gradientUnits="userSpaceOnUse">
<stop stop-color="#2C0651"/>
<stop offset="1" stop-color="#401A65"/>
</linearGradient>
<linearGradient id="paint4_linear" x1="1406.8" y1="63.9564" x2="1415.42" y2="63.9564" gradientUnits="userSpaceOnUse">
<stop stop-color="#2C0651"/>
<stop offset="1" stop-color="#401A65"/>
</linearGradient>
</defs>
</svg>
