<svg width="744" height="671" viewBox="0 0 744 671" fill="none" xmlns="http://www.w3.org/2000/svg">
<path d="M267.456 485.965C268.015 484.007 268.482 482.048 269.041 479.902C274.638 457.983 300.009 373.009 300.009 373.009L264.004 364.987C264.004 364.987 250.2 442.965 251.506 457.61C251.785 460.781 251.692 466.657 251.506 474.026C258.315 475.052 263.631 479.902 267.456 485.965Z" fill="#011C2D"/>
<path d="M197 576H553L508.241 552H242.572L197 576Z" fill="#022D48"/>
<path d="M653 624L573.985 588H175.374L95 624H653Z" fill="#022D48"/>
<path d="M488 540L436.864 516.04L313.838 516L263 540H488Z" fill="#022D48"/>
<path d="M672.644 636H75.0735L0 671H744L672.644 636Z" fill="#022D48"/>
<path d="M251.505 474.026C246.842 488.111 241.152 509.098 241.152 509.098C240.312 524.302 247.401 548.553 248.427 550.139C251.506 555.362 260.553 554.523 264.937 550.139C269.321 545.755 261.766 532.323 260.273 522.529C258.968 513.761 264.937 499.863 269.787 481.861C265.963 475.798 258.315 475.052 251.505 474.026Z" fill="#011F32"/>
<path d="M241.432 508.072C241.245 508.725 241.152 509.098 241.152 509.098C240.312 524.302 247.401 548.553 248.427 550.139C251.506 555.362 260.553 554.523 264.937 550.139C265.404 549.672 265.683 549.113 265.963 548.46C265.124 534.096 251.599 513.388 251.599 513.388C244.696 503.128 241.432 508.072 241.432 508.072Z" fill="#B80543"/>
<path d="M264.005 364.987C264.005 364.987 263.165 370.024 261.859 377.673C266.99 375.434 269.508 377.206 279.022 383.456C284.992 387.373 290.682 388.492 295.439 388.492C298.237 379.165 300.009 373.009 300.009 373.009L264.005 364.987Z" fill="#011F32"/>
<path d="M479.658 543.05C479.658 543.05 492.064 548.553 495.235 551.538C498.5 554.429 501.765 566.649 501.765 568.421C501.765 570.193 487.213 572.991 487.213 572.991L479.658 543.05Z" fill="#011C2D"/>
<path d="M471.822 537.547C471.822 537.547 463.52 576.909 466.692 579.8C466.692 579.8 488.052 577.469 488.052 570.38C488.052 563.291 485.813 537.547 485.813 537.547H471.822V537.547Z" fill="#011C2D"/>
<path d="M466.693 579.8C466.693 579.8 465.947 572.991 486.934 571.779C490.012 571.592 501.765 568.421 501.765 568.421C501.765 568.421 505.869 578.308 466.693 579.8Z" fill="#6C5E54"/>
<path d="M516.968 301.653C516.968 301.653 512.584 426.642 509.413 441.473C506.241 456.304 487.679 534.562 490.664 537.174C493.556 539.785 468.744 539.785 467.998 539.132C467.252 538.48 472.662 525.608 470.423 521.877C468.185 518.145 471.17 515.347 471.17 511.616C471.17 507.885 468.744 507.885 469.957 501.822C471.17 495.666 466.506 461.807 471.916 451.36C477.326 440.913 478.259 439.141 478.259 439.141L466.786 332.247L474.341 298.388L516.968 301.653Z" fill="#A6A6A6"/>
<path d="M431.154 578.681C431.154 578.681 428.076 602.373 431.154 605.358C434.232 608.343 452.981 602.56 452.981 602.56C452.981 602.56 448.13 576.256 448.13 570.38C448.13 564.504 431.154 578.681 431.154 578.681Z" fill="#011C2D"/>
<path d="M423.506 300.813C423.506 300.813 432.74 369.558 423.506 387.187C414.272 404.816 422.293 530.738 425.558 552.564C428.823 574.391 423.879 579.8 423.879 579.8C423.879 579.8 446.359 572.991 453.447 572.991C453.447 572.991 456.619 563.664 453.447 558.627C450.276 553.497 457.552 548.833 453.447 540.065C449.343 531.204 451.489 518.892 453.447 511.056C455.406 503.128 456.619 423.284 458.298 407.894C459.977 392.597 474.155 308.928 474.155 308.928L423.506 300.813Z" fill="#BFBFBF"/>
<path d="M479.098 324.599H462.681C441.788 324.599 424.812 307.623 424.812 286.729V267.234H516.968V286.729C516.968 307.623 499.992 324.599 479.098 324.599Z" fill="#037ED1"/>
<path d="M429.475 99.2451C429.475 99.2451 416.883 101.111 409.327 111.464C401.772 121.818 388.34 228.618 378.36 238.599C368.379 248.579 357.933 274.417 357.933 274.417C357.933 274.417 360.078 293.351 372.484 290.646C384.889 287.848 425.184 244.102 429.475 229.644C433.766 215.093 429.475 99.2451 429.475 99.2451Z" fill="#436191"/>
<path d="M516.408 93.5554C516.408 93.5554 539.914 94.9545 545.044 121.445C550.174 147.935 566.404 222.742 563.979 232.349C561.554 241.957 541.22 286.449 524.057 286.449C506.801 286.449 516.408 93.5554 516.408 93.5554Z" fill="#436191"/>
<path d="M249.92 518.892L251.506 571.592H238.354L233.13 520.384L249.92 518.892Z" fill="#241145"/>
<path d="M214.008 360.23C214.008 360.23 230.705 402.764 227.813 422.352C224.922 441.846 226.321 499.957 231.917 528.219L252.158 525.328C252.158 525.328 255.889 440.913 255.889 418.9C255.889 396.981 254.117 319.842 254.117 319.842L214.008 360.23Z" fill="#022D48"/>
<path d="M255.61 386.907C255.05 356.872 254.211 319.842 254.211 319.842L214.102 360.23C214.102 360.23 221.378 378.792 225.482 397.074C234.436 396.328 242.831 394.555 248.334 391.291C251.226 389.612 253.558 388.119 255.61 386.907Z" fill="#011F32"/>
<path d="M322.769 268.913C325.381 268.913 288.537 165.937 288.537 165.937L283.966 176.57L322.769 268.913Z" fill="#58231D"/>
<path d="M207.48 210.709C207.48 201.382 217.46 183.473 221.751 176.291L214.102 106.054H200.111C200.111 106.054 186.493 185.805 181.456 201.475C176.326 217.052 205.614 267.514 205.614 267.514L231.918 269.286L229.213 244.662C219.699 233.469 207.48 217.892 207.48 210.709Z" fill="#022D48"/>
<path d="M287.883 90.4773C287.883 90.4773 293.107 93.5554 295.252 97.0066C302.248 108.106 360.918 276.282 360.918 276.282C360.918 276.282 350.471 277.495 346.647 285.703C346.647 285.703 334.241 270.406 331.629 258.093C329.018 245.688 285.738 180.955 285.738 180.955L287.883 90.4773Z" fill="#022D48"/>
<path d="M287.883 90.4773C296.278 95.3276 296.278 93.1823 328.458 181.234C337.972 208.191 351.87 247.647 360.918 276.282C291.614 87.2127 298.236 97.1931 287.883 90.4773Z" fill="#AC806D"/>
<path d="M274.638 26.397C274.638 26.397 283.779 33.2994 283.872 40.948C283.965 48.5966 281.913 53.7267 281.913 55.8721C281.913 58.0174 285.551 64.0803 286.67 65.0131C288.163 66.2256 284.058 69.1172 283.126 69.5836C282.566 69.8634 283.126 72.0087 283.779 72.4751C284.432 72.9415 285.084 75.4599 281.633 76.2061C281.633 76.2061 282.566 79.2842 282.006 79.9371C281.447 80.5901 280.327 80.4035 280.327 80.4035C280.327 80.4035 279.395 80.4968 278.928 81.3363C278.462 82.1758 279.115 85.6269 277.716 86.5597C273.612 89.2647 257.755 82.5489 250.013 66.3189C242.178 50.089 241.525 27.423 248.894 23.692C256.076 20.2408 272.679 21.64 274.638 26.397Z" fill="#FD9B9B"/>
<path d="M268.109 21.6398L270.814 19.8676C270.814 19.8676 274.918 14.4576 282.66 17.9088C290.308 21.36 296.651 44.4923 265.963 60.629C255.33 66.2255 270.441 69.8633 270.441 69.8633C270.441 69.8633 263.165 81.4294 259.248 71.3557C255.33 61.1886 266.43 48.3166 267.269 41.5075C268.109 34.6051 268.109 21.6398 268.109 21.6398Z" fill="#011C2D"/>
<path d="M228.281 83.5748C228.281 83.5748 200.951 102.137 200.951 120.698C200.951 139.26 218.487 181.701 214.569 215.839C210.652 249.978 181.363 382.709 181.363 382.709C181.363 382.709 230.146 388.586 248.242 378.325C266.337 368.065 263.819 366.573 279.023 376.367C294.133 386.16 307.845 378.325 307.845 378.325L346.554 373.475C346.554 373.475 309.71 251.937 300.476 202.688C291.242 153.438 292.175 94.8611 287.791 90.4772C283.5 86.0932 247.869 76.2993 228.281 83.5748Z" fill="url(#paint0_linear)"/>
<path d="M225.016 295.31C222.964 294.844 224.363 295.497 237.515 232.629C214.289 114.169 213.636 118.646 215.688 118.273C217.74 117.807 215.408 114.169 239.753 232.629C225.575 295.777 227.068 295.777 225.016 295.31Z" fill="#4F1900"/>
<path d="M289.188 289.154L272.492 232.629C273.052 106.334 271.559 110.811 273.705 110.811C276.223 111.931 273.891 103.163 274.731 232.443C291.147 289.62 292.64 289.247 290.588 289.807C290.401 289.9 289.375 289.807 289.188 289.154Z" fill="#4F1900"/>
<path d="M288.909 217.425C263.445 242.89 227.813 222.369 227.813 222.369V238.879C259.154 250.818 293.106 232.722 293.106 232.722L288.909 217.425Z" fill="#022D48"/>
<path d="M322.489 252.497C322.489 252.497 352.431 307.156 349.166 317.603C345.901 328.05 328.739 337.378 328.739 337.378L309.151 254.829L322.489 252.497Z" fill="#BFBFBF"/>
<path d="M202.816 106.054C202.816 106.054 236.955 167.243 238.914 184.126C240.873 201.009 309.15 271.339 309.15 271.339V267.794C309.15 267.794 247.495 201.755 245.91 188.696C244.417 175.638 206.361 100.178 206.361 100.178L202.816 106.054Z" fill="white"/>
<path d="M431.714 98.3121C431.714 98.3121 420.335 97.6592 412.033 113.796C403.732 130.026 415.111 217.518 408.209 239.904C401.307 262.29 413.339 313.592 413.339 313.592C413.339 313.592 512.864 320.121 523.964 313.592C523.964 313.592 540.847 257.44 532.265 238.878C523.684 220.316 537.116 105.867 517.808 95.234C498.5 84.5073 431.714 98.3121 431.714 98.3121Z" fill="#037DD0"/>
<path d="M431.714 98.3124C431.714 98.3124 420.335 97.6595 412.033 113.796C403.732 130.026 415.111 217.519 408.209 239.905C401.306 262.291 420.894 313.779 420.894 313.779C420.894 313.779 516.782 323.013 527.881 316.484C527.881 316.484 540.847 257.44 532.265 238.785C523.684 220.223 537.116 105.774 517.808 95.1411C498.5 84.5076 431.714 98.3124 431.714 98.3124Z" fill="#066EB9"/>
<path d="M517.807 95.2342C498.499 84.6008 431.713 98.3123 431.713 98.3123C431.713 98.3123 425.184 97.9392 418.375 104.748C423.505 122.191 436.47 156.33 458.857 151.573C479.47 147.189 506.8 117.807 519.113 96.1669C518.739 95.7938 518.273 95.4207 517.807 95.2342Z" fill="#436191"/>
<path d="M415.857 89.4513C415.857 89.4513 428.916 137.302 458.951 132.451C488.985 127.601 533.198 82.6422 524.43 73.8743C515.569 65.1064 429.289 95.7007 415.857 89.4513Z" fill="#037DD0"/>
<path opacity="0.5" d="M415.857 89.4512C415.857 89.4512 416.51 91.8764 417.909 95.6074C419.215 95.0477 420.801 94.5814 422.946 94.5814C436.378 94.5814 431.248 101.017 440.669 101.017C450.09 101.017 447.011 87.9588 452.608 87.9588C458.298 87.9588 472.849 94.9545 476.953 86.5597C481.057 78.0716 482.176 82.1757 492.53 82.1757C502.883 82.1757 505.402 75.7397 508.667 79.4707C511.092 82.1757 520.513 80.9631 525.363 78.3514C525.736 76.3926 525.363 74.9002 524.337 73.7809C515.569 65.1063 429.289 95.7007 415.857 89.4512Z" fill="#86648E"/>
<path d="M461.656 19.5878C461.656 19.5878 456.059 21.3601 453.727 27.0499C451.395 32.6464 455.593 43.5597 452.795 46.4512C449.996 49.2495 445.519 51.3015 445.519 51.3015L447.478 55.9653C447.478 55.9653 449.81 74.4338 452.328 76.9523C454.847 79.4707 474.155 75.6464 479.005 73.3145C483.855 70.9826 501.857 43.2798 497.753 30.8742C493.649 18.282 461.656 19.5878 461.656 19.5878Z" fill="#FD9B9B"/>
<path d="M499.806 67.1584C499.806 67.1584 514.45 45.6117 514.45 34.2321C514.45 22.8525 496.355 2.14534 495.049 2.14534C493.743 2.14534 495.049 8.67462 495.049 8.67462C495.049 8.67462 488.333 0 480.311 0C472.289 0 468.279 9.60738 462.869 8.11497C457.459 6.62256 456.339 4.47722 456.339 4.47722C456.339 4.47722 454.847 9.04772 456.339 10.6334C457.832 12.1258 451.676 9.70065 450.743 7.36876C450.743 7.36876 450.183 13.5249 453.075 14.4577C455.966 15.3905 452.142 16.9761 448.597 16.9761C444.96 16.9761 436.472 11.7527 436.472 11.7527C436.472 11.7527 437.218 21.3601 443.561 22.9458C449.903 24.5315 467.439 22.013 472.01 28.3558C476.58 34.6985 475.554 44.1193 475.554 44.1193C475.554 44.1193 476.3 41.974 479.472 38.8026C482.363 35.9111 484.788 37.9631 485.721 42.6269C486.654 47.2907 479.005 49.436 481.337 56.8981C483.669 64.4534 488.24 61.9349 490.571 65.9458C492.903 69.9566 499.806 67.1584 499.806 67.1584Z" fill="#011C2D"/>
<path d="M309.15 254.735C309.15 254.735 306.911 273.577 306.911 296.709C306.911 319.842 313.627 334.113 318.664 336.445C324.447 339.056 333.308 339.709 333.308 328.143C333.215 316.577 309.15 254.735 309.15 254.735Z" fill="white"/>
<path d="M229.399 546.035C229.399 546.035 239.38 576.349 239.38 584.464C239.38 592.579 237.887 598.642 239.38 602.56C240.872 606.477 255.61 607.597 258.688 604.519C261.766 601.441 254.024 578.681 254.024 572.059C254.024 565.436 253.091 543.516 248.427 538.853C243.764 534.189 225.202 527.193 229.399 546.035Z" fill="url(#paint1_linear)"/>
<path d="M406.156 81.1497C409.234 79.7506 413.525 79.4707 419.494 81.1497C425.464 82.8287 425.464 81.8959 434.698 76.9523C443.839 72.0087 445.611 79.4707 450.741 79.4707C455.872 79.4707 453.913 75.1801 461.655 72.2885C469.397 69.397 470.982 76.3926 475.926 72.0087C480.869 67.5315 479.843 61.0955 486.186 61.0955C492.529 61.0955 493.555 64.5467 498.405 64.5467C503.162 64.5467 502.323 61.0955 510.345 61.0955C518.366 61.0955 515.754 64.5467 522.377 64.5467C529 64.5467 540.379 59.0434 540.379 66.9718C540.379 74.9002 528.347 69.397 528.347 73.5944C528.347 77.7918 511.93 80.8699 508.666 77.6052C505.401 74.3406 502.882 80.0304 492.529 80.0304C482.175 80.0304 481.056 76.3926 476.952 83.948C472.848 91.5033 458.297 85.2538 452.607 85.2538C446.917 85.2538 450.089 96.9133 440.668 96.9133C431.247 96.9133 436.377 91.1302 422.945 91.1302C415.856 91.1302 414.364 95.0477 412.592 96.7267C410.913 98.4057 387.034 89.9176 406.156 81.1497Z" fill="#BFBFBF"/>
<path d="M399.814 91.1302C395.897 86.5597 402.053 81.8027 407.37 79.8439C410.821 78.6313 414.552 78.8178 418.096 79.5641C422.48 80.4035 423.506 81.3363 427.051 79.4708C429.756 77.9784 434.233 75.0868 436.192 74.3406C444.12 70.9827 447.385 77.8851 451.023 77.4187C453.821 77.2322 453.075 74.3406 458.112 71.6356C472.01 63.987 470.89 79.4708 478.352 64.5467C480.124 60.9089 482.083 59.3233 486.001 59.1367C494.675 59.1367 495.981 65.3862 502.138 61.4686C505.216 59.5098 509.693 59.3233 513.144 59.8829C515.942 60.3493 516.875 61.2821 518.274 62.3081C521.259 64.64 527.975 62.7745 532.545 62.3081C541.78 61.5619 540.007 66.5988 540.287 66.8786L540.101 65.5727C537.862 60.0695 530.027 64.8265 522.472 65.4794C516.222 65.8526 517.248 63.0543 512.678 62.5879C503.07 61.6552 504.283 66.1324 498.127 66.2257C493.836 66.4122 492.064 63.7072 488.146 63.1476C487.12 62.961 485.161 62.8677 484.229 63.4274C482.083 64.1736 481.43 69.4903 477.326 73.3146C473.782 76.6725 471.17 75.5532 467.999 74.2473C463.801 72.5684 459.231 74.807 456.806 77.9784C455.22 79.9372 454.101 81.243 451.116 81.3363C444.866 81.8027 443.934 75.0868 437.311 77.512C434.886 78.2582 428.73 82.269 425.558 83.0152C420.895 84.1345 415.018 79.3775 407.743 81.243C405.318 81.8959 400.934 83.948 399.441 86.3732C398.695 87.8656 398.788 89.7311 399.814 91.1302Z" fill="white"/>
<path d="M309.15 254.735C307.285 254.735 333.215 318.069 357.84 319.842L322.489 252.497L309.15 254.735Z" fill="#BFBFBF"/>
<path d="M276.224 57.0845C276.224 57.0845 281.261 57.5509 284.432 53.54L276.224 57.0845Z" fill="#092C2E"/>
<path d="M277.376 68.4576C278.376 67.5665 277.491 64.9425 275.401 62.5967C273.31 60.2509 270.805 59.0716 269.805 59.9627C268.805 60.8538 269.689 63.4778 271.78 65.8236C273.871 68.1694 276.376 69.3487 277.376 68.4576Z" fill="#FD8481"/>
<path d="M270.813 19.8677C270.813 19.8677 252.251 -2.89157 235.369 19.8677C218.486 42.6269 226.228 55.872 216.527 61.0954C206.733 66.3189 186.679 77.5119 189.384 91.8763C192.089 106.241 199.364 103.629 199.364 103.629C199.364 103.629 191.529 95.0477 197.126 92.436C202.722 89.731 201.51 100.271 201.51 100.271C201.51 100.271 197.405 110.065 203.748 112.957C210.091 115.848 219.885 113.703 221.284 126.388C222.776 139.074 236.395 139.54 240.779 131.985C240.779 131.985 233.503 132.265 233.503 127.321C233.503 122.471 242.644 115.568 244.23 122.657C245.722 129.746 251.878 129.28 257.661 126.575C263.538 123.87 265.497 151.666 252.065 146.816C252.065 146.816 273.798 152.879 272.306 131.239C270.813 109.505 259.154 110.158 263.445 105.868C267.735 101.577 269.507 110.065 272.399 112.957C275.291 115.848 282.659 108.573 282.659 114.449C282.659 120.325 270.347 134.223 279.115 137.115C287.883 140.007 293.013 121.725 297.863 123.497C302.714 125.176 293.479 131.052 293.479 131.052C293.479 131.052 304.206 126.388 302.713 120.605C301.221 114.729 298.33 116.688 291.987 116.688C285.644 116.688 294.878 112.024 290.308 103.256C285.644 94.4881 289.095 94.6746 279.581 91.7831C270.067 88.8915 272.492 70.7961 271 59.0434C269.601 47.2906 275.85 24.6247 270.813 19.8677Z" fill="#011C2D"/>
<path d="M280.421 58.8569C281.142 58.8569 281.727 58.1887 281.727 57.3645C281.727 56.5402 281.142 55.8721 280.421 55.8721C279.7 55.8721 279.115 56.5402 279.115 57.3645C279.115 58.1887 279.7 58.8569 280.421 58.8569Z" fill="#092C2E"/>
<path d="M516.968 116.314C498.779 228.618 505.682 219.57 509.133 225.913C509.506 226.753 511.931 229.271 514.916 241.677C518.087 255.388 519.673 274.043 515.476 288.874C511.185 302.959 480.777 307.156 466.04 307.622C478.259 305.944 504.376 301.28 511.092 290.74C517.341 280.386 513.61 243.729 506.335 229.644C503.256 224.234 499.339 224.98 501.298 201.195C502.137 191.588 503.443 182.074 505.122 172.56C508.2 153.625 512.304 134.876 516.968 116.314Z" fill="#0788E4"/>
<path d="M462.401 56.525C465.904 56.525 468.744 55.1887 468.744 53.5402C468.744 51.8918 465.904 50.5554 462.401 50.5554C458.898 50.5554 456.059 51.8918 456.059 53.5402C456.059 55.1887 458.898 56.525 462.401 56.525Z" fill="#FD8481"/>
<path d="M476.58 46.0781C476.58 46.0781 478.259 41.2278 480.684 42.2538C483.109 43.3732 480.871 51.6747 478.632 51.6747C476.394 51.7679 475.834 47.6638 476.58 46.0781Z" fill="#FD8481"/>
<path d="M461.75 36.1909C460.164 34.8851 454.474 33.859 453.728 34.1389C452.982 34.4187 452.702 37.4968 453.728 37.4968C454.754 37.4968 460.724 36.4707 461.75 37.4968C462.776 38.5228 463.242 38.8959 463.242 38.8959C463.242 38.8959 462.403 36.6573 461.75 36.1909Z" fill="url(#paint2_linear)"/>
<path d="M457.365 45.5185C458.601 45.5185 459.604 44.5162 459.604 43.2799C459.604 42.0435 458.601 41.0413 457.365 41.0413C456.129 41.0413 455.126 42.0435 455.126 43.2799C455.126 44.5162 456.129 45.5185 457.365 45.5185Z" fill="url(#paint3_linear)"/>
<path d="M453.074 67.1584C452.981 67.1584 452.794 67.0651 452.794 66.9718C452.701 66.7853 452.794 66.5987 452.981 66.5987C453.074 66.5987 459.51 64.3601 460.816 61.0955C460.909 60.9089 461.096 60.8156 461.189 60.9089C461.376 61.0022 461.469 61.1887 461.376 61.282C459.977 64.8265 453.447 67.0651 453.167 67.1584C453.167 67.1584 453.167 67.1584 453.074 67.1584Z" fill="url(#paint4_linear)"/>
<defs>
<linearGradient id="paint0_linear" x1="346.056" y1="133.373" x2="168.219" y2="146.649" gradientUnits="userSpaceOnUse">
<stop stop-color="#DF055A"/>
<stop offset="1" stop-color="#ED094A"/>
</linearGradient>
<linearGradient id="paint1_linear" x1="259.319" y1="546.179" x2="226.276" y2="548.089" gradientUnits="userSpaceOnUse">
<stop stop-color="#DF055A"/>
<stop offset="1" stop-color="#ED094A"/>
</linearGradient>
<linearGradient id="paint2_linear" x1="453.11" y1="36.4462" x2="463.314" y2="36.4462" gradientUnits="userSpaceOnUse">
<stop stop-color="#2C0651"/>
<stop offset="1" stop-color="#401A65"/>
</linearGradient>
<linearGradient id="paint3_linear" x1="455.153" y1="43.3114" x2="459.548" y2="43.3114" gradientUnits="userSpaceOnUse">
<stop stop-color="#2C0651"/>
<stop offset="1" stop-color="#401A65"/>
</linearGradient>
<linearGradient id="paint4_linear" x1="452.798" y1="63.9564" x2="461.42" y2="63.9564" gradientUnits="userSpaceOnUse">
<stop stop-color="#2C0651"/>
<stop offset="1" stop-color="#401A65"/>
</linearGradient>
</defs>
</svg>
