<svg width="172" height="149" viewBox="0 0 172 149" fill="none" xmlns="http://www.w3.org/2000/svg">
<path d="M91.6341 149C135.889 149 171.764 146.96 171.764 144.443C171.764 141.926 135.889 139.886 91.6341 139.886C47.3794 139.886 11.5039 141.926 11.5039 144.443C11.5039 146.96 47.3794 149 91.6341 149Z" fill="#ECECEC"/>
<path d="M71.4734 85.4668L69.1934 142.417H70.3334L74.2634 85.4668H71.4734Z" fill="black"/>
<path d="M111.674 84.3945L116.384 141.196L115.244 141.256L108.884 84.5137L111.674 84.3945Z" fill="#0F1D5B"/>
<path d="M53.5638 41.5626C50.8638 35.2481 47.8038 34.8013 47.8038 34.8013L44.3838 58.9576C47.2938 58.8384 51.4938 60.4468 54.1938 61.0426C55.4538 53.6259 54.8538 44.5412 53.5638 41.5626Z" fill="#A4043B"/>
<path d="M44.3834 58.9576L41.9834 75.876H49.5434C49.5434 75.876 51.4034 68.1317 52.7834 59.8512C50.0834 59.2555 47.2934 58.8385 44.3834 58.9576Z" fill="#FD7B77"/>
<path d="M125.084 102.505C131.684 104.351 138.644 104.649 145.424 103.875C150.794 103.279 156.404 102.356 160.964 99.1686C165.314 96.1305 169.124 90.8882 170.084 85.5863C170.984 80.6418 165.164 77.6931 160.934 77.842C160.934 77.842 160.064 68.936 154.604 67.8637C149.144 66.7617 131.774 65.6894 126.914 67.8637C122.024 70.0381 122.234 77.5441 121.364 77.5441C118.274 77.5441 115.694 76.3527 113.714 79.6589C109.484 86.7479 112.814 99.0495 125.084 102.505Z" fill="#DBDBDB"/>
<path d="M130.934 100.539H127.874L123.464 142.417H124.034L130.934 100.539Z" fill="#011C2D"/>
<path d="M150.463 100.539H153.523L157.933 142.417H157.363L150.463 100.539Z" fill="#011C2D"/>
<path d="M166.484 91.3943C161.924 94.5516 156.314 95.475 150.944 96.1005C144.164 96.8451 137.204 96.5771 130.604 94.7304C121.124 92.0496 116.984 84.1266 117.524 77.3652C116.054 77.395 114.794 77.8418 113.684 79.6885C109.484 86.7775 112.784 99.0791 125.084 102.534C131.684 104.381 138.644 104.679 145.424 103.904C150.794 103.309 156.404 102.385 160.964 99.1982C164.264 96.9047 167.264 93.3304 168.914 89.4285C168.134 90.1731 167.324 90.8284 166.484 91.3943Z" fill="#BFBFBF"/>
<path d="M130.935 43.469C125.475 48.89 124.485 68.2508 120.615 68.7572C115.125 69.472 113.115 68.3104 110.025 69.0252C109.095 69.2635 102.915 72.6591 103.035 73.3144C103.155 73.9697 106.215 72.3315 106.215 72.3315C106.215 72.3315 103.905 74.5058 104.175 75.1313C104.445 75.7866 107.055 72.9272 107.055 72.9272C107.055 72.9272 106.665 74.2377 106.515 75.1611C106.365 76.0547 106.425 77.3653 107.025 76.2036C107.625 75.0122 107.775 73.5229 108.405 73.1952C109.035 72.8676 109.605 73.1357 109.605 73.1357C109.605 73.1357 109.365 73.1952 108.855 73.6718C108.345 74.1782 107.145 77.1865 108.135 76.2036C108.885 75.459 110.685 72.6591 113.205 72.4506C114.195 72.54 120.585 73.0761 122.895 72.7187C125.415 72.3017 130.485 60.715 133.095 54.3408C135.735 47.9667 139.366 40.6989 139.366 40.6989C139.366 40.6989 136.396 38.0182 130.935 43.469Z" fill="#FD7B77"/>
<path d="M141.376 5.34326C143.596 7.72613 145.456 11.3302 144.076 14.3386L143.686 14.1599C144.766 11.3302 142.846 8.08356 140.686 6.02834L141.376 5.34326Z" fill="#011C2D"/>
<path d="M122.654 94.9687L122.474 97.7089C123.944 100.241 126.284 102.594 127.154 107.27C129.344 119.333 132.764 139.349 132.764 139.349C132.764 139.349 134.865 142.03 133.634 142.388C132.374 142.745 128.924 144.026 126.314 144.77C123.674 145.515 123.164 144.443 123.164 144.443C123.164 144.443 129.134 141.732 129.074 139.052C128.984 136.401 112.304 92.6454 112.304 92.6454L123.344 88.2371L122.654 94.9687Z" fill="#FD7B77"/>
<path d="M124.634 143.549L127.244 144.354L132.884 139.528C132.884 139.528 134.864 142.03 133.694 142.358C132.524 142.686 128.474 144.383 126.044 145.068C123.584 145.754 121.964 144.83 121.964 144.83C121.964 144.83 123.164 144.324 124.634 143.549Z" fill="#022D48"/>
<path d="M101.145 138.396L105.705 131.099L109.905 90.0838C109.905 90.0838 128.775 81.3268 131.355 79.5396C133.965 77.7525 135.465 70.4252 133.365 67.1189L148.365 65.2126L153.285 82.131C154.485 86.3606 152.835 90.5604 147.705 92.5262C142.575 94.4921 118.095 94.3431 118.095 94.3431C118.095 94.3431 120.045 94.6112 119.865 99.1982C119.655 103.815 107.205 132.231 107.205 132.231L105.855 141.732L100.305 144.085L101.145 138.396Z" fill="#FD9B9B"/>
<path d="M153.316 82.131C151.006 73.9995 149.116 67.7445 149.116 67.7445L149.206 52.7027L145.426 46.8051C140.656 46.3881 135.706 46.9242 130.906 47.788C130.906 47.788 131.266 63.2468 133.096 66.5531C134.926 69.8593 134.266 78.2291 129.226 80.7609C124.186 83.2927 114.526 86.4798 114.526 86.4798C114.526 86.4798 122.386 96.1006 123.136 98.7515C123.136 98.7515 143.056 93.8666 146.776 92.8241C150.466 91.8114 155.626 90.2626 153.316 82.131Z" fill="#027CCD"/>
<path d="M153.315 82.1311C151.005 73.9996 149.115 67.7446 149.115 67.7446L149.205 52.7028L145.425 46.8052C144.855 46.7456 144.285 46.7158 143.715 46.686C143.715 46.686 148.275 55.0558 145.755 61.0726C143.235 67.0595 139.245 67.8637 140.805 69.4126C142.365 70.9615 147.375 70.0977 147.375 72.9869C147.375 75.8761 149.175 87.9691 145.575 89.9052C141.945 91.8413 123.135 98.7516 123.135 98.7516C123.135 98.7516 143.055 93.8667 146.775 92.8242C150.465 91.8115 155.625 90.2626 153.315 82.1311Z" fill="#066EBA"/>
<path d="M105.885 141.762L101.145 138.396L100.335 144.115L105.885 141.762Z" fill="#022D48"/>
<path d="M130.515 12.6407C130.515 12.6407 127.095 14.4874 126.735 17.317C126.375 20.1467 127.395 21.5764 127.215 22.9168C127.035 24.2869 127.215 26.8187 128.865 30.7504C130.515 34.6822 136.155 32.4482 139.365 29.6484C142.995 26.4911 144.075 27.7719 144.075 22.6785C144.075 17.5851 136.455 8.05366 130.515 12.6407Z" fill="#FD9B9B"/>
<path d="M145.725 25.9551C147.285 23.9297 145.965 22.5893 147.016 21.9936C148.066 21.3979 150.316 17.7044 148.695 15.0535C147.045 12.4026 145.665 13.8621 144.225 12.3728C142.785 10.8835 142.395 9.12613 138.285 6.50498C134.175 3.88383 131.745 8.3517 131.745 8.3517C131.745 8.3517 127.095 8.5602 124.905 11.8664C124.335 12.76 123.915 13.5046 123.585 14.1599C122.895 15.6194 122.985 17.2874 123.795 18.6874C124.155 19.3129 124.575 19.9682 124.935 20.4149C125.805 21.5468 126.225 21.4872 126.225 21.4872C124.545 19.9086 125.445 18.181 125.445 18.181C125.445 18.181 125.835 20.7724 126.495 21.2489C126.915 21.517 127.965 20.7426 127.965 20.7426C127.965 20.7426 127.755 19.3427 128.115 18.0023C128.475 16.6619 130.425 16.0364 130.725 16.3939C130.995 16.7513 132.525 18.3597 132.525 18.3597L134.565 18.598C133.725 16.5726 136.935 14.428 136.935 14.428C136.935 14.428 137.445 14.7259 137.805 15.5599C138.165 16.3641 137.535 19.5512 137.385 20.5937C137.235 21.6362 139.095 22.2021 139.095 22.2021C139.095 22.2021 141.555 22.1425 141.255 24.4956C140.955 26.8487 139.155 26.2827 139.065 26.938C138.975 27.5635 138.555 30.8102 138.555 30.8102C138.555 30.8102 144.165 27.9805 145.725 25.9551Z" fill="#011C2D"/>
<path d="M141.076 21.2786C140.596 21.1595 136.996 23.2147 137.536 24.7338C138.076 26.2529 139.426 26.5507 140.806 25.8656C142.186 25.1806 143.116 21.8148 141.076 21.2786Z" fill="#FD9B9B"/>
<path d="M138.255 23.6318C138.255 23.6318 139.725 21.9042 140.415 22.7978C141.105 23.6914 140.835 25.1807 139.815 25.6275C138.795 26.104 137.265 24.6743 138.255 23.6318Z" fill="#FD7B77"/>
<path d="M130.994 26.5208C131.054 26.074 130.454 26.6102 129.434 25.2102C129.824 24.5847 130.064 23.8401 130.094 23.155C129.734 24.5252 129.014 25.0613 128.894 25.2102C128.924 25.24 129.704 26.5506 130.724 26.7293C130.844 26.7293 130.964 26.64 130.994 26.5208Z" fill="#2846A6"/>
<path d="M133.338 23.7707C133.599 23.5686 133.646 23.1943 133.443 22.9347C133.239 22.675 132.862 22.6283 132.6 22.8304C132.339 23.0325 132.292 23.4068 132.495 23.6664C132.699 23.9261 133.076 23.9728 133.338 23.7707Z" fill="#2846A6"/>
<path d="M128.248 23.6379C128.509 23.4359 128.556 23.0616 128.353 22.802C128.149 22.5423 127.772 22.4956 127.511 22.6976C127.249 22.8997 127.202 23.274 127.406 23.5336C127.609 23.7933 127.986 23.84 128.248 23.6379Z" fill="#2846A6"/>
<path d="M131.145 22.3212C131.835 22.2616 132.555 22.3212 133.215 22.5297C133.575 22.6489 133.875 22.7978 134.175 22.9467C134.475 23.0956 134.775 23.2744 135.075 23.4829C134.715 23.4829 134.385 23.3935 134.025 23.3041C133.695 23.2148 133.365 23.0361 133.065 22.9467C132.465 22.6786 131.805 22.5297 131.145 22.3212Z" fill="#0F1D5B"/>
<path d="M126.524 22.2021C127.034 22.1723 127.574 22.2617 128.084 22.4702C128.354 22.5893 128.564 22.7085 128.804 22.8276C129.044 22.9468 129.254 23.0957 129.494 23.2744C129.224 23.2446 128.954 23.185 128.714 23.0957C128.474 23.0063 128.234 22.8574 127.994 22.768C127.544 22.5595 127.034 22.4106 126.524 22.2021Z" fill="#0F1D5B"/>
<path d="M131.145 20.0276L131.445 20.7722C131.445 20.7722 133.305 20.6531 134.115 21.3977C134.115 21.3977 132.705 19.551 131.145 20.0276Z" fill="#0F1D5B"/>
<path d="M129.464 28.5166C129.464 28.5166 131.564 28.3081 133.334 27.623C133.334 27.623 131.714 30.1846 130.724 30.0655C129.734 29.9463 129.464 28.5166 129.464 28.5166Z" fill="white"/>
<path d="M122.505 59.9405C122.505 56.6939 125.445 43.9158 125.445 43.9158H118.875L121.785 59.4342V66.4636L118.695 67.4763H125.295L122.505 66.4636C122.505 66.4338 122.505 63.1574 122.505 59.9405Z" fill="#E3E4FF"/>
<path d="M122.505 59.9405C122.505 56.6939 125.445 43.9158 125.445 43.9158H118.875L121.785 59.4342V66.4636L118.695 67.4763H125.295L122.505 66.4636C122.505 66.4338 122.505 63.1574 122.505 59.9405Z" fill="#E3E4FF"/>
<path d="M120.165 48.8306L122.145 59.4045V59.4343H122.175C122.325 57.2004 123.225 52.4942 124.005 48.8306H120.165Z" fill="#F3F0A5"/>
<path d="M121.214 49.8731C121.33 49.8731 121.424 49.7797 121.424 49.6646C121.424 49.5494 121.33 49.4561 121.214 49.4561C121.098 49.4561 121.004 49.5494 121.004 49.6646C121.004 49.7797 121.098 49.8731 121.214 49.8731Z" fill="#FFE9B8"/>
<path d="M121.545 51.4517C121.612 51.4517 121.665 51.3983 121.665 51.3325C121.665 51.2667 121.612 51.2134 121.545 51.2134C121.479 51.2134 121.425 51.2667 121.425 51.3325C121.425 51.3983 121.479 51.4517 121.545 51.4517Z" fill="#FFE9B8"/>
<path d="M121.395 52.9409C121.494 52.9409 121.575 52.8609 121.575 52.7622C121.575 52.6635 121.494 52.5835 121.395 52.5835C121.295 52.5835 121.215 52.6635 121.215 52.7622C121.215 52.8609 121.295 52.9409 121.395 52.9409Z" fill="#FFE9B8"/>
<path d="M122.175 52.6431C122.224 52.6431 122.265 52.6031 122.265 52.5537C122.265 52.5044 122.224 52.4644 122.175 52.4644C122.125 52.4644 122.085 52.5044 122.085 52.5537C122.085 52.6031 122.125 52.6431 122.175 52.6431Z" fill="#FFE9B8"/>
<path d="M150.434 44.2137C148.814 39.2096 141.044 40.3415 141.044 40.3415C136.304 40.4904 130.874 47.7582 130.874 47.7582C135.134 47.0135 139.484 46.5072 143.744 46.6859L145.964 51.0942C145.964 51.0942 151.814 63.5446 149.204 66.136C147.584 67.7444 139.964 65.5701 135.194 63.4255C132.674 62.2936 130.724 61.966 129.314 61.9362C129.164 61.8468 129.044 61.7575 128.984 61.6979C128.204 60.9235 125.144 58.3619 124.964 58.3619C122.504 58.3619 121.124 58.064 120.884 58.5406C120.644 59.0172 120.854 60.0895 120.854 60.0895C120.344 60.8341 120.794 61.8171 120.794 61.8171C120.494 62.8893 120.704 63.9616 121.274 63.9914C122.264 64.0808 127.664 63.8127 127.664 63.8127C128.054 64.1999 131.504 65.8084 132.524 66.4636C136.034 68.7571 150.314 75.4589 153.524 71.1102C156.764 66.7913 152.414 50.2602 150.434 44.2137Z" fill="#FD9B9B"/>
<path d="M135.375 30.7804C135.375 31.0186 137.235 39.2395 135.375 42.8436C133.515 46.4477 140.715 44.184 142.485 42.0394C144.255 39.8948 139.365 26.6699 139.365 26.6699L135.375 30.7804Z" fill="#FD9B9B"/>
<path d="M34.3036 92.8539C33.6136 92.8539 24.0136 86.301 24.7036 79.3609C25.3936 72.4208 19.2136 68.7274 15.2236 69.5316C11.2335 70.3656 0.103516 73.642 0.103516 73.642L11.0835 93.6879L18.4636 102.236L29.2036 102.415L51.5537 104.172C51.5537 104.172 48.6736 92.8539 34.3036 92.8539Z" fill="#DBDBDB"/>
<path d="M42.6719 83.7988L63.9119 86.8668C65.5019 87.1051 66.7619 88.3561 66.9419 89.9645L72.462 136.192C72.462 136.192 72.462 140.809 75.162 141.732C77.892 142.656 80.592 144.145 80.592 144.145L67.7519 143.549C67.7519 143.549 66.8819 139.737 67.7519 137.145C68.6519 134.584 62.0819 101.343 62.0819 101.343L42.6719 83.7988Z" fill="#011C2D"/>
<path d="M16.7236 79.7779L18.8236 95.9813L23.0236 103.458L54.4337 98.811L63.6138 136.699L65.1438 147.541C65.1438 147.541 69.2838 147.541 72.8838 147.541C76.3338 147.541 78.9138 147.541 78.9138 147.541C78.9138 147.541 70.5738 144.741 69.6738 142.209C68.9538 140.154 66.4038 105.334 65.5038 92.3475C65.2938 89.5178 63.1638 87.1945 60.3737 86.718L38.4137 83.0543L31.9637 77.9907L16.7236 79.7779Z" fill="#022D48"/>
<path d="M51.4931 44.6902C51.4631 41.2649 51.5231 37.8097 48.6731 34.9801L41.863 33.5205C41.863 33.5205 39.553 33.044 32.923 37.1544C23.473 43.0222 12.043 88.5647 12.043 88.5647L38.413 83.0543C38.413 83.0543 40.003 65.9275 44.7431 61.2213C48.4331 57.5279 51.5231 53.0898 51.4931 44.6902Z" fill="#B80543"/>
<path d="M19.933 99.9727H16.693L12.043 146.587H12.643L19.933 99.9727Z" fill="#011C2D"/>
<path d="M40.5439 99.9727H43.784L48.434 146.587H47.834L40.5439 99.9727Z" fill="#011C2D"/>
<path d="M0.103516 73.6419C0.103516 76.0843 10.3935 98.8407 11.8035 101.67C15.4036 108.819 30.4336 103.636 34.4236 104.44C38.4136 105.245 46.5136 108.402 50.2036 106.496C53.9237 104.589 49.6636 99.2577 40.8736 99.2577C32.0836 99.2577 25.4236 103.249 20.2036 98.0663C14.9836 92.8835 15.7636 82.6372 12.7335 76.5013C9.70354 70.3655 0.103516 73.6419 0.103516 73.6419Z" fill="#BFBFBF"/>
<path d="M61.9621 84.4541L59.4121 147.272H60.7021L65.0221 84.4541H61.9621Z" fill="black"/>
<path d="M125.503 84.5732L130.693 147.213L129.433 147.272L122.413 84.6924L125.503 84.5732Z" fill="black"/>
<path d="M126.193 77.8418C117.103 76.8589 104.833 76.2632 91.3626 76.2632C77.8925 76.2632 65.6525 76.8589 56.5325 77.8418L40.4824 78.646V82.1012C40.4824 85.3181 63.2525 87.9392 91.3626 87.9392C119.473 87.9392 142.243 85.3181 142.243 82.1012V78.646L126.193 77.8418Z" fill="#BFBFBF"/>
<path d="M90.8801 84.676C118.98 84.676 141.76 82.0623 141.76 78.838C141.76 75.6138 118.98 73 90.8801 73C62.7798 73 40 75.6138 40 78.838C40 82.0623 62.7798 84.676 90.8801 84.676Z" fill="#8C8C8C"/>
<path d="M66.6125 78.6459C66.6125 75.9354 82.6625 73.6717 104.413 73.0164C100.243 72.8972 95.8626 72.8079 91.3626 72.8079C63.2525 72.8079 40.4824 75.429 40.4824 78.6459C40.4824 81.8627 63.2525 84.4839 91.3626 84.4839C95.8926 84.4839 100.243 84.4243 104.413 84.2754C82.6625 83.6201 66.6125 81.3564 66.6125 78.6459Z" fill="#A6A6A6"/>
<path d="M99.2826 47.8177L88.6626 47.8772C88.6626 47.0134 89.0526 46.2986 89.5626 46.2986L98.3826 46.239C98.8626 46.239 99.2826 46.9539 99.2826 47.8177Z" fill="#446393"/>
<path d="M89.4423 46.8645L98.2624 46.8049C98.6524 46.8049 98.9823 47.2219 99.1023 47.8177H99.2524C99.2524 46.9539 98.8323 46.239 98.3523 46.239L89.5323 46.2986C89.0523 46.2986 88.6623 46.9539 88.6323 47.7581C88.7823 47.2517 89.0823 46.8943 89.4423 46.8645Z" fill="#446393"/>
<path d="M94.1521 52.7621H93.1621V52.6727C93.0721 51.8089 92.7721 51.0345 92.3521 50.5579L89.9221 47.8772L97.5721 47.8176L95.0221 50.4388C94.5121 50.9749 94.2121 51.8089 94.1521 52.7621Z" fill="#18287D"/>
<path d="M94.1521 52.7621H93.1621V52.6727C93.0721 51.8089 92.7721 51.0345 92.3521 50.5579L89.9221 47.8772L97.5721 47.8176L95.0221 50.4388C94.5121 50.9749 94.2121 51.8089 94.1521 52.7621Z" fill="#022D48"/>
<path d="M94.8124 60.0298C94.8124 60.4468 94.2724 60.8043 93.6124 60.8043C92.9524 60.8043 92.4124 60.4766 92.4124 60.0596C92.4124 59.6426 92.9524 59.2852 93.6124 59.2852C94.2724 59.2554 94.8124 59.6128 94.8124 60.0298Z" fill="#022D48"/>
<path d="M94.2714 60.0298C94.2714 60.7745 93.9714 61.3702 93.6114 61.3702C93.2514 61.3702 92.9514 60.7745 92.9514 60.0298C92.9514 59.2852 93.2514 58.6895 93.6114 58.6895C93.9714 58.6895 94.2714 59.2852 94.2714 60.0298Z" fill="#022D48"/>
<path d="M94.0027 69.2338H93.3427L93.3127 52.7622H93.9727L94.0027 69.2338Z" fill="#022D48"/>
<path d="M94.5114 70.4251H92.9514V69.7102C92.9514 69.3528 93.1014 69.0549 93.3114 69.0549H94.1214C94.3314 69.0549 94.4814 69.3528 94.4814 69.7102L94.5114 70.4251Z" fill="#022D48"/>
<path d="M95.2926 71.5867L92.1726 71.6165V70.9612C92.1726 70.6335 92.3226 70.3655 92.5026 70.3655L94.9326 70.3357C95.1126 70.3357 95.2926 70.6038 95.2926 70.9314V71.5867Z" fill="#022D48"/>
<path d="M96.3724 72.7185L91.1824 72.7483V72.1228C91.1824 71.7356 91.3624 71.4377 91.5724 71.4377L95.9824 71.408C96.1924 71.408 96.3724 71.7058 96.3724 72.093V72.7185Z" fill="#022D48"/>
<path d="M98.4415 74.0291V73.9695C98.4415 73.2249 98.0815 72.6292 97.6615 72.6292L90.0415 72.6887C89.6215 72.6887 89.2615 73.2844 89.2615 74.0291H98.4415Z" fill="#022D48"/>
<path d="M96.2809 73.4632C97.1756 73.4632 97.9009 73.3431 97.9009 73.1951C97.9009 73.047 97.1756 72.927 96.2809 72.927C95.3862 72.927 94.6609 73.047 94.6609 73.1951C94.6609 73.3431 95.3862 73.4632 96.2809 73.4632Z" fill="#446393"/>
<path d="M95.353 72.093C95.7838 72.093 96.133 72.013 96.133 71.9143C96.133 71.8156 95.7838 71.7356 95.353 71.7356C94.9222 71.7356 94.573 71.8156 94.573 71.9143C94.573 72.013 94.9222 72.093 95.353 72.093Z" fill="#446393"/>
<path d="M94.2727 71.1101C94.7035 71.1101 95.0527 70.9768 95.0527 70.8123C95.0527 70.6478 94.7035 70.5144 94.2727 70.5144C93.8419 70.5144 93.4927 70.6478 93.4927 70.8123C93.4927 70.9768 93.8419 71.1101 94.2727 71.1101Z" fill="#446393"/>
<path d="M94.0316 70.1272C94.2305 70.1272 94.3916 69.9539 94.3916 69.74C94.3916 69.5262 94.2305 69.3528 94.0316 69.3528C93.8328 69.3528 93.6716 69.5262 93.6716 69.74C93.6716 69.9539 93.8328 70.1272 94.0316 70.1272Z" fill="#446393"/>
<path d="M93.882 60.417C94.1803 60.417 94.422 60.2436 94.422 60.0298C94.422 59.8159 94.1803 59.6426 93.882 59.6426C93.5838 59.6426 93.342 59.8159 93.342 60.0298C93.342 60.2436 93.5838 60.417 93.882 60.417Z" fill="#446393"/>
<path d="M93.6137 33.1631C93.3137 32.21 94.0337 31.5845 94.0637 31.5547L94.1837 31.6738C94.1537 31.7036 93.4937 32.2695 93.7637 33.1333L93.6137 33.1631Z" fill="#0F0502"/>
<path d="M95.1127 46.2689L92.2627 46.2986V34.7418C92.2627 34.7418 92.8627 34.7418 92.8327 34.7418C93.2227 34.7418 93.1927 33.4014 93.6127 32.5078C93.6727 32.3589 93.7627 32.3589 93.8227 32.478C93.9427 32.6865 94.1227 33.1333 94.2727 33.9673C94.4827 35.0694 94.8127 34.563 95.1427 34.6822V43.1711L95.1127 46.2689Z" fill="#FEA66D"/>
<path d="M95.1127 46.2688L92.2627 46.2986V34.7417H92.3827C92.5027 37.4522 92.7727 40.8478 93.2527 41.9201C93.7327 42.9626 94.5127 43.2009 95.1427 43.2009L95.1127 46.2688Z" fill="#E35C02"/>
<path d="M93.8517 29.4994C93.8217 29.5292 93.3117 30.4525 93.4017 30.9291C93.4917 31.3759 93.6718 31.7929 94.0618 31.7929C94.4518 31.7929 94.5718 31.1972 94.4818 30.7802C94.3918 30.3632 94.4817 29.7973 94.5717 29.7973C94.6317 29.7973 94.1217 29.9462 94.1217 30.393C94.1217 30.393 94.3318 29.0228 94.8118 28.725C94.7818 28.6952 94.0917 29.1718 93.8517 29.4994Z" fill="#E9084E"/>
<path d="M94.4238 73.3442C94.4238 73.3741 94.4238 73.4039 94.4537 73.4039C94.4238 73.4039 94.4238 73.3741 94.4238 73.3442Z" fill="#FB86BB"/>
<path d="M51.3139 27.1463C51.0139 27.6527 49.3639 32.1801 49.1839 35.5459C49.0639 37.6309 47.3239 39.2394 45.2239 39.3287C43.2738 39.4181 40.3038 37.8692 39.5838 36.8863C37.9638 34.7417 42.8538 22.3806 42.8538 22.3806L51.3139 27.1463Z" fill="#FD9B9B"/>
<path d="M42.823 22.3806C42.823 22.3806 42.373 23.9593 41.833 26.1336C44.413 27.7718 47.923 29.6781 50.293 29.9164C50.743 28.4569 51.163 27.3846 51.283 27.1463L42.823 22.3806Z" fill="#FD7B77"/>
<path d="M53.354 27.7422C55.034 24.7636 54.014 20.6531 54.014 20.6531L55.874 20.9808C55.874 20.9808 54.464 12.1046 51.764 10.1983C49.064 8.29205 44.024 8.26226 41.354 14.2194C38.684 20.1468 37.874 21.1595 39.764 22.5594C41.624 23.9594 51.644 30.691 53.354 27.7422Z" fill="#FD9B9B"/>
<path d="M44.7738 20.4743C44.7738 20.4743 45.7638 17.9128 45.8538 15.8278C45.9438 13.7428 44.8638 12.462 47.0238 11.3003C49.1838 10.1685 50.7438 10.7642 52.0038 10.4067C53.2638 10.0493 55.6639 5.76016 53.6838 3.04965C51.6738 0.368932 47.9538 -1.41822 46.3038 1.50079C44.6538 4.4198 44.4138 4.8368 44.4138 4.8368C44.4138 4.8368 44.1138 1.76886 40.8438 4.03258C37.5738 6.2963 37.7238 7.72602 37.3338 8.38131C36.9738 9.0366 32.9238 9.90039 32.8038 12.879C32.6838 15.8575 33.4338 15.232 31.7538 18.151C30.1038 21.0701 40.1238 26.6996 40.1838 28.6952C40.2438 30.6909 38.3838 32.5376 38.5338 32.2993C38.6838 32.061 41.8338 30.3334 42.4638 27.3846C43.0638 24.4061 41.3538 19.8488 42.6438 19.4914C43.8438 19.134 44.7738 20.4743 44.7738 20.4743Z" fill="#011C2D"/>
<path d="M44.3839 23.572C44.3839 23.572 41.9239 23.4231 40.4239 22.5891C38.9239 21.7253 39.0739 18.151 40.5739 17.734C42.0739 17.317 46.5439 19.7892 44.3839 23.572Z" fill="#FD9B9B"/>
<path d="M49.5439 15.7979C49.5439 15.7979 50.7739 14.1001 51.7039 14.3384C52.604 14.5766 53.204 14.3979 53.204 14.3979L53.024 15.3213C53.024 15.3213 52.094 15.1128 51.2539 15.3511C50.3839 15.5596 49.5439 15.7979 49.5439 15.7979Z" fill="#2846A6"/>
<path d="M52.4207 17.7675C52.6086 17.4383 52.492 17.0202 52.1605 16.8337C51.8289 16.6473 51.4078 16.7629 51.22 17.0922C51.0321 17.4214 51.1487 17.8394 51.4803 18.0259C51.8118 18.2124 52.2329 18.0967 52.4207 17.7675Z" fill="#2846A6"/>
<path d="M52.1548 23.1848C51.9148 23.0657 51.6748 22.9168 51.4648 22.7083C51.6448 22.9168 51.8548 23.0955 52.0948 23.2742C52.3348 23.4231 52.5748 23.572 52.8148 23.6912C53.2648 23.8997 53.7749 24.0486 54.2849 24.1678C54.2849 24.0486 54.2849 23.8997 54.2849 23.7805C53.8049 23.7508 53.3548 23.6614 52.8748 23.5125C52.6648 23.4231 52.3948 23.304 52.1548 23.1848Z" fill="#18287D"/>
<path d="M42.3432 19.1042C41.1132 19.134 40.4832 21.1595 41.6232 21.8148C42.7632 22.4403 43.3632 21.3382 43.3932 20.8616C43.4232 20.7127 43.5732 19.1042 42.3432 19.1042Z" fill="#FD7B77"/>
<path d="M73.6631 41.5627C73.6631 41.5627 76.4531 54.4004 76.4231 57.6471C76.3931 60.8937 76.3331 64.1702 76.3331 64.1702H77.0531L77.1431 57.1407L80.2331 41.6819L73.6631 41.5627Z" fill="#E3E4FF"/>
<path d="M80.2331 41.6223L73.6631 41.533C73.6631 41.533 76.0931 52.7622 76.3931 56.8429H77.2031L80.2331 41.6223Z" fill="#E3E4FF"/>
<path d="M75.0137 46.239C75.7037 49.6644 76.5137 54.0727 76.7237 56.5151H76.9037L78.9437 46.239H75.0137Z" fill="#F3F0A5"/>
<path d="M76.7825 46.8943C76.882 46.8943 76.9625 46.8143 76.9625 46.7156C76.9625 46.6169 76.882 46.5369 76.7825 46.5369C76.6831 46.5369 76.6025 46.6169 76.6025 46.7156C76.6025 46.8143 76.6831 46.8943 76.7825 46.8943Z" fill="#FFE9B8"/>
<path d="M76.1832 48.0559C76.266 48.0559 76.3332 47.9892 76.3332 47.907C76.3332 47.8247 76.266 47.7581 76.1832 47.7581C76.1004 47.7581 76.0332 47.8247 76.0332 47.907C76.0332 47.9892 76.1004 48.0559 76.1832 48.0559Z" fill="#FFE9B8"/>
<path d="M77.1136 49.3667C77.213 49.3667 77.2936 49.2867 77.2936 49.188C77.2936 49.0893 77.213 49.0093 77.1136 49.0093C77.0142 49.0093 76.9336 49.0893 76.9336 49.188C76.9336 49.2867 77.0142 49.3667 77.1136 49.3667Z" fill="#FFE9B8"/>
<path d="M76.7541 50.5879C76.8038 50.5879 76.8441 50.5479 76.8441 50.4985C76.8441 50.4492 76.8038 50.4092 76.7541 50.4092C76.7044 50.4092 76.6641 50.4492 76.6641 50.4985C76.6641 50.5479 76.7044 50.5879 76.7541 50.5879Z" fill="#FFE9B8"/>
<path d="M76.8439 52.1963C76.8936 52.1963 76.9339 52.1163 76.9339 52.0176C76.9339 51.9189 76.8936 51.8389 76.8439 51.8389C76.7942 51.8389 76.7539 51.9189 76.7539 52.0176C76.7539 52.1163 76.7942 52.1963 76.8439 52.1963Z" fill="#FFE9B8"/>
<path d="M73.5439 65.1233L80.144 65.1829L77.054 64.1404H76.334L73.5439 65.1233Z" fill="#E3E4FF"/>
<path d="M40.9044 44.3328C40.9044 44.3328 37.6044 47.1923 38.7444 54.4302C40.2144 63.6936 51.8544 74.0293 55.0044 75.1314C58.1544 76.2334 70.8445 65.5403 72.9445 62.4426C72.9445 62.4426 76.3945 61.4597 78.2245 61.3108C78.9445 61.2512 79.5445 60.6555 79.5145 59.9406C79.4845 59.6725 79.4545 59.4045 79.3345 59.1662C79.3345 59.1662 79.6045 58.1237 78.9445 57.4982C78.9445 57.4982 78.9445 56.3961 78.6145 55.9791C78.2845 55.5621 76.9945 56.0982 74.5945 56.5748C74.4145 56.6046 71.8945 59.7023 71.2945 60.5959C70.6945 61.4895 61.0344 66.8211 57.9144 66.6424C54.8244 66.4637 48.2844 57.1407 48.2844 54.6387C48.2544 54.609 41.4144 44.2435 40.9044 44.3328Z" fill="#FD9B9B"/>
<path d="M39.5546 34.6523C32.9546 30.7205 28.7246 42.0093 28.7246 42.0093C28.7246 42.0093 34.1246 52.5237 38.1146 60.5063C41.3846 58.5107 45.7347 55.3832 49.2747 53.9832C46.0047 47.1623 42.2246 36.2309 39.5546 34.6523Z" fill="#DB064F"/>
<path d="M41.2925 75.2208C41.2925 75.2208 43.3325 72.7783 44.9225 72.7783C46.4825 72.7783 46.4225 73.0166 47.4125 73.0166C48.3725 73.0166 49.2725 73.0166 49.6625 73.4038C50.0525 73.791 49.6625 76.7994 49.6625 77.5143C49.6625 78.2291 47.8325 77.9908 47.4125 77.9908C46.9925 77.9908 45.8225 77.9908 44.8925 77.9908C43.9925 77.9908 43.3625 78.1993 42.8225 77.9908C42.2825 77.7823 41.0225 77.961 41.0225 77.961L41.2925 75.2208Z" fill="#FD5E5A"/>
<path d="M110.024 69.0253C109.094 69.2636 102.914 72.6591 103.034 73.3144C103.154 73.9697 106.214 72.3315 106.214 72.3315C106.214 72.3315 103.904 74.5059 104.174 75.1314C104.444 75.7866 107.054 72.9272 107.054 72.9272C107.054 72.9272 106.664 74.2378 106.514 75.1611C106.364 76.0547 106.424 77.3653 107.024 76.2036C107.624 75.0122 107.774 73.5229 108.404 73.1953C109.034 72.8676 109.604 73.1357 109.604 73.1357C109.604 73.1357 109.364 73.1953 108.854 73.6719C108.344 74.1782 107.144 77.1866 108.134 76.2036C108.884 75.459 110.684 72.6591 113.204 72.4506C113.474 72.4804 114.164 72.54 115.034 72.5996C114.704 71.3188 114.134 70.0678 113.504 68.787C112.334 68.7274 111.254 68.7274 110.024 69.0253Z" fill="#FD7B77"/>
</svg>
