<svg width="330" height="42" viewBox="0 0 330 42" fill="none" xmlns="http://www.w3.org/2000/svg">
<mask id="mask0" mask-type="alpha" maskUnits="userSpaceOnUse" x="0" y="0" width="94" height="40">
<rect width="94" height="40" fill="#C4C4C4"/>
</mask>
<g mask="url(#mask0)">
<path fill-rule="evenodd" clip-rule="evenodd" d="M79.826 16.8611C77.9673 13.2606 73.4578 11.9296 69.9397 13.943L59.1862 20.0971L69.5013 26.2368C72.1198 27.7954 75.4304 27.5815 77.8105 25.7L77.9429 25.5954C80.584 23.5076 81.3716 19.8547 79.826 16.8611ZM55.1338 22.4162L67.408 29.722C71.4914 32.1525 76.6541 31.8189 80.3659 28.8848L80.4983 28.7802C84.6601 25.4903 85.9012 19.7341 83.4657 15.0167C80.5367 9.34319 73.4307 7.24582 67.8869 10.4185L55.1611 17.7014L30.1144 2.7932L29.1363 2.31779C20.0753 -2.08632 9.1553 1.06277 3.91825 9.59011C-6.60919 26.7316 12.8892 46.5925 30.4044 36.5687L55.1338 22.4162ZM51.1088 20.0205L28.1706 6.36738L27.3491 5.9681C20.1863 2.48655 11.5537 4.97598 7.41372 11.717C-0.908447 25.2678 14.5054 40.9682 28.3516 33.0442L51.1088 20.0205Z" fill="white"/>
<path fill-rule="evenodd" clip-rule="evenodd" d="M14.174 23.1389C16.0327 26.7394 20.5422 28.0704 24.0603 26.057L34.8138 19.9029L24.4987 13.7631C21.8802 12.2046 18.5696 12.4185 16.1895 14.3L16.0571 14.4046C13.416 16.4924 12.6284 20.1453 14.174 23.1389ZM38.8662 17.5837L26.592 10.278C22.5086 7.84753 17.3459 8.18106 13.6341 11.1151L13.5017 11.2198C9.33991 14.5096 8.09884 20.2659 10.5343 24.9832C13.4633 30.6568 20.5693 32.7542 26.1131 29.5815L38.8389 22.2986L63.8856 37.2068L64.8637 37.6822C73.9247 42.0863 84.8447 38.9372 90.0818 30.4099C100.609 13.2684 81.1108 -6.59249 63.5956 3.43132L38.8662 17.5837ZM42.8912 19.9795L65.8294 33.6326L66.6509 34.0319C73.8137 37.5135 82.4463 35.024 86.5863 28.283C94.9084 14.7322 79.4946 -0.968246 65.6484 6.9558L42.8912 19.9795Z" fill="white"/>
<rect x="51.3311" y="19.894" width="4.03047" height="12" transform="rotate(60 51.3311 19.894)" fill="white"/>
</g>
<path d="M114.629 31.4531C114.629 31.6055 114.6 31.7871 114.541 31.998C114.494 32.209 114.371 32.4082 114.172 32.5957C113.984 32.7832 113.703 32.9414 113.328 33.0703C112.965 33.2109 112.473 33.2812 111.852 33.2812C111.23 33.2812 110.744 33.2051 110.393 33.0527C110.041 32.9121 109.777 32.7422 109.602 32.543C109.438 32.3438 109.332 32.1387 109.285 31.9277C109.25 31.7168 109.232 31.5469 109.232 31.418V8.74219C109.232 8.40234 109.15 8.10938 108.986 7.86328C108.834 7.60547 108.57 7.47656 108.195 7.47656C107.996 7.47656 107.82 7.51172 107.668 7.58203C107.527 7.64062 107.375 7.73438 107.211 7.86328L106.859 7.44141C107.129 7.21875 107.428 7.00195 107.756 6.79102C108.084 6.56836 108.441 6.375 108.828 6.21094C109.227 6.04688 109.648 5.91211 110.094 5.80664C110.539 5.70117 111.008 5.64844 111.5 5.64844C112.262 5.64844 112.854 5.75391 113.275 5.96484C113.697 6.16406 114.008 6.41602 114.207 6.7207C114.406 7.01367 114.523 7.33008 114.559 7.66992C114.605 7.99805 114.629 8.29102 114.629 8.54883V31.4531Z" fill="white"/>
<path d="M124.684 31.418C124.684 31.5703 124.654 31.7578 124.596 31.9805C124.549 32.1914 124.426 32.3965 124.227 32.5957C124.039 32.7832 123.764 32.9414 123.4 33.0703C123.037 33.2109 122.545 33.2812 121.924 33.2812C121.303 33.2812 120.816 33.2051 120.465 33.0527C120.113 32.9121 119.85 32.7422 119.674 32.543C119.498 32.3438 119.387 32.1387 119.34 31.9277C119.305 31.7168 119.287 31.5469 119.287 31.418V17.8477C119.287 17.5078 119.205 17.2148 119.041 16.9688C118.889 16.7109 118.625 16.582 118.25 16.582C118.051 16.582 117.881 16.6172 117.74 16.6875C117.6 16.7578 117.447 16.8574 117.283 16.9863L116.914 16.5469C117.184 16.3242 117.482 16.1074 117.811 15.8965C118.15 15.6738 118.514 15.4805 118.9 15.3164C119.287 15.1523 119.703 15.0176 120.148 14.9121C120.594 14.8066 121.062 14.7539 121.555 14.7539C122.316 14.7539 122.908 14.8594 123.33 15.0703C123.752 15.2695 124.062 15.5215 124.262 15.8262C124.461 16.1191 124.578 16.4355 124.613 16.7754C124.66 17.1152 124.684 17.4141 124.684 17.6719V31.418Z" fill="white"/>
<path d="M134.562 19.5352C134.973 18.9844 135.412 18.4277 135.881 17.8652C136.35 17.291 136.854 16.7754 137.393 16.3184C137.932 15.8613 138.518 15.4863 139.15 15.1934C139.783 14.9004 140.475 14.7539 141.225 14.7539C141.893 14.7539 142.449 14.8887 142.895 15.1582C143.34 15.416 143.697 15.7324 143.967 16.1074C144.248 16.4707 144.441 16.8516 144.547 17.25C144.664 17.6484 144.723 17.9883 144.723 18.2695C144.723 18.7852 144.652 19.3242 144.512 19.8867C144.383 20.4375 144.154 20.9883 143.826 21.5391C143.51 22.0781 143.082 22.6055 142.543 23.1211C142.004 23.625 141.324 24.0879 140.504 24.5098C141.605 26.8418 142.678 28.8516 143.721 30.5391C144.764 32.2148 145.766 33.5918 146.727 34.6699C147.699 35.7598 148.631 36.5625 149.521 37.0781C150.412 37.5938 151.262 37.8516 152.07 37.8516C152.211 37.8516 152.352 37.834 152.492 37.7988C152.633 37.7637 152.762 37.7227 152.879 37.6758C153.008 37.6289 153.143 37.5703 153.283 37.5L153.617 38.1152C153.301 38.291 152.979 38.4551 152.65 38.6074C152.322 38.7715 151.947 38.9121 151.525 39.0293C151.104 39.1465 150.617 39.2402 150.066 39.3105C149.516 39.3809 148.859 39.416 148.098 39.416C147.406 39.416 146.721 39.334 146.041 39.1699C145.373 39.0059 144.699 38.7129 144.02 38.291C143.34 37.8691 142.648 37.3066 141.945 36.6035C141.254 35.9004 140.539 35.0098 139.801 33.9316C139.074 32.8535 138.324 31.5703 137.551 30.082C136.777 28.5938 135.975 26.8535 135.143 24.8613C136.268 24.0293 137.152 23.2617 137.797 22.5586C138.441 21.8438 138.928 21.1992 139.256 20.625C139.584 20.0508 139.789 19.541 139.871 19.0957C139.953 18.6504 139.994 18.2695 139.994 17.9531C139.994 17.9062 139.988 17.8301 139.977 17.7246C139.965 17.6074 139.924 17.4961 139.854 17.3906C139.795 17.2852 139.701 17.1914 139.572 17.1094C139.455 17.0273 139.285 16.9863 139.062 16.9863C138.629 16.9863 138.189 17.1738 137.744 17.5488C137.299 17.9121 136.871 18.3691 136.461 18.9199C136.062 19.459 135.699 20.0449 135.371 20.6777C135.043 21.2988 134.773 21.8672 134.562 22.3828V31.4531C134.562 31.6055 134.533 31.7871 134.475 31.998C134.428 32.209 134.305 32.4082 134.105 32.5957C133.918 32.7832 133.637 32.9414 133.262 33.0703C132.898 33.2109 132.406 33.2812 131.785 33.2812C131.164 33.2812 130.678 33.2051 130.326 33.0527C129.975 32.9121 129.711 32.7422 129.535 32.543C129.371 32.3438 129.266 32.1387 129.219 31.9277C129.184 31.7168 129.166 31.5469 129.166 31.418V8.74219C129.166 8.40234 129.084 8.10938 128.92 7.86328C128.768 7.60547 128.504 7.47656 128.129 7.47656C127.93 7.47656 127.754 7.51172 127.602 7.58203C127.461 7.64062 127.309 7.73438 127.145 7.86328L126.793 7.44141C127.062 7.21875 127.361 7.00195 127.689 6.79102C128.018 6.56836 128.375 6.375 128.762 6.21094C129.16 6.04688 129.582 5.91211 130.027 5.80664C130.473 5.70117 130.941 5.64844 131.434 5.64844C132.195 5.64844 132.787 5.75391 133.209 5.96484C133.631 6.16406 133.941 6.41602 134.141 6.7207C134.34 7.01367 134.457 7.33008 134.492 7.66992C134.539 7.99805 134.562 8.29102 134.562 8.54883V19.5352Z" fill="white"/>
<path d="M152.439 24.9316C152.439 25.3066 152.492 25.7168 152.598 26.1621C152.715 26.5957 152.879 27.0352 153.09 27.4805C153.301 27.9258 153.559 28.3535 153.863 28.7637C154.18 29.1621 154.537 29.5195 154.936 29.8359C155.346 30.1523 155.797 30.4043 156.289 30.5918C156.781 30.7793 157.32 30.873 157.906 30.873C158.316 30.873 158.697 30.8262 159.049 30.7324C159.4 30.6387 159.729 30.5098 160.033 30.3457C160.338 30.1816 160.631 29.9941 160.912 29.7832C161.193 29.5605 161.475 29.3262 161.756 29.0801L162.195 29.502C161.926 29.8652 161.58 30.2637 161.158 30.6973C160.736 31.1309 160.227 31.541 159.629 31.9277C159.031 32.3027 158.334 32.6191 157.537 32.877C156.74 33.123 155.832 33.2461 154.812 33.2461C153.793 33.2461 152.797 33.0645 151.824 32.7012C150.863 32.3262 150.008 31.7695 149.258 31.0312C148.508 30.293 147.904 29.373 147.447 28.2715C147.002 27.1699 146.779 25.8809 146.779 24.4043C146.779 23.3379 146.914 22.3594 147.184 21.4688C147.453 20.5781 147.816 19.7754 148.273 19.0605C148.742 18.3457 149.281 17.7188 149.891 17.1797C150.512 16.6406 151.162 16.1953 151.842 15.8438C152.521 15.4805 153.213 15.2109 153.916 15.0352C154.631 14.8477 155.316 14.7539 155.973 14.7539C156.84 14.7539 157.596 14.8477 158.24 15.0352C158.885 15.2227 159.418 15.4746 159.84 15.791C160.273 16.1074 160.596 16.4766 160.807 16.8984C161.018 17.3086 161.123 17.7422 161.123 18.1992C161.123 18.75 160.965 19.248 160.648 19.6934C160.332 20.127 159.91 20.5078 159.383 20.8359L152.439 24.9316ZM155.973 21.3633C156.125 21.2695 156.248 21.1816 156.342 21.0996C156.447 21.0059 156.529 20.9004 156.588 20.7832C156.646 20.6543 156.688 20.502 156.711 20.3262C156.746 20.1387 156.764 19.9102 156.764 19.6406C156.764 19.3477 156.729 19.0254 156.658 18.6738C156.6 18.3105 156.494 17.9707 156.342 17.6543C156.189 17.3379 155.996 17.0742 155.762 16.8633C155.527 16.6523 155.246 16.5469 154.918 16.5469C154.496 16.5469 154.133 16.6758 153.828 16.9336C153.535 17.1797 153.289 17.502 153.09 17.9004C152.902 18.2988 152.75 18.7559 152.633 19.2715C152.527 19.7754 152.445 20.2852 152.387 20.8008C152.328 21.3164 152.293 21.8145 152.281 22.2949C152.27 22.7637 152.264 23.1621 152.264 23.4902L155.973 21.3633Z" fill="white"/>
<path d="M172.479 23.8945C172.479 23.6016 172.385 23.3789 172.197 23.2266C172.01 23.0742 171.77 22.998 171.477 22.998C171.066 22.998 170.674 23.0918 170.299 23.2793C169.936 23.4668 169.613 23.7422 169.332 24.1055C169.051 24.4688 168.828 24.9199 168.664 25.459C168.5 25.9863 168.418 26.6016 168.418 27.3047C168.418 27.9844 168.465 28.5469 168.559 28.9922C168.664 29.4375 168.799 29.7949 168.963 30.0645C169.139 30.3223 169.338 30.5039 169.561 30.6094C169.783 30.7148 170.018 30.7676 170.264 30.7676C170.568 30.7676 170.855 30.6914 171.125 30.5391C171.395 30.375 171.629 30.1699 171.828 29.9238C172.027 29.6777 172.186 29.4023 172.303 29.0977C172.42 28.793 172.479 28.4883 172.479 28.1836V23.8945ZM169.684 16.1953C169.285 16.1953 168.916 16.2422 168.576 16.3359C168.236 16.4297 167.943 16.5469 167.697 16.6875C167.451 16.8281 167.258 16.9863 167.117 17.1621C166.977 17.3262 166.906 17.4844 166.906 17.6367C166.906 17.8125 166.994 17.9414 167.17 18.0234C167.357 18.0938 167.562 18.1816 167.785 18.2871C168.008 18.3809 168.207 18.5215 168.383 18.709C168.57 18.8848 168.664 19.1602 168.664 19.5352C168.664 19.7812 168.611 20.0098 168.506 20.2207C168.412 20.4199 168.277 20.6016 168.102 20.7656C167.938 20.918 167.738 21.041 167.504 21.1348C167.281 21.2168 167.047 21.2578 166.801 21.2578C166.145 21.2578 165.611 21.0352 165.201 20.5898C164.803 20.1445 164.604 19.5527 164.604 18.8145C164.604 18.0996 164.791 17.4902 165.166 16.9863C165.541 16.4707 166.027 16.0488 166.625 15.7207C167.234 15.3926 167.92 15.1523 168.682 15C169.443 14.8359 170.205 14.7539 170.967 14.7539C171.881 14.7539 172.754 14.8535 173.586 15.0527C174.418 15.252 175.15 15.5684 175.783 16.002C176.428 16.4355 176.938 16.9863 177.312 17.6543C177.699 18.3223 177.893 19.1309 177.893 20.0801V30.0117C177.893 30.1172 177.898 30.2344 177.91 30.3633C177.922 30.4922 177.951 30.6094 177.998 30.7148C178.045 30.8203 178.115 30.9082 178.209 30.9785C178.303 31.0488 178.438 31.084 178.613 31.084C178.824 31.084 179.018 31.0078 179.193 30.8555C179.381 30.6914 179.545 30.5273 179.686 30.3633L180.125 30.7324C179.949 30.9785 179.738 31.248 179.492 31.541C179.246 31.834 178.947 32.1094 178.596 32.3672C178.244 32.625 177.834 32.8418 177.365 33.0176C176.896 33.1934 176.363 33.2812 175.766 33.2812C175.027 33.2812 174.371 33.0645 173.797 32.6309C173.223 32.1855 172.848 31.5059 172.672 30.5918C172.297 31.0957 171.904 31.5176 171.494 31.8574C171.096 32.1973 170.686 32.4727 170.264 32.6836C169.842 32.8945 169.414 33.0469 168.98 33.1406C168.559 33.2344 168.131 33.2812 167.697 33.2812C167.135 33.2812 166.59 33.1934 166.062 33.0176C165.535 32.8418 165.061 32.5664 164.639 32.1914C164.229 31.8047 163.895 31.3066 163.637 30.6973C163.391 30.0879 163.268 29.3438 163.268 28.4648C163.268 27.3984 163.479 26.5254 163.9 25.8457C164.322 25.166 164.873 24.5977 165.553 24.1406C166.244 23.6719 167.023 23.2734 167.891 22.9453C168.77 22.6172 169.666 22.2715 170.58 21.9082C171.26 21.6387 171.752 21.2402 172.057 20.7129C172.373 20.1738 172.531 19.623 172.531 19.0605C172.531 18.1934 172.273 17.502 171.758 16.9863C171.254 16.459 170.562 16.1953 169.684 16.1953Z" fill="white"/>
<path d="M192.395 24.2461C192.395 23.2266 192.342 22.2715 192.236 21.3809C192.131 20.4785 191.961 19.6934 191.727 19.0254C191.492 18.3457 191.193 17.8125 190.83 17.4258C190.467 17.0273 190.027 16.8281 189.512 16.8281C189.113 16.8281 188.773 16.9277 188.492 17.127C188.223 17.3145 188 17.5312 187.824 17.7773C187.648 18.0234 187.52 18.2695 187.438 18.5156C187.355 18.75 187.314 18.9082 187.314 18.9902V24.2461C187.314 26.8008 187.525 28.6582 187.947 29.8184C188.381 30.9785 189.014 31.5586 189.846 31.5586C190.725 31.5586 191.369 30.9668 191.779 29.7832C192.189 28.5996 192.395 26.7539 192.395 24.2461ZM181.918 8.74219C181.918 8.40234 181.836 8.10938 181.672 7.86328C181.52 7.60547 181.256 7.47656 180.881 7.47656C180.682 7.47656 180.506 7.51172 180.354 7.58203C180.213 7.64062 180.061 7.73438 179.896 7.86328L179.545 7.44141C179.814 7.21875 180.113 7.00195 180.441 6.79102C180.781 6.56836 181.145 6.375 181.531 6.21094C181.918 6.04688 182.334 5.91211 182.779 5.80664C183.225 5.70117 183.693 5.64844 184.186 5.64844C184.865 5.64844 185.41 5.75391 185.82 5.96484C186.242 6.16406 186.559 6.41602 186.77 6.7207C186.992 7.01367 187.139 7.33594 187.209 7.6875C187.279 8.02734 187.314 8.34375 187.314 8.63672V16.4766C187.455 16.3477 187.637 16.1895 187.859 16.002C188.082 15.8027 188.363 15.6094 188.703 15.4219C189.043 15.2344 189.447 15.0762 189.916 14.9473C190.396 14.8184 190.959 14.7539 191.604 14.7539C192.354 14.7539 193.104 14.9297 193.854 15.2812C194.604 15.6211 195.277 16.1602 195.875 16.8984C196.473 17.6367 196.959 18.5859 197.334 19.7461C197.709 20.9062 197.896 22.3008 197.896 23.9297C197.896 25.207 197.721 26.4141 197.369 27.5508C197.029 28.6875 196.52 29.6836 195.84 30.5391C195.16 31.3828 194.311 32.0508 193.291 32.543C192.271 33.0352 191.088 33.2812 189.74 33.2812C188.275 33.2812 187.039 33.0469 186.031 32.5781C185.035 32.0977 184.232 31.459 183.623 30.6621C183.014 29.8535 182.574 28.916 182.305 27.8496C182.047 26.7832 181.918 25.6582 181.918 24.4746V8.74219Z" fill="white"/>
<path d="M206.738 31.4531C206.738 31.6055 206.709 31.7871 206.65 31.998C206.604 32.209 206.48 32.4082 206.281 32.5957C206.094 32.7832 205.812 32.9414 205.438 33.0703C205.074 33.2109 204.582 33.2812 203.961 33.2812C203.34 33.2812 202.854 33.2051 202.502 33.0527C202.15 32.9121 201.887 32.7422 201.711 32.543C201.547 32.3438 201.441 32.1387 201.395 31.9277C201.359 31.7168 201.342 31.5469 201.342 31.418V8.74219C201.342 8.40234 201.26 8.10938 201.096 7.86328C200.943 7.60547 200.68 7.47656 200.305 7.47656C200.105 7.47656 199.93 7.51172 199.777 7.58203C199.637 7.64062 199.484 7.73438 199.32 7.86328L198.969 7.44141C199.238 7.21875 199.537 7.00195 199.865 6.79102C200.193 6.56836 200.551 6.375 200.938 6.21094C201.336 6.04688 201.758 5.91211 202.203 5.80664C202.648 5.70117 203.117 5.64844 203.609 5.64844C204.371 5.64844 204.963 5.75391 205.385 5.96484C205.807 6.16406 206.117 6.41602 206.316 6.7207C206.516 7.01367 206.633 7.33008 206.668 7.66992C206.715 7.99805 206.738 8.29102 206.738 8.54883V31.4531Z" fill="white"/>
<path d="M215.721 24.9316C215.721 25.3066 215.773 25.7168 215.879 26.1621C215.996 26.5957 216.16 27.0352 216.371 27.4805C216.582 27.9258 216.84 28.3535 217.145 28.7637C217.461 29.1621 217.818 29.5195 218.217 29.8359C218.627 30.1523 219.078 30.4043 219.57 30.5918C220.062 30.7793 220.602 30.873 221.188 30.873C221.598 30.873 221.979 30.8262 222.33 30.7324C222.682 30.6387 223.01 30.5098 223.314 30.3457C223.619 30.1816 223.912 29.9941 224.193 29.7832C224.475 29.5605 224.756 29.3262 225.037 29.0801L225.477 29.502C225.207 29.8652 224.861 30.2637 224.439 30.6973C224.018 31.1309 223.508 31.541 222.91 31.9277C222.312 32.3027 221.615 32.6191 220.818 32.877C220.021 33.123 219.113 33.2461 218.094 33.2461C217.074 33.2461 216.078 33.0645 215.105 32.7012C214.145 32.3262 213.289 31.7695 212.539 31.0312C211.789 30.293 211.186 29.373 210.729 28.2715C210.283 27.1699 210.061 25.8809 210.061 24.4043C210.061 23.3379 210.195 22.3594 210.465 21.4688C210.734 20.5781 211.098 19.7754 211.555 19.0605C212.023 18.3457 212.562 17.7188 213.172 17.1797C213.793 16.6406 214.443 16.1953 215.123 15.8438C215.803 15.4805 216.494 15.2109 217.197 15.0352C217.912 14.8477 218.598 14.7539 219.254 14.7539C220.121 14.7539 220.877 14.8477 221.521 15.0352C222.166 15.2227 222.699 15.4746 223.121 15.791C223.555 16.1074 223.877 16.4766 224.088 16.8984C224.299 17.3086 224.404 17.7422 224.404 18.1992C224.404 18.75 224.246 19.248 223.93 19.6934C223.613 20.127 223.191 20.5078 222.664 20.8359L215.721 24.9316ZM219.254 21.3633C219.406 21.2695 219.529 21.1816 219.623 21.0996C219.729 21.0059 219.811 20.9004 219.869 20.7832C219.928 20.6543 219.969 20.502 219.992 20.3262C220.027 20.1387 220.045 19.9102 220.045 19.6406C220.045 19.3477 220.01 19.0254 219.939 18.6738C219.881 18.3105 219.775 17.9707 219.623 17.6543C219.471 17.3379 219.277 17.0742 219.043 16.8633C218.809 16.6523 218.527 16.5469 218.199 16.5469C217.777 16.5469 217.414 16.6758 217.109 16.9336C216.816 17.1797 216.57 17.502 216.371 17.9004C216.184 18.2988 216.031 18.7559 215.914 19.2715C215.809 19.7754 215.727 20.2852 215.668 20.8008C215.609 21.3164 215.574 21.8145 215.562 22.2949C215.551 22.7637 215.545 23.1621 215.545 23.4902L219.254 21.3633Z" fill="white"/>
<path d="M245.727 23.4551C245.727 23.3262 245.727 23.0684 245.727 22.6816C245.727 22.2832 245.715 21.832 245.691 21.3281C245.668 20.8125 245.627 20.2676 245.568 19.6934C245.51 19.1191 245.416 18.5859 245.287 18.0938C245.006 17.7305 244.689 17.4082 244.338 17.127C243.998 16.834 243.559 16.6875 243.02 16.6875C242.105 16.6875 241.432 17.2852 240.998 18.4805C240.576 19.6758 240.365 21.5273 240.365 24.0352C240.365 25.1367 240.412 26.1445 240.506 27.0586C240.611 27.9727 240.764 28.7578 240.963 29.4141C241.174 30.0703 241.438 30.5801 241.754 30.9434C242.082 31.3066 242.469 31.4883 242.914 31.4883C244.789 31.4883 245.727 28.8105 245.727 23.4551ZM245.516 15.7207C245.293 14.5488 244.982 13.459 244.584 12.4512C244.186 11.4316 243.705 10.5527 243.143 9.81445C242.592 9.07617 241.959 8.49609 241.244 8.07422C240.541 7.65234 239.779 7.44141 238.959 7.44141C238.49 7.44141 238.062 7.5 237.676 7.61719C237.301 7.73438 236.973 7.875 236.691 8.03906C236.41 8.19141 236.176 8.34375 235.988 8.49609C235.812 8.63672 235.684 8.74219 235.602 8.8125L235.145 8.19727C235.426 7.83398 235.766 7.49414 236.164 7.17773C236.574 6.86133 237.02 6.5918 237.5 6.36914C237.98 6.14648 238.484 5.9707 239.012 5.8418C239.551 5.71289 240.084 5.64844 240.611 5.64844C242.346 5.64844 243.869 6.0293 245.182 6.79102C246.494 7.54102 247.59 8.60742 248.469 9.99023C249.348 11.373 250.01 13.043 250.455 15C250.9 16.957 251.123 19.1309 251.123 21.5215C251.123 23.4551 250.924 25.1543 250.525 26.6191C250.139 28.084 249.582 29.3145 248.855 30.3105C248.129 31.2949 247.244 32.0391 246.201 32.543C245.17 33.0352 244.004 33.2812 242.703 33.2812C241.801 33.2812 240.881 33.123 239.943 32.8066C239.018 32.4785 238.174 31.9512 237.412 31.2246C236.662 30.498 236.047 29.5488 235.566 28.377C235.086 27.1934 234.846 25.7461 234.846 24.0352C234.846 22.5586 235.051 21.2461 235.461 20.0977C235.883 18.9492 236.445 17.9824 237.148 17.1973C237.852 16.4004 238.666 15.7969 239.592 15.3867C240.518 14.9648 241.496 14.7539 242.527 14.7539C242.926 14.7539 243.283 14.7891 243.6 14.8594C243.916 14.918 244.191 14.9941 244.426 15.0879C244.66 15.1816 244.865 15.2871 245.041 15.4043C245.217 15.5098 245.375 15.6152 245.516 15.7207Z" fill="white"/>
<path d="M262.057 23.8945C262.057 23.6016 261.963 23.3789 261.775 23.2266C261.588 23.0742 261.348 22.998 261.055 22.998C260.645 22.998 260.252 23.0918 259.877 23.2793C259.514 23.4668 259.191 23.7422 258.91 24.1055C258.629 24.4688 258.406 24.9199 258.242 25.459C258.078 25.9863 257.996 26.6016 257.996 27.3047C257.996 27.9844 258.043 28.5469 258.137 28.9922C258.242 29.4375 258.377 29.7949 258.541 30.0645C258.717 30.3223 258.916 30.5039 259.139 30.6094C259.361 30.7148 259.596 30.7676 259.842 30.7676C260.146 30.7676 260.434 30.6914 260.703 30.5391C260.973 30.375 261.207 30.1699 261.406 29.9238C261.605 29.6777 261.764 29.4023 261.881 29.0977C261.998 28.793 262.057 28.4883 262.057 28.1836V23.8945ZM259.262 16.1953C258.863 16.1953 258.494 16.2422 258.154 16.3359C257.814 16.4297 257.521 16.5469 257.275 16.6875C257.029 16.8281 256.836 16.9863 256.695 17.1621C256.555 17.3262 256.484 17.4844 256.484 17.6367C256.484 17.8125 256.572 17.9414 256.748 18.0234C256.936 18.0938 257.141 18.1816 257.363 18.2871C257.586 18.3809 257.785 18.5215 257.961 18.709C258.148 18.8848 258.242 19.1602 258.242 19.5352C258.242 19.7812 258.189 20.0098 258.084 20.2207C257.99 20.4199 257.855 20.6016 257.68 20.7656C257.516 20.918 257.316 21.041 257.082 21.1348C256.859 21.2168 256.625 21.2578 256.379 21.2578C255.723 21.2578 255.189 21.0352 254.779 20.5898C254.381 20.1445 254.182 19.5527 254.182 18.8145C254.182 18.0996 254.369 17.4902 254.744 16.9863C255.119 16.4707 255.605 16.0488 256.203 15.7207C256.812 15.3926 257.498 15.1523 258.26 15C259.021 14.8359 259.783 14.7539 260.545 14.7539C261.459 14.7539 262.332 14.8535 263.164 15.0527C263.996 15.252 264.729 15.5684 265.361 16.002C266.006 16.4355 266.516 16.9863 266.891 17.6543C267.277 18.3223 267.471 19.1309 267.471 20.0801V30.0117C267.471 30.1172 267.477 30.2344 267.488 30.3633C267.5 30.4922 267.529 30.6094 267.576 30.7148C267.623 30.8203 267.693 30.9082 267.787 30.9785C267.881 31.0488 268.016 31.084 268.191 31.084C268.402 31.084 268.596 31.0078 268.771 30.8555C268.959 30.6914 269.123 30.5273 269.264 30.3633L269.703 30.7324C269.527 30.9785 269.316 31.248 269.07 31.541C268.824 31.834 268.525 32.1094 268.174 32.3672C267.822 32.625 267.412 32.8418 266.943 33.0176C266.475 33.1934 265.941 33.2812 265.344 33.2812C264.605 33.2812 263.949 33.0645 263.375 32.6309C262.801 32.1855 262.426 31.5059 262.25 30.5918C261.875 31.0957 261.482 31.5176 261.072 31.8574C260.674 32.1973 260.264 32.4727 259.842 32.6836C259.42 32.8945 258.992 33.0469 258.559 33.1406C258.137 33.2344 257.709 33.2812 257.275 33.2812C256.713 33.2812 256.168 33.1934 255.641 33.0176C255.113 32.8418 254.639 32.5664 254.217 32.1914C253.807 31.8047 253.473 31.3066 253.215 30.6973C252.969 30.0879 252.846 29.3438 252.846 28.4648C252.846 27.3984 253.057 26.5254 253.479 25.8457C253.9 25.166 254.451 24.5977 255.131 24.1406C255.822 23.6719 256.602 23.2734 257.469 22.9453C258.348 22.6172 259.244 22.2715 260.158 21.9082C260.838 21.6387 261.33 21.2402 261.635 20.7129C261.951 20.1738 262.109 19.623 262.109 19.0605C262.109 18.1934 261.852 17.502 261.336 16.9863C260.832 16.459 260.141 16.1953 259.262 16.1953Z" fill="white"/>
<path d="M277.771 16.2656V29.2559C277.771 29.877 277.889 30.3105 278.123 30.5566C278.357 30.791 278.68 30.9082 279.09 30.9082C279.406 30.9082 279.688 30.8203 279.934 30.6445C280.18 30.4688 280.391 30.2695 280.566 30.0469C280.777 29.8008 280.959 29.5137 281.111 29.1855L281.656 29.4316C281.48 29.8066 281.27 30.2168 281.023 30.6621C280.789 31.1074 280.473 31.5234 280.074 31.9102C279.676 32.2852 279.172 32.6016 278.562 32.8594C277.965 33.1172 277.209 33.2461 276.295 33.2461C275.779 33.2461 275.281 33.1699 274.801 33.0176C274.332 32.8652 273.91 32.625 273.535 32.2969C273.172 31.9688 272.879 31.5586 272.656 31.0664C272.434 30.5742 272.322 29.9824 272.322 29.291V16.2656H270.354V15C270.682 15 271.139 14.918 271.725 14.7539C272.311 14.5781 272.908 14.291 273.518 13.8926C274.139 13.4941 274.713 12.9609 275.24 12.293C275.768 11.625 276.143 10.7988 276.365 9.81445H277.771V15H280.637C281.574 15 282.043 14.8418 282.043 14.5254C282.043 14.4082 281.984 14.332 281.867 14.2969C281.75 14.25 281.615 14.1973 281.463 14.1387C281.322 14.0684 281.193 13.9746 281.076 13.8574C280.959 13.7402 280.9 13.5469 280.9 13.2773C280.9 12.9492 281 12.6914 281.199 12.5039C281.41 12.3164 281.68 12.2227 282.008 12.2227C282.219 12.2227 282.4 12.2695 282.553 12.3633C282.717 12.4453 282.852 12.5625 282.957 12.7148C283.062 12.8555 283.139 13.0195 283.186 13.207C283.244 13.3945 283.273 13.582 283.273 13.7695C283.273 14.5312 283.051 15.1406 282.605 15.5977C282.172 16.043 281.469 16.2656 280.496 16.2656H277.771Z" fill="white"/>
<path d="M290.164 31.418C290.164 31.5703 290.135 31.7578 290.076 31.9805C290.029 32.1914 289.906 32.3965 289.707 32.5957C289.52 32.7832 289.244 32.9414 288.881 33.0703C288.518 33.2109 288.025 33.2812 287.404 33.2812C286.783 33.2812 286.297 33.2051 285.945 33.0527C285.594 32.9121 285.33 32.7422 285.154 32.543C284.979 32.3438 284.867 32.1387 284.82 31.9277C284.785 31.7168 284.768 31.5469 284.768 31.418V17.8477C284.768 17.5078 284.686 17.2148 284.521 16.9688C284.369 16.7109 284.105 16.582 283.73 16.582C283.531 16.582 283.361 16.6172 283.221 16.6875C283.08 16.7578 282.928 16.8574 282.764 16.9863L282.395 16.5469C282.664 16.3242 282.963 16.1074 283.291 15.8965C283.631 15.6738 283.994 15.4805 284.381 15.3164C284.768 15.1523 285.184 15.0176 285.629 14.9121C286.074 14.8066 286.543 14.7539 287.035 14.7539C287.797 14.7539 288.389 14.8594 288.811 15.0703C289.232 15.2695 289.543 15.5215 289.742 15.8262C289.941 16.1191 290.059 16.4355 290.094 16.7754C290.141 17.1152 290.164 17.4141 290.164 17.6719V31.418Z" fill="white"/>
<path d="M304.947 24.2461C304.947 22.7695 304.877 21.5918 304.736 20.7129C304.607 19.8223 304.432 19.1484 304.209 18.6914C303.986 18.2227 303.74 17.918 303.471 17.7773C303.201 17.625 302.926 17.5488 302.645 17.5488C302.305 17.5488 302 17.6426 301.73 17.8301C301.473 18.0059 301.244 18.2109 301.045 18.4453C300.857 18.6797 300.693 18.9141 300.553 19.1484C300.424 19.3828 300.312 19.5586 300.219 19.6758V31.418C300.219 31.5703 300.195 31.7578 300.148 31.9805C300.102 32.1914 299.984 32.3965 299.797 32.5957C299.621 32.7832 299.352 32.9414 298.988 33.0703C298.637 33.2109 298.15 33.2812 297.529 33.2812C296.908 33.2812 296.416 33.2051 296.053 33.0527C295.701 32.9121 295.432 32.7422 295.244 32.543C295.057 32.3438 294.939 32.1387 294.893 31.9277C294.846 31.7168 294.822 31.5469 294.822 31.418V17.8477C294.822 17.5078 294.74 17.2148 294.576 16.9688C294.424 16.7109 294.16 16.582 293.785 16.582C293.586 16.582 293.416 16.6172 293.275 16.6875C293.135 16.7578 292.982 16.8574 292.818 16.9863L292.449 16.5469C292.719 16.3242 293.018 16.1074 293.346 15.8965C293.686 15.6738 294.049 15.4805 294.436 15.3164C294.822 15.1523 295.238 15.0176 295.684 14.9121C296.129 14.8066 296.598 14.7539 297.09 14.7539C297.852 14.7539 298.443 14.8828 298.865 15.1406C299.287 15.3867 299.598 15.6855 299.797 16.0371C299.996 16.3887 300.113 16.7578 300.148 17.1445C300.195 17.5195 300.219 17.8359 300.219 18.0938C300.652 17.4727 301.145 16.916 301.695 16.4238C301.918 16.2129 302.164 16.0078 302.434 15.8086C302.715 15.6094 303.008 15.4336 303.312 15.2812C303.629 15.1172 303.957 14.9883 304.297 14.8945C304.648 14.8008 305.006 14.7539 305.369 14.7539C306.166 14.7539 306.869 14.9062 307.479 15.2109C308.1 15.5156 308.621 16.0254 309.043 16.7402C309.465 17.4551 309.787 18.4043 310.01 19.5879C310.232 20.7598 310.344 22.2188 310.344 23.9648C310.344 25.6641 310.191 27.1406 309.887 28.3945C309.582 29.6484 309.184 30.7148 308.691 31.5938C308.199 32.4727 307.643 33.1875 307.021 33.7383C306.4 34.3008 305.773 34.7402 305.141 35.0566C304.508 35.373 303.898 35.5898 303.312 35.707C302.738 35.8359 302.24 35.9062 301.818 35.918L301.625 35.1973C301.977 35.1152 302.299 34.9863 302.592 34.8105C302.896 34.6348 303.172 34.377 303.418 34.0371C303.664 33.6973 303.881 33.2695 304.068 32.7539C304.256 32.2266 304.414 31.5703 304.543 30.7852C304.684 30 304.783 29.0742 304.842 28.0078C304.912 26.9297 304.947 25.6758 304.947 24.2461Z" fill="white"/>
<path d="M313.227 21.9434C313.227 20.748 313.432 19.7051 313.842 18.8145C314.264 17.9121 314.826 17.1621 315.529 16.5645C316.232 15.9551 317.047 15.5039 317.973 15.2109C318.898 14.9062 319.871 14.7539 320.891 14.7539C321.91 14.7539 322.877 14.8887 323.791 15.1582C324.705 15.4277 325.514 15.8438 326.217 16.4062C326.439 16.0664 326.621 15.709 326.762 15.334C326.902 14.959 326.973 14.584 326.973 14.209C326.973 13.7168 326.838 13.3242 326.568 13.0312C326.311 12.7383 325.977 12.5918 325.566 12.5918V12.082C325.824 12 326.053 11.9297 326.252 11.8711C326.451 11.8008 326.633 11.748 326.797 11.7129C326.961 11.6777 327.125 11.6543 327.289 11.6426C327.453 11.6191 327.635 11.6074 327.834 11.6074C328.385 11.6074 328.807 11.7773 329.1 12.1172C329.393 12.457 329.539 12.9258 329.539 13.5234C329.539 13.875 329.457 14.2266 329.293 14.5781C329.129 14.918 328.924 15.2461 328.678 15.5625C328.432 15.8789 328.156 16.1777 327.852 16.459C327.559 16.7402 327.277 16.9863 327.008 17.1973C327.5 17.7598 327.881 18.416 328.15 19.166C328.42 19.916 328.555 20.7715 328.555 21.7324C328.555 22.9395 328.344 24.0059 327.922 24.9316C327.512 25.8574 326.955 26.6367 326.252 27.2695C325.549 27.9023 324.734 28.3828 323.809 28.7109C322.883 29.0273 321.91 29.1855 320.891 29.1855C320.293 29.1855 319.707 29.1328 319.133 29.0273C318.559 28.9219 318.02 28.7695 317.516 28.5703C317.328 28.7109 317.164 28.8867 317.023 29.0977C316.895 29.3086 316.83 29.543 316.83 29.8008C316.83 30.2344 317.018 30.5566 317.393 30.7676C317.768 30.9785 318.266 31.1309 318.887 31.2246C319.508 31.3184 320.211 31.377 320.996 31.4004C321.781 31.4238 322.584 31.4648 323.404 31.5234C324.236 31.5703 325.045 31.6699 325.83 31.8223C326.615 31.9629 327.318 32.2031 327.939 32.543C328.561 32.8711 329.059 33.3223 329.434 33.8965C329.809 34.4707 329.996 35.2148 329.996 36.1289C329.996 36.7969 329.855 37.3945 329.574 37.9219C329.293 38.4609 328.912 38.9297 328.432 39.3281C327.963 39.7383 327.412 40.084 326.779 40.3652C326.158 40.6582 325.496 40.8926 324.793 41.0684C324.102 41.2559 323.393 41.3906 322.666 41.4727C321.951 41.5547 321.266 41.5957 320.609 41.5957C319.414 41.5957 318.336 41.5312 317.375 41.4023C316.426 41.2852 315.617 41.0977 314.949 40.8398C314.281 40.582 313.766 40.248 313.402 39.8379C313.039 39.4277 312.857 38.9355 312.857 38.3613C312.857 37.9512 312.951 37.5703 313.139 37.2188C313.326 36.8789 313.572 36.5625 313.877 36.2695C314.193 35.9883 314.545 35.7305 314.932 35.4961C315.318 35.2734 315.711 35.0625 316.109 34.8633C315.523 34.6172 315.031 34.2422 314.633 33.7383C314.246 33.2461 314.053 32.5898 314.053 31.7695C314.053 31.3359 314.129 30.9375 314.281 30.5742C314.434 30.1992 314.627 29.8594 314.861 29.5547C315.107 29.2383 315.371 28.957 315.652 28.7109C315.945 28.4531 316.227 28.2363 316.496 28.0605C316.016 27.7793 315.57 27.4395 315.16 27.041C314.762 26.6309 314.416 26.1738 314.123 25.6699C313.842 25.1543 313.619 24.5859 313.455 23.9648C313.303 23.3438 313.227 22.6699 313.227 21.9434ZM323.264 21.8027C323.264 21.123 323.229 20.4609 323.158 19.8164C323.088 19.1719 322.965 18.5977 322.789 18.0938C322.613 17.5898 322.373 17.1855 322.068 16.8809C321.764 16.5645 321.371 16.4062 320.891 16.4062C320.41 16.4062 320.018 16.5703 319.713 16.8984C319.408 17.2148 319.168 17.6367 318.992 18.1641C318.816 18.6797 318.693 19.2715 318.623 19.9395C318.553 20.5957 318.518 21.2637 318.518 21.9434C318.518 22.6348 318.553 23.3145 318.623 23.9824C318.693 24.6504 318.816 25.248 318.992 25.7754C319.168 26.3027 319.408 26.7305 319.713 27.0586C320.018 27.375 320.41 27.5332 320.891 27.5332C321.371 27.5332 321.764 27.3633 322.068 27.0234C322.373 26.6836 322.613 26.2441 322.789 25.7051C322.965 25.1543 323.088 24.5391 323.158 23.8594C323.229 23.1797 323.264 22.4941 323.264 21.8027ZM325.936 37.5352C325.936 37.1602 325.789 36.8496 325.496 36.6035C325.203 36.3691 324.816 36.1758 324.336 36.0234C323.867 35.8828 323.328 35.7715 322.719 35.6895C322.121 35.6191 321.512 35.5605 320.891 35.5137C320.27 35.4785 319.666 35.4434 319.08 35.4082C318.494 35.373 317.984 35.3262 317.551 35.2676C317.305 35.4434 317.064 35.6309 316.83 35.8301C316.607 36.041 316.408 36.2578 316.232 36.4805C316.068 36.7148 315.934 36.9551 315.828 37.2012C315.723 37.459 315.67 37.7168 315.67 37.9746C315.67 38.4199 315.799 38.7891 316.057 39.082C316.314 39.3867 316.66 39.627 317.094 39.8027C317.539 39.9785 318.049 40.1016 318.623 40.1719C319.209 40.2422 319.824 40.2773 320.469 40.2773C321.324 40.2773 322.092 40.2012 322.771 40.0488C323.451 39.9082 324.025 39.709 324.494 39.4512C324.963 39.2051 325.32 38.918 325.566 38.5898C325.812 38.2617 325.936 37.9102 325.936 37.5352Z" fill="white"/>
<path d="M121.5 13L121.01 12.5435C119.19 11.0435 118 10.0326 118 8.79348C118 7.78261 118.84 7 119.925 7C120.52 7 121.115 7.26087 121.5 7.68478C121.885 7.26087 122.48 7 123.075 7C124.16 7 125 7.78261 125 8.79348C125 10.0326 123.81 11.0435 121.99 12.5435L121.5 13Z" fill="white"/>
<path d="M287.5 13L287.01 12.5435C285.19 11.0435 284 10.0326 284 8.79348C284 7.78261 284.84 7 285.925 7C286.52 7 287.115 7.26087 287.5 7.68478C287.885 7.26087 288.48 7 289.075 7C290.16 7 291 7.78261 291 8.79348C291 10.0326 289.81 11.0435 287.99 12.5435L287.5 13Z" fill="white"/>
</svg>
