<svg width="35" height="38" viewBox="0 0 35 38" fill="none" xmlns="http://www.w3.org/2000/svg">
<path d="M5.92313 0.47793C4.95701 -0.103646 3.80558 -0.155651 2.80137 0.328507L19.6385 17.2015L25.1437 11.6707L5.92313 0.47793ZM1.25441 1.89012C1.042 2.33985 0.927734 2.84012 0.927734 3.35504V34.2196C0.927734 34.7367 1.04273 35.2296 1.25734 35.6698L18.0879 18.7595L1.25441 1.89012ZM19.6408 20.3152L2.83075 37.2051C3.27682 37.4116 3.75145 37.5017 4.22536 37.5017C4.81059 37.5017 5.39437 37.3618 5.9232 37.0439L25.1474 25.8343L19.6408 20.3152ZM32.464 15.9336C32.4574 15.9292 32.4501 15.9248 32.4435 15.9212L27.1068 12.8133L21.1907 18.7573L27.1104 24.6895C27.1104 24.6895 32.4574 21.5721 32.464 21.5685C33.4565 20.9657 34.049 19.9124 34.049 18.7507C34.049 17.589 33.4565 16.5357 32.464 15.9336Z" fill="#022D48"/>
</svg>
